<?xml version="1.0" encoding="utf-8" standalone="no"?>
<!DOCTYPE svg PUBLIC "-//W3C//DTD SVG 1.1//EN"
  "http://www.w3.org/Graphics/SVG/1.1/DTD/svg11.dtd">
<svg xmlns:xlink="http://www.w3.org/1999/xlink" width="823.5pt" height="469.008pt" viewBox="0 0 823.5 469.008" xmlns="http://www.w3.org/2000/svg" version="1.1">
 <metadata>
  <rdf:RDF xmlns:dc="http://purl.org/dc/elements/1.1/" xmlns:cc="http://creativecommons.org/ns#" xmlns:rdf="http://www.w3.org/1999/02/22-rdf-syntax-ns#">
   <cc:Work>
    <dc:type rdf:resource="http://purl.org/dc/dcmitype/StillImage"/>
    <dc:date>2026-04-16T21:15:36.167922</dc:date>
    <dc:format>image/svg+xml</dc:format>
    <dc:creator>
     <cc:Agent>
      <dc:title>Matplotlib v3.10.7, https://matplotlib.org/</dc:title>
     </cc:Agent>
    </dc:creator>
   </cc:Work>
  </rdf:RDF>
 </metadata>
 <defs>
  <style type="text/css">*{stroke-linejoin: round; stroke-linecap: butt}</style>
 </defs>
 <g id="figure_1">
  <g id="patch_1">
   <path d="M 0 469.008 
L 823.5 469.008 
L 823.5 -0 
L 0 -0 
z
" style="fill: #ffffff"/>
  </g>
  <g id="axes_1">
   <g id="patch_2">
    <path d="M 187.204997 159.49368 
Q 189.248699 159.49368 190.286171 159.49368 
" clip-path="url(#p1880a780ef)" style="fill: none; stroke: #111111; stroke-width: 0.9; stroke-linecap: round"/>
    <path d="M 187.086171 157.89368 
L 190.286171 159.49368 
L 187.086171 161.09368 
z
" clip-path="url(#p1880a780ef)" style="fill: #111111; stroke: #111111; stroke-width: 0.9; stroke-linecap: round"/>
   </g>
   <g id="patch_3">
    <path d="M 276.203034 159.49368 
Q 298.477426 159.49368 319.745588 159.49368 
" clip-path="url(#p1880a780ef)" style="fill: none; stroke-dasharray: 3.33,1.44; stroke-dashoffset: 0; stroke: #bdbdbd; stroke-width: 0.9; stroke-linecap: round"/>
    <path d="M 316.545588 157.89368 
L 319.745588 159.49368 
L 316.545588 161.09368 
z
" clip-path="url(#p1880a780ef)" style="fill: #bdbdbd; stroke-dasharray: 3.33,1.44; stroke-dashoffset: 0; stroke: #bdbdbd; stroke-width: 0.9; stroke-linecap: round"/>
   </g>
   <g id="patch_4">
    <path d="M 405.661997 159.49368 
Q 407.705699 159.49368 408.743171 159.49368 
" clip-path="url(#p1880a780ef)" style="fill: none; stroke: #111111; stroke-width: 0.9; stroke-linecap: round"/>
    <path d="M 405.543171 157.89368 
L 408.743171 159.49368 
L 405.543171 161.09368 
z
" clip-path="url(#p1880a780ef)" style="fill: #111111; stroke: #111111; stroke-width: 0.9; stroke-linecap: round"/>
   </g>
   <g id="patch_5">
    <path d="M 494.660034 159.49368 
Q 516.934426 159.49368 538.202588 159.49368 
" clip-path="url(#p1880a780ef)" style="fill: none; stroke-dasharray: 3.33,1.44; stroke-dashoffset: 0; stroke: #bdbdbd; stroke-width: 0.9; stroke-linecap: round"/>
    <path d="M 535.002588 157.89368 
L 538.202588 159.49368 
L 535.002588 161.09368 
z
" clip-path="url(#p1880a780ef)" style="fill: #bdbdbd; stroke-dasharray: 3.33,1.44; stroke-dashoffset: 0; stroke: #bdbdbd; stroke-width: 0.9; stroke-linecap: round"/>
   </g>
   <g id="patch_6">
    <path d="M 624.118997 159.49368 
Q 626.162699 159.49368 627.200171 159.49368 
" clip-path="url(#p1880a780ef)" style="fill: none; stroke: #111111; stroke-width: 0.9; stroke-linecap: round"/>
    <path d="M 624.000171 157.89368 
L 627.200171 159.49368 
L 624.000171 161.09368 
z
" clip-path="url(#p1880a780ef)" style="fill: #111111; stroke: #111111; stroke-width: 0.9; stroke-linecap: round"/>
   </g>
   <g id="patch_7">
    <path d="M 713.117034 159.49368 
Q 735.391426 159.49368 756.659588 159.49368 
" clip-path="url(#p1880a780ef)" style="fill: none; stroke-dasharray: 3.33,1.44; stroke-dashoffset: 0; stroke: #bdbdbd; stroke-width: 0.9; stroke-linecap: round"/>
    <path d="M 753.459588 157.89368 
L 756.659588 159.49368 
L 753.459588 161.09368 
z
" clip-path="url(#p1880a780ef)" style="fill: #bdbdbd; stroke-dasharray: 3.33,1.44; stroke-dashoffset: 0; stroke: #bdbdbd; stroke-width: 0.9; stroke-linecap: round"/>
   </g>
   <g id="patch_8">
    <path d="M 685.200608 160.619556 
Q 430.969879 -16.326816 147.503957 106.020844 
" clip-path="url(#p1880a780ef)" style="fill: none; stroke-dasharray: 3.33,1.44; stroke-dashoffset: 0; stroke: #bdbdbd; stroke-width: 0.9; stroke-linecap: round"/>
    <path d="M 151.07602 106.221765 
L 147.503957 106.020844 
L 149.807932 103.283747 
z
" clip-path="url(#p1880a780ef)" style="fill: #bdbdbd; stroke-dasharray: 3.33,1.44; stroke-dashoffset: 0; stroke: #bdbdbd; stroke-width: 0.9; stroke-linecap: round"/>
   </g>
   <g id="line2d_1">
    <path d="M 63.837 225.41184 
L 759.663 225.41184 
" clip-path="url(#p1880a780ef)" style="fill: none; stroke: #111111; stroke-linecap: round"/>
   </g>
   <g id="patch_9">
    <path d="M 117.2376 184.49712 
L 172.2564 184.49712 
Q 193.293 184.49712 193.293 172.677312 
L 193.293 146.310048 
Q 193.293 134.49024 172.2564 134.49024 
L 117.2376 134.49024 
Q 96.201 134.49024 96.201 146.310048 
L 96.201 172.677312 
Q 96.201 184.49712 117.2376 184.49712 
z
" clip-path="url(#p1880a780ef)" style="fill: #f7f7f7; stroke: #111111; stroke-linejoin: miter"/>
   </g>
   <g id="patch_10">
    <path d="M 206.2386 184.49712 
L 261.2574 184.49712 
Q 282.294 184.49712 282.294 172.677312 
L 282.294 146.310048 
Q 282.294 134.49024 261.2574 134.49024 
L 206.2386 134.49024 
Q 185.202 134.49024 185.202 146.310048 
L 185.202 172.677312 
Q 185.202 184.49712 206.2386 184.49712 
z
" clip-path="url(#p1880a780ef)" style="fill: #e6e6e6; stroke: #111111; stroke-linejoin: miter"/>
   </g>
   <g id="line2d_2">
    <path d="M 144.747 225.41184 
L 233.748 225.41184 
" clip-path="url(#p1880a780ef)" style="fill: none; stroke: #bdbdbd; stroke-width: 1.2; stroke-linecap: round"/>
   </g>
   <g id="line2d_3">
    <path d="M 128.565 243.59616 
L 169.02 252.68832 
" clip-path="url(#p1880a780ef)" style="fill: none; stroke: #1a1a1a; stroke-width: 1.2; stroke-linecap: round"/>
   </g>
   <g id="line2d_4">
    <path d="M 209.475 261.78048 
L 258.021 270.87264 
" clip-path="url(#p1880a780ef)" style="fill: none; stroke: #555555; stroke-width: 1.2; stroke-linecap: round"/>
   </g>
   <g id="patch_11">
    <path d="M 335.6946 184.49712 
L 390.7134 184.49712 
Q 411.75 184.49712 411.75 172.677312 
L 411.75 146.310048 
Q 411.75 134.49024 390.7134 134.49024 
L 335.6946 134.49024 
Q 314.658 134.49024 314.658 146.310048 
L 314.658 172.677312 
Q 314.658 184.49712 335.6946 184.49712 
z
" clip-path="url(#p1880a780ef)" style="fill: #f7f7f7; stroke: #111111; stroke-linejoin: miter"/>
   </g>
   <g id="patch_12">
    <path d="M 424.6956 184.49712 
L 479.7144 184.49712 
Q 500.751 184.49712 500.751 172.677312 
L 500.751 146.310048 
Q 500.751 134.49024 479.7144 134.49024 
L 424.6956 134.49024 
Q 403.659 134.49024 403.659 146.310048 
L 403.659 172.677312 
Q 403.659 184.49712 424.6956 184.49712 
z
" clip-path="url(#p1880a780ef)" style="fill: #e6e6e6; stroke: #111111; stroke-linejoin: miter"/>
   </g>
   <g id="line2d_5">
    <path d="M 363.204 225.41184 
L 452.205 225.41184 
" clip-path="url(#p1880a780ef)" style="fill: none; stroke: #bdbdbd; stroke-width: 1.2; stroke-linecap: round"/>
   </g>
   <g id="line2d_6">
    <path d="M 347.022 225.41184 
L 387.477 234.504 
" clip-path="url(#p1880a780ef)" style="fill: none; stroke: #1a1a1a; stroke-width: 1.2; stroke-linecap: round"/>
   </g>
   <g id="line2d_7">
    <path d="M 427.932 225.41184 
L 476.478 234.504 
" clip-path="url(#p1880a780ef)" style="fill: none; stroke: #555555; stroke-width: 1.2; stroke-linecap: round"/>
   </g>
   <g id="patch_13">
    <path d="M 554.1516 184.49712 
L 609.1704 184.49712 
Q 630.207 184.49712 630.207 172.677312 
L 630.207 146.310048 
Q 630.207 134.49024 609.1704 134.49024 
L 554.1516 134.49024 
Q 533.115 134.49024 533.115 146.310048 
L 533.115 172.677312 
Q 533.115 184.49712 554.1516 184.49712 
z
" clip-path="url(#p1880a780ef)" style="fill: #f7f7f7; stroke: #111111; stroke-linejoin: miter"/>
   </g>
   <g id="patch_14">
    <path d="M 643.1526 184.49712 
L 698.1714 184.49712 
Q 719.208 184.49712 719.208 172.677312 
L 719.208 146.310048 
Q 719.208 134.49024 698.1714 134.49024 
L 643.1526 134.49024 
Q 622.116 134.49024 622.116 146.310048 
L 622.116 172.677312 
Q 622.116 184.49712 643.1526 184.49712 
z
" clip-path="url(#p1880a780ef)" style="fill: #e6e6e6; stroke: #111111; stroke-linejoin: miter"/>
   </g>
   <g id="line2d_8">
    <path d="M 581.661 225.41184 
L 670.662 225.41184 
" clip-path="url(#p1880a780ef)" style="fill: none; stroke: #bdbdbd; stroke-width: 1.2; stroke-linecap: round"/>
   </g>
   <g id="line2d_9">
    <path d="M 565.479 207.22752 
L 605.934 216.31968 
" clip-path="url(#p1880a780ef)" style="fill: none; stroke: #1a1a1a; stroke-width: 1.2; stroke-linecap: round"/>
   </g>
   <g id="line2d_10">
    <path d="M 646.389 189.0432 
L 694.935 198.13536 
" clip-path="url(#p1880a780ef)" style="fill: none; stroke: #555555; stroke-width: 1.2; stroke-linecap: round"/>
   </g>
   <g id="line2d_11">
    <path d="M 80.019 325.4256 
L 201.384 307.24128 
L 411.75 243.59616 
L 630.207 198.13536 
L 735.39 161.76672 
" clip-path="url(#p1880a780ef)" style="fill: none; stroke: #1a1a1a; stroke-width: 2.5; stroke-linecap: square"/>
   </g>
   <g id="text_1">
    <text style="font-weight: 700; font-size: 18px; font-family: 'Source Han Sans CN', 'Noto Sans CJK SC', 'Microsoft YaHei UI', 'Microsoft YaHei', 'PingFang SC', 'Heiti SC', 'SimHei', 'DejaVu Sans', sans-serif; text-anchor: start; fill: #101010" x="31.473" y="44.31915" transform="rotate(-0 31.473 44.31915)">图6 滚动重规划执行示意图</text>
   </g>
   <g id="text_2">
    <text style="font-size: 10.6px; font-family: 'Source Han Sans CN', 'Noto Sans CJK SC', 'Microsoft YaHei UI', 'Microsoft YaHei', 'PingFang SC', 'Heiti SC', 'SimHei', 'DejaVu Sans', sans-serif; text-anchor: start; fill: #3d3d3d" x="31.473" y="56.588095" transform="rotate(-0 31.473 56.588095)">规划周期 350 由局部规划时域 270 和执行时域 280 组成；每次只执行代表轨迹前段，再触发下一轮规划。</text>
   </g>
   <g id="text_3">
    <text style="font-size: 10.2px; font-family: 'Source Han Sans CN', 'Noto Sans CJK SC', 'Microsoft YaHei UI', 'Microsoft YaHei', 'PingFang SC', 'Heiti SC', 'SimHei', 'DejaVu Sans', sans-serif; text-anchor: start; fill: #101010" x="767.754" y="228.220824" transform="rotate(-0 767.754 228.220824)">时间</text>
   </g>
   <g id="text_4">
    <text style="font-size: 10.2px; font-family: 'Source Han Sans CN', 'Noto Sans CJK SC', 'Microsoft YaHei UI', 'Microsoft YaHei', 'PingFang SC', 'Heiti SC', 'SimHei', 'DejaVu Sans', sans-serif; fill: #101010" transform="translate(114.147 161.190276)">局部规划时域</text>
    <text style="font-size: 10.2px; font-family: 'Source Han Sans CN', 'Noto Sans CJK SC', 'Microsoft YaHei UI', 'Microsoft YaHei', 'PingFang SC', 'Heiti SC', 'SimHei', 'DejaVu Sans', sans-serif; fill: #101010" transform="translate(135.774984 174.325645)">270</text>
   </g>
   <g id="text_5">
    <text style="font-size: 10.2px; font-family: 'Source Han Sans CN', 'Noto Sans CJK SC', 'Microsoft YaHei UI', 'Microsoft YaHei', 'PingFang SC', 'Heiti SC', 'SimHei', 'DejaVu Sans', sans-serif; fill: #101010" transform="translate(213.348 155.73498)">执行时域</text>
    <text style="font-size: 10.2px; font-family: 'Source Han Sans CN', 'Noto Sans CJK SC', 'Microsoft YaHei UI', 'Microsoft YaHei', 'PingFang SC', 'Heiti SC', 'SimHei', 'DejaVu Sans', sans-serif; fill: #101010" transform="translate(224.775984 168.870349)">280</text>
   </g>
   <g id="text_6">
    <text style="font-size: 10.2px; font-family: 'Source Han Sans CN', 'Noto Sans CJK SC', 'Microsoft YaHei UI', 'Microsoft YaHei', 'PingFang SC', 'Heiti SC', 'SimHei', 'DejaVu Sans', sans-serif; fill: #101010" transform="translate(332.604 161.190276)">局部规划时域</text>
    <text style="font-size: 10.2px; font-family: 'Source Han Sans CN', 'Noto Sans CJK SC', 'Microsoft YaHei UI', 'Microsoft YaHei', 'PingFang SC', 'Heiti SC', 'SimHei', 'DejaVu Sans', sans-serif; fill: #101010" transform="translate(354.231984 174.325645)">270</text>
   </g>
   <g id="text_7">
    <text style="font-size: 10.2px; font-family: 'Source Han Sans CN', 'Noto Sans CJK SC', 'Microsoft YaHei UI', 'Microsoft YaHei', 'PingFang SC', 'Heiti SC', 'SimHei', 'DejaVu Sans', sans-serif; fill: #101010" transform="translate(431.805 155.73498)">执行时域</text>
    <text style="font-size: 10.2px; font-family: 'Source Han Sans CN', 'Noto Sans CJK SC', 'Microsoft YaHei UI', 'Microsoft YaHei', 'PingFang SC', 'Heiti SC', 'SimHei', 'DejaVu Sans', sans-serif; fill: #101010" transform="translate(443.232984 168.870349)">280</text>
   </g>
   <g id="text_8">
    <text style="font-size: 10.2px; font-family: 'Source Han Sans CN', 'Noto Sans CJK SC', 'Microsoft YaHei UI', 'Microsoft YaHei', 'PingFang SC', 'Heiti SC', 'SimHei', 'DejaVu Sans', sans-serif; fill: #101010" transform="translate(551.061 161.190276)">局部规划时域</text>
    <text style="font-size: 10.2px; font-family: 'Source Han Sans CN', 'Noto Sans CJK SC', 'Microsoft YaHei UI', 'Microsoft YaHei', 'PingFang SC', 'Heiti SC', 'SimHei', 'DejaVu Sans', sans-serif; fill: #101010" transform="translate(572.688984 174.325645)">270</text>
   </g>
   <g id="text_9">
    <text style="font-size: 10.2px; font-family: 'Source Han Sans CN', 'Noto Sans CJK SC', 'Microsoft YaHei UI', 'Microsoft YaHei', 'PingFang SC', 'Heiti SC', 'SimHei', 'DejaVu Sans', sans-serif; fill: #101010" transform="translate(650.262 155.73498)">执行时域</text>
    <text style="font-size: 10.2px; font-family: 'Source Han Sans CN', 'Noto Sans CJK SC', 'Microsoft YaHei UI', 'Microsoft YaHei', 'PingFang SC', 'Heiti SC', 'SimHei', 'DejaVu Sans', sans-serif; fill: #101010" transform="translate(661.689984 168.870349)">280</text>
   </g>
   <g id="text_10">
    <text style="font-size: 10.2px; font-family: 'Source Han Sans CN', 'Noto Sans CJK SC', 'Microsoft YaHei UI', 'Microsoft YaHei', 'PingFang SC', 'Heiti SC', 'SimHei', 'DejaVu Sans', sans-serif; text-anchor: middle; fill: #101010" x="387.477" y="139.03632" transform="rotate(-0 387.477 139.03632)">仅执行代表轨迹前段</text>
   </g>
   <g id="text_11">
    <text style="font-size: 9.4px; font-family: 'Source Han Sans CN', 'Noto Sans CJK SC', 'Microsoft YaHei UI', 'Microsoft YaHei', 'PingFang SC', 'Heiti SC', 'SimHei', 'DejaVu Sans', sans-serif; text-anchor: middle; fill: #3d3d3d" x="423.8865" y="123.440672" transform="rotate(-0 423.8865 123.440672)">环境更新后再次规划</text>
   </g>
   <g id="text_12">
    <text style="font-size: 9.4px; font-family: 'Source Han Sans CN', 'Noto Sans CJK SC', 'Microsoft YaHei UI', 'Microsoft YaHei', 'PingFang SC', 'Heiti SC', 'SimHei', 'DejaVu Sans', sans-serif; text-anchor: start; fill: #3d3d3d" x="88.11" y="407.25504" transform="rotate(-0 88.11 407.25504)">关键点：本发明不是一次性全局规划，而是局部规划、局部执行、持续更新的闭环。</text>
   </g>
   <g id="patch_15">
    <path d="M 118.8558 161.857642 
L 137.4651 161.857642 
Q 145.5561 161.857642 145.5561 157.311562 
L 145.5561 147.219264 
Q 145.5561 142.673184 137.4651 142.673184 
L 118.8558 142.673184 
Q 110.7648 142.673184 110.7648 147.219264 
L 110.7648 157.311562 
Q 110.7648 161.857642 118.8558 161.857642 
z
" clip-path="url(#p1880a780ef)" style="fill: #ffffff; stroke: #111111; stroke-width: 0.9; stroke-linejoin: miter"/>
   </g>
   <g id="patch_16">
    <path d="M 337.3128 161.857642 
L 355.9221 161.857642 
Q 364.0131 161.857642 364.0131 157.311562 
L 364.0131 147.219264 
Q 364.0131 142.673184 355.9221 142.673184 
L 337.3128 142.673184 
Q 329.2218 142.673184 329.2218 147.219264 
L 329.2218 157.311562 
Q 329.2218 161.857642 337.3128 161.857642 
z
" clip-path="url(#p1880a780ef)" style="fill: #ffffff; stroke: #111111; stroke-width: 0.9; stroke-linejoin: miter"/>
   </g>
   <g id="patch_17">
    <path d="M 555.7698 161.857642 
L 574.3791 161.857642 
Q 582.4701 161.857642 582.4701 157.311562 
L 582.4701 147.219264 
Q 582.4701 142.673184 574.3791 142.673184 
L 555.7698 142.673184 
Q 547.6788 142.673184 547.6788 147.219264 
L 547.6788 157.311562 
Q 547.6788 161.857642 555.7698 161.857642 
z
" clip-path="url(#p1880a780ef)" style="fill: #ffffff; stroke: #111111; stroke-width: 0.9; stroke-linejoin: miter"/>
   </g>
   <g id="text_13">
    <text style="font-weight: 700; font-size: 8px; font-family: 'Source Han Sans CN', 'Noto Sans CJK SC', 'Microsoft YaHei UI', 'Microsoft YaHei', 'PingFang SC', 'Heiti SC', 'SimHei', 'DejaVu Sans', sans-serif; text-anchor: middle; fill: #101010" x="128.16045" y="154.468538" transform="rotate(-0 128.16045 154.468538)">3501</text>
   </g>
   <g id="text_14">
    <text style="font-weight: 700; font-size: 8px; font-family: 'Source Han Sans CN', 'Noto Sans CJK SC', 'Microsoft YaHei UI', 'Microsoft YaHei', 'PingFang SC', 'Heiti SC', 'SimHei', 'DejaVu Sans', sans-serif; text-anchor: middle; fill: #101010" x="346.61745" y="154.468538" transform="rotate(-0 346.61745 154.468538)">3502</text>
   </g>
   <g id="text_15">
    <text style="font-weight: 700; font-size: 8px; font-family: 'Source Han Sans CN', 'Noto Sans CJK SC', 'Microsoft YaHei UI', 'Microsoft YaHei', 'PingFang SC', 'Heiti SC', 'SimHei', 'DejaVu Sans', sans-serif; text-anchor: middle; fill: #101010" x="565.07445" y="154.468538" transform="rotate(-0 565.07445 154.468538)">3503</text>
   </g>
  </g>
 </g>
 <defs>
  <clipPath id="p1880a780ef">
   <rect x="7.2" y="7.2" width="809.1" height="454.608"/>
  </clipPath>
 </defs>
</svg>
