<?xml version="1.0" encoding="utf-8" standalone="no"?>
<!DOCTYPE svg PUBLIC "-//W3C//DTD SVG 1.1//EN"
  "http://www.w3.org/Graphics/SVG/1.1/DTD/svg11.dtd">
<svg xmlns:xlink="http://www.w3.org/1999/xlink" width="724.575141pt" height="573.328828pt" viewBox="0 0 724.575141 573.328828" xmlns="http://www.w3.org/2000/svg" version="1.1">
 <metadata>
  <rdf:RDF xmlns:dc="http://purl.org/dc/elements/1.1/" xmlns:cc="http://creativecommons.org/ns#" xmlns:rdf="http://www.w3.org/1999/02/22-rdf-syntax-ns#">
   <cc:Work>
    <dc:type rdf:resource="http://purl.org/dc/dcmitype/StillImage"/>
    <dc:date>2026-04-15T00:23:10.193830</dc:date>
    <dc:format>image/svg+xml</dc:format>
    <dc:creator>
     <cc:Agent>
      <dc:title>Matplotlib v3.10.7, https://matplotlib.org/</dc:title>
     </cc:Agent>
    </dc:creator>
   </cc:Work>
  </rdf:RDF>
 </metadata>
 <defs>
  <style type="text/css">*{stroke-linejoin: round; stroke-linecap: butt}</style>
 </defs>
 <g id="figure_1">
  <g id="patch_1">
   <path d="M 0 573.328828 
L 724.575141 573.328828 
L 724.575141 0 
L 0 0 
z
" style="fill: #ffffff"/>
  </g>
  <g id="axes_1">
   <g id="patch_2">
    <path d="M 56.4625 534.169453 
L 705.647016 534.169453 
L 705.647016 46.297453 
L 56.4625 46.297453 
z
" style="fill: #ffffff"/>
   </g>
   <g id="patch_3">
    <path d="M 142.233545 463.742769 
L 136.187313 471.64938 
L 134.552505 469.240189 
L 131.349633 471.413567 
L 131.084529 471.022888 
L 134.287401 468.84951 
L 132.652593 466.440319 
z
" clip-path="url(#pa269a44de9)" style="fill: #4d4d4d; opacity: 0.75; stroke: #4d4d4d; stroke-width: 0.8; stroke-linejoin: miter"/>
   </g>
   <g id="patch_4">
    <path d="M 142.233545 343.086253 
L 136.187313 350.992864 
L 134.552505 348.583673 
L 131.349633 350.757051 
L 131.084529 350.366371 
L 134.287401 348.192994 
L 132.652593 345.783803 
z
" clip-path="url(#pa269a44de9)" style="fill: #4d4d4d; opacity: 0.75; stroke: #4d4d4d; stroke-width: 0.8; stroke-linejoin: miter"/>
   </g>
   <g id="patch_5">
    <path d="M 142.233545 222.429737 
L 136.187313 230.336348 
L 134.552505 227.927157 
L 131.349633 230.100535 
L 131.084529 229.709855 
L 134.287401 227.536478 
L 132.652593 225.127287 
z
" clip-path="url(#pa269a44de9)" style="fill: #4d4d4d; opacity: 0.75; stroke: #4d4d4d; stroke-width: 0.8; stroke-linejoin: miter"/>
   </g>
   <g id="patch_6">
    <path d="M 142.233545 101.773221 
L 136.187313 109.679832 
L 134.552505 107.270641 
L 131.349633 109.444019 
L 131.084529 109.053339 
L 134.287401 106.879961 
L 132.652593 104.470771 
z
" clip-path="url(#pa269a44de9)" style="fill: #4d4d4d; opacity: 0.75; stroke: #4d4d4d; stroke-width: 0.8; stroke-linejoin: miter"/>
   </g>
   <g id="patch_7">
    <path d="M 244.529287 463.742769 
L 238.483055 471.64938 
L 236.848247 469.240189 
L 233.645375 471.413567 
L 233.380271 471.022888 
L 236.583143 468.84951 
L 234.948335 466.440319 
z
" clip-path="url(#pa269a44de9)" style="fill: #4d4d4d; opacity: 0.75; stroke: #4d4d4d; stroke-width: 0.8; stroke-linejoin: miter"/>
   </g>
   <g id="patch_8">
    <path d="M 244.529287 343.086253 
L 238.483055 350.992864 
L 236.848247 348.583673 
L 233.645375 350.757051 
L 233.380271 350.366371 
L 236.583143 348.192994 
L 234.948335 345.783803 
z
" clip-path="url(#pa269a44de9)" style="fill: #4d4d4d; opacity: 0.75; stroke: #4d4d4d; stroke-width: 0.8; stroke-linejoin: miter"/>
   </g>
   <g id="patch_9">
    <path d="M 244.529287 222.429737 
L 238.483055 230.336348 
L 236.848247 227.927157 
L 233.645375 230.100535 
L 233.380271 229.709855 
L 236.583143 227.536478 
L 234.948335 225.127287 
z
" clip-path="url(#pa269a44de9)" style="fill: #4d4d4d; opacity: 0.75; stroke: #4d4d4d; stroke-width: 0.8; stroke-linejoin: miter"/>
   </g>
   <g id="patch_10">
    <path d="M 244.529287 101.773221 
L 238.483055 109.679832 
L 236.848247 107.270641 
L 233.645375 109.444019 
L 233.380271 109.053339 
L 236.583143 106.879961 
L 234.948335 104.470771 
z
" clip-path="url(#pa269a44de9)" style="fill: #4d4d4d; opacity: 0.75; stroke: #4d4d4d; stroke-width: 0.8; stroke-linejoin: miter"/>
   </g>
   <g id="patch_11">
    <path d="M 346.825029 463.742769 
L 340.778797 471.64938 
L 339.143989 469.240189 
L 335.941117 471.413567 
L 335.676013 471.022888 
L 338.878885 468.84951 
L 337.244077 466.440319 
z
" clip-path="url(#pa269a44de9)" style="fill: #4d4d4d; opacity: 0.75; stroke: #4d4d4d; stroke-width: 0.8; stroke-linejoin: miter"/>
   </g>
   <g id="patch_12">
    <path d="M 346.825029 343.086253 
L 340.778797 350.992864 
L 339.143989 348.583673 
L 335.941117 350.757051 
L 335.676013 350.366371 
L 338.878885 348.192994 
L 337.244077 345.783803 
z
" clip-path="url(#pa269a44de9)" style="fill: #4d4d4d; opacity: 0.75; stroke: #4d4d4d; stroke-width: 0.8; stroke-linejoin: miter"/>
   </g>
   <g id="patch_13">
    <path d="M 346.825029 222.429737 
L 340.778797 230.336348 
L 339.143989 227.927157 
L 335.941117 230.100535 
L 335.676013 229.709855 
L 338.878885 227.536478 
L 337.244077 225.127287 
z
" clip-path="url(#pa269a44de9)" style="fill: #4d4d4d; opacity: 0.75; stroke: #4d4d4d; stroke-width: 0.8; stroke-linejoin: miter"/>
   </g>
   <g id="patch_14">
    <path d="M 346.825029 101.773221 
L 340.778797 109.679832 
L 339.143989 107.270641 
L 335.941117 109.444019 
L 335.676013 109.053339 
L 338.878885 106.879961 
L 337.244077 104.470771 
z
" clip-path="url(#pa269a44de9)" style="fill: #4d4d4d; opacity: 0.75; stroke: #4d4d4d; stroke-width: 0.8; stroke-linejoin: miter"/>
   </g>
   <g id="patch_15">
    <path d="M 449.120771 463.742769 
L 443.074539 471.64938 
L 441.439731 469.240189 
L 438.236858 471.413567 
L 437.971754 471.022888 
L 441.174627 468.84951 
L 439.539819 466.440319 
z
" clip-path="url(#pa269a44de9)" style="fill: #4d4d4d; opacity: 0.75; stroke: #4d4d4d; stroke-width: 0.8; stroke-linejoin: miter"/>
   </g>
   <g id="patch_16">
    <path d="M 449.120771 343.086253 
L 443.074539 350.992864 
L 441.439731 348.583673 
L 438.236858 350.757051 
L 437.971754 350.366371 
L 441.174627 348.192994 
L 439.539819 345.783803 
z
" clip-path="url(#pa269a44de9)" style="fill: #4d4d4d; opacity: 0.75; stroke: #4d4d4d; stroke-width: 0.8; stroke-linejoin: miter"/>
   </g>
   <g id="patch_17">
    <path d="M 449.120771 222.429737 
L 443.074539 230.336348 
L 441.439731 227.927157 
L 438.236858 230.100535 
L 437.971754 229.709855 
L 441.174627 227.536478 
L 439.539819 225.127287 
z
" clip-path="url(#pa269a44de9)" style="fill: #4d4d4d; opacity: 0.75; stroke: #4d4d4d; stroke-width: 0.8; stroke-linejoin: miter"/>
   </g>
   <g id="patch_18">
    <path d="M 449.120771 101.773221 
L 443.074539 109.679832 
L 441.439731 107.270641 
L 438.236858 109.444019 
L 437.971754 109.053339 
L 441.174627 106.879961 
L 439.539819 104.470771 
z
" clip-path="url(#pa269a44de9)" style="fill: #4d4d4d; opacity: 0.75; stroke: #4d4d4d; stroke-width: 0.8; stroke-linejoin: miter"/>
   </g>
   <g id="patch_19">
    <path d="M 551.416513 463.742769 
L 545.370281 471.64938 
L 543.735473 469.240189 
L 540.5326 471.413567 
L 540.267496 471.022888 
L 543.470369 468.84951 
L 541.835561 466.440319 
z
" clip-path="url(#pa269a44de9)" style="fill: #4d4d4d; opacity: 0.75; stroke: #4d4d4d; stroke-width: 0.8; stroke-linejoin: miter"/>
   </g>
   <g id="patch_20">
    <path d="M 551.416513 343.086253 
L 545.370281 350.992864 
L 543.735473 348.583673 
L 540.5326 350.757051 
L 540.267496 350.366371 
L 543.470369 348.192994 
L 541.835561 345.783803 
z
" clip-path="url(#pa269a44de9)" style="fill: #4d4d4d; opacity: 0.75; stroke: #4d4d4d; stroke-width: 0.8; stroke-linejoin: miter"/>
   </g>
   <g id="patch_21">
    <path d="M 551.416513 222.429737 
L 545.370281 230.336348 
L 543.735473 227.927157 
L 540.5326 230.100535 
L 540.267496 229.709855 
L 543.470369 227.536478 
L 541.835561 225.127287 
z
" clip-path="url(#pa269a44de9)" style="fill: #4d4d4d; opacity: 0.75; stroke: #4d4d4d; stroke-width: 0.8; stroke-linejoin: miter"/>
   </g>
   <g id="patch_22">
    <path d="M 551.416513 101.773221 
L 545.370281 109.679832 
L 543.735473 107.270641 
L 540.5326 109.444019 
L 540.267496 109.053339 
L 543.470369 106.879961 
L 541.835561 104.470771 
z
" clip-path="url(#pa269a44de9)" style="fill: #4d4d4d; opacity: 0.75; stroke: #4d4d4d; stroke-width: 0.8; stroke-linejoin: miter"/>
   </g>
   <g id="patch_23">
    <path d="M 653.712255 463.742769 
L 647.666023 471.64938 
L 646.031215 469.240189 
L 642.828342 471.413567 
L 642.563238 471.022888 
L 645.766111 468.84951 
L 644.131303 466.440319 
z
" clip-path="url(#pa269a44de9)" style="fill: #4d4d4d; opacity: 0.75; stroke: #4d4d4d; stroke-width: 0.8; stroke-linejoin: miter"/>
   </g>
   <g id="patch_24">
    <path d="M 653.712255 343.086253 
L 647.666023 350.992864 
L 646.031215 348.583673 
L 642.828342 350.757051 
L 642.563238 350.366371 
L 645.766111 348.192994 
L 644.131303 345.783803 
z
" clip-path="url(#pa269a44de9)" style="fill: #4d4d4d; opacity: 0.75; stroke: #4d4d4d; stroke-width: 0.8; stroke-linejoin: miter"/>
   </g>
   <g id="patch_25">
    <path d="M 653.712255 222.429737 
L 647.666023 230.336348 
L 646.031215 227.927157 
L 642.828342 230.100535 
L 642.563238 229.709855 
L 645.766111 227.536478 
L 644.131303 225.127287 
z
" clip-path="url(#pa269a44de9)" style="fill: #4d4d4d; opacity: 0.75; stroke: #4d4d4d; stroke-width: 0.8; stroke-linejoin: miter"/>
   </g>
   <g id="patch_26">
    <path d="M 653.712255 101.773221 
L 647.666023 109.679832 
L 646.031215 107.270641 
L 642.828342 109.444019 
L 642.563238 109.053339 
L 645.766111 106.879961 
L 644.131303 104.470771 
z
" clip-path="url(#pa269a44de9)" style="fill: #4d4d4d; opacity: 0.75; stroke: #4d4d4d; stroke-width: 0.8; stroke-linejoin: miter"/>
   </g>
   <g id="patch_27">
    <path d="M 359.415274 311.479492 
C 368.180076 311.479492 376.587074 307.997199 382.784724 301.799549 
C 388.982375 295.601898 392.464668 287.1949 392.464668 278.430098 
C 392.464668 269.665297 388.982375 261.258299 382.784724 255.060648 
C 376.587074 248.862997 368.180076 245.380705 359.415274 245.380705 
C 350.650473 245.380705 342.243475 248.862997 336.045824 255.060648 
C 329.848173 261.258299 326.365881 269.665297 326.365881 278.430098 
C 326.365881 287.1949 329.848173 295.601898 336.045824 301.799549 
C 342.243475 307.997199 350.650473 311.479492 359.415274 311.479492 
z
" clip-path="url(#pa269a44de9)" style="fill: #d9d9d9; stroke: #111111; stroke-width: 1.3; stroke-linejoin: miter"/>
   </g>
   <g id="patch_28">
    <path d="M 445.97321 219.413324 
L 556.137855 195.806614 
L 540.400048 124.986485 
L 430.235403 148.593195 
z
" clip-path="url(#pa269a44de9)" style="fill: url(#h7aad02f4c1); stroke: #333333; stroke-width: 1.5; stroke-linejoin: miter"/>
   </g>
   <g id="patch_29">
    <path d="M 83.841586 304.128351 
L 70.533764 301.837275 
L 72.831832 304.51282 
L 70.725999 307.342152 
z
" clip-path="url(#pa269a44de9)" style="fill: #404040; stroke: #111111; stroke-width: 1.2; stroke-linejoin: miter"/>
   </g>
   <g id="patch_30">
    <path d="M 331.874113 510.720122 
L 329.119997 523.939879 
L 331.874113 521.736586 
L 334.628229 523.939879 
z
" clip-path="url(#pa269a44de9)" style="fill: #666666; stroke: #111111; stroke-width: 1.2; stroke-linejoin: miter"/>
   </g>
   <g id="patch_31">
    <path d="M 501.055532 140.566914 
L 503.809648 127.347156 
L 501.055532 129.550449 
L 498.301416 127.347156 
z
" clip-path="url(#pa269a44de9)" style="fill: #8a8a8a; stroke: #111111; stroke-width: 1.2; stroke-linejoin: miter"/>
   </g>
   <g id="matplotlib.axis_1">
    <g id="xtick_1">
     <g id="line2d_1">
      <path d="M 76.134758 534.169453 
L 76.134758 46.297453 
" clip-path="url(#pa269a44de9)" style="fill: none; stroke-dasharray: 1.85,0.8; stroke-dashoffset: 0; stroke: #bdbdbd; stroke-opacity: 0.55; stroke-width: 0.5"/>
     </g>
     <g id="line2d_2">
      <defs>
       <path id="ma6f8c78319" d="M 0 0 
L 0 3.5 
" style="stroke: #101010; stroke-width: 0.8"/>
      </defs>
      <g>
       <use xlink:href="#ma6f8c78319" x="76.134758" y="534.169453" style="fill: #101010; stroke: #101010; stroke-width: 0.8"/>
      </g>
     </g>
     <g id="text_1">
      <text style="font-size: 10px; font-family: 'Source Han Sans CN', 'Noto Sans CJK SC', 'Microsoft YaHei UI', 'Microsoft YaHei', 'PingFang SC', 'Heiti SC', 'SimHei', 'DejaVu Sans', sans-serif; text-anchor: middle; fill: #101010" x="76.134758" y="549.163203" transform="rotate(-0 76.134758 549.163203)">0</text>
     </g>
    </g>
    <g id="xtick_2">
     <g id="line2d_3">
      <path d="M 154.82379 534.169453 
L 154.82379 46.297453 
" clip-path="url(#pa269a44de9)" style="fill: none; stroke-dasharray: 1.85,0.8; stroke-dashoffset: 0; stroke: #bdbdbd; stroke-opacity: 0.55; stroke-width: 0.5"/>
     </g>
     <g id="line2d_4">
      <g>
       <use xlink:href="#ma6f8c78319" x="154.82379" y="534.169453" style="fill: #101010; stroke: #101010; stroke-width: 0.8"/>
      </g>
     </g>
     <g id="text_2">
      <text style="font-size: 10px; font-family: 'Source Han Sans CN', 'Noto Sans CJK SC', 'Microsoft YaHei UI', 'Microsoft YaHei', 'PingFang SC', 'Heiti SC', 'SimHei', 'DejaVu Sans', sans-serif; text-anchor: middle; fill: #101010" x="154.82379" y="549.163203" transform="rotate(-0 154.82379 549.163203)">1000</text>
     </g>
    </g>
    <g id="xtick_3">
     <g id="line2d_5">
      <path d="M 233.512823 534.169453 
L 233.512823 46.297453 
" clip-path="url(#pa269a44de9)" style="fill: none; stroke-dasharray: 1.85,0.8; stroke-dashoffset: 0; stroke: #bdbdbd; stroke-opacity: 0.55; stroke-width: 0.5"/>
     </g>
     <g id="line2d_6">
      <g>
       <use xlink:href="#ma6f8c78319" x="233.512823" y="534.169453" style="fill: #101010; stroke: #101010; stroke-width: 0.8"/>
      </g>
     </g>
     <g id="text_3">
      <text style="font-size: 10px; font-family: 'Source Han Sans CN', 'Noto Sans CJK SC', 'Microsoft YaHei UI', 'Microsoft YaHei', 'PingFang SC', 'Heiti SC', 'SimHei', 'DejaVu Sans', sans-serif; text-anchor: middle; fill: #101010" x="233.512823" y="549.163203" transform="rotate(-0 233.512823 549.163203)">2000</text>
     </g>
    </g>
    <g id="xtick_4">
     <g id="line2d_7">
      <path d="M 312.201855 534.169453 
L 312.201855 46.297453 
" clip-path="url(#pa269a44de9)" style="fill: none; stroke-dasharray: 1.85,0.8; stroke-dashoffset: 0; stroke: #bdbdbd; stroke-opacity: 0.55; stroke-width: 0.5"/>
     </g>
     <g id="line2d_8">
      <g>
       <use xlink:href="#ma6f8c78319" x="312.201855" y="534.169453" style="fill: #101010; stroke: #101010; stroke-width: 0.8"/>
      </g>
     </g>
     <g id="text_4">
      <text style="font-size: 10px; font-family: 'Source Han Sans CN', 'Noto Sans CJK SC', 'Microsoft YaHei UI', 'Microsoft YaHei', 'PingFang SC', 'Heiti SC', 'SimHei', 'DejaVu Sans', sans-serif; text-anchor: middle; fill: #101010" x="312.201855" y="549.163203" transform="rotate(-0 312.201855 549.163203)">3000</text>
     </g>
    </g>
    <g id="xtick_5">
     <g id="line2d_9">
      <path d="M 390.890887 534.169453 
L 390.890887 46.297453 
" clip-path="url(#pa269a44de9)" style="fill: none; stroke-dasharray: 1.85,0.8; stroke-dashoffset: 0; stroke: #bdbdbd; stroke-opacity: 0.55; stroke-width: 0.5"/>
     </g>
     <g id="line2d_10">
      <g>
       <use xlink:href="#ma6f8c78319" x="390.890887" y="534.169453" style="fill: #101010; stroke: #101010; stroke-width: 0.8"/>
      </g>
     </g>
     <g id="text_5">
      <text style="font-size: 10px; font-family: 'Source Han Sans CN', 'Noto Sans CJK SC', 'Microsoft YaHei UI', 'Microsoft YaHei', 'PingFang SC', 'Heiti SC', 'SimHei', 'DejaVu Sans', sans-serif; text-anchor: middle; fill: #101010" x="390.890887" y="549.163203" transform="rotate(-0 390.890887 549.163203)">4000</text>
     </g>
    </g>
    <g id="xtick_6">
     <g id="line2d_11">
      <path d="M 469.579919 534.169453 
L 469.579919 46.297453 
" clip-path="url(#pa269a44de9)" style="fill: none; stroke-dasharray: 1.85,0.8; stroke-dashoffset: 0; stroke: #bdbdbd; stroke-opacity: 0.55; stroke-width: 0.5"/>
     </g>
     <g id="line2d_12">
      <g>
       <use xlink:href="#ma6f8c78319" x="469.579919" y="534.169453" style="fill: #101010; stroke: #101010; stroke-width: 0.8"/>
      </g>
     </g>
     <g id="text_6">
      <text style="font-size: 10px; font-family: 'Source Han Sans CN', 'Noto Sans CJK SC', 'Microsoft YaHei UI', 'Microsoft YaHei', 'PingFang SC', 'Heiti SC', 'SimHei', 'DejaVu Sans', sans-serif; text-anchor: middle; fill: #101010" x="469.579919" y="549.163203" transform="rotate(-0 469.579919 549.163203)">5000</text>
     </g>
    </g>
    <g id="xtick_7">
     <g id="line2d_13">
      <path d="M 548.268952 534.169453 
L 548.268952 46.297453 
" clip-path="url(#pa269a44de9)" style="fill: none; stroke-dasharray: 1.85,0.8; stroke-dashoffset: 0; stroke: #bdbdbd; stroke-opacity: 0.55; stroke-width: 0.5"/>
     </g>
     <g id="line2d_14">
      <g>
       <use xlink:href="#ma6f8c78319" x="548.268952" y="534.169453" style="fill: #101010; stroke: #101010; stroke-width: 0.8"/>
      </g>
     </g>
     <g id="text_7">
      <text style="font-size: 10px; font-family: 'Source Han Sans CN', 'Noto Sans CJK SC', 'Microsoft YaHei UI', 'Microsoft YaHei', 'PingFang SC', 'Heiti SC', 'SimHei', 'DejaVu Sans', sans-serif; text-anchor: middle; fill: #101010" x="548.268952" y="549.163203" transform="rotate(-0 548.268952 549.163203)">6000</text>
     </g>
    </g>
    <g id="xtick_8">
     <g id="line2d_15">
      <path d="M 626.957984 534.169453 
L 626.957984 46.297453 
" clip-path="url(#pa269a44de9)" style="fill: none; stroke-dasharray: 1.85,0.8; stroke-dashoffset: 0; stroke: #bdbdbd; stroke-opacity: 0.55; stroke-width: 0.5"/>
     </g>
     <g id="line2d_16">
      <g>
       <use xlink:href="#ma6f8c78319" x="626.957984" y="534.169453" style="fill: #101010; stroke: #101010; stroke-width: 0.8"/>
      </g>
     </g>
     <g id="text_8">
      <text style="font-size: 10px; font-family: 'Source Han Sans CN', 'Noto Sans CJK SC', 'Microsoft YaHei UI', 'Microsoft YaHei', 'PingFang SC', 'Heiti SC', 'SimHei', 'DejaVu Sans', sans-serif; text-anchor: middle; fill: #101010" x="626.957984" y="549.163203" transform="rotate(-0 626.957984 549.163203)">7000</text>
     </g>
    </g>
    <g id="xtick_9">
     <g id="line2d_17">
      <path d="M 705.647016 534.169453 
L 705.647016 46.297453 
" clip-path="url(#pa269a44de9)" style="fill: none; stroke-dasharray: 1.85,0.8; stroke-dashoffset: 0; stroke: #bdbdbd; stroke-opacity: 0.55; stroke-width: 0.5"/>
     </g>
     <g id="line2d_18">
      <g>
       <use xlink:href="#ma6f8c78319" x="705.647016" y="534.169453" style="fill: #101010; stroke: #101010; stroke-width: 0.8"/>
      </g>
     </g>
     <g id="text_9">
      <text style="font-size: 10px; font-family: 'Source Han Sans CN', 'Noto Sans CJK SC', 'Microsoft YaHei UI', 'Microsoft YaHei', 'PingFang SC', 'Heiti SC', 'SimHei', 'DejaVu Sans', sans-serif; text-anchor: middle; fill: #101010" x="705.647016" y="549.163203" transform="rotate(-0 705.647016 549.163203)">8000</text>
     </g>
    </g>
    <g id="text_10">
     <text style="font-size: 10px; font-family: 'Source Han Sans CN', 'Noto Sans CJK SC', 'Microsoft YaHei UI', 'Microsoft YaHei', 'PingFang SC', 'Heiti SC', 'SimHei', 'DejaVu Sans', sans-serif; text-anchor: middle; fill: #101010" x="381.054758" y="563.642891" transform="rotate(-0 381.054758 563.642891)">x / m</text>
    </g>
   </g>
   <g id="matplotlib.axis_2">
    <g id="ytick_1">
     <g id="line2d_19">
      <path d="M 56.4625 502.69384 
L 705.647016 502.69384 
" clip-path="url(#pa269a44de9)" style="fill: none; stroke-dasharray: 1.85,0.8; stroke-dashoffset: 0; stroke: #bdbdbd; stroke-opacity: 0.55; stroke-width: 0.5"/>
     </g>
     <g id="line2d_20">
      <defs>
       <path id="mf4e6240860" d="M 0 0 
L -3.5 0 
" style="stroke: #101010; stroke-width: 0.8"/>
      </defs>
      <g>
       <use xlink:href="#mf4e6240860" x="56.4625" y="502.69384" style="fill: #101010; stroke: #101010; stroke-width: 0.8"/>
      </g>
     </g>
     <g id="text_11">
      <text style="font-size: 10px; font-family: 'Source Han Sans CN', 'Noto Sans CJK SC', 'Microsoft YaHei UI', 'Microsoft YaHei', 'PingFang SC', 'Heiti SC', 'SimHei', 'DejaVu Sans', sans-serif; text-anchor: end; fill: #101010" x="49.4625" y="506.690715" transform="rotate(-0 49.4625 506.690715)">-3000</text>
     </g>
    </g>
    <g id="ytick_2">
     <g id="line2d_21">
      <path d="M 56.4625 424.004808 
L 705.647016 424.004808 
" clip-path="url(#pa269a44de9)" style="fill: none; stroke-dasharray: 1.85,0.8; stroke-dashoffset: 0; stroke: #bdbdbd; stroke-opacity: 0.55; stroke-width: 0.5"/>
     </g>
     <g id="line2d_22">
      <g>
       <use xlink:href="#mf4e6240860" x="56.4625" y="424.004808" style="fill: #101010; stroke: #101010; stroke-width: 0.8"/>
      </g>
     </g>
     <g id="text_12">
      <text style="font-size: 10px; font-family: 'Source Han Sans CN', 'Noto Sans CJK SC', 'Microsoft YaHei UI', 'Microsoft YaHei', 'PingFang SC', 'Heiti SC', 'SimHei', 'DejaVu Sans', sans-serif; text-anchor: end; fill: #101010" x="49.4625" y="428.001683" transform="rotate(-0 49.4625 428.001683)">-2000</text>
     </g>
    </g>
    <g id="ytick_3">
     <g id="line2d_23">
      <path d="M 56.4625 345.315776 
L 705.647016 345.315776 
" clip-path="url(#pa269a44de9)" style="fill: none; stroke-dasharray: 1.85,0.8; stroke-dashoffset: 0; stroke: #bdbdbd; stroke-opacity: 0.55; stroke-width: 0.5"/>
     </g>
     <g id="line2d_24">
      <g>
       <use xlink:href="#mf4e6240860" x="56.4625" y="345.315776" style="fill: #101010; stroke: #101010; stroke-width: 0.8"/>
      </g>
     </g>
     <g id="text_13">
      <text style="font-size: 10px; font-family: 'Source Han Sans CN', 'Noto Sans CJK SC', 'Microsoft YaHei UI', 'Microsoft YaHei', 'PingFang SC', 'Heiti SC', 'SimHei', 'DejaVu Sans', sans-serif; text-anchor: end; fill: #101010" x="49.4625" y="349.312651" transform="rotate(-0 49.4625 349.312651)">-1000</text>
     </g>
    </g>
    <g id="ytick_4">
     <g id="line2d_25">
      <path d="M 56.4625 266.626743 
L 705.647016 266.626743 
" clip-path="url(#pa269a44de9)" style="fill: none; stroke-dasharray: 1.85,0.8; stroke-dashoffset: 0; stroke: #bdbdbd; stroke-opacity: 0.55; stroke-width: 0.5"/>
     </g>
     <g id="line2d_26">
      <g>
       <use xlink:href="#mf4e6240860" x="56.4625" y="266.626743" style="fill: #101010; stroke: #101010; stroke-width: 0.8"/>
      </g>
     </g>
     <g id="text_14">
      <text style="font-size: 10px; font-family: 'Source Han Sans CN', 'Noto Sans CJK SC', 'Microsoft YaHei UI', 'Microsoft YaHei', 'PingFang SC', 'Heiti SC', 'SimHei', 'DejaVu Sans', sans-serif; text-anchor: end; fill: #101010" x="49.4625" y="270.623618" transform="rotate(-0 49.4625 270.623618)">0</text>
     </g>
    </g>
    <g id="ytick_5">
     <g id="line2d_27">
      <path d="M 56.4625 187.937711 
L 705.647016 187.937711 
" clip-path="url(#pa269a44de9)" style="fill: none; stroke-dasharray: 1.85,0.8; stroke-dashoffset: 0; stroke: #bdbdbd; stroke-opacity: 0.55; stroke-width: 0.5"/>
     </g>
     <g id="line2d_28">
      <g>
       <use xlink:href="#mf4e6240860" x="56.4625" y="187.937711" style="fill: #101010; stroke: #101010; stroke-width: 0.8"/>
      </g>
     </g>
     <g id="text_15">
      <text style="font-size: 10px; font-family: 'Source Han Sans CN', 'Noto Sans CJK SC', 'Microsoft YaHei UI', 'Microsoft YaHei', 'PingFang SC', 'Heiti SC', 'SimHei', 'DejaVu Sans', sans-serif; text-anchor: end; fill: #101010" x="49.4625" y="191.934586" transform="rotate(-0 49.4625 191.934586)">1000</text>
     </g>
    </g>
    <g id="ytick_6">
     <g id="line2d_29">
      <path d="M 56.4625 109.248679 
L 705.647016 109.248679 
" clip-path="url(#pa269a44de9)" style="fill: none; stroke-dasharray: 1.85,0.8; stroke-dashoffset: 0; stroke: #bdbdbd; stroke-opacity: 0.55; stroke-width: 0.5"/>
     </g>
     <g id="line2d_30">
      <g>
       <use xlink:href="#mf4e6240860" x="56.4625" y="109.248679" style="fill: #101010; stroke: #101010; stroke-width: 0.8"/>
      </g>
     </g>
     <g id="text_16">
      <text style="font-size: 10px; font-family: 'Source Han Sans CN', 'Noto Sans CJK SC', 'Microsoft YaHei UI', 'Microsoft YaHei', 'PingFang SC', 'Heiti SC', 'SimHei', 'DejaVu Sans', sans-serif; text-anchor: end; fill: #101010" x="49.4625" y="113.245554" transform="rotate(-0 49.4625 113.245554)">2000</text>
     </g>
    </g>
    <g id="text_17">
     <text style="font-size: 10px; font-family: 'Source Han Sans CN', 'Noto Sans CJK SC', 'Microsoft YaHei UI', 'Microsoft YaHei', 'PingFang SC', 'Heiti SC', 'SimHei', 'DejaVu Sans', sans-serif; text-anchor: middle; fill: #101010" x="15.135938" y="290.233453" transform="rotate(-90 15.135938 290.233453)">y / m</text>
    </g>
   </g>
   <g id="QuadContourSet_1">
    <path d="M 268.725266 386.662195 
L 271.599751 386.756321 
L 274.474237 386.750302 
L 277.348722 386.644083 
L 278.648768 386.550587 
L 280.223207 386.441545 
L 283.097692 386.144067 
L 285.972177 385.744194 
L 288.846663 385.237427 
L 291.721148 384.618003 
L 294.465982 383.912966 
L 294.595633 383.880026 
L 297.470118 383.04388 
L 300.344603 382.074064 
L 302.424792 381.275345 
L 303.219089 380.967697 
L 306.093574 379.729005 
L 308.342093 378.637723 
L 308.968059 378.326221 
L 311.842544 376.75976 
L 313.111665 376.000102 
L 314.717029 374.99825 
L 317.11392 373.362481 
L 317.591515 373.018011 
L 320.466 370.784792 
L 320.538732 370.72486 
L 323.340485 368.241959 
L 323.505651 368.087239 
L 326.093085 365.449617 
L 326.21497 365.312815 
L 328.360989 362.811996 
L 329.089455 361.858452 
L 330.343898 360.174375 
L 331.963941 357.688938 
L 332.061843 357.536754 
L 333.566682 354.899133 
L 334.838168 352.261512 
L 334.838426 352.260885 
L 335.936577 349.62389 
L 336.83526 346.986269 
L 337.549175 344.348648 
L 337.712911 343.553804 
L 338.106692 341.711027 
L 338.500345 339.073406 
L 338.728797 336.435784 
L 338.7947 333.798163 
L 338.697359 331.160542 
L 338.432316 328.522921 
L 337.990653 325.8853 
L 337.712911 324.699648 
L 337.37595 323.247678 
L 336.576204 320.610057 
L 335.55074 317.972436 
L 334.838426 316.472099 
L 334.290364 315.334815 
L 332.770959 312.697194 
L 331.963941 311.5101 
L 330.943663 310.059572 
L 329.089455 307.812848 
L 328.751342 307.421951 
L 326.21497 304.85322 
L 326.142715 304.78433 
L 323.340485 302.388973 
L 323.035164 302.146709 
L 320.466 300.281605 
L 319.302421 299.509088 
L 317.591515 298.450829 
L 314.754726 296.871466 
L 314.717029 296.851587 
L 311.842544 295.425873 
L 309.106388 294.233845 
L 308.968059 294.17553 
L 306.093574 293.048839 
L 303.219089 292.062777 
L 301.692184 291.596224 
L 300.344603 291.187975 
L 297.470118 290.414886 
L 294.595633 289.751568 
L 291.721148 289.190504 
L 290.305698 288.958603 
L 288.846663 288.715282 
L 285.972177 288.325703 
L 283.097692 288.028775 
L 280.223207 287.822063 
L 277.348722 287.70414 
L 274.474237 287.674523 
L 271.599751 287.73364 
L 268.725266 287.882827 
L 265.850781 288.124342 
L 262.976296 288.461407 
L 260.101811 288.898259 
L 259.77675 288.958603 
L 257.227325 289.419733 
L 254.35284 290.045572 
L 251.478355 290.785872 
L 248.776672 291.596224 
L 248.60387 291.647739 
L 245.729385 292.611087 
L 242.854899 293.715699 
L 241.644585 294.233845 
L 239.980414 294.956348 
L 237.105929 296.350558 
L 236.127412 296.871466 
L 234.231444 297.912336 
L 231.605884 299.509088 
L 231.356959 299.667341 
L 228.482473 301.636958 
L 227.793084 302.146709 
L 225.607988 303.866333 
L 224.51822 304.78433 
L 222.733503 306.408738 
L 221.680625 307.421951 
L 219.859018 309.346838 
L 219.213381 310.059572 
L 217.070579 312.697194 
L 216.984533 312.815591 
L 215.201943 315.334815 
L 214.110048 317.124867 
L 213.600875 317.972436 
L 212.231889 320.610057 
L 211.235562 322.9246 
L 211.096307 323.247678 
L 210.153726 325.8853 
L 209.421436 328.522921 
L 208.887443 331.160542 
L 208.5431 333.798163 
L 208.382883 336.435784 
L 208.404238 339.073406 
L 208.607518 341.711027 
L 208.995989 344.348648 
L 209.575921 346.986269 
L 210.356758 349.62389 
L 211.235562 351.961709 
L 211.347665 352.261512 
L 212.533518 354.899133 
L 213.962667 357.536754 
L 214.110048 357.774967 
L 215.619446 360.174375 
L 216.984533 362.053325 
L 217.551465 362.811996 
L 219.775886 365.449617 
L 219.859018 365.539386 
L 222.327832 368.087239 
L 222.733503 368.469621 
L 225.267484 370.72486 
L 225.607988 371.00607 
L 228.482473 373.227857 
L 228.66934 373.362481 
L 231.356959 375.192806 
L 232.655388 376.000102 
L 234.231444 376.939505 
L 237.105929 378.488985 
L 237.406942 378.637723 
L 239.980414 379.877788 
L 242.854899 381.100101 
L 243.312028 381.275345 
L 245.729385 382.194152 
L 248.60387 383.148741 
L 251.271508 383.912966 
L 251.478355 383.972673 
L 254.35284 384.697712 
L 257.227325 385.303675 
L 260.101811 385.797583 
L 262.976296 386.185087 
L 265.850781 386.470575 
L 267.077745 386.550587 
L 268.725266 386.662195 
z
M 444.068863 315.664802 
L 446.943348 316.091733 
L 449.817834 316.462217 
L 452.692319 316.778306 
L 455.566804 317.041741 
L 458.441289 317.253968 
L 461.315774 317.416134 
L 464.19026 317.529098 
L 467.064745 317.593429 
L 469.93923 317.609408 
L 472.813715 317.577022 
L 475.6882 317.495962 
L 478.562686 317.365615 
L 481.437171 317.185052 
L 484.311656 316.953018 
L 487.186141 316.667913 
L 490.060626 316.327776 
L 492.935112 315.930256 
L 495.809597 315.47259 
L 496.581628 315.334815 
L 498.684082 314.977859 
L 501.558567 314.430123 
L 504.433052 313.815993 
L 507.307538 313.130989 
L 508.967316 312.697194 
L 510.182023 312.390546 
L 513.056508 311.600737 
L 515.930993 310.728308 
L 517.951641 310.059572 
L 518.805478 309.783028 
L 521.679964 308.783979 
L 524.554449 307.685183 
L 525.202453 307.421951 
L 527.428934 306.524992 
L 530.303419 305.264874 
L 531.3326 304.78433 
L 533.177904 303.920156 
L 536.05239 302.465972 
L 536.651028 302.146709 
L 538.926875 300.915248 
L 541.337611 299.509088 
L 541.80136 299.231996 
L 544.675845 297.426631 
L 545.513352 296.871466 
L 547.55033 295.471445 
L 549.255125 294.233845 
L 550.424816 293.344316 
L 552.618806 291.596224 
L 553.299301 291.02211 
L 555.652569 288.958603 
L 556.173786 288.469165 
L 558.39237 286.320982 
L 559.048271 285.632694 
L 560.863999 283.68336 
L 561.922756 282.43563 
L 563.084569 281.045739 
L 564.797241 278.765309 
L 565.063556 278.408118 
L 566.842458 275.770497 
L 567.671727 274.369683 
L 568.407561 273.132876 
L 569.778031 270.495255 
L 570.546212 268.7637 
L 570.955147 267.857633 
L 571.965235 265.220012 
L 572.784408 262.582391 
L 573.420697 259.960236 
L 573.42458 259.94477 
L 573.919457 257.307149 
L 574.242006 254.669527 
L 574.396698 252.031906 
L 574.385671 249.394285 
L 574.208771 246.756664 
L 573.863556 244.119043 
L 573.420697 241.860847 
L 573.349056 241.481421 
L 572.685766 238.8438 
L 571.841876 236.206179 
L 570.805292 233.568558 
L 570.546212 233.005181 
L 569.608016 230.930937 
L 568.207677 228.293315 
L 567.671727 227.405455 
L 566.6201 225.655694 
L 564.806259 223.018073 
L 564.797241 223.00612 
L 562.800621 220.380452 
L 561.922756 219.341541 
L 560.550595 217.742831 
L 559.048271 216.145937 
L 558.04598 215.105209 
L 556.173786 213.309064 
L 555.268818 212.467588 
L 553.299301 210.755346 
L 552.192317 209.829967 
L 550.424816 208.432951 
L 548.779314 207.192346 
L 547.55033 206.306866 
L 544.980161 204.554725 
L 544.675845 204.354429 
L 541.80136 202.542564 
L 540.74646 201.917104 
L 538.926875 200.862861 
L 536.05239 199.316838 
L 535.97969 199.279482 
L 533.177904 197.856023 
L 530.567096 196.641861 
L 530.303419 196.519488 
L 527.428934 195.251176 
L 524.554449 194.096765 
L 524.310556 194.00424 
L 521.679964 192.994822 
L 518.805478 191.988383 
L 516.873441 191.366619 
L 515.930993 191.056433 
L 513.056508 190.176798 
L 510.182023 189.380479 
L 507.585316 188.728998 
L 507.307538 188.656785 
L 504.433052 187.965586 
L 501.558567 187.345934 
L 498.684082 186.793316 
L 495.809597 186.303767 
L 494.403279 186.091376 
L 492.935112 185.857603 
L 490.060626 185.456424 
L 487.186141 185.113295 
L 484.311656 184.82587 
L 481.437171 184.592198 
L 478.562686 184.41071 
L 475.6882 184.28019 
L 472.813715 184.19977 
L 469.93923 184.168915 
L 467.064745 184.187422 
L 464.19026 184.255413 
L 461.315774 184.373339 
L 458.441289 184.541985 
L 455.566804 184.762476 
L 452.692319 185.036294 
L 449.817834 185.365291 
L 446.943348 185.751712 
L 444.747063 186.091376 
L 444.068863 186.190805 
L 441.194378 186.665142 
L 438.319893 187.201636 
L 435.445408 187.80412 
L 432.570922 188.476965 
L 431.583568 188.728998 
L 429.696437 189.19363 
L 426.821952 189.970081 
L 423.947467 190.828244 
L 422.287125 191.366619 
L 421.072982 191.751353 
L 418.198496 192.733929 
L 415.324011 193.814835 
L 414.849094 194.00424 
L 412.449526 194.951922 
L 409.575041 196.190615 
L 408.591505 196.641861 
L 406.700556 197.510702 
L 403.82607 198.938667 
L 403.176085 199.279482 
L 400.951585 200.461052 
L 398.412534 201.917104 
L 398.0771 202.113827 
L 395.202615 203.881906 
L 394.170344 204.554725 
L 392.32813 205.797498 
L 390.373275 207.192346 
L 389.453644 207.878428 
L 386.96017 209.829967 
L 386.579159 210.145054 
L 383.880324 212.467588 
L 383.704674 212.62907 
L 381.095507 215.105209 
L 380.830189 215.377307 
L 378.577775 217.742831 
L 377.955704 218.457422 
L 376.307868 220.380452 
L 375.081219 221.966375 
L 374.274087 223.018073 
L 372.459724 225.655694 
L 372.206733 226.066097 
L 370.826822 228.293315 
L 369.410481 230.930937 
L 369.332248 231.096585 
L 368.143308 233.568558 
L 367.069141 236.206179 
L 366.457763 237.998885 
L 366.160268 238.8438 
L 365.393984 241.481421 
L 364.791923 244.119043 
L 364.345002 246.756664 
L 364.046447 249.394285 
L 363.891737 252.031906 
L 363.878645 254.669527 
L 364.007391 257.307149 
L 364.280936 259.94477 
L 364.705456 262.582391 
L 365.291087 265.220012 
L 366.053039 267.857633 
L 366.457763 269.002658 
L 366.976789 270.495255 
L 368.082742 273.132876 
L 369.332248 275.585515 
L 369.426128 275.770497 
L 370.954394 278.408118 
L 372.206733 280.237138 
L 372.765256 281.045739 
L 374.855288 283.68336 
L 375.081219 283.93854 
L 377.23615 286.320982 
L 377.955704 287.029917 
L 379.970434 288.958603 
L 380.830189 289.704958 
L 383.089221 291.596224 
L 383.704674 292.070809 
L 386.579159 294.195854 
L 386.632016 294.233845 
L 389.453644 296.139338 
L 390.598168 296.871466 
L 392.32813 297.92427 
L 395.0991 299.509088 
L 395.202615 299.566077 
L 398.0771 301.112177 
L 400.142287 302.146709 
L 400.951585 302.542851 
L 403.82607 303.89291 
L 405.859922 304.78433 
L 406.700556 305.149322 
L 409.575041 306.342271 
L 412.402703 307.421951 
L 412.449526 307.43989 
L 415.324011 308.501499 
L 418.198496 309.476309 
L 420.0474 310.059572 
L 421.072982 310.389031 
L 423.947467 311.256815 
L 426.821952 312.04964 
L 429.389734 312.697194 
L 429.696437 312.77706 
L 432.570922 313.477044 
L 435.445408 314.110187 
L 438.319893 314.680028 
L 441.194378 315.189742 
L 442.103007 315.334815 
L 444.068863 315.664802 
z
" clip-path="url(#pa269a44de9)" style="fill: none; stroke-dasharray: 3.7,1.6; stroke-dashoffset: 0; stroke: #2b2b2b"/>
    <path d="M 260.101811 360.324279 
L 262.976296 361.127497 
L 265.850781 361.719496 
L 268.725266 362.106963 
L 271.599751 362.29428 
L 274.474237 362.283608 
L 277.348722 362.074936 
L 280.223207 361.666087 
L 283.097692 361.052686 
L 285.972177 360.228097 
L 286.122582 360.174375 
L 288.846663 359.111627 
L 291.721148 357.743025 
L 292.092659 357.536754 
L 294.595633 355.97685 
L 296.09655 354.899133 
L 297.470118 353.760606 
L 299.079188 352.261512 
L 300.344603 350.852886 
L 301.34826 349.62389 
L 303.074996 346.986269 
L 303.219089 346.697167 
L 304.310002 344.348648 
L 305.15008 341.711027 
L 305.615593 339.073406 
L 305.712658 336.435784 
L 305.440906 333.798163 
L 304.793255 331.160542 
L 303.755426 328.522921 
L 303.219089 327.532129 
L 302.254294 325.8853 
L 300.344603 323.361804 
L 300.249283 323.247678 
L 297.563155 320.610057 
L 297.470118 320.532374 
L 294.595633 318.40324 
L 293.922992 317.972436 
L 291.721148 316.7301 
L 288.846663 315.371569 
L 288.752825 315.334815 
L 285.972177 314.345683 
L 283.097692 313.54583 
L 280.223207 312.958874 
L 278.257684 312.697194 
L 277.348722 312.583901 
L 274.474237 312.412819 
L 271.599751 312.428953 
L 268.725266 312.632288 
L 268.247664 312.697194 
L 265.850781 313.044129 
L 262.976296 313.664797 
L 260.101811 314.49749 
L 257.810371 315.334815 
L 257.227325 315.568535 
L 254.35284 316.95645 
L 252.571965 317.972436 
L 251.478355 318.67707 
L 248.874796 320.610057 
L 248.60387 320.844251 
L 246.131668 323.247678 
L 245.729385 323.720858 
L 244.058231 325.8853 
L 242.854899 327.871503 
L 242.489645 328.522921 
L 241.394404 331.160542 
L 240.68841 333.798163 
L 240.360548 336.435784 
L 240.40575 339.073406 
L 240.824879 341.711027 
L 241.624758 344.348648 
L 242.818362 346.986269 
L 242.854899 347.047548 
L 244.517687 349.62389 
L 245.729385 351.116336 
L 246.75526 352.261512 
L 248.60387 353.982454 
L 249.714074 354.899133 
L 251.478355 356.158617 
L 253.710018 357.536754 
L 254.35284 357.890044 
L 257.227325 359.237117 
L 259.674213 360.174375 
L 260.101811 360.324279 
z
M 446.943348 297.160566 
L 449.817834 297.690156 
L 452.692319 298.141257 
L 455.566804 298.516808 
L 458.441289 298.819226 
L 461.315774 299.05044 
L 464.19026 299.211905 
L 467.064745 299.304622 
L 469.93923 299.329144 
L 472.813715 299.285584 
L 475.6882 299.173611 
L 478.562686 298.992449 
L 481.437171 298.740863 
L 484.311656 298.41715 
L 487.186141 298.019114 
L 490.060626 297.544042 
L 492.935112 296.988676 
L 493.470182 296.871466 
L 495.809597 296.36081 
L 498.684082 295.648917 
L 501.558567 294.845341 
L 503.525373 294.233845 
L 504.433052 293.948469 
L 507.307538 292.957854 
L 510.182023 291.85738 
L 510.813793 291.596224 
L 513.056508 290.644422 
L 515.930993 289.30627 
L 516.627538 288.958603 
L 518.805478 287.827369 
L 521.470586 286.320982 
L 521.679964 286.196348 
L 524.554449 284.380975 
L 525.58794 283.68336 
L 527.428934 282.35488 
L 529.137401 281.045739 
L 530.303419 280.077264 
L 532.213299 278.408118 
L 533.177904 277.480351 
L 534.882588 275.770497 
L 536.05239 274.457086 
L 537.193271 273.132876 
L 538.926875 270.836385 
L 539.178124 270.495255 
L 540.871928 267.857633 
L 541.80136 266.131878 
L 542.286791 265.220012 
L 543.446084 262.582391 
L 544.351776 259.94477 
L 544.675845 258.668023 
L 545.023304 257.307149 
L 545.465111 254.669527 
L 545.676999 252.031906 
L 545.661894 249.394285 
L 545.419588 246.756664 
L 544.946733 244.119043 
L 544.675845 243.103888 
L 544.245173 241.481421 
L 543.306486 238.8438 
L 542.112213 236.206179 
L 541.80136 235.634912 
L 540.663135 233.568558 
L 538.92935 230.930937 
L 538.926875 230.927631 
L 536.904204 228.293315 
L 536.05239 227.318866 
L 534.548498 225.655694 
L 533.177904 224.298741 
L 531.828094 223.018073 
L 530.303419 221.701234 
L 528.693341 220.380452 
L 527.428934 219.421996 
L 525.075233 217.742831 
L 524.554449 217.39478 
L 521.679964 215.583602 
L 520.867751 215.105209 
L 518.805478 213.950266 
L 515.930993 212.47171 
L 515.922457 212.467588 
L 513.056508 211.133191 
L 510.182023 209.921459 
L 509.948219 209.829967 
L 507.307538 208.82007 
L 504.433052 207.828056 
L 502.39342 207.192346 
L 501.558567 206.934749 
L 498.684082 206.129185 
L 495.809597 205.415559 
L 492.935112 204.78882 
L 491.710518 204.554725 
L 490.060626 204.237186 
L 487.186141 203.760594 
L 484.311656 203.361371 
L 481.437171 203.036811 
L 478.562686 202.78473 
L 475.6882 202.603442 
L 472.813715 202.491741 
L 469.93923 202.448885 
L 467.064745 202.474589 
L 464.19026 202.569024 
L 461.315774 202.732816 
L 458.441289 202.967054 
L 455.566804 203.273303 
L 452.692319 203.653619 
L 449.817834 204.110575 
L 447.432452 204.554725 
L 446.943348 204.645129 
L 444.068863 205.250836 
L 441.194378 205.942267 
L 438.319893 206.724295 
L 436.769983 207.192346 
L 435.445408 207.596173 
L 432.570922 208.561787 
L 429.696437 209.635477 
L 429.213969 209.829967 
L 426.821952 210.818229 
L 423.947467 212.123891 
L 423.242393 212.467588 
L 421.072982 213.566032 
L 418.285095 215.105209 
L 418.198496 215.155462 
L 415.324011 216.923422 
L 414.081874 217.742831 
L 412.449526 218.891535 
L 410.460379 220.380452 
L 409.575041 221.097068 
L 407.323094 223.018073 
L 406.700556 223.600936 
L 404.599228 225.655694 
L 403.82607 226.499284 
L 402.237697 228.293315 
L 400.951585 229.944772 
L 400.203172 230.930937 
L 398.467455 233.568558 
L 398.0771 234.265124 
L 397.002855 236.206179 
L 395.802141 238.8438 
L 395.202615 240.500346 
L 394.847245 241.481421 
L 394.124392 244.119043 
L 393.634948 246.756664 
L 393.372271 249.394285 
L 393.333017 252.031906 
L 393.517132 254.669527 
L 393.927921 257.307149 
L 394.572243 259.94477 
L 395.202615 261.827089 
L 395.455532 262.582391 
L 396.57931 265.220012 
L 397.975193 267.857633 
L 398.0771 268.021825 
L 399.639326 270.495255 
L 400.951585 272.265379 
L 401.611592 273.132876 
L 403.82607 275.673448 
L 403.913636 275.770497 
L 406.579392 278.408118 
L 406.700556 278.516688 
L 409.575041 280.975437 
L 409.661457 281.045739 
L 412.449526 283.134901 
L 413.2279 283.68336 
L 415.324011 285.063257 
L 417.37506 286.320982 
L 418.198496 286.798957 
L 421.072982 288.36226 
L 422.254185 288.958603 
L 423.947467 289.779765 
L 426.821952 291.064025 
L 428.114375 291.596224 
L 429.696437 292.230707 
L 432.570922 293.287313 
L 435.43126 294.233845 
L 435.445408 294.238465 
L 438.319893 295.103341 
L 441.194378 295.874146 
L 444.068863 296.556196 
L 445.571133 296.871466 
L 446.943348 297.160566 
z
" clip-path="url(#pa269a44de9)" style="fill: none; stroke-dasharray: 3.7,1.6; stroke-dashoffset: 0; stroke: #2b2b2b"/>
    <path d="M 461.315774 283.87729 
L 464.19026 284.114629 
L 467.064745 284.251246 
L 469.93923 284.288021 
L 472.813715 284.225171 
L 475.6882 284.06226 
L 478.562686 283.798188 
L 479.466991 283.68336 
L 481.437171 283.425193 
L 484.311656 282.941567 
L 487.186141 282.346771 
L 490.060626 281.636767 
L 492.117186 281.045739 
L 492.935112 280.798151 
L 495.809597 279.808113 
L 498.684082 278.680848 
L 499.311591 278.408118 
L 501.558567 277.359122 
L 504.433052 275.862017 
L 504.594783 275.770497 
L 507.307538 274.089653 
L 508.721276 273.132876 
L 510.182023 272.029215 
L 512.063601 270.495255 
L 513.056508 269.570719 
L 514.781221 267.857633 
L 515.930993 266.516487 
L 516.984372 265.220012 
L 518.746747 262.582391 
L 518.805478 262.471806 
L 520.096659 259.94477 
L 521.08676 257.307149 
L 521.679964 254.884293 
L 521.731295 254.669527 
L 522.036114 252.031906 
L 522.014384 249.394285 
L 521.679964 246.8633 
L 521.665587 246.756664 
L 520.974915 244.119043 
L 519.937906 241.481421 
L 518.805478 239.337107 
L 518.534519 238.8438 
L 516.718964 236.206179 
L 515.930993 235.257392 
L 514.450151 233.568558 
L 513.056508 232.210021 
L 511.655978 230.930937 
L 510.182023 229.748802 
L 508.222623 228.293315 
L 507.307538 227.68294 
L 504.433052 225.921148 
L 503.960156 225.655694 
L 501.558567 224.419193 
L 498.684082 223.093676 
L 498.502652 223.018073 
L 495.809597 221.969111 
L 492.935112 220.984468 
L 490.914528 220.380452 
L 490.060626 220.137716 
L 487.186141 219.430499 
L 484.311656 218.838091 
L 481.437171 218.356474 
L 478.562686 217.98241 
L 476.004353 217.742831 
L 475.6882 217.714036 
L 472.813715 217.551887 
L 469.93923 217.489673 
L 467.064745 217.52698 
L 464.19026 217.664055 
L 463.234502 217.742831 
L 461.315774 217.905344 
L 458.441289 218.252918 
L 455.566804 218.707343 
L 452.692319 219.27167 
L 449.817834 219.949713 
L 448.251508 220.380452 
L 446.943348 220.758542 
L 444.068863 221.710067 
L 441.194378 222.796238 
L 440.665507 223.018073 
L 438.319893 224.072355 
L 435.445408 225.517167 
L 435.192389 225.655694 
L 432.570922 227.222976 
L 430.936101 228.293315 
L 429.696437 229.1966 
L 427.495748 230.930937 
L 426.821952 231.535188 
L 424.700939 233.568558 
L 423.947467 234.412934 
L 422.433912 236.206179 
L 421.072982 238.156407 
L 420.614435 238.8438 
L 419.206381 241.481421 
L 418.198496 244.021434 
L 418.160918 244.119043 
L 417.47353 246.756664 
L 417.118422 249.394285 
L 417.090875 252.031906 
L 417.390792 254.669527 
L 418.022728 257.307149 
L 418.198496 257.788985 
L 419.008903 259.94477 
L 420.359253 262.582391 
L 421.072982 263.684432 
L 422.113032 265.220012 
L 423.947467 267.444061 
L 424.307988 267.857633 
L 426.821952 270.312536 
L 427.021902 270.495255 
L 429.696437 272.634915 
L 430.369377 273.132876 
L 432.570922 274.592218 
L 434.516673 275.770497 
L 435.445408 276.284228 
L 438.319893 277.734838 
L 439.801611 278.408118 
L 441.194378 278.997483 
L 444.068863 280.085921 
L 446.943348 281.039455 
L 446.964883 281.045739 
L 449.817834 281.836485 
L 452.692319 282.51492 
L 455.566804 283.079571 
L 458.441289 283.534224 
L 459.669045 283.68336 
L 461.315774 283.87729 
z
" clip-path="url(#pa269a44de9)" style="fill: none; stroke-dasharray: 3.7,1.6; stroke-dashoffset: 0; stroke: #2b2b2b"/>
    <path d="M 461.315774 265.540521 
L 464.19026 266.051638 
L 467.064745 266.346163 
L 469.93923 266.426045 
L 472.813715 266.29181 
L 475.6882 265.942558 
L 478.562686 265.375965 
L 479.135431 265.220012 
L 481.437171 264.478878 
L 484.311656 263.289202 
L 485.709028 262.582391 
L 487.186141 261.652686 
L 489.479735 259.94477 
L 490.060626 259.365402 
L 491.857735 257.307149 
L 492.935112 255.424338 
L 493.320425 254.669527 
L 493.970271 252.031906 
L 493.923927 249.394285 
L 493.18075 246.756664 
L 492.935112 246.306392 
L 491.596689 244.119043 
L 490.060626 242.435809 
L 489.059875 241.481421 
L 487.186141 240.131558 
L 485.069985 238.8438 
L 484.311656 238.470237 
L 481.437171 237.308464 
L 478.562686 236.406127 
L 477.680559 236.206179 
L 475.6882 235.821504 
L 472.813715 235.478918 
L 469.93923 235.347452 
L 467.064745 235.426229 
L 464.19026 235.715766 
L 461.382947 236.206179 
L 461.315774 236.219947 
L 458.441289 237.058229 
L 455.566804 238.154195 
L 454.101805 238.8438 
L 452.692319 239.662904 
L 450.068779 241.481421 
L 449.817834 241.71153 
L 447.545661 244.119043 
L 446.943348 245.070016 
L 445.995094 246.756664 
L 445.231928 249.394285 
L 445.18314 252.031906 
L 445.848245 254.669527 
L 446.943348 256.753835 
L 447.270704 257.307149 
L 449.649224 259.94477 
L 449.817834 260.084363 
L 452.692319 262.141689 
L 453.425718 262.582391 
L 455.566804 263.616781 
L 458.441289 264.738316 
L 460.050344 265.220012 
L 461.315774 265.540521 
z
" clip-path="url(#pa269a44de9)" style="fill: none; stroke-dasharray: 3.7,1.6; stroke-dashoffset: 0; stroke: #2b2b2b"/>
   </g>
   <g id="line2d_31">
    <path d="M 76.134758 304.397479 
L 202.03721 326.430408 
L 304.332952 334.299311 
L 414.497597 315.413943 
L 536.465597 272.921866 
L 650.564694 241.446253 
" clip-path="url(#pa269a44de9)" style="fill: none; stroke: #1a1a1a; stroke-width: 2.6; stroke-linecap: square"/>
   </g>
   <g id="patch_32">
    <path d="M 56.4625 534.169453 
L 56.4625 46.297453 
" style="fill: none; stroke: #111111; stroke-width: 1.2; stroke-linejoin: miter; stroke-linecap: square"/>
   </g>
   <g id="patch_33">
    <path d="M 705.647016 534.169453 
L 705.647016 46.297453 
" style="fill: none; stroke: #111111; stroke-width: 1.2; stroke-linejoin: miter; stroke-linecap: square"/>
   </g>
   <g id="patch_34">
    <path d="M 56.4625 534.169453 
L 705.647016 534.169453 
" style="fill: none; stroke: #111111; stroke-width: 1.2; stroke-linejoin: miter; stroke-linecap: square"/>
   </g>
   <g id="patch_35">
    <path d="M 56.4625 46.297453 
L 705.647016 46.297453 
" style="fill: none; stroke: #111111; stroke-width: 1.2; stroke-linejoin: miter; stroke-linecap: square"/>
   </g>
   <g id="text_18">
    <text style="font-size: 9.5px; font-family: 'Source Han Sans CN', 'Noto Sans CJK SC', 'Microsoft YaHei UI', 'Microsoft YaHei', 'PingFang SC', 'Heiti SC', 'SimHei', 'DejaVu Sans', sans-serif; text-anchor: middle; fill: #101010" x="359.415274" y="281.046309" transform="rotate(-0 359.415274 281.046309)">Islet</text>
   </g>
   <g id="text_19">
    <text style="font-size: 9px; font-family: 'Source Han Sans CN', 'Noto Sans CJK SC', 'Microsoft YaHei UI', 'Microsoft YaHei', 'PingFang SC', 'Heiti SC', 'SimHei', 'DejaVu Sans', sans-serif; text-anchor: middle; fill: #101010" x="494.76041" y="170.743969" transform="rotate(-0 494.76041 170.743969)">Restricted Zone</text>
   </g>
   <g id="text_20">
    <text style="font-size: 9px; font-family: 'Source Han Sans CN', 'Noto Sans CJK SC', 'Microsoft YaHei UI', 'Microsoft YaHei', 'PingFang SC', 'Heiti SC', 'SimHei', 'DejaVu Sans', sans-serif; text-anchor: middle; fill: #101010" x="76.134758" y="317.650909" transform="rotate(-0 76.134758 317.650909)">Own Ship</text>
   </g>
   <g id="text_21">
    <text style="font-size: 9px; font-family: 'Source Han Sans CN', 'Noto Sans CJK SC', 'Microsoft YaHei UI', 'Microsoft YaHei', 'PingFang SC', 'Heiti SC', 'SimHei', 'DejaVu Sans', sans-serif; text-anchor: middle; fill: #101010" x="331.874113" y="531.633046" transform="rotate(-0 331.874113 531.633046)">Target A</text>
   </g>
   <g id="text_22">
    <text style="font-size: 9px; font-family: 'Source Han Sans CN', 'Noto Sans CJK SC', 'Microsoft YaHei UI', 'Microsoft YaHei', 'PingFang SC', 'Heiti SC', 'SimHei', 'DejaVu Sans', sans-serif; text-anchor: middle; fill: #101010" x="501.055532" y="146.056788" transform="rotate(-0 501.055532 146.056788)">Target B</text>
   </g>
   <g id="text_23">
    <text style="font-size: 9.6px; font-family: 'Source Han Sans CN', 'Noto Sans CJK SC', 'Microsoft YaHei UI', 'Microsoft YaHei', 'PingFang SC', 'Heiti SC', 'SimHei', 'DejaVu Sans', sans-serif; text-anchor: middle; fill: #101010" x="650.564694" y="229.642898" transform="rotate(-0 650.564694 229.642898)">Goal</text>
   </g>
   <g id="text_24">
    <text style="font-size: 9.6px; font-family: 'Source Han Sans CN', 'Noto Sans CJK SC', 'Microsoft YaHei UI', 'Microsoft YaHei', 'PingFang SC', 'Heiti SC', 'SimHei', 'DejaVu Sans', sans-serif; text-anchor: start; fill: #101010" x="98.167687" y="326.430408" transform="rotate(-0 98.167687 326.430408)">Start</text>
   </g>
   <g id="patch_36">
    <path d="M 316.581097 457.807662 
Q 323.84584 475.392223 330.683683 491.943461 
" style="fill: none; stroke: #111111; stroke-linecap: round"/>
    <path d="M 330.988772 487.7059 
L 330.683683 491.943461 
L 327.476688 489.156854 
" style="fill: none; stroke: #111111; stroke-linecap: round"/>
   </g>
   <g id="text_25">
    <text style="font-size: 9.5px; font-family: 'Source Han Sans CN', 'Noto Sans CJK SC', 'Microsoft YaHei UI', 'Microsoft YaHei', 'PingFang SC', 'Heiti SC', 'SimHei', 'DejaVu Sans', sans-serif; text-anchor: start; fill: #101010" x="292.529597" y="451.545969" transform="rotate(-0 292.529597 451.545969)">give-way</text>
   </g>
   <g id="patch_37">
    <path d="M 544.947598 111.114076 
Q 523.696755 133.069837 503.22348 154.222237 
" style="fill: none; stroke: #111111; stroke-linecap: round"/>
    <path d="M 507.231536 152.813164 
L 503.22348 154.222237 
L 504.501055 150.170348 
" style="fill: none; stroke: #111111; stroke-linecap: round"/>
   </g>
   <g id="text_26">
    <text style="font-size: 9.5px; font-family: 'Source Han Sans CN', 'Noto Sans CJK SC', 'Microsoft YaHei UI', 'Microsoft YaHei', 'PingFang SC', 'Heiti SC', 'SimHei', 'DejaVu Sans', sans-serif; text-anchor: start; fill: #101010" x="532.531145" y="105.314227" transform="rotate(-0 532.531145 105.314227)">stand-on</text>
   </g>
   <g id="text_27">
    <text style="font-size: 9.5px; font-family: 'Source Han Sans CN', 'Noto Sans CJK SC', 'Microsoft YaHei UI', 'Microsoft YaHei', 'PingFang SC', 'Heiti SC', 'SimHei', 'DejaVu Sans', sans-serif; text-anchor: start; fill: #2b2b2b" x="461.711016" y="246.167595" transform="rotate(-0 461.711016 246.167595)">局部风险场</text>
   </g>
   <g id="text_28">
    <text style="font-size: 9.2px; font-family: 'Source Han Sans CN', 'Noto Sans CJK SC', 'Microsoft YaHei UI', 'Microsoft YaHei', 'PingFang SC', 'Heiti SC', 'SimHei', 'DejaVu Sans', sans-serif; text-anchor: start; fill: #4d4d4d" x="170.561597" y="97.445324" transform="rotate(-0 170.561597 97.445324)">流场方向</text>
   </g>
   <g id="text_29">
    <text style="font-size: 13.5px; font-family: 'Source Han Sans CN', 'Noto Sans CJK SC', 'Microsoft YaHei UI', 'Microsoft YaHei', 'PingFang SC', 'Heiti SC', 'SimHei', 'DejaVu Sans', sans-serif; fill: #101010" transform="translate(307.598938 17.991562)">图7 交叉会遇场景示意图</text>
    <text style="font-size: 13.5px; font-family: 'Source Han Sans CN', 'Noto Sans CJK SC', 'Microsoft YaHei UI', 'Microsoft YaHei', 'PingFang SC', 'Heiti SC', 'SimHei', 'DejaVu Sans', sans-serif; fill: #101010" transform="translate(178.554758 34.297453)">含本船、两艘目标船、小岛障碍、禁入区、局部风险场和流场箭头。</text>
   </g>
   <g id="PathCollection_1">
    <defs>
     <path id="m51f8fdd645" d="M 0 -6.708204 
L -1.506086 -2.072949 
L -6.379881 -2.072949 
L -2.436898 0.791796 
L -3.942983 5.427051 
L -0 2.562306 
L 3.942983 5.427051 
L 2.436898 0.791796 
L 6.379881 -2.072949 
L 1.506086 -2.072949 
z
" style="stroke: #111111"/>
    </defs>
    <g clip-path="url(#pa269a44de9)">
     <use xlink:href="#m51f8fdd645" x="650.564694" y="241.446253" style="fill: #555555; stroke: #111111"/>
    </g>
   </g>
   <g id="legend_1">
    <g id="patch_38">
     <path d="M 62.6225 94.203828 
L 143.5825 94.203828 
Q 145.3425 94.203828 145.3425 92.443828 
L 145.3425 52.457453 
Q 145.3425 50.697453 143.5825 50.697453 
L 62.6225 50.697453 
Q 60.8625 50.697453 60.8625 52.457453 
L 60.8625 92.443828 
Q 60.8625 94.203828 62.6225 94.203828 
z
" style="fill: #ffffff; opacity: 0.8; stroke: #cccccc; stroke-linejoin: miter"/>
    </g>
    <g id="line2d_32">
     <path d="M 64.3825 58.171953 
L 73.1825 58.171953 
L 81.9825 58.171953 
" style="fill: none; stroke: #1a1a1a; stroke-width: 2.6; stroke-linecap: square"/>
    </g>
    <g id="text_30">
     <text style="font-size: 8.8px; font-family: 'Source Han Sans CN', 'Noto Sans CJK SC', 'Microsoft YaHei UI', 'Microsoft YaHei', 'PingFang SC', 'Heiti SC', 'SimHei', 'DejaVu Sans', sans-serif; text-anchor: start" x="89.0225" y="61.251953" transform="rotate(-0 89.0225 61.251953)">代表轨迹</text>
    </g>
    <g id="patch_39">
     <path d="M 64.3825 74.874078 
L 81.9825 74.874078 
L 81.9825 68.714078 
L 64.3825 68.714078 
z
" style="fill: #d9d9d9; stroke: #111111; stroke-linejoin: miter"/>
    </g>
    <g id="text_31">
     <text style="font-size: 8.8px; font-family: 'Source Han Sans CN', 'Noto Sans CJK SC', 'Microsoft YaHei UI', 'Microsoft YaHei', 'PingFang SC', 'Heiti SC', 'SimHei', 'DejaVu Sans', sans-serif; text-anchor: start" x="89.0225" y="74.874078" transform="rotate(-0 89.0225 74.874078)">静态障碍物</text>
    </g>
    <g id="line2d_33">
     <path d="M 64.3825 85.416203 
L 73.1825 85.416203 
L 81.9825 85.416203 
" style="fill: none; stroke-dasharray: 4.07,1.76; stroke-dashoffset: 0; stroke: #2b2b2b; stroke-width: 1.1"/>
    </g>
    <g id="text_32">
     <text style="font-size: 8.8px; font-family: 'Source Han Sans CN', 'Noto Sans CJK SC', 'Microsoft YaHei UI', 'Microsoft YaHei', 'PingFang SC', 'Heiti SC', 'SimHei', 'DejaVu Sans', sans-serif; text-anchor: start" x="89.0225" y="88.496203" transform="rotate(-0 89.0225 88.496203)">风险场等值线</text>
    </g>
   </g>
  </g>
 </g>
 <defs>
  <clipPath id="pa269a44de9">
   <rect x="56.4625" y="46.297453" width="649.184516" height="487.872"/>
  </clipPath>
 </defs>
 <defs>
  <pattern id="h7aad02f4c1" patternUnits="userSpaceOnUse" x="0" y="0" width="72" height="72">
   <rect x="0" y="0" width="73" height="73" fill="none"/>
   <path d="M -36 36 
L 36 -36 
M -32 40 
L 40 -32 
M -28 44 
L 44 -28 
M -24 48 
L 48 -24 
M -20 52 
L 52 -20 
M -16 56 
L 56 -16 
M -12 60 
L 60 -12 
M -8 64 
L 64 -8 
M -4 68 
L 68 -4 
M 0 72 
L 72 0 
M 4 76 
L 76 4 
M 8 80 
L 80 8 
M 12 84 
L 84 12 
M 16 88 
L 88 16 
M 20 92 
L 92 20 
M 24 96 
L 96 24 
M 28 100 
L 100 28 
M 32 104 
L 104 32 
M 36 108 
L 108 36 
" style="fill: #333333; stroke: #333333; stroke-width: 1.0; stroke-linecap: butt; stroke-linejoin: miter"/>
  </pattern>
 </defs>
</svg>
