<?xml version="1.0" encoding="utf-8" standalone="no"?>
<!DOCTYPE svg PUBLIC "-//W3C//DTD SVG 1.1//EN"
  "http://www.w3.org/Graphics/SVG/1.1/DTD/svg11.dtd">
<svg xmlns:xlink="http://www.w3.org/1999/xlink" width="812.34pt" height="485.64pt" viewBox="0 0 812.34 485.64" xmlns="http://www.w3.org/2000/svg" version="1.1">
 <metadata>
  <rdf:RDF xmlns:dc="http://purl.org/dc/elements/1.1/" xmlns:cc="http://creativecommons.org/ns#" xmlns:rdf="http://www.w3.org/1999/02/22-rdf-syntax-ns#">
   <cc:Work>
    <dc:type rdf:resource="http://purl.org/dc/dcmitype/StillImage"/>
    <dc:date>2026-04-11T00:00:27.535088</dc:date>
    <dc:format>image/svg+xml</dc:format>
    <dc:creator>
     <cc:Agent>
      <dc:title>Matplotlib v3.10.7, https://matplotlib.org/</dc:title>
     </cc:Agent>
    </dc:creator>
   </cc:Work>
  </rdf:RDF>
 </metadata>
 <defs>
  <style type="text/css">*{stroke-linejoin: round; stroke-linecap: butt}</style>
 </defs>
 <g id="figure_1">
  <g id="patch_1">
   <path d="M 0 485.64 
L 812.34 485.64 
L 812.34 0 
L 0 0 
z
" style="fill: #ffffff"/>
  </g>
  <g id="axes_1">
   <g id="patch_2">
    <path d="M 71.0352 332.3556 
L 182.7468 332.3556 
Q 214.6644 332.3556 214.6644 313.506 
L 214.6644 219.258 
Q 214.6644 200.4084 182.7468 200.4084 
L 71.0352 200.4084 
Q 39.1176 200.4084 39.1176 219.258 
L 39.1176 313.506 
Q 39.1176 332.3556 71.0352 332.3556 
z
" clip-path="url(#p4b773f1549)" style="fill: #fafafa; stroke: #111111; stroke-width: 1.7; stroke-linejoin: miter"/>
   </g>
   <g id="patch_3">
    <path d="M 159.681073 245.831681 
C 161.056578 245.831681 162.375932 245.508938 163.348561 244.934531 
C 164.321189 244.360125 164.867683 243.580954 164.867683 242.768621 
C 164.867683 241.956288 164.321189 241.177117 163.348561 240.60271 
C 162.375932 240.028304 161.056578 239.705561 159.681073 239.705561 
C 158.305568 239.705561 156.986215 240.028304 156.013586 240.60271 
C 155.040957 241.177117 154.494463 241.956288 154.494463 242.768621 
C 154.494463 243.580954 155.040957 244.360125 156.013586 244.934531 
C 156.986215 245.508938 158.305568 245.831681 159.681073 245.831681 
z
" clip-path="url(#p4b773f1549)" style="fill: #1a1a1a; stroke: #111111; stroke-width: 0.6; stroke-linejoin: miter"/>
   </g>
   <g id="patch_4">
    <path d="M 119.575299 295.346782 
C 120.950804 295.346782 122.270157 295.024039 123.242786 294.449632 
C 124.215415 293.875226 124.761909 293.096055 124.761909 292.283722 
C 124.761909 291.471389 124.215415 290.692218 123.242786 290.117811 
C 122.270157 289.543405 120.950804 289.220662 119.575299 289.220662 
C 118.199794 289.220662 116.880441 289.543405 115.907812 290.117811 
C 114.935183 290.692218 114.388689 291.471389 114.388689 292.283722 
C 114.388689 293.096055 114.935183 293.875226 115.907812 294.449632 
C 116.880441 295.024039 118.199794 295.346782 119.575299 295.346782 
z
" clip-path="url(#p4b773f1549)" style="fill: #555555; stroke: #111111; stroke-width: 0.6; stroke-linejoin: miter"/>
   </g>
   <g id="patch_5">
    <path d="M 169.811944 272.267891 
C 171.187449 272.267891 172.506802 271.945148 173.479431 271.370741 
C 174.45206 270.796335 174.998554 270.017164 174.998554 269.204831 
C 174.998554 268.392498 174.45206 267.613327 173.479431 267.03892 
C 172.506802 266.464514 171.187449 266.141771 169.811944 266.141771 
C 168.436439 266.141771 167.117085 266.464514 166.144457 267.03892 
C 165.171828 267.613327 164.625334 268.392498 164.625334 269.204831 
C 164.625334 270.017164 165.171828 270.796335 166.144457 271.370741 
C 167.117085 271.945148 168.436439 272.267891 169.811944 272.267891 
z
" clip-path="url(#p4b773f1549)" style="fill: #2b2b2b; stroke: #111111; stroke-width: 0.6; stroke-linejoin: miter"/>
   </g>
   <g id="patch_6">
    <path d="M 150.514177 308.141084 
C 151.889682 308.141084 153.209035 307.818341 154.181664 307.243935 
C 155.154293 306.669529 155.700787 305.890357 155.700787 305.078024 
C 155.700787 304.265691 155.154293 303.48652 154.181664 302.912114 
C 153.209035 302.337708 151.889682 302.014964 150.514177 302.014964 
C 149.138672 302.014964 147.819319 302.337708 146.84669 302.912114 
C 145.874061 303.48652 145.327567 304.265691 145.327567 305.078024 
C 145.327567 305.890357 145.874061 306.669529 146.84669 307.243935 
C 147.819319 307.818341 149.138672 308.141084 150.514177 308.141084 
z
" clip-path="url(#p4b773f1549)" style="fill: #111111; stroke: #111111; stroke-width: 0.6; stroke-linejoin: miter"/>
   </g>
   <g id="patch_7">
    <path d="M 78.317681 298.769332 
C 79.693186 298.769332 81.012539 298.446588 81.985168 297.872182 
C 82.957797 297.297776 83.504291 296.518605 83.504291 295.706272 
C 83.504291 294.893939 82.957797 294.114767 81.985168 293.540361 
C 81.012539 292.965955 79.693186 292.643212 78.317681 292.643212 
C 76.942176 292.643212 75.622823 292.965955 74.650194 293.540361 
C 73.677565 294.114767 73.131071 294.893939 73.131071 295.706272 
C 73.131071 296.518605 73.677565 297.297776 74.650194 297.872182 
C 75.622823 298.446588 76.942176 298.769332 78.317681 298.769332 
z
" clip-path="url(#p4b773f1549)" style="fill: #1a1a1a; stroke: #111111; stroke-width: 0.6; stroke-linejoin: miter"/>
   </g>
   <g id="patch_8">
    <path d="M 183.818715 253.918262 
C 185.19422 253.918262 186.513573 253.595519 187.486202 253.021113 
C 188.458831 252.446706 189.005325 251.667535 189.005325 250.855202 
C 189.005325 250.042869 188.458831 249.263698 187.486202 248.689292 
C 186.513573 248.114885 185.19422 247.792142 183.818715 247.792142 
C 182.44321 247.792142 181.123857 248.114885 180.151228 248.689292 
C 179.178599 249.263698 178.632105 250.042869 178.632105 250.855202 
C 178.632105 251.667535 179.178599 252.446706 180.151228 253.021113 
C 181.123857 253.595519 182.44321 253.918262 183.818715 253.918262 
z
" clip-path="url(#p4b773f1549)" style="fill: #555555; stroke: #111111; stroke-width: 0.6; stroke-linejoin: miter"/>
   </g>
   <g id="patch_9">
    <path d="M 158.147072 248.683551 
C 159.522577 248.683551 160.84193 248.360807 161.814559 247.786401 
C 162.787188 247.211995 163.333682 246.432824 163.333682 245.620491 
C 163.333682 244.808158 162.787188 244.028986 161.814559 243.45458 
C 160.84193 242.880174 159.522577 242.557431 158.147072 242.557431 
C 156.771567 242.557431 155.452214 242.880174 154.479585 243.45458 
C 153.506956 244.028986 152.960462 244.808158 152.960462 245.620491 
C 152.960462 246.432824 153.506956 247.211995 154.479585 247.786401 
C 155.452214 248.360807 156.771567 248.683551 158.147072 248.683551 
z
" clip-path="url(#p4b773f1549)" style="fill: #2b2b2b; stroke: #111111; stroke-width: 0.6; stroke-linejoin: miter"/>
   </g>
   <g id="patch_10">
    <path d="M 161.130323 229.789388 
C 162.505828 229.789388 163.825181 229.466645 164.79781 228.892239 
C 165.770439 228.317833 166.316933 227.538661 166.316933 226.726328 
C 166.316933 225.913995 165.770439 225.134824 164.79781 224.560418 
C 163.825181 223.986012 162.505828 223.663268 161.130323 223.663268 
C 159.754818 223.663268 158.435465 223.986012 157.462836 224.560418 
C 156.490207 225.134824 155.943713 225.913995 155.943713 226.726328 
C 155.943713 227.538661 156.490207 228.317833 157.462836 228.892239 
C 158.435465 229.466645 159.754818 229.789388 161.130323 229.789388 
z
" clip-path="url(#p4b773f1549)" style="fill: #111111; stroke: #111111; stroke-width: 0.6; stroke-linejoin: miter"/>
   </g>
   <g id="patch_11">
    <path d="M 82.379549 284.21911 
C 83.755054 284.21911 85.074407 283.896367 86.047036 283.321961 
C 87.019665 282.747555 87.566159 281.968383 87.566159 281.15605 
C 87.566159 280.343717 87.019665 279.564546 86.047036 278.99014 
C 85.074407 278.415734 83.755054 278.09299 82.379549 278.09299 
C 81.004044 278.09299 79.684691 278.415734 78.712062 278.99014 
C 77.739433 279.564546 77.192939 280.343717 77.192939 281.15605 
C 77.192939 281.968383 77.739433 282.747555 78.712062 283.321961 
C 79.684691 283.896367 81.004044 284.21911 82.379549 284.21911 
z
" clip-path="url(#p4b773f1549)" style="fill: #1a1a1a; stroke: #111111; stroke-width: 0.6; stroke-linejoin: miter"/>
   </g>
   <g id="patch_12">
    <path d="M 120.952643 280.433082 
C 122.328148 280.433082 123.647501 280.110339 124.62013 279.535933 
C 125.592759 278.961527 126.139253 278.182355 126.139253 277.370022 
C 126.139253 276.557689 125.592759 275.778518 124.62013 275.204112 
C 123.647501 274.629706 122.328148 274.306962 120.952643 274.306962 
C 119.577138 274.306962 118.257785 274.629706 117.285156 275.204112 
C 116.312527 275.778518 115.766033 276.557689 115.766033 277.370022 
C 115.766033 278.182355 116.312527 278.961527 117.285156 279.535933 
C 118.257785 280.110339 119.577138 280.433082 120.952643 280.433082 
z
" clip-path="url(#p4b773f1549)" style="fill: #555555; stroke: #111111; stroke-width: 0.6; stroke-linejoin: miter"/>
   </g>
   <g id="patch_13">
    <path d="M 111.426686 272.027434 
C 112.802191 272.027434 114.121544 271.70469 115.094173 271.130284 
C 116.066802 270.555878 116.613296 269.776707 116.613296 268.964374 
C 116.613296 268.152041 116.066802 267.372869 115.094173 266.798463 
C 114.121544 266.224057 112.802191 265.901314 111.426686 265.901314 
C 110.051181 265.901314 108.731828 266.224057 107.759199 266.798463 
C 106.78657 267.372869 106.240076 268.152041 106.240076 268.964374 
C 106.240076 269.776707 106.78657 270.555878 107.759199 271.130284 
C 108.731828 271.70469 110.051181 272.027434 111.426686 272.027434 
z
" clip-path="url(#p4b773f1549)" style="fill: #2b2b2b; stroke: #111111; stroke-width: 0.6; stroke-linejoin: miter"/>
   </g>
   <g id="patch_14">
    <path d="M 177.970928 295.785093 
C 179.346433 295.785093 180.665786 295.46235 181.638415 294.887944 
C 182.611044 294.313537 183.157538 293.534366 183.157538 292.722033 
C 183.157538 291.9097 182.611044 291.130529 181.638415 290.556123 
C 180.665786 289.981716 179.346433 289.658973 177.970928 289.658973 
C 176.595423 289.658973 175.27607 289.981716 174.303441 290.556123 
C 173.330812 291.130529 172.784318 291.9097 172.784318 292.722033 
C 172.784318 293.534366 173.330812 294.313537 174.303441 294.887944 
C 175.27607 295.46235 176.595423 295.785093 177.970928 295.785093 
z
" clip-path="url(#p4b773f1549)" style="fill: #111111; stroke: #111111; stroke-width: 0.6; stroke-linejoin: miter"/>
   </g>
   <g id="patch_15">
    <path d="M 144.11036 300.836302 
C 145.485865 300.836302 146.805218 300.513559 147.777847 299.939153 
C 148.750476 299.364746 149.29697 298.585575 149.29697 297.773242 
C 149.29697 296.960909 148.750476 296.181738 147.777847 295.607332 
C 146.805218 295.032925 145.485865 294.710182 144.11036 294.710182 
C 142.734855 294.710182 141.415502 295.032925 140.442873 295.607332 
C 139.470244 296.181738 138.92375 296.960909 138.92375 297.773242 
C 138.92375 298.585575 139.470244 299.364746 140.442873 299.939153 
C 141.415502 300.513559 142.734855 300.836302 144.11036 300.836302 
z
" clip-path="url(#p4b773f1549)" style="fill: #1a1a1a; stroke: #111111; stroke-width: 0.6; stroke-linejoin: miter"/>
   </g>
   <g id="patch_16">
    <path d="M 165.52266 271.505846 
C 166.898165 271.505846 168.217518 271.183103 169.190147 270.608696 
C 170.162776 270.03429 170.70927 269.255119 170.70927 268.442786 
C 170.70927 267.630453 170.162776 266.851282 169.190147 266.276875 
C 168.217518 265.702469 166.898165 265.379726 165.52266 265.379726 
C 164.147155 265.379726 162.827802 265.702469 161.855173 266.276875 
C 160.882544 266.851282 160.33605 267.630453 160.33605 268.442786 
C 160.33605 269.255119 160.882544 270.03429 161.855173 270.608696 
C 162.827802 271.183103 164.147155 271.505846 165.52266 271.505846 
z
" clip-path="url(#p4b773f1549)" style="fill: #555555; stroke: #111111; stroke-width: 0.6; stroke-linejoin: miter"/>
   </g>
   <g id="patch_17">
    <path d="M 120.118189 292.609483 
C 121.493694 292.609483 122.813047 292.28674 123.785676 291.712333 
C 124.758305 291.137927 125.304799 290.358756 125.304799 289.546423 
C 125.304799 288.73409 124.758305 287.954919 123.785676 287.380512 
C 122.813047 286.806106 121.493694 286.483363 120.118189 286.483363 
C 118.742684 286.483363 117.423331 286.806106 116.450702 287.380512 
C 115.478073 287.954919 114.931579 288.73409 114.931579 289.546423 
C 114.931579 290.358756 115.478073 291.137927 116.450702 291.712333 
C 117.423331 292.28674 118.742684 292.609483 120.118189 292.609483 
z
" clip-path="url(#p4b773f1549)" style="fill: #2b2b2b; stroke: #111111; stroke-width: 0.6; stroke-linejoin: miter"/>
   </g>
   <g id="patch_18">
    <path d="M 94.24393 255.040894 
C 95.619435 255.040894 96.938788 254.71815 97.911417 254.143744 
C 98.884046 253.569338 99.43054 252.790167 99.43054 251.977834 
C 99.43054 251.165501 98.884046 250.386329 97.911417 249.811923 
C 96.938788 249.237517 95.619435 248.914774 94.24393 248.914774 
C 92.868425 248.914774 91.549072 249.237517 90.576443 249.811923 
C 89.603814 250.386329 89.05732 251.165501 89.05732 251.977834 
C 89.05732 252.790167 89.603814 253.569338 90.576443 254.143744 
C 91.549072 254.71815 92.868425 255.040894 94.24393 255.040894 
z
" clip-path="url(#p4b773f1549)" style="fill: #111111; stroke: #111111; stroke-width: 0.6; stroke-linejoin: miter"/>
   </g>
   <g id="patch_19">
    <path d="M 133.424308 274.776035 
C 134.799813 274.776035 136.119166 274.453292 137.091795 273.878886 
C 138.064424 273.30448 138.610918 272.525308 138.610918 271.712975 
C 138.610918 270.900642 138.064424 270.121471 137.091795 269.547065 
C 136.119166 268.972659 134.799813 268.649915 133.424308 268.649915 
C 132.048803 268.649915 130.72945 268.972659 129.756821 269.547065 
C 128.784192 270.121471 128.237698 270.900642 128.237698 271.712975 
C 128.237698 272.525308 128.784192 273.30448 129.756821 273.878886 
C 130.72945 274.453292 132.048803 274.776035 133.424308 274.776035 
z
" clip-path="url(#p4b773f1549)" style="fill: #1a1a1a; stroke: #111111; stroke-width: 0.6; stroke-linejoin: miter"/>
   </g>
   <g id="patch_20">
    <path d="M 74.683851 241.226231 
C 76.059356 241.226231 77.378709 240.903488 78.351338 240.329081 
C 79.323967 239.754675 79.870461 238.975504 79.870461 238.163171 
C 79.870461 237.350838 79.323967 236.571667 78.351338 235.99726 
C 77.378709 235.422854 76.059356 235.100111 74.683851 235.100111 
C 73.308346 235.100111 71.988993 235.422854 71.016364 235.99726 
C 70.043735 236.571667 69.497241 237.350838 69.497241 238.163171 
C 69.497241 238.975504 70.043735 239.754675 71.016364 240.329081 
C 71.988993 240.903488 73.308346 241.226231 74.683851 241.226231 
z
" clip-path="url(#p4b773f1549)" style="fill: #555555; stroke: #111111; stroke-width: 0.6; stroke-linejoin: miter"/>
   </g>
   <g id="patch_21">
    <path d="M 166.105503 252.457933 
C 167.481008 252.457933 168.800361 252.13519 169.77299 251.560784 
C 170.745619 250.986378 171.292113 250.207206 171.292113 249.394873 
C 171.292113 248.58254 170.745619 247.803369 169.77299 247.228963 
C 168.800361 246.654557 167.481008 246.331813 166.105503 246.331813 
C 164.729998 246.331813 163.410644 246.654557 162.438016 247.228963 
C 161.465387 247.803369 160.918893 248.58254 160.918893 249.394873 
C 160.918893 250.207206 161.465387 250.986378 162.438016 251.560784 
C 163.410644 252.13519 164.729998 252.457933 166.105503 252.457933 
z
" clip-path="url(#p4b773f1549)" style="fill: #2b2b2b; stroke: #111111; stroke-width: 0.6; stroke-linejoin: miter"/>
   </g>
   <g id="patch_22">
    <path d="M 142.650044 285.360722 
C 144.025549 285.360722 145.344902 285.037979 146.317531 284.463572 
C 147.29016 283.889166 147.836654 283.109995 147.836654 282.297662 
C 147.836654 281.485329 147.29016 280.706158 146.317531 280.131751 
C 145.344902 279.557345 144.025549 279.234602 142.650044 279.234602 
C 141.274539 279.234602 139.955185 279.557345 138.982556 280.131751 
C 138.009928 280.706158 137.463434 281.485329 137.463434 282.297662 
C 137.463434 283.109995 138.009928 283.889166 138.982556 284.463572 
C 139.955185 285.037979 141.274539 285.360722 142.650044 285.360722 
z
" clip-path="url(#p4b773f1549)" style="fill: #111111; stroke: #111111; stroke-width: 0.6; stroke-linejoin: miter"/>
   </g>
   <g id="patch_23">
    <path d="M 157.78178 241.26172 
C 159.157285 241.26172 160.476638 240.938977 161.449267 240.364571 
C 162.421896 239.790165 162.96839 239.010993 162.96839 238.19866 
C 162.96839 237.386327 162.421896 236.607156 161.449267 236.03275 
C 160.476638 235.458344 159.157285 235.1356 157.78178 235.1356 
C 156.406275 235.1356 155.086922 235.458344 154.114293 236.03275 
C 153.141664 236.607156 152.59517 237.386327 152.59517 238.19866 
C 152.59517 239.010993 153.141664 239.790165 154.114293 240.364571 
C 155.086922 240.938977 156.406275 241.26172 157.78178 241.26172 
z
" clip-path="url(#p4b773f1549)" style="fill: #1a1a1a; stroke: #111111; stroke-width: 0.6; stroke-linejoin: miter"/>
   </g>
   <g id="patch_24">
    <path d="M 109.479068 243.593972 
C 110.854573 243.593972 112.173926 243.271229 113.146555 242.696822 
C 114.119184 242.122416 114.665678 241.343245 114.665678 240.530912 
C 114.665678 239.718579 114.119184 238.939408 113.146555 238.365001 
C 112.173926 237.790595 110.854573 237.467852 109.479068 237.467852 
C 108.103563 237.467852 106.784209 237.790595 105.811581 238.365001 
C 104.838952 238.939408 104.292458 239.718579 104.292458 240.530912 
C 104.292458 241.343245 104.838952 242.122416 105.811581 242.696822 
C 106.784209 243.271229 108.103563 243.593972 109.479068 243.593972 
z
" clip-path="url(#p4b773f1549)" style="fill: #555555; stroke: #111111; stroke-width: 0.6; stroke-linejoin: miter"/>
   </g>
   <g id="patch_25">
    <path d="M 183.229317 278.989504 
C 184.604822 278.989504 185.924175 278.666761 186.896804 278.092354 
C 187.869433 277.517948 188.415927 276.738777 188.415927 275.926444 
C 188.415927 275.114111 187.869433 274.33494 186.896804 273.760533 
C 185.924175 273.186127 184.604822 272.863384 183.229317 272.863384 
C 181.853812 272.863384 180.534459 273.186127 179.56183 273.760533 
C 178.589201 274.33494 178.042707 275.114111 178.042707 275.926444 
C 178.042707 276.738777 178.589201 277.517948 179.56183 278.092354 
C 180.534459 278.666761 181.853812 278.989504 183.229317 278.989504 
z
" clip-path="url(#p4b773f1549)" style="fill: #2b2b2b; stroke: #111111; stroke-width: 0.6; stroke-linejoin: miter"/>
   </g>
   <g id="patch_26">
    <path d="M 173.94406 287.399748 
C 175.319565 287.399748 176.638918 287.077004 177.611547 286.502598 
C 178.584176 285.928192 179.13067 285.149021 179.13067 284.336688 
C 179.13067 283.524355 178.584176 282.745183 177.611547 282.170777 
C 176.638918 281.596371 175.319565 281.273628 173.94406 281.273628 
C 172.568555 281.273628 171.249202 281.596371 170.276573 282.170777 
C 169.303944 282.745183 168.75745 283.524355 168.75745 284.336688 
C 168.75745 285.149021 169.303944 285.928192 170.276573 286.502598 
C 171.249202 287.077004 172.568555 287.399748 173.94406 287.399748 
z
" clip-path="url(#p4b773f1549)" style="fill: #111111; stroke: #111111; stroke-width: 0.6; stroke-linejoin: miter"/>
   </g>
   <g id="patch_27">
    <path d="M 278.4996 266.382 
L 390.2112 266.382 
Q 406.17 266.382 406.17 256.9572 
L 406.17 214.5456 
Q 406.17 205.1208 390.2112 205.1208 
L 278.4996 205.1208 
Q 262.5408 205.1208 262.5408 214.5456 
L 262.5408 256.9572 
Q 262.5408 266.382 278.4996 266.382 
z
" clip-path="url(#p4b773f1549)" style="fill: #f7f7f7; stroke: #111111; stroke-width: 1.7; stroke-linejoin: miter"/>
   </g>
   <g id="patch_28">
    <path d="M 284.88312 237.070872 
L 319.99248 237.070872 
Q 327.97188 237.070872 327.97188 232.358472 
L 327.97188 218.31552 
Q 327.97188 213.60312 319.99248 213.60312 
L 284.88312 213.60312 
Q 276.90372 213.60312 276.90372 218.31552 
L 276.90372 232.358472 
Q 276.90372 237.070872 284.88312 237.070872 
z
" clip-path="url(#p4b773f1549)" style="fill: #ffffff; stroke: #111111; stroke-width: 1.1; stroke-linejoin: miter"/>
   </g>
   <g id="patch_29">
    <path d="M 278.4996 351.2052 
L 390.2112 351.2052 
Q 406.17 351.2052 406.17 341.7804 
L 406.17 299.3688 
Q 406.17 289.944 390.2112 289.944 
L 278.4996 289.944 
Q 262.5408 289.944 262.5408 299.3688 
L 262.5408 341.7804 
Q 262.5408 351.2052 278.4996 351.2052 
z
" clip-path="url(#p4b773f1549)" style="fill: #f7f7f7; stroke: #111111; stroke-width: 1.7; stroke-linejoin: miter"/>
   </g>
   <g id="patch_30">
    <path d="M 284.88312 321.894072 
L 319.99248 321.894072 
Q 327.97188 321.894072 327.97188 317.181672 
L 327.97188 303.13872 
Q 327.97188 298.42632 319.99248 298.42632 
L 284.88312 298.42632 
Q 276.90372 298.42632 276.90372 303.13872 
L 276.90372 317.181672 
Q 276.90372 321.894072 284.88312 321.894072 
z
" clip-path="url(#p4b773f1549)" style="fill: #ffffff; stroke: #111111; stroke-width: 1.1; stroke-linejoin: miter"/>
   </g>
   <g id="patch_31">
    <path d="M 470.0052 266.382 
L 597.6756 266.382 
Q 613.6344 266.382 613.6344 256.9572 
L 613.6344 214.5456 
Q 613.6344 205.1208 597.6756 205.1208 
L 470.0052 205.1208 
Q 454.0464 205.1208 454.0464 214.5456 
L 454.0464 256.9572 
Q 454.0464 266.382 470.0052 266.382 
z
" clip-path="url(#p4b773f1549)" style="fill: #eeeeee; stroke: #111111; stroke-width: 1.7; stroke-linejoin: miter"/>
   </g>
   <g id="patch_32">
    <path d="M 470.0052 351.2052 
L 597.6756 351.2052 
Q 613.6344 351.2052 613.6344 341.7804 
L 613.6344 299.3688 
Q 613.6344 289.944 597.6756 289.944 
L 470.0052 289.944 
Q 454.0464 289.944 454.0464 299.3688 
L 454.0464 341.7804 
Q 454.0464 351.2052 470.0052 351.2052 
z
" clip-path="url(#p4b773f1549)" style="fill: #eeeeee; stroke: #111111; stroke-width: 1.7; stroke-linejoin: miter"/>
   </g>
   <g id="patch_33">
    <path d="M 669.4902 266.382 
L 749.2842 266.382 
Q 765.243 266.382 765.243 256.9572 
L 765.243 214.5456 
Q 765.243 205.1208 749.2842 205.1208 
L 669.4902 205.1208 
Q 653.5314 205.1208 653.5314 214.5456 
L 653.5314 256.9572 
Q 653.5314 266.382 669.4902 266.382 
z
" clip-path="url(#p4b773f1549)" style="fill: #e6e6e6; stroke: #111111; stroke-width: 1.7; stroke-linejoin: miter"/>
   </g>
   <g id="patch_34">
    <path d="M 669.4902 351.2052 
L 749.2842 351.2052 
Q 765.243 351.2052 765.243 341.7804 
L 765.243 299.3688 
Q 765.243 289.944 749.2842 289.944 
L 669.4902 289.944 
Q 653.5314 289.944 653.5314 299.3688 
L 653.5314 341.7804 
Q 653.5314 351.2052 669.4902 351.2052 
z
" clip-path="url(#p4b773f1549)" style="fill: #e6e6e6; stroke: #111111; stroke-width: 1.7; stroke-linejoin: miter"/>
   </g>
   <g id="patch_35">
    <path d="M 206.685 266.382 
Q 238.6026 251.0667 268.806605 236.573649 
" clip-path="url(#p4b773f1549)" style="fill: none; stroke: #111111; stroke-width: 1.7; stroke-linecap: round"/>
    <path d="M 263.440752 236.486399 
L 268.806605 236.573649 
L 265.517293 240.813982 
z
" clip-path="url(#p4b773f1549)" style="fill: #111111; stroke: #111111; stroke-width: 1.7; stroke-linecap: round"/>
   </g>
   <g id="patch_36">
    <path d="M 206.685 266.382 
Q 238.6026 293.4783 269.07126 319.344529 
" clip-path="url(#p4b773f1549)" style="fill: none; stroke: #111111; stroke-width: 1.7; stroke-linecap: round"/>
    <path d="M 266.965284 314.408452 
L 269.07126 319.344529 
L 263.858812 318.067664 
z
" clip-path="url(#p4b773f1549)" style="fill: #111111; stroke: #111111; stroke-width: 1.7; stroke-linecap: round"/>
   </g>
   <g id="patch_37">
    <path d="M 398.1906 235.7514 
Q 430.1082 235.7514 460.125142 235.7514 
" clip-path="url(#p4b773f1549)" style="fill: none; stroke: #111111; stroke-width: 1.7; stroke-linecap: round"/>
    <path d="M 455.325142 233.3514 
L 460.125142 235.7514 
L 455.325142 238.1514 
z
" clip-path="url(#p4b773f1549)" style="fill: #111111; stroke: #111111; stroke-width: 1.7; stroke-linecap: round"/>
   </g>
   <g id="patch_38">
    <path d="M 398.1906 320.5746 
Q 430.1082 320.5746 460.125142 320.5746 
" clip-path="url(#p4b773f1549)" style="fill: none; stroke: #111111; stroke-width: 1.7; stroke-linecap: round"/>
    <path d="M 455.325142 318.1746 
L 460.125142 320.5746 
L 455.325142 322.9746 
z
" clip-path="url(#p4b773f1549)" style="fill: #111111; stroke: #111111; stroke-width: 1.7; stroke-linecap: round"/>
   </g>
   <g id="patch_39">
    <path d="M 605.655 235.7514 
Q 633.5829 235.7514 659.610142 235.7514 
" clip-path="url(#p4b773f1549)" style="fill: none; stroke: #111111; stroke-width: 1.7; stroke-linecap: round"/>
    <path d="M 654.810142 233.3514 
L 659.610142 235.7514 
L 654.810142 238.1514 
z
" clip-path="url(#p4b773f1549)" style="fill: #111111; stroke: #111111; stroke-width: 1.7; stroke-linecap: round"/>
   </g>
   <g id="patch_40">
    <path d="M 605.655 320.5746 
Q 633.5829 320.5746 659.610142 320.5746 
" clip-path="url(#p4b773f1549)" style="fill: none; stroke: #111111; stroke-width: 1.7; stroke-linecap: round"/>
    <path d="M 654.810142 318.1746 
L 659.610142 320.5746 
L 654.810142 322.9746 
z
" clip-path="url(#p4b773f1549)" style="fill: #111111; stroke: #111111; stroke-width: 1.7; stroke-linecap: round"/>
   </g>
   <g id="text_1">
    <text style="font-weight: 700; font-size: 18px; font-family: 'Microsoft YaHei', 'SimHei', 'DejaVu Sans', sans-serif; text-anchor: start; fill: #101010" x="31.1382" y="45.15075" transform="rotate(-0 31.1382 45.15075)">图5 统一候选池与约束支配环境选择示意图</text>
   </g>
   <g id="text_2">
    <text style="font-size: 10.5px; font-family: 'Microsoft YaHei', 'SimHei', 'DejaVu Sans', sans-serif; text-anchor: start; fill: #3d3d3d" x="31.1382" y="58.005037" transform="rotate(-0 31.1382 58.005037)">先比较约束违背度，再比较非支配关系与多样性，由统一竞争得到轨迹解集与安全优先的代表轨迹。</text>
   </g>
   <g id="text_3">
    <text style="font-size: 12px; font-family: 'Microsoft YaHei', 'SimHei', 'DejaVu Sans', sans-serif; text-anchor: middle; fill: #101010" x="126.891" y="269.686687" transform="rotate(-0 126.891 269.686687)">340 统一候选池</text>
   </g>
   <g id="text_4">
    <text style="font-size: 10.5px; font-family: 'Microsoft YaHei', 'SimHei', 'DejaVu Sans', sans-serif; text-anchor: middle; fill: #101010" x="334.3554" y="238.643002" transform="rotate(-0 334.3554 238.643002)">目标值评价</text>
   </g>
   <g id="text_5">
    <text style="font-weight: 700; font-size: 8.7px; font-family: 'Microsoft YaHei', 'SimHei', 'DejaVu Sans', sans-serif; text-anchor: middle; fill: #101010" x="302.4378" y="227.732894" transform="rotate(-0 302.4378 227.732894)">F</text>
   </g>
   <g id="text_6">
    <text style="font-size: 10.5px; font-family: 'Microsoft YaHei', 'SimHei', 'DejaVu Sans', sans-serif; text-anchor: middle; fill: #101010" x="334.3554" y="323.466202" transform="rotate(-0 334.3554 323.466202)">约束违背度评价</text>
   </g>
   <g id="text_7">
    <text style="font-weight: 700; font-size: 8.7px; font-family: 'Microsoft YaHei', 'SimHei', 'DejaVu Sans', sans-serif; text-anchor: middle; fill: #101010" x="302.4378" y="312.556094" transform="rotate(-0 302.4378 312.556094)">CV</text>
   </g>
   <g id="text_8">
    <text style="font-size: 10px; font-family: 'Microsoft YaHei', 'SimHei', 'DejaVu Sans', sans-serif; text-anchor: middle; fill: #101010" x="533.8404" y="238.505306" transform="rotate(-0 533.8404 238.505306)">第一层：约束支配比较</text>
   </g>
   <g id="text_9">
    <text style="font-size: 10px; font-family: 'Microsoft YaHei', 'SimHei', 'DejaVu Sans', sans-serif; fill: #101010" transform="translate(488.8404 316.8896)">第二层：非支配排序</text>
    <text style="font-size: 10px; font-family: 'Microsoft YaHei', 'SimHei', 'DejaVu Sans', sans-serif; fill: #101010" transform="translate(503.652119 329.767412)">+ 多样性保持</text>
   </g>
   <g id="text_10">
    <text style="font-size: 10.5px; font-family: 'Microsoft YaHei', 'SimHei', 'DejaVu Sans', sans-serif; text-anchor: middle; fill: #101010" x="709.3872" y="238.643002" transform="rotate(-0 709.3872 238.643002)">250 轨迹解集</text>
   </g>
   <g id="text_11">
    <text style="font-size: 10.5px; font-family: 'Microsoft YaHei', 'SimHei', 'DejaVu Sans', sans-serif; text-anchor: middle; fill: #101010" x="709.3872" y="323.466202" transform="rotate(-0 709.3872 323.466202)">260 代表轨迹</text>
   </g>
   <g id="text_12">
    <text style="font-size: 9.4px; font-family: 'Microsoft YaHei', 'SimHei', 'DejaVu Sans', sans-serif; text-anchor: middle; fill: #3d3d3d" x="709.3872" y="370.0548" transform="rotate(-0 709.3872 370.0548)">安全优先 + 折中效率</text>
   </g>
   <g id="text_13">
    <text style="font-size: 9.6px; font-family: 'Microsoft YaHei', 'SimHei', 'DejaVu Sans', sans-serif; text-anchor: middle; fill: #3d3d3d" x="533.8404" y="190.9836" transform="rotate(-0 533.8404 190.9836)">先比较可行性</text>
   </g>
   <g id="text_14">
    <text style="font-size: 9.6px; font-family: 'Microsoft YaHei', 'SimHei', 'DejaVu Sans', sans-serif; text-anchor: middle; fill: #3d3d3d" x="533.8404" y="374.7672" transform="rotate(-0 533.8404 374.7672)">再比较 Pareto 优势与多样性</text>
   </g>
  </g>
 </g>
 <defs>
  <clipPath id="p4b773f1549">
   <rect x="7.2" y="7.2" width="797.94" height="471.24"/>
  </clipPath>
 </defs>
</svg>
