<?xml version="1.0" encoding="utf-8" standalone="no"?>
<!DOCTYPE svg PUBLIC "-//W3C//DTD SVG 1.1//EN"
  "http://www.w3.org/Graphics/SVG/1.1/DTD/svg11.dtd">
<svg xmlns:xlink="http://www.w3.org/1999/xlink" width="840.24pt" height="502.272pt" viewBox="0 0 840.24 502.272" xmlns="http://www.w3.org/2000/svg" version="1.1">
 <metadata>
  <rdf:RDF xmlns:dc="http://purl.org/dc/elements/1.1/" xmlns:cc="http://creativecommons.org/ns#" xmlns:rdf="http://www.w3.org/1999/02/22-rdf-syntax-ns#">
   <cc:Work>
    <dc:type rdf:resource="http://purl.org/dc/dcmitype/StillImage"/>
    <dc:date>2026-04-16T21:15:26.610057</dc:date>
    <dc:format>image/svg+xml</dc:format>
    <dc:creator>
     <cc:Agent>
      <dc:title>Matplotlib v3.10.7, https://matplotlib.org/</dc:title>
     </cc:Agent>
    </dc:creator>
   </cc:Work>
  </rdf:RDF>
 </metadata>
 <defs>
  <style type="text/css">*{stroke-linejoin: round; stroke-linecap: butt}</style>
 </defs>
 <g id="figure_1">
  <g id="patch_1">
   <path d="M 0 502.272 
L 840.24 502.272 
L 840.24 0 
L 0 0 
z
" style="fill: #ffffff"/>
  </g>
  <g id="axes_1">
   <g id="patch_2">
    <path d="M 46.84032 428.721408 
L 182.27808 428.721408 
Q 192.18816 428.721408 192.18816 422.866944 
L 192.18816 98.919936 
Q 192.18816 93.065472 182.27808 93.065472 
L 46.84032 93.065472 
Q 36.93024 93.065472 36.93024 98.919936 
L 36.93024 422.866944 
Q 36.93024 428.721408 46.84032 428.721408 
L 46.84032 428.721408 
z
" clip-path="url(#p84703866c2)" style="fill: none; stroke-dasharray: 2.96,1.28; stroke-dashoffset: 0; stroke: #bdbdbd; stroke-width: 0.8; stroke-linejoin: miter"/>
   </g>
   <g id="patch_3">
    <path d="M 220.26672 189.664128 
L 653.00688 189.664128 
Q 662.91696 189.664128 662.91696 183.809664 
L 662.91696 94.041216 
Q 662.91696 88.186752 653.00688 88.186752 
L 220.26672 88.186752 
Q 210.35664 88.186752 210.35664 94.041216 
L 210.35664 183.809664 
Q 210.35664 189.664128 220.26672 189.664128 
L 220.26672 189.664128 
z
" clip-path="url(#p84703866c2)" style="fill: none; stroke-dasharray: 2.96,1.28; stroke-dashoffset: 0; stroke: #bdbdbd; stroke-width: 0.8; stroke-linejoin: miter"/>
   </g>
   <g id="patch_4">
    <path d="M 220.26672 321.389568 
L 653.00688 321.389568 
Q 662.91696 321.389568 662.91696 315.535104 
L 662.91696 240.402816 
Q 662.91696 234.548352 653.00688 234.548352 
L 220.26672 234.548352 
Q 210.35664 234.548352 210.35664 240.402816 
L 210.35664 315.535104 
Q 210.35664 321.389568 220.26672 321.389568 
L 220.26672 321.389568 
z
" clip-path="url(#p84703866c2)" style="fill: none; stroke-dasharray: 2.96,1.28; stroke-dashoffset: 0; stroke: #bdbdbd; stroke-width: 0.8; stroke-linejoin: miter"/>
   </g>
   <g id="patch_5">
    <path d="M 286.33392 457.993728 
L 603.45648 457.993728 
Q 613.36656 457.993728 613.36656 452.139264 
L 613.36656 362.370816 
Q 613.36656 356.516352 603.45648 356.516352 
L 286.33392 356.516352 
Q 276.42384 356.516352 276.42384 362.370816 
L 276.42384 452.139264 
Q 276.42384 457.993728 286.33392 457.993728 
L 286.33392 457.993728 
z
" clip-path="url(#p84703866c2)" style="fill: none; stroke-dasharray: 2.96,1.28; stroke-dashoffset: 0; stroke: #bdbdbd; stroke-width: 0.8; stroke-linejoin: miter"/>
   </g>
   <g id="patch_6">
    <path d="M 682.73712 428.721408 
L 793.39968 428.721408 
Q 803.30976 428.721408 803.30976 422.866944 
L 803.30976 98.919936 
Q 803.30976 93.065472 793.39968 93.065472 
L 682.73712 93.065472 
Q 672.82704 93.065472 672.82704 98.919936 
L 672.82704 422.866944 
Q 672.82704 428.721408 682.73712 428.721408 
L 682.73712 428.721408 
z
" clip-path="url(#p84703866c2)" style="fill: none; stroke-dasharray: 2.96,1.28; stroke-dashoffset: 0; stroke: #bdbdbd; stroke-width: 0.8; stroke-linejoin: miter"/>
   </g>
   <g id="patch_7">
    <path d="M 190.883369 134.04672 
Q 209.530001 134.04672 227.170403 134.04672 
" clip-path="url(#p84703866c2)" style="fill: none; stroke: #bdbdbd; stroke-width: 0.9; stroke-linecap: round"/>
    <path d="M 223.970403 132.44672 
L 227.170403 134.04672 
L 223.970403 135.64672 
z
" clip-path="url(#p84703866c2)" style="fill: #bdbdbd; stroke: #bdbdbd; stroke-width: 0.9; stroke-linecap: round"/>
   </g>
   <g id="patch_8">
    <path d="M 314.759369 134.04672 
Q 333.406001 134.04672 351.046403 134.04672 
" clip-path="url(#p84703866c2)" style="fill: none; stroke: #111111; stroke-width: 0.9; stroke-linecap: round"/>
    <path d="M 347.846403 132.44672 
L 351.046403 134.04672 
L 347.846403 135.64672 
z
" clip-path="url(#p84703866c2)" style="fill: #111111; stroke: #111111; stroke-width: 0.9; stroke-linecap: round"/>
   </g>
   <g id="patch_9">
    <path d="M 438.635369 134.04672 
Q 457.282001 134.04672 474.922403 134.04672 
" clip-path="url(#p84703866c2)" style="fill: none; stroke: #111111; stroke-width: 0.9; stroke-linecap: round"/>
    <path d="M 471.722403 132.44672 
L 474.922403 134.04672 
L 471.722403 135.64672 
z
" clip-path="url(#p84703866c2)" style="fill: #111111; stroke: #111111; stroke-width: 0.9; stroke-linecap: round"/>
   </g>
   <g id="patch_10">
    <path d="M 562.511369 134.04672 
Q 581.158001 134.04672 598.798403 134.04672 
" clip-path="url(#p84703866c2)" style="fill: none; stroke: #111111; stroke-width: 0.9; stroke-linecap: round"/>
    <path d="M 595.598403 132.44672 
L 598.798403 134.04672 
L 595.598403 135.64672 
z
" clip-path="url(#p84703866c2)" style="fill: #111111; stroke: #111111; stroke-width: 0.9; stroke-linecap: round"/>
   </g>
   <g id="patch_11">
    <path d="M 271.4688 223.861144 
Q 271.4688 236.498072 271.4688 248.12877 
" clip-path="url(#p84703866c2)" style="fill: none; stroke: #111111; stroke-width: 0.9; stroke-linecap: round"/>
    <path d="M 273.0688 244.92877 
L 271.4688 248.12877 
L 269.8688 244.92877 
z
" clip-path="url(#p84703866c2)" style="fill: #111111; stroke: #111111; stroke-width: 0.9; stroke-linecap: round"/>
   </g>
   <g id="patch_12">
    <path d="M 387.0864 223.861144 
Q 387.0864 236.498072 387.0864 248.12877 
" clip-path="url(#p84703866c2)" style="fill: none; stroke: #111111; stroke-width: 0.9; stroke-linecap: round"/>
    <path d="M 388.6864 244.92877 
L 387.0864 248.12877 
L 385.4864 244.92877 
z
" clip-path="url(#p84703866c2)" style="fill: #111111; stroke: #111111; stroke-width: 0.9; stroke-linecap: round"/>
   </g>
   <g id="patch_13">
    <path d="M 502.704 223.861144 
Q 502.704 236.498072 502.704 248.12877 
" clip-path="url(#p84703866c2)" style="fill: none; stroke: #111111; stroke-width: 0.9; stroke-linecap: round"/>
    <path d="M 504.304 244.92877 
L 502.704 248.12877 
L 501.104 244.92877 
z
" clip-path="url(#p84703866c2)" style="fill: #111111; stroke: #111111; stroke-width: 0.9; stroke-linecap: round"/>
   </g>
   <g id="patch_14">
    <path d="M 618.3216 223.861144 
Q 618.3216 236.498072 618.3216 248.12877 
" clip-path="url(#p84703866c2)" style="fill: none; stroke: #111111; stroke-width: 0.9; stroke-linecap: round"/>
    <path d="M 619.9216 244.92877 
L 618.3216 248.12877 
L 616.7216 244.92877 
z
" clip-path="url(#p84703866c2)" style="fill: #111111; stroke: #111111; stroke-width: 0.9; stroke-linecap: round"/>
   </g>
   <g id="patch_15">
    <path d="M 271.4688 301.920664 
Q 271.4688 314.557592 271.4688 326.18829 
" clip-path="url(#p84703866c2)" style="fill: none; stroke: #111111; stroke-width: 0.9; stroke-linecap: round"/>
    <path d="M 273.0688 322.98829 
L 271.4688 326.18829 
L 269.8688 322.98829 
z
" clip-path="url(#p84703866c2)" style="fill: #111111; stroke: #111111; stroke-width: 0.9; stroke-linecap: round"/>
   </g>
   <g id="patch_16">
    <path d="M 387.0864 301.920664 
Q 387.0864 314.557592 387.0864 326.18829 
" clip-path="url(#p84703866c2)" style="fill: none; stroke: #111111; stroke-width: 0.9; stroke-linecap: round"/>
    <path d="M 388.6864 322.98829 
L 387.0864 326.18829 
L 385.4864 322.98829 
z
" clip-path="url(#p84703866c2)" style="fill: #111111; stroke: #111111; stroke-width: 0.9; stroke-linecap: round"/>
   </g>
   <g id="patch_17">
    <path d="M 502.704 301.920664 
Q 502.704 314.557592 502.704 326.18829 
" clip-path="url(#p84703866c2)" style="fill: none; stroke: #111111; stroke-width: 0.9; stroke-linecap: round"/>
    <path d="M 504.304 322.98829 
L 502.704 326.18829 
L 501.104 322.98829 
z
" clip-path="url(#p84703866c2)" style="fill: #111111; stroke: #111111; stroke-width: 0.9; stroke-linecap: round"/>
   </g>
   <g id="patch_18">
    <path d="M 618.3216 301.920664 
Q 618.3216 314.557592 618.3216 326.18829 
" clip-path="url(#p84703866c2)" style="fill: none; stroke: #111111; stroke-width: 0.9; stroke-linecap: round"/>
    <path d="M 619.9216 322.98829 
L 618.3216 326.18829 
L 616.7216 322.98829 
z
" clip-path="url(#p84703866c2)" style="fill: #111111; stroke: #111111; stroke-width: 0.9; stroke-linecap: round"/>
   </g>
   <g id="patch_19">
    <path d="M 374.6988 331.192984 
Q 374.6988 343.829912 374.6988 355.46061 
" clip-path="url(#p84703866c2)" style="fill: none; stroke: #111111; stroke-width: 0.9; stroke-linecap: round"/>
    <path d="M 376.2988 352.26061 
L 374.6988 355.46061 
L 373.0988 352.26061 
z
" clip-path="url(#p84703866c2)" style="fill: #111111; stroke: #111111; stroke-width: 0.9; stroke-linecap: round"/>
   </g>
   <g id="patch_20">
    <path d="M 438.635369 382.86144 
Q 457.282001 382.86144 474.922403 382.86144 
" clip-path="url(#p84703866c2)" style="fill: none; stroke: #111111; stroke-width: 0.9; stroke-linecap: round"/>
    <path d="M 471.722403 381.26144 
L 474.922403 382.86144 
L 471.722403 384.46144 
z
" clip-path="url(#p84703866c2)" style="fill: #111111; stroke: #111111; stroke-width: 0.9; stroke-linecap: round"/>
   </g>
   <g id="patch_21">
    <path d="M 465.5412 409.251313 
Q 465.5412 417.011936 465.5412 423.766329 
" clip-path="url(#p84703866c2)" style="fill: none; stroke: #111111; stroke-width: 0.9; stroke-linecap: round"/>
    <path d="M 467.1412 420.566329 
L 465.5412 423.766329 
L 463.9412 420.566329 
z
" clip-path="url(#p84703866c2)" style="fill: #111111; stroke: #111111; stroke-width: 0.9; stroke-linecap: round"/>
   </g>
   <g id="patch_22">
    <path d="M 668.202155 380.886644 
Q 684.388953 284.066446 700.409828 188.238704 
" clip-path="url(#p84703866c2)" style="fill: none; stroke: #111111; stroke-width: 0.9; stroke-linecap: round"/>
    <path d="M 698.304065 191.131067 
L 700.409828 188.238704 
L 701.46026 191.658733 
z
" clip-path="url(#p84703866c2)" style="fill: #111111; stroke: #111111; stroke-width: 0.9; stroke-linecap: round"/>
   </g>
   <g id="patch_23">
    <path d="M 660.202082 388.267442 
Q 680.260067 323.095603 700.022065 258.885476 
" clip-path="url(#p84703866c2)" style="fill: none; stroke: #111111; stroke-width: 0.9; stroke-linecap: round"/>
    <path d="M 697.551559 261.473255 
L 700.022065 258.885476 
L 700.609984 262.414549 
z
" clip-path="url(#p84703866c2)" style="fill: #111111; stroke: #111111; stroke-width: 0.9; stroke-linecap: round"/>
   </g>
   <g id="patch_24">
    <path d="M 644.030054 446.952036 
Q 672.00179 393.837439 699.50466 341.613159 
" clip-path="url(#p84703866c2)" style="fill: none; stroke: #111111; stroke-width: 0.9; stroke-linecap: round"/>
    <path d="M 696.597889 343.698988 
L 699.50466 341.613159 
L 699.42926 345.190073 
z
" clip-path="url(#p84703866c2)" style="fill: #111111; stroke: #111111; stroke-width: 0.9; stroke-linecap: round"/>
   </g>
   <g id="patch_25">
    <path d="M 465.5412 472.67646 
Q 465.5412 476.777369 465.5412 479.872048 
" clip-path="url(#p84703866c2)" style="fill: none; stroke: #111111; stroke-width: 0.9; stroke-linecap: round"/>
    <path d="M 467.1412 476.672048 
L 465.5412 479.872048 
L 463.9412 476.672048 
z
" clip-path="url(#p84703866c2)" style="fill: #111111; stroke: #111111; stroke-width: 0.9; stroke-linecap: round"/>
   </g>
   <g id="patch_26">
    <path d="M 463.641479 483.491655 
Q 397.843285 504.389484 347.991401 458.099409 
" clip-path="url(#p84703866c2)" style="fill: none; stroke-dasharray: 3.33,1.44; stroke-dashoffset: 0; stroke: #bdbdbd; stroke-width: 0.9; stroke-linecap: round"/>
    <path d="M 349.247653 461.44931 
L 347.991401 458.099409 
L 351.425073 459.104348 
z
" clip-path="url(#p84703866c2)" style="fill: #bdbdbd; stroke-dasharray: 3.33,1.44; stroke-dashoffset: 0; stroke: #bdbdbd; stroke-width: 0.9; stroke-linecap: round"/>
   </g>
   <g id="line2d_1">
    <path d="M 420.12 329.19552 
L 374.6988 329.19552 
" clip-path="url(#p84703866c2)" style="fill: none; stroke: #111111; stroke-width: 0.9; stroke-linecap: round"/>
   </g>
   <g id="line2d_2">
    <path d="M 535.7376 407.25504 
L 465.5412 407.25504 
" clip-path="url(#p84703866c2)" style="fill: none; stroke: #111111; stroke-width: 0.9; stroke-linecap: round"/>
   </g>
   <g id="line2d_3">
    <path d="M 601.8048 382.86144 
L 667.872 382.86144 
" clip-path="url(#p84703866c2)" style="fill: none; stroke: #111111; stroke-width: 0.9; stroke-linecap: round"/>
   </g>
   <g id="line2d_4">
    <path d="M 601.8048 390.17952 
L 659.6136 390.17952 
" clip-path="url(#p84703866c2)" style="fill: none; stroke: #111111; stroke-width: 0.9; stroke-linecap: round"/>
   </g>
   <g id="line2d_5">
    <path d="M 535.7376 448.72416 
L 643.0968 448.72416 
" clip-path="url(#p84703866c2)" style="fill: none; stroke: #111111; stroke-width: 0.9; stroke-linecap: round"/>
   </g>
   <g id="patch_27">
    <path d="M 69.96384 168.19776 
L 159.15456 168.19776 
Q 180.6264 168.19776 180.6264 155.513088 
L 180.6264 127.216512 
Q 180.6264 114.53184 159.15456 114.53184 
L 69.96384 114.53184 
Q 48.492 114.53184 48.492 127.216512 
L 48.492 155.513088 
Q 48.492 168.19776 69.96384 168.19776 
z
" clip-path="url(#p84703866c2)" style="fill: #f1f1f1; stroke: #111111; stroke-linejoin: miter"/>
   </g>
   <g id="patch_28">
    <path d="M 69.96384 224.30304 
L 159.15456 224.30304 
Q 180.6264 224.30304 180.6264 211.618368 
L 180.6264 183.321792 
Q 180.6264 170.63712 159.15456 170.63712 
L 69.96384 170.63712 
Q 48.492 170.63712 48.492 183.321792 
L 48.492 211.618368 
Q 48.492 224.30304 69.96384 224.30304 
z
" clip-path="url(#p84703866c2)" style="fill: #f1f1f1; stroke: #111111; stroke-linejoin: miter"/>
   </g>
   <g id="patch_29">
    <path d="M 69.96384 277.96896 
L 159.15456 277.96896 
Q 180.6264 277.96896 180.6264 265.284288 
L 180.6264 236.987712 
Q 180.6264 224.30304 159.15456 224.30304 
L 69.96384 224.30304 
Q 48.492 224.30304 48.492 236.987712 
L 48.492 265.284288 
Q 48.492 277.96896 69.96384 277.96896 
z
" clip-path="url(#p84703866c2)" style="fill: #f1f1f1; stroke: #111111; stroke-linejoin: miter"/>
   </g>
   <g id="patch_30">
    <path d="M 69.96384 346.27104 
L 159.15456 346.27104 
Q 180.6264 346.27104 180.6264 333.586368 
L 180.6264 305.289792 
Q 180.6264 292.60512 159.15456 292.60512 
L 69.96384 292.60512 
Q 48.492 292.60512 48.492 305.289792 
L 48.492 333.586368 
Q 48.492 346.27104 69.96384 346.27104 
z
" clip-path="url(#p84703866c2)" style="fill: #f1f1f1; stroke: #111111; stroke-linejoin: miter"/>
   </g>
   <g id="patch_31">
    <path d="M 243.39024 168.19776 
L 299.54736 168.19776 
Q 321.0192 168.19776 321.0192 155.513088 
L 321.0192 112.580352 
Q 321.0192 99.89568 299.54736 99.89568 
L 243.39024 99.89568 
Q 221.9184 99.89568 221.9184 112.580352 
L 221.9184 155.513088 
Q 221.9184 168.19776 243.39024 168.19776 
z
" clip-path="url(#p84703866c2)" style="fill: #f7f7f7; stroke: #111111; stroke-linejoin: miter"/>
   </g>
   <g id="patch_32">
    <path d="M 367.26624 168.19776 
L 423.42336 168.19776 
Q 444.8952 168.19776 444.8952 155.513088 
L 444.8952 112.580352 
Q 444.8952 99.89568 423.42336 99.89568 
L 367.26624 99.89568 
Q 345.7944 99.89568 345.7944 112.580352 
L 345.7944 155.513088 
Q 345.7944 168.19776 367.26624 168.19776 
z
" clip-path="url(#p84703866c2)" style="fill: #f7f7f7; stroke: #111111; stroke-linejoin: miter"/>
   </g>
   <g id="patch_33">
    <path d="M 491.14224 168.19776 
L 547.29936 168.19776 
Q 568.7712 168.19776 568.7712 155.513088 
L 568.7712 112.580352 
Q 568.7712 99.89568 547.29936 99.89568 
L 491.14224 99.89568 
Q 469.6704 99.89568 469.6704 112.580352 
L 469.6704 155.513088 
Q 469.6704 168.19776 491.14224 168.19776 
z
" clip-path="url(#p84703866c2)" style="fill: #f7f7f7; stroke: #111111; stroke-linejoin: miter"/>
   </g>
   <g id="patch_34">
    <path d="M 615.01824 168.19776 
L 671.17536 168.19776 
Q 692.6472 168.19776 692.6472 155.513088 
L 692.6472 112.580352 
Q 692.6472 99.89568 671.17536 99.89568 
L 615.01824 99.89568 
Q 593.5464 99.89568 593.5464 112.580352 
L 593.5464 155.513088 
Q 593.5464 168.19776 615.01824 168.19776 
z
" clip-path="url(#p84703866c2)" style="fill: #f7f7f7; stroke: #111111; stroke-linejoin: miter"/>
   </g>
   <g id="patch_35">
    <path d="M 243.39024 304.80192 
L 299.54736 304.80192 
Q 321.0192 304.80192 321.0192 292.117248 
L 321.0192 258.941952 
Q 321.0192 246.25728 299.54736 246.25728 
L 243.39024 246.25728 
Q 221.9184 246.25728 221.9184 258.941952 
L 221.9184 292.117248 
Q 221.9184 304.80192 243.39024 304.80192 
z
" clip-path="url(#p84703866c2)" style="fill: #eeeeee; stroke: #111111; stroke-linejoin: miter"/>
   </g>
   <g id="patch_36">
    <path d="M 359.00784 304.80192 
L 415.16496 304.80192 
Q 436.6368 304.80192 436.6368 292.117248 
L 436.6368 258.941952 
Q 436.6368 246.25728 415.16496 246.25728 
L 359.00784 246.25728 
Q 337.536 246.25728 337.536 258.941952 
L 337.536 292.117248 
Q 337.536 304.80192 359.00784 304.80192 
z
" clip-path="url(#p84703866c2)" style="fill: #eeeeee; stroke: #111111; stroke-linejoin: miter"/>
   </g>
   <g id="patch_37">
    <path d="M 474.62544 304.80192 
L 530.78256 304.80192 
Q 552.2544 304.80192 552.2544 292.117248 
L 552.2544 258.941952 
Q 552.2544 246.25728 530.78256 246.25728 
L 474.62544 246.25728 
Q 453.1536 246.25728 453.1536 258.941952 
L 453.1536 292.117248 
Q 453.1536 304.80192 474.62544 304.80192 
z
" clip-path="url(#p84703866c2)" style="fill: #eeeeee; stroke: #111111; stroke-linejoin: miter"/>
   </g>
   <g id="patch_38">
    <path d="M 590.24304 304.80192 
L 646.40016 304.80192 
Q 667.872 304.80192 667.872 292.117248 
L 667.872 258.941952 
Q 667.872 246.25728 646.40016 246.25728 
L 590.24304 246.25728 
Q 568.7712 246.25728 568.7712 258.941952 
L 568.7712 292.117248 
Q 568.7712 304.80192 590.24304 304.80192 
z
" clip-path="url(#p84703866c2)" style="fill: #eeeeee; stroke: #111111; stroke-linejoin: miter"/>
   </g>
   <g id="patch_39">
    <path d="M 325.97424 412.13376 
L 423.42336 412.13376 
Q 444.8952 412.13376 444.8952 399.449088 
L 444.8952 366.273792 
Q 444.8952 353.58912 423.42336 353.58912 
L 325.97424 353.58912 
Q 304.5024 353.58912 304.5024 366.273792 
L 304.5024 399.449088 
Q 304.5024 412.13376 325.97424 412.13376 
z
" clip-path="url(#p84703866c2)" style="fill: #fafafa; stroke: #111111; stroke-linejoin: miter"/>
   </g>
   <g id="patch_40">
    <path d="M 491.14224 412.13376 
L 588.59136 412.13376 
Q 610.0632 412.13376 610.0632 399.449088 
L 610.0632 366.273792 
Q 610.0632 353.58912 588.59136 353.58912 
L 491.14224 353.58912 
Q 469.6704 353.58912 469.6704 366.273792 
L 469.6704 399.449088 
Q 469.6704 412.13376 491.14224 412.13376 
z
" clip-path="url(#p84703866c2)" style="fill: #fafafa; stroke: #111111; stroke-linejoin: miter"/>
   </g>
   <g id="patch_41">
    <path d="M 400.29984 475.55712 
L 522.52416 475.55712 
Q 543.996 475.55712 543.996 462.872448 
L 543.996 434.575872 
Q 543.996 421.8912 522.52416 421.8912 
L 400.29984 421.8912 
Q 378.828 421.8912 378.828 434.575872 
L 378.828 462.872448 
Q 378.828 475.55712 400.29984 475.55712 
z
" clip-path="url(#p84703866c2)" style="fill: #e6e6e6; stroke: #111111; stroke-linejoin: miter"/>
   </g>
   <g id="patch_42">
    <path d="M 714.11904 212.10624 
L 770.27616 212.10624 
Q 791.748 212.10624 791.748 199.421568 
L 791.748 171.124992 
Q 791.748 158.44032 770.27616 158.44032 
L 714.11904 158.44032 
Q 692.6472 158.44032 692.6472 171.124992 
L 692.6472 199.421568 
Q 692.6472 212.10624 714.11904 212.10624 
z
" clip-path="url(#p84703866c2)" style="fill: #e6e6e6; stroke: #111111; stroke-linejoin: miter"/>
   </g>
   <g id="patch_43">
    <path d="M 714.11904 282.84768 
L 770.27616 282.84768 
Q 791.748 282.84768 791.748 270.163008 
L 791.748 241.866432 
Q 791.748 229.18176 770.27616 229.18176 
L 714.11904 229.18176 
Q 692.6472 229.18176 692.6472 241.866432 
L 692.6472 270.163008 
Q 692.6472 282.84768 714.11904 282.84768 
z
" clip-path="url(#p84703866c2)" style="fill: #e6e6e6; stroke: #111111; stroke-linejoin: miter"/>
   </g>
   <g id="patch_44">
    <path d="M 714.11904 365.78592 
L 770.27616 365.78592 
Q 791.748 365.78592 791.748 353.101248 
L 791.748 324.804672 
Q 791.748 312.12 770.27616 312.12 
L 714.11904 312.12 
Q 692.6472 312.12 692.6472 324.804672 
L 692.6472 353.101248 
Q 692.6472 365.78592 714.11904 365.78592 
z
" clip-path="url(#p84703866c2)" style="fill: #e6e6e6; stroke: #111111; stroke-linejoin: miter"/>
   </g>
   <g id="line2d_6">
    <path d="M 188.8848 319.43808 
L 188.8848 134.04672 
" clip-path="url(#p84703866c2)" style="fill: none; stroke: #bdbdbd; stroke-linecap: round"/>
   </g>
   <g id="line2d_7">
    <path d="M 172.368 141.3648 
L 188.8848 141.3648 
" clip-path="url(#p84703866c2)" style="fill: none; stroke: #bdbdbd; stroke-linecap: round"/>
   </g>
   <g id="line2d_8">
    <path d="M 172.368 197.47008 
L 188.8848 197.47008 
" clip-path="url(#p84703866c2)" style="fill: none; stroke: #bdbdbd; stroke-linecap: round"/>
   </g>
   <g id="line2d_9">
    <path d="M 172.368 251.136 
L 188.8848 251.136 
" clip-path="url(#p84703866c2)" style="fill: none; stroke: #bdbdbd; stroke-linecap: round"/>
   </g>
   <g id="line2d_10">
    <path d="M 172.368 319.43808 
L 188.8848 319.43808 
" clip-path="url(#p84703866c2)" style="fill: none; stroke: #bdbdbd; stroke-linecap: round"/>
   </g>
   <g id="line2d_11">
    <path d="M 643.0968 163.31904 
L 643.0968 221.86368 
" clip-path="url(#p84703866c2)" style="fill: none; stroke: #111111; stroke-linecap: round"/>
   </g>
   <g id="line2d_12">
    <path d="M 271.4688 221.86368 
L 643.0968 221.86368 
" clip-path="url(#p84703866c2)" style="fill: none; stroke: #111111; stroke-linecap: round"/>
   </g>
   <g id="line2d_13">
    <path d="M 271.4688 329.19552 
L 618.3216 329.19552 
" clip-path="url(#p84703866c2)" style="fill: none; stroke: #111111; stroke-linecap: round"/>
   </g>
   <g id="text_1">
    <text style="font-weight: 700; font-size: 18px; font-family: 'Source Han Sans CN', 'Noto Sans CJK SC', 'Microsoft YaHei UI', 'Microsoft YaHei', 'PingFang SC', 'Heiti SC', 'SimHei', 'DejaVu Sans', sans-serif; text-anchor: start; fill: #101010" x="31.9752" y="45.98235" transform="rotate(-0 31.9752 45.98235)">图1 本发明总体系统框图</text>
   </g>
   <g id="text_2">
    <text style="font-size: 10.6px; font-family: 'Source Han Sans CN', 'Noto Sans CJK SC', 'Microsoft YaHei UI', 'Microsoft YaHei', 'PingFang SC', 'Heiti SC', 'SimHei', 'DejaVu Sans', sans-serif; text-anchor: start; fill: #3d3d3d" x="31.9752" y="59.581855" transform="rotate(-0 31.9752 59.581855)">面向动态航行环境的数据输入先进入建模与变化响应主链，再由多源知识模块与场景感知绕行初值共同提名候选，并通过统一竞争得到轨迹解集、代表轨迹与控制结果。</text>
   </g>
   <g id="text_3">
    <text style="font-size: 10.2px; font-family: 'Source Han Sans CN', 'Noto Sans CJK SC', 'Microsoft YaHei UI', 'Microsoft YaHei', 'PingFang SC', 'Heiti SC', 'SimHei', 'DejaVu Sans', sans-serif; text-anchor: middle; fill: #3d3d3d" x="114.5592" y="85.651096" transform="rotate(-0 114.5592 85.651096)">输入层</text>
   </g>
   <g id="text_4">
    <text style="font-size: 10.2px; font-family: 'Source Han Sans CN', 'Noto Sans CJK SC', 'Microsoft YaHei UI', 'Microsoft YaHei', 'PingFang SC', 'Heiti SC', 'SimHei', 'DejaVu Sans', sans-serif; text-anchor: middle; fill: #3d3d3d" x="436.6368" y="80.772376" transform="rotate(-0 436.6368 80.772376)">核心决策链</text>
   </g>
   <g id="text_5">
    <text style="font-size: 10.2px; font-family: 'Source Han Sans CN', 'Noto Sans CJK SC', 'Microsoft YaHei UI', 'Microsoft YaHei', 'PingFang SC', 'Heiti SC', 'SimHei', 'DejaVu Sans', sans-serif; text-anchor: middle; fill: #3d3d3d" x="436.6368" y="227.133976" transform="rotate(-0 436.6368 227.133976)">核心增强响应层</text>
   </g>
   <g id="text_6">
    <text style="font-size: 10.2px; font-family: 'Source Han Sans CN', 'Noto Sans CJK SC', 'Microsoft YaHei UI', 'Microsoft YaHei', 'PingFang SC', 'Heiti SC', 'SimHei', 'DejaVu Sans', sans-serif; text-anchor: middle; fill: #3d3d3d" x="444.8952" y="349.101976" transform="rotate(-0 444.8952 349.101976)">统一筛选与执行</text>
   </g>
   <g id="text_7">
    <text style="font-size: 10.2px; font-family: 'Source Han Sans CN', 'Noto Sans CJK SC', 'Microsoft YaHei UI', 'Microsoft YaHei', 'PingFang SC', 'Heiti SC', 'SimHei', 'DejaVu Sans', sans-serif; text-anchor: middle; fill: #3d3d3d" x="738.0684" y="85.651096" transform="rotate(-0 738.0684 85.651096)">输出层</text>
   </g>
   <g id="text_8">
    <text style="font-size: 10.2px; font-family: 'Source Han Sans CN', 'Noto Sans CJK SC', 'Microsoft YaHei UI', 'Microsoft YaHei', 'PingFang SC', 'Heiti SC', 'SimHei', 'DejaVu Sans', sans-serif; text-anchor: middle; fill: #101010" x="114.5592" y="150.028248" transform="rotate(-0 114.5592 150.028248)">本船状态数据</text>
   </g>
   <g id="text_9">
    <text style="font-size: 10.2px; font-family: 'Source Han Sans CN', 'Noto Sans CJK SC', 'Microsoft YaHei UI', 'Microsoft YaHei', 'PingFang SC', 'Heiti SC', 'SimHei', 'DejaVu Sans', sans-serif; text-anchor: middle; fill: #101010" x="114.5592" y="206.133528" transform="rotate(-0 114.5592 206.133528)">目标船状态数据</text>
   </g>
   <g id="text_10">
    <text style="font-size: 10.2px; font-family: 'Source Han Sans CN', 'Noto Sans CJK SC', 'Microsoft YaHei UI', 'Microsoft YaHei', 'PingFang SC', 'Heiti SC', 'SimHei', 'DejaVu Sans', sans-serif; text-anchor: middle; fill: #101010" x="114.5592" y="259.799448" transform="rotate(-0 114.5592 259.799448)">静态障碍物数据</text>
   </g>
   <g id="text_11">
    <text style="font-size: 10.2px; font-family: 'Source Han Sans CN', 'Noto Sans CJK SC', 'Microsoft YaHei UI', 'Microsoft YaHei', 'PingFang SC', 'Heiti SC', 'SimHei', 'DejaVu Sans', sans-serif; text-anchor: middle; fill: #101010" x="114.5592" y="328.101528" transform="rotate(-0 114.5592 328.101528)">环境场数据</text>
   </g>
   <g id="text_12">
    <text style="font-size: 10.2px; font-family: 'Source Han Sans CN', 'Noto Sans CJK SC', 'Microsoft YaHei UI', 'Microsoft YaHei', 'PingFang SC', 'Heiti SC', 'SimHei', 'DejaVu Sans', sans-serif; text-anchor: middle; fill: #101010" x="271.4688" y="142.710168" transform="rotate(-0 271.4688 142.710168)">数据获取模块</text>
   </g>
   <g id="text_13">
    <text style="font-size: 10.2px; font-family: 'Source Han Sans CN', 'Noto Sans CJK SC', 'Microsoft YaHei UI', 'Microsoft YaHei', 'PingFang SC', 'Heiti SC', 'SimHei', 'DejaVu Sans', sans-serif; text-anchor: middle; fill: #101010" x="395.3448" y="142.710168" transform="rotate(-0 395.3448 142.710168)">轨迹建模模块</text>
   </g>
   <g id="text_14">
    <text style="font-size: 10.2px; font-family: 'Source Han Sans CN', 'Noto Sans CJK SC', 'Microsoft YaHei UI', 'Microsoft YaHei', 'PingFang SC', 'Heiti SC', 'SimHei', 'DejaVu Sans', sans-serif; text-anchor: middle; fill: #101010" x="519.2208" y="142.710168" transform="rotate(-0 519.2208 142.710168)">变化诊断模块</text>
   </g>
   <g id="text_15">
    <text style="font-size: 10.2px; font-family: 'Source Han Sans CN', 'Noto Sans CJK SC', 'Microsoft YaHei UI', 'Microsoft YaHei', 'PingFang SC', 'Heiti SC', 'SimHei', 'DejaVu Sans', sans-serif; text-anchor: middle; fill: #101010" x="643.0968" y="142.710168" transform="rotate(-0 643.0968 142.710168)">自适应分配模块</text>
   </g>
   <g id="text_16">
    <text style="font-size: 10.2px; font-family: 'Source Han Sans CN', 'Noto Sans CJK SC', 'Microsoft YaHei UI', 'Microsoft YaHei', 'PingFang SC', 'Heiti SC', 'SimHei', 'DejaVu Sans', sans-serif; text-anchor: middle; fill: #101010" x="271.4688" y="284.193048" transform="rotate(-0 271.4688 284.193048)">历史记忆模块</text>
   </g>
   <g id="text_17">
    <text style="font-size: 10.2px; font-family: 'Source Han Sans CN', 'Noto Sans CJK SC', 'Microsoft YaHei UI', 'Microsoft YaHei', 'PingFang SC', 'Heiti SC', 'SimHei', 'DejaVu Sans', sans-serif; text-anchor: middle; fill: #101010" x="387.0864" y="284.193048" transform="rotate(-0 387.0864 284.193048)">前沿预测模块</text>
   </g>
   <g id="text_18">
    <text style="font-size: 10.2px; font-family: 'Source Han Sans CN', 'Noto Sans CJK SC', 'Microsoft YaHei UI', 'Microsoft YaHei', 'PingFang SC', 'Heiti SC', 'SimHei', 'DejaVu Sans', sans-serif; text-anchor: middle; fill: #101010" x="502.704" y="284.193048" transform="rotate(-0 502.704 284.193048)">跨环境迁移模块</text>
   </g>
   <g id="text_19">
    <text style="font-size: 10.2px; font-family: 'Source Han Sans CN', 'Noto Sans CJK SC', 'Microsoft YaHei UI', 'Microsoft YaHei', 'PingFang SC', 'Heiti SC', 'SimHei', 'DejaVu Sans', sans-serif; text-anchor: middle; fill: #101010" x="618.3216" y="284.193048" transform="rotate(-0 618.3216 284.193048)">重初始化模块</text>
   </g>
   <g id="text_20">
    <text style="font-size: 10.2px; font-family: 'Source Han Sans CN', 'Noto Sans CJK SC', 'Microsoft YaHei UI', 'Microsoft YaHei', 'PingFang SC', 'Heiti SC', 'SimHei', 'DejaVu Sans', sans-serif; text-anchor: middle; fill: #101010" x="374.6988" y="391.524888" transform="rotate(-0 374.6988 391.524888)">候选池构建模块</text>
   </g>
   <g id="text_21">
    <text style="font-size: 10.2px; font-family: 'Source Han Sans CN', 'Noto Sans CJK SC', 'Microsoft YaHei UI', 'Microsoft YaHei', 'PingFang SC', 'Heiti SC', 'SimHei', 'DejaVu Sans', sans-serif; text-anchor: middle; fill: #101010" x="539.8668" y="391.524888" transform="rotate(-0 539.8668 391.524888)">环境选择模块</text>
   </g>
   <g id="text_22">
    <text style="font-size: 10.2px; font-family: 'Source Han Sans CN', 'Noto Sans CJK SC', 'Microsoft YaHei UI', 'Microsoft YaHei', 'PingFang SC', 'Heiti SC', 'SimHei', 'DejaVu Sans', sans-serif; text-anchor: middle; fill: #101010" x="461.412" y="457.387608" transform="rotate(-0 461.412 457.387608)">轨迹输出执行模块</text>
   </g>
   <g id="text_23">
    <text style="font-size: 10.2px; font-family: 'Source Han Sans CN', 'Noto Sans CJK SC', 'Microsoft YaHei UI', 'Microsoft YaHei', 'PingFang SC', 'Heiti SC', 'SimHei', 'DejaVu Sans', sans-serif; text-anchor: middle; fill: #101010" x="742.1976" y="193.936728" transform="rotate(-0 742.1976 193.936728)">轨迹解集</text>
   </g>
   <g id="text_24">
    <text style="font-size: 10.2px; font-family: 'Source Han Sans CN', 'Noto Sans CJK SC', 'Microsoft YaHei UI', 'Microsoft YaHei', 'PingFang SC', 'Heiti SC', 'SimHei', 'DejaVu Sans', sans-serif; text-anchor: middle; fill: #101010" x="742.1976" y="264.678168" transform="rotate(-0 742.1976 264.678168)">代表轨迹</text>
   </g>
   <g id="text_25">
    <text style="font-size: 10.2px; font-family: 'Source Han Sans CN', 'Noto Sans CJK SC', 'Microsoft YaHei UI', 'Microsoft YaHei', 'PingFang SC', 'Heiti SC', 'SimHei', 'DejaVu Sans', sans-serif; text-anchor: middle; fill: #101010" x="742.1976" y="347.616408" transform="rotate(-0 742.1976 347.616408)">控制结果</text>
   </g>
   <g id="text_26">
    <text style="font-size: 10.2px; font-family: 'Source Han Sans CN', 'Noto Sans CJK SC', 'Microsoft YaHei UI', 'Microsoft YaHei', 'PingFang SC', 'Heiti SC', 'SimHei', 'DejaVu Sans', sans-serif; text-anchor: middle; fill: #3d3d3d" x="114.5592" y="99.89568" transform="rotate(-0 114.5592 99.89568)">航行环境输入</text>
   </g>
   <g id="text_27">
    <text style="font-size: 9.4px; font-family: 'Source Han Sans CN', 'Noto Sans CJK SC', 'Microsoft YaHei UI', 'Microsoft YaHei', 'PingFang SC', 'Heiti SC', 'SimHei', 'DejaVu Sans', sans-serif; text-anchor: middle; fill: #3d3d3d" x="457.2828" y="208.203264" transform="rotate(-0 457.2828 208.203264)">依据变化信息调度四类候选来源</text>
   </g>
   <g id="text_28">
    <text style="font-size: 9.4px; font-family: 'Source Han Sans CN', 'Noto Sans CJK SC', 'Microsoft YaHei UI', 'Microsoft YaHei', 'PingFang SC', 'Heiti SC', 'SimHei', 'DejaVu Sans', sans-serif; text-anchor: middle; fill: #3d3d3d" x="444.8952" y="342.368064" transform="rotate(-0 444.8952 342.368064)">并行提名候选并与绕行初值统一汇聚</text>
   </g>
   <g id="text_29">
    <text style="font-size: 9.4px; font-family: 'Source Han Sans CN', 'Noto Sans CJK SC', 'Microsoft YaHei UI', 'Microsoft YaHei', 'PingFang SC', 'Heiti SC', 'SimHei', 'DejaVu Sans', sans-serif; fill: #3d3d3d" transform="translate(580.798709 310.523709)">ship实施时可注入</text>
    <text style="font-size: 9.4px; font-family: 'Source Han Sans CN', 'Noto Sans CJK SC', 'Microsoft YaHei UI', 'Microsoft YaHei', 'PingFang SC', 'Heiti SC', 'SimHei', 'DejaVu Sans', sans-serif; fill: #3d3d3d" transform="translate(580.7216 321.87744)">场景感知绕行初值</text>
   </g>
   <g id="text_30">
    <text style="font-size: 9.4px; font-family: 'Source Han Sans CN', 'Noto Sans CJK SC', 'Microsoft YaHei UI', 'Microsoft YaHei', 'PingFang SC', 'Heiti SC', 'SimHei', 'DejaVu Sans', sans-serif; text-anchor: middle; fill: #3d3d3d" x="515.0916" y="479.365472" transform="rotate(-0 515.0916 479.365472)">执行反馈</text>
   </g>
   <g id="text_31">
    <text style="font-size: 9.4px; font-family: 'Source Han Sans CN', 'Noto Sans CJK SC', 'Microsoft YaHei UI', 'Microsoft YaHei', 'PingFang SC', 'Heiti SC', 'SimHei', 'DejaVu Sans', sans-serif; text-anchor: middle; fill: #3d3d3d" x="436.6368" y="489.217536" transform="rotate(-0 436.6368 489.217536)">核心逻辑：先建模并诊断变化，再调度记忆 / 预测 / 迁移 / 探索并融合绕行初值；风险维表达安全暴露，终端推进由 fuel/time 与代表解排序体现。</text>
   </g>
   <g id="patch_45">
    <path d="M 71.61552 143.901734 
L 102.1716 143.901734 
Q 110.43 143.901734 110.43 139.023014 
L 110.43 128.192256 
Q 110.43 123.313536 102.1716 123.313536 
L 71.61552 123.313536 
Q 63.35712 123.313536 63.35712 128.192256 
L 63.35712 139.023014 
Q 63.35712 143.901734 71.61552 143.901734 
z
" clip-path="url(#p84703866c2)" style="fill: #ffffff; stroke: #111111; stroke-width: 0.9; stroke-linejoin: miter"/>
   </g>
   <g id="patch_46">
    <path d="M 71.61552 200.007014 
L 102.1716 200.007014 
Q 110.43 200.007014 110.43 195.128294 
L 110.43 184.297536 
Q 110.43 179.418816 102.1716 179.418816 
L 71.61552 179.418816 
Q 63.35712 179.418816 63.35712 184.297536 
L 63.35712 195.128294 
Q 63.35712 200.007014 71.61552 200.007014 
z
" clip-path="url(#p84703866c2)" style="fill: #ffffff; stroke: #111111; stroke-width: 0.9; stroke-linejoin: miter"/>
   </g>
   <g id="patch_47">
    <path d="M 71.61552 253.672934 
L 102.1716 253.672934 
Q 110.43 253.672934 110.43 248.794214 
L 110.43 237.963456 
Q 110.43 233.084736 102.1716 233.084736 
L 71.61552 233.084736 
Q 63.35712 233.084736 63.35712 237.963456 
L 63.35712 248.794214 
Q 63.35712 253.672934 71.61552 253.672934 
z
" clip-path="url(#p84703866c2)" style="fill: #ffffff; stroke: #111111; stroke-width: 0.9; stroke-linejoin: miter"/>
   </g>
   <g id="patch_48">
    <path d="M 71.61552 321.975014 
L 102.1716 321.975014 
Q 110.43 321.975014 110.43 317.096294 
L 110.43 306.265536 
Q 110.43 301.386816 102.1716 301.386816 
L 71.61552 301.386816 
Q 63.35712 301.386816 63.35712 306.265536 
L 63.35712 317.096294 
Q 63.35712 321.975014 71.61552 321.975014 
z
" clip-path="url(#p84703866c2)" style="fill: #ffffff; stroke: #111111; stroke-width: 0.9; stroke-linejoin: miter"/>
   </g>
   <g id="patch_49">
    <path d="M 245.04192 134.534592 
L 264.03624 134.534592 
Q 272.29464 134.534592 272.29464 129.655872 
L 272.29464 113.556096 
Q 272.29464 108.677376 264.03624 108.677376 
L 245.04192 108.677376 
Q 236.78352 108.677376 236.78352 113.556096 
L 236.78352 129.655872 
Q 236.78352 134.534592 245.04192 134.534592 
z
" clip-path="url(#p84703866c2)" style="fill: #ffffff; stroke: #111111; stroke-width: 0.9; stroke-linejoin: miter"/>
   </g>
   <g id="patch_50">
    <path d="M 368.91792 134.534592 
L 387.91224 134.534592 
Q 396.17064 134.534592 396.17064 129.655872 
L 396.17064 113.556096 
Q 396.17064 108.677376 387.91224 108.677376 
L 368.91792 108.677376 
Q 360.65952 108.677376 360.65952 113.556096 
L 360.65952 129.655872 
Q 360.65952 134.534592 368.91792 134.534592 
z
" clip-path="url(#p84703866c2)" style="fill: #ffffff; stroke: #111111; stroke-width: 0.9; stroke-linejoin: miter"/>
   </g>
   <g id="patch_51">
    <path d="M 492.79392 134.534592 
L 511.78824 134.534592 
Q 520.04664 134.534592 520.04664 129.655872 
L 520.04664 113.556096 
Q 520.04664 108.677376 511.78824 108.677376 
L 492.79392 108.677376 
Q 484.53552 108.677376 484.53552 113.556096 
L 484.53552 129.655872 
Q 484.53552 134.534592 492.79392 134.534592 
z
" clip-path="url(#p84703866c2)" style="fill: #ffffff; stroke: #111111; stroke-width: 0.9; stroke-linejoin: miter"/>
   </g>
   <g id="patch_52">
    <path d="M 616.66992 134.534592 
L 635.66424 134.534592 
Q 643.92264 134.534592 643.92264 129.655872 
L 643.92264 113.556096 
Q 643.92264 108.677376 635.66424 108.677376 
L 616.66992 108.677376 
Q 608.41152 108.677376 608.41152 113.556096 
L 608.41152 129.655872 
Q 608.41152 134.534592 616.66992 134.534592 
z
" clip-path="url(#p84703866c2)" style="fill: #ffffff; stroke: #111111; stroke-width: 0.9; stroke-linejoin: miter"/>
   </g>
   <g id="patch_53">
    <path d="M 245.04192 277.481088 
L 264.03624 277.481088 
Q 272.29464 277.481088 272.29464 272.602368 
L 272.29464 259.917696 
Q 272.29464 255.038976 264.03624 255.038976 
L 245.04192 255.038976 
Q 236.78352 255.038976 236.78352 259.917696 
L 236.78352 272.602368 
Q 236.78352 277.481088 245.04192 277.481088 
z
" clip-path="url(#p84703866c2)" style="fill: #ffffff; stroke: #111111; stroke-width: 0.9; stroke-linejoin: miter"/>
   </g>
   <g id="patch_54">
    <path d="M 360.65952 277.481088 
L 379.65384 277.481088 
Q 387.91224 277.481088 387.91224 272.602368 
L 387.91224 259.917696 
Q 387.91224 255.038976 379.65384 255.038976 
L 360.65952 255.038976 
Q 352.40112 255.038976 352.40112 259.917696 
L 352.40112 272.602368 
Q 352.40112 277.481088 360.65952 277.481088 
z
" clip-path="url(#p84703866c2)" style="fill: #ffffff; stroke: #111111; stroke-width: 0.9; stroke-linejoin: miter"/>
   </g>
   <g id="patch_55">
    <path d="M 476.27712 277.481088 
L 495.27144 277.481088 
Q 503.52984 277.481088 503.52984 272.602368 
L 503.52984 259.917696 
Q 503.52984 255.038976 495.27144 255.038976 
L 476.27712 255.038976 
Q 468.01872 255.038976 468.01872 259.917696 
L 468.01872 272.602368 
Q 468.01872 277.481088 476.27712 277.481088 
z
" clip-path="url(#p84703866c2)" style="fill: #ffffff; stroke: #111111; stroke-width: 0.9; stroke-linejoin: miter"/>
   </g>
   <g id="patch_56">
    <path d="M 591.89472 277.481088 
L 610.88904 277.481088 
Q 619.14744 277.481088 619.14744 272.602368 
L 619.14744 259.917696 
Q 619.14744 255.038976 610.88904 255.038976 
L 591.89472 255.038976 
Q 583.63632 255.038976 583.63632 259.917696 
L 583.63632 272.602368 
Q 583.63632 277.481088 591.89472 277.481088 
z
" clip-path="url(#p84703866c2)" style="fill: #ffffff; stroke: #111111; stroke-width: 0.9; stroke-linejoin: miter"/>
   </g>
   <g id="patch_57">
    <path d="M 327.62592 384.812928 
L 361.07244 384.812928 
Q 369.33084 384.812928 369.33084 379.934208 
L 369.33084 367.249536 
Q 369.33084 362.370816 361.07244 362.370816 
L 327.62592 362.370816 
Q 319.36752 362.370816 319.36752 367.249536 
L 319.36752 379.934208 
Q 319.36752 384.812928 327.62592 384.812928 
z
" clip-path="url(#p84703866c2)" style="fill: #ffffff; stroke: #111111; stroke-width: 0.9; stroke-linejoin: miter"/>
   </g>
   <g id="patch_58">
    <path d="M 492.79392 384.812928 
L 526.24044 384.812928 
Q 534.49884 384.812928 534.49884 379.934208 
L 534.49884 367.249536 
Q 534.49884 362.370816 526.24044 362.370816 
L 492.79392 362.370816 
Q 484.53552 362.370816 484.53552 367.249536 
L 484.53552 379.934208 
Q 484.53552 384.812928 492.79392 384.812928 
z
" clip-path="url(#p84703866c2)" style="fill: #ffffff; stroke: #111111; stroke-width: 0.9; stroke-linejoin: miter"/>
   </g>
   <g id="patch_59">
    <path d="M 401.95152 451.261094 
L 444.06936 451.261094 
Q 452.32776 451.261094 452.32776 446.382374 
L 452.32776 435.551616 
Q 452.32776 430.672896 444.06936 430.672896 
L 401.95152 430.672896 
Q 393.69312 430.672896 393.69312 435.551616 
L 393.69312 446.382374 
Q 393.69312 451.261094 401.95152 451.261094 
z
" clip-path="url(#p84703866c2)" style="fill: #ffffff; stroke: #111111; stroke-width: 0.9; stroke-linejoin: miter"/>
   </g>
   <g id="patch_60">
    <path d="M 715.77072 187.810214 
L 734.76504 187.810214 
Q 743.02344 187.810214 743.02344 182.931494 
L 743.02344 172.100736 
Q 743.02344 167.222016 734.76504 167.222016 
L 715.77072 167.222016 
Q 707.51232 167.222016 707.51232 172.100736 
L 707.51232 182.931494 
Q 707.51232 187.810214 715.77072 187.810214 
z
" clip-path="url(#p84703866c2)" style="fill: #ffffff; stroke: #111111; stroke-width: 0.9; stroke-linejoin: miter"/>
   </g>
   <g id="patch_61">
    <path d="M 715.77072 258.551654 
L 734.76504 258.551654 
Q 743.02344 258.551654 743.02344 253.672934 
L 743.02344 242.842176 
Q 743.02344 237.963456 734.76504 237.963456 
L 715.77072 237.963456 
Q 707.51232 237.963456 707.51232 242.842176 
L 707.51232 253.672934 
Q 707.51232 258.551654 715.77072 258.551654 
z
" clip-path="url(#p84703866c2)" style="fill: #ffffff; stroke: #111111; stroke-width: 0.9; stroke-linejoin: miter"/>
   </g>
   <g id="patch_62">
    <path d="M 715.77072 341.489894 
L 734.76504 341.489894 
Q 743.02344 341.489894 743.02344 336.611174 
L 743.02344 325.780416 
Q 743.02344 320.901696 734.76504 320.901696 
L 715.77072 320.901696 
Q 707.51232 320.901696 707.51232 325.780416 
L 707.51232 336.611174 
Q 707.51232 341.489894 715.77072 341.489894 
z
" clip-path="url(#p84703866c2)" style="fill: #ffffff; stroke: #111111; stroke-width: 0.9; stroke-linejoin: miter"/>
   </g>
   <g id="text_32">
    <text style="font-weight: 700; font-size: 8px; font-family: 'Source Han Sans CN', 'Noto Sans CJK SC', 'Microsoft YaHei UI', 'Microsoft YaHei', 'PingFang SC', 'Heiti SC', 'SimHei', 'DejaVu Sans', sans-serif; text-anchor: middle; fill: #101010" x="86.89356" y="135.81076" transform="rotate(-0 86.89356 135.81076)">210</text>
   </g>
   <g id="text_33">
    <text style="font-weight: 700; font-size: 8px; font-family: 'Source Han Sans CN', 'Noto Sans CJK SC', 'Microsoft YaHei UI', 'Microsoft YaHei', 'PingFang SC', 'Heiti SC', 'SimHei', 'DejaVu Sans', sans-serif; text-anchor: middle; fill: #101010" x="86.89356" y="191.91604" transform="rotate(-0 86.89356 191.91604)">220</text>
   </g>
   <g id="text_34">
    <text style="font-weight: 700; font-size: 8px; font-family: 'Source Han Sans CN', 'Noto Sans CJK SC', 'Microsoft YaHei UI', 'Microsoft YaHei', 'PingFang SC', 'Heiti SC', 'SimHei', 'DejaVu Sans', sans-serif; text-anchor: middle; fill: #101010" x="86.89356" y="245.58196" transform="rotate(-0 86.89356 245.58196)">230</text>
   </g>
   <g id="text_35">
    <text style="font-weight: 700; font-size: 8px; font-family: 'Source Han Sans CN', 'Noto Sans CJK SC', 'Microsoft YaHei UI', 'Microsoft YaHei', 'PingFang SC', 'Heiti SC', 'SimHei', 'DejaVu Sans', sans-serif; text-anchor: middle; fill: #101010" x="86.89356" y="313.88404" transform="rotate(-0 86.89356 313.88404)">240</text>
   </g>
   <g id="text_36">
    <text style="font-weight: 700; font-size: 8px; font-family: 'Source Han Sans CN', 'Noto Sans CJK SC', 'Microsoft YaHei UI', 'Microsoft YaHei', 'PingFang SC', 'Heiti SC', 'SimHei', 'DejaVu Sans', sans-serif; text-anchor: middle; fill: #101010" x="254.53908" y="123.809109" transform="rotate(-0 254.53908 123.809109)">100</text>
   </g>
   <g id="text_37">
    <text style="font-weight: 700; font-size: 8px; font-family: 'Source Han Sans CN', 'Noto Sans CJK SC', 'Microsoft YaHei UI', 'Microsoft YaHei', 'PingFang SC', 'Heiti SC', 'SimHei', 'DejaVu Sans', sans-serif; text-anchor: middle; fill: #101010" x="378.41508" y="123.809109" transform="rotate(-0 378.41508 123.809109)">110</text>
   </g>
   <g id="text_38">
    <text style="font-weight: 700; font-size: 8px; font-family: 'Source Han Sans CN', 'Noto Sans CJK SC', 'Microsoft YaHei UI', 'Microsoft YaHei', 'PingFang SC', 'Heiti SC', 'SimHei', 'DejaVu Sans', sans-serif; text-anchor: middle; fill: #101010" x="502.29108" y="123.809109" transform="rotate(-0 502.29108 123.809109)">120</text>
   </g>
   <g id="text_39">
    <text style="font-weight: 700; font-size: 8px; font-family: 'Source Han Sans CN', 'Noto Sans CJK SC', 'Microsoft YaHei UI', 'Microsoft YaHei', 'PingFang SC', 'Heiti SC', 'SimHei', 'DejaVu Sans', sans-serif; text-anchor: middle; fill: #101010" x="626.16708" y="123.809109" transform="rotate(-0 626.16708 123.809109)">130</text>
   </g>
   <g id="text_40">
    <text style="font-weight: 700; font-size: 8px; font-family: 'Source Han Sans CN', 'Noto Sans CJK SC', 'Microsoft YaHei UI', 'Microsoft YaHei', 'PingFang SC', 'Heiti SC', 'SimHei', 'DejaVu Sans', sans-serif; text-anchor: middle; fill: #101010" x="254.53908" y="268.463157" transform="rotate(-0 254.53908 268.463157)">140</text>
   </g>
   <g id="text_41">
    <text style="font-weight: 700; font-size: 8px; font-family: 'Source Han Sans CN', 'Noto Sans CJK SC', 'Microsoft YaHei UI', 'Microsoft YaHei', 'PingFang SC', 'Heiti SC', 'SimHei', 'DejaVu Sans', sans-serif; text-anchor: middle; fill: #101010" x="370.15668" y="268.463157" transform="rotate(-0 370.15668 268.463157)">150</text>
   </g>
   <g id="text_42">
    <text style="font-weight: 700; font-size: 8px; font-family: 'Source Han Sans CN', 'Noto Sans CJK SC', 'Microsoft YaHei UI', 'Microsoft YaHei', 'PingFang SC', 'Heiti SC', 'SimHei', 'DejaVu Sans', sans-serif; text-anchor: middle; fill: #101010" x="485.77428" y="268.463157" transform="rotate(-0 485.77428 268.463157)">160</text>
   </g>
   <g id="text_43">
    <text style="font-weight: 700; font-size: 8px; font-family: 'Source Han Sans CN', 'Noto Sans CJK SC', 'Microsoft YaHei UI', 'Microsoft YaHei', 'PingFang SC', 'Heiti SC', 'SimHei', 'DejaVu Sans', sans-serif; text-anchor: middle; fill: #101010" x="601.39188" y="268.463157" transform="rotate(-0 601.39188 268.463157)">170</text>
   </g>
   <g id="text_44">
    <text style="font-weight: 700; font-size: 8px; font-family: 'Source Han Sans CN', 'Noto Sans CJK SC', 'Microsoft YaHei UI', 'Microsoft YaHei', 'PingFang SC', 'Heiti SC', 'SimHei', 'DejaVu Sans', sans-serif; text-anchor: middle; fill: #101010" x="344.34918" y="375.794997" transform="rotate(-0 344.34918 375.794997)">180</text>
   </g>
   <g id="text_45">
    <text style="font-weight: 700; font-size: 8px; font-family: 'Source Han Sans CN', 'Noto Sans CJK SC', 'Microsoft YaHei UI', 'Microsoft YaHei', 'PingFang SC', 'Heiti SC', 'SimHei', 'DejaVu Sans', sans-serif; text-anchor: middle; fill: #101010" x="509.51718" y="375.794997" transform="rotate(-0 509.51718 375.794997)">190</text>
   </g>
   <g id="text_46">
    <text style="font-weight: 700; font-size: 8px; font-family: 'Source Han Sans CN', 'Noto Sans CJK SC', 'Microsoft YaHei UI', 'Microsoft YaHei', 'PingFang SC', 'Heiti SC', 'SimHei', 'DejaVu Sans', sans-serif; text-anchor: middle; fill: #101010" x="423.01044" y="443.17012" transform="rotate(-0 423.01044 443.17012)">200</text>
   </g>
   <g id="text_47">
    <text style="font-weight: 700; font-size: 8px; font-family: 'Source Han Sans CN', 'Noto Sans CJK SC', 'Microsoft YaHei UI', 'Microsoft YaHei', 'PingFang SC', 'Heiti SC', 'SimHei', 'DejaVu Sans', sans-serif; text-anchor: middle; fill: #101010" x="725.26788" y="179.71924" transform="rotate(-0 725.26788 179.71924)">250</text>
   </g>
   <g id="text_48">
    <text style="font-weight: 700; font-size: 8px; font-family: 'Source Han Sans CN', 'Noto Sans CJK SC', 'Microsoft YaHei UI', 'Microsoft YaHei', 'PingFang SC', 'Heiti SC', 'SimHei', 'DejaVu Sans', sans-serif; text-anchor: middle; fill: #101010" x="725.26788" y="250.46068" transform="rotate(-0 725.26788 250.46068)">260</text>
   </g>
   <g id="text_49">
    <text style="font-weight: 700; font-size: 8px; font-family: 'Source Han Sans CN', 'Noto Sans CJK SC', 'Microsoft YaHei UI', 'Microsoft YaHei', 'PingFang SC', 'Heiti SC', 'SimHei', 'DejaVu Sans', sans-serif; text-anchor: middle; fill: #101010" x="725.26788" y="333.39892" transform="rotate(-0 725.26788 333.39892)">290</text>
   </g>
  </g>
 </g>
 <defs>
  <clipPath id="p84703866c2">
   <rect x="7.2" y="7.2" width="825.84" height="487.872"/>
  </clipPath>
 </defs>
</svg>
