<?xml version="1.0" encoding="utf-8" standalone="no"?>
<!DOCTYPE svg PUBLIC "-//W3C//DTD SVG 1.1//EN"
  "http://www.w3.org/Graphics/SVG/1.1/DTD/svg11.dtd">
<svg xmlns:xlink="http://www.w3.org/1999/xlink" width="812.34pt" height="485.64pt" viewBox="0 0 812.34 485.64" xmlns="http://www.w3.org/2000/svg" version="1.1">
 <metadata>
  <rdf:RDF xmlns:dc="http://purl.org/dc/elements/1.1/" xmlns:cc="http://creativecommons.org/ns#" xmlns:rdf="http://www.w3.org/1999/02/22-rdf-syntax-ns#">
   <cc:Work>
    <dc:type rdf:resource="http://purl.org/dc/dcmitype/StillImage"/>
    <dc:date>2026-04-16T21:15:34.523676</dc:date>
    <dc:format>image/svg+xml</dc:format>
    <dc:creator>
     <cc:Agent>
      <dc:title>Matplotlib v3.10.7, https://matplotlib.org/</dc:title>
     </cc:Agent>
    </dc:creator>
   </cc:Work>
  </rdf:RDF>
 </metadata>
 <defs>
  <style type="text/css">*{stroke-linejoin: round; stroke-linecap: butt}</style>
 </defs>
 <g id="figure_1">
  <g id="patch_1">
   <path d="M 0 485.64 
L 812.34 485.64 
L 812.34 0 
L 0 0 
z
" style="fill: #ffffff"/>
  </g>
  <g id="axes_1">
   <g id="patch_2">
    <path d="M 159.681073 245.501813 
C 160.908447 245.501813 162.085716 245.213827 162.9536 244.70128 
C 163.821485 244.188732 164.309125 243.493472 164.309125 242.768621 
C 164.309125 242.04377 163.821485 241.348509 162.9536 240.835962 
C 162.085716 240.323415 160.908447 240.035429 159.681073 240.035429 
C 158.4537 240.035429 157.276431 240.323415 156.408546 240.835962 
C 155.540662 241.348509 155.053021 242.04377 155.053021 242.768621 
C 155.053021 243.493472 155.540662 244.188732 156.408546 244.70128 
C 157.276431 245.213827 158.4537 245.501813 159.681073 245.501813 
z
" clip-path="url(#pf031bdb5d5)" style="fill: #1a1a1a; stroke: #111111; stroke-width: 0.45; stroke-linejoin: miter"/>
   </g>
   <g id="patch_3">
    <path d="M 119.575299 295.016914 
C 120.802673 295.016914 121.979942 294.728928 122.847826 294.216381 
C 123.715711 293.703834 124.203351 293.008573 124.203351 292.283722 
C 124.203351 291.558871 123.715711 290.86361 122.847826 290.351063 
C 121.979942 289.838516 120.802673 289.55053 119.575299 289.55053 
C 118.347926 289.55053 117.170657 289.838516 116.302772 290.351063 
C 115.434888 290.86361 114.947247 291.558871 114.947247 292.283722 
C 114.947247 293.008573 115.434888 293.703834 116.302772 294.216381 
C 117.170657 294.728928 118.347926 295.016914 119.575299 295.016914 
z
" clip-path="url(#pf031bdb5d5)" style="fill: #555555; stroke: #111111; stroke-width: 0.45; stroke-linejoin: miter"/>
   </g>
   <g id="patch_4">
    <path d="M 169.811944 271.938023 
C 171.039317 271.938023 172.216586 271.650037 173.084471 271.13749 
C 173.952355 270.624943 174.439996 269.929682 174.439996 269.204831 
C 174.439996 268.47998 173.952355 267.784719 173.084471 267.272172 
C 172.216586 266.759625 171.039317 266.471639 169.811944 266.471639 
C 168.58457 266.471639 167.407301 266.759625 166.539417 267.272172 
C 165.671532 267.784719 165.183892 268.47998 165.183892 269.204831 
C 165.183892 269.929682 165.671532 270.624943 166.539417 271.13749 
C 167.407301 271.650037 168.58457 271.938023 169.811944 271.938023 
z
" clip-path="url(#pf031bdb5d5)" style="fill: #2b2b2b; stroke: #111111; stroke-width: 0.45; stroke-linejoin: miter"/>
   </g>
   <g id="patch_5">
    <path d="M 150.514177 307.811216 
C 151.741551 307.811216 152.918819 307.52323 153.786704 307.010683 
C 154.654588 306.498136 155.142229 305.802875 155.142229 305.078024 
C 155.142229 304.353173 154.654588 303.657913 153.786704 303.145366 
C 152.918819 302.632819 151.741551 302.344832 150.514177 302.344832 
C 149.286803 302.344832 148.109534 302.632819 147.24165 303.145366 
C 146.373766 303.657913 145.886125 304.353173 145.886125 305.078024 
C 145.886125 305.802875 146.373766 306.498136 147.24165 307.010683 
C 148.109534 307.52323 149.286803 307.811216 150.514177 307.811216 
z
" clip-path="url(#pf031bdb5d5)" style="fill: #111111; stroke: #111111; stroke-width: 0.45; stroke-linejoin: miter"/>
   </g>
   <g id="patch_6">
    <path d="M 78.317681 298.439464 
C 79.545055 298.439464 80.722324 298.151477 81.590208 297.63893 
C 82.458092 297.126383 82.945733 296.431123 82.945733 295.706272 
C 82.945733 294.981421 82.458092 294.28616 81.590208 293.773613 
C 80.722324 293.261066 79.545055 292.97308 78.317681 292.97308 
C 77.090307 292.97308 75.913038 293.261066 75.045154 293.773613 
C 74.17727 294.28616 73.689629 294.981421 73.689629 295.706272 
C 73.689629 296.431123 74.17727 297.126383 75.045154 297.63893 
C 75.913038 298.151477 77.090307 298.439464 78.317681 298.439464 
z
" clip-path="url(#pf031bdb5d5)" style="fill: #1a1a1a; stroke: #111111; stroke-width: 0.45; stroke-linejoin: miter"/>
   </g>
   <g id="patch_7">
    <path d="M 183.818715 253.588394 
C 185.046089 253.588394 186.223358 253.300408 187.091242 252.787861 
C 187.959126 252.275314 188.446767 251.580053 188.446767 250.855202 
C 188.446767 250.130351 187.959126 249.43509 187.091242 248.922543 
C 186.223358 248.409996 185.046089 248.12201 183.818715 248.12201 
C 182.591341 248.12201 181.414072 248.409996 180.546188 248.922543 
C 179.678304 249.43509 179.190663 250.130351 179.190663 250.855202 
C 179.190663 251.580053 179.678304 252.275314 180.546188 252.787861 
C 181.414072 253.300408 182.591341 253.588394 183.818715 253.588394 
z
" clip-path="url(#pf031bdb5d5)" style="fill: #555555; stroke: #111111; stroke-width: 0.45; stroke-linejoin: miter"/>
   </g>
   <g id="patch_8">
    <path d="M 158.147072 248.353683 
C 159.374446 248.353683 160.551715 248.065696 161.419599 247.553149 
C 162.287483 247.040602 162.775124 246.345342 162.775124 245.620491 
C 162.775124 244.89564 162.287483 244.200379 161.419599 243.687832 
C 160.551715 243.175285 159.374446 242.887299 158.147072 242.887299 
C 156.919698 242.887299 155.742429 243.175285 154.874545 243.687832 
C 154.006661 244.200379 153.51902 244.89564 153.51902 245.620491 
C 153.51902 246.345342 154.006661 247.040602 154.874545 247.553149 
C 155.742429 248.065696 156.919698 248.353683 158.147072 248.353683 
z
" clip-path="url(#pf031bdb5d5)" style="fill: #2b2b2b; stroke: #111111; stroke-width: 0.45; stroke-linejoin: miter"/>
   </g>
   <g id="patch_9">
    <path d="M 161.130323 229.45952 
C 162.357697 229.45952 163.534965 229.171534 164.40285 228.658987 
C 165.270734 228.14644 165.758375 227.451179 165.758375 226.726328 
C 165.758375 226.001477 165.270734 225.306217 164.40285 224.79367 
C 163.534965 224.281123 162.357697 223.993136 161.130323 223.993136 
C 159.902949 223.993136 158.72568 224.281123 157.857796 224.79367 
C 156.989912 225.306217 156.502271 226.001477 156.502271 226.726328 
C 156.502271 227.451179 156.989912 228.14644 157.857796 228.658987 
C 158.72568 229.171534 159.902949 229.45952 161.130323 229.45952 
z
" clip-path="url(#pf031bdb5d5)" style="fill: #111111; stroke: #111111; stroke-width: 0.45; stroke-linejoin: miter"/>
   </g>
   <g id="patch_10">
    <path d="M 82.379549 283.889242 
C 83.606923 283.889242 84.784191 283.601256 85.652076 283.088709 
C 86.51996 282.576162 87.007601 281.880901 87.007601 281.15605 
C 87.007601 280.431199 86.51996 279.735939 85.652076 279.223392 
C 84.784191 278.710845 83.606923 278.422858 82.379549 278.422858 
C 81.152175 278.422858 79.974906 278.710845 79.107022 279.223392 
C 78.239138 279.735939 77.751497 280.431199 77.751497 281.15605 
C 77.751497 281.880901 78.239138 282.576162 79.107022 283.088709 
C 79.974906 283.601256 81.152175 283.889242 82.379549 283.889242 
z
" clip-path="url(#pf031bdb5d5)" style="fill: #1a1a1a; stroke: #111111; stroke-width: 0.45; stroke-linejoin: miter"/>
   </g>
   <g id="patch_11">
    <path d="M 120.952643 280.103214 
C 122.180017 280.103214 123.357286 279.815228 124.22517 279.302681 
C 125.093055 278.790134 125.580695 278.094873 125.580695 277.370022 
C 125.580695 276.645171 125.093055 275.949911 124.22517 275.437364 
C 123.357286 274.924817 122.180017 274.63683 120.952643 274.63683 
C 119.72527 274.63683 118.548001 274.924817 117.680116 275.437364 
C 116.812232 275.949911 116.324591 276.645171 116.324591 277.370022 
C 116.324591 278.094873 116.812232 278.790134 117.680116 279.302681 
C 118.548001 279.815228 119.72527 280.103214 120.952643 280.103214 
z
" clip-path="url(#pf031bdb5d5)" style="fill: #555555; stroke: #111111; stroke-width: 0.45; stroke-linejoin: miter"/>
   </g>
   <g id="patch_12">
    <path d="M 111.426686 271.697566 
C 112.65406 271.697566 113.831329 271.409579 114.699213 270.897032 
C 115.567098 270.384485 116.054738 269.689225 116.054738 268.964374 
C 116.054738 268.239523 115.567098 267.544262 114.699213 267.031715 
C 113.831329 266.519168 112.65406 266.231182 111.426686 266.231182 
C 110.199313 266.231182 109.022044 266.519168 108.154159 267.031715 
C 107.286275 267.544262 106.798634 268.239523 106.798634 268.964374 
C 106.798634 269.689225 107.286275 270.384485 108.154159 270.897032 
C 109.022044 271.409579 110.199313 271.697566 111.426686 271.697566 
z
" clip-path="url(#pf031bdb5d5)" style="fill: #2b2b2b; stroke: #111111; stroke-width: 0.45; stroke-linejoin: miter"/>
   </g>
   <g id="patch_13">
    <path d="M 177.970928 295.455225 
C 179.198302 295.455225 180.375571 295.167239 181.243455 294.654692 
C 182.11134 294.142145 182.59898 293.446884 182.59898 292.722033 
C 182.59898 291.997182 182.11134 291.301921 181.243455 290.789374 
C 180.375571 290.276827 179.198302 289.988841 177.970928 289.988841 
C 176.743555 289.988841 175.566286 290.276827 174.698401 290.789374 
C 173.830517 291.301921 173.342876 291.997182 173.342876 292.722033 
C 173.342876 293.446884 173.830517 294.142145 174.698401 294.654692 
C 175.566286 295.167239 176.743555 295.455225 177.970928 295.455225 
z
" clip-path="url(#pf031bdb5d5)" style="fill: #111111; stroke: #111111; stroke-width: 0.45; stroke-linejoin: miter"/>
   </g>
   <g id="patch_14">
    <path d="M 144.11036 300.506434 
C 145.337734 300.506434 146.515003 300.218448 147.382887 299.705901 
C 148.250771 299.193354 148.738412 298.498093 148.738412 297.773242 
C 148.738412 297.048391 148.250771 296.353131 147.382887 295.840584 
C 146.515003 295.328037 145.337734 295.04005 144.11036 295.04005 
C 142.882986 295.04005 141.705717 295.328037 140.837833 295.840584 
C 139.969949 296.353131 139.482308 297.048391 139.482308 297.773242 
C 139.482308 298.498093 139.969949 299.193354 140.837833 299.705901 
C 141.705717 300.218448 142.882986 300.506434 144.11036 300.506434 
z
" clip-path="url(#pf031bdb5d5)" style="fill: #1a1a1a; stroke: #111111; stroke-width: 0.45; stroke-linejoin: miter"/>
   </g>
   <g id="patch_15">
    <path d="M 165.52266 271.175978 
C 166.750034 271.175978 167.927303 270.887992 168.795187 270.375444 
C 169.663071 269.862897 170.150712 269.167637 170.150712 268.442786 
C 170.150712 267.717935 169.663071 267.022674 168.795187 266.510127 
C 167.927303 265.99758 166.750034 265.709594 165.52266 265.709594 
C 164.295287 265.709594 163.118018 265.99758 162.250133 266.510127 
C 161.382249 267.022674 160.894608 267.717935 160.894608 268.442786 
C 160.894608 269.167637 161.382249 269.862897 162.250133 270.375444 
C 163.118018 270.887992 164.295287 271.175978 165.52266 271.175978 
z
" clip-path="url(#pf031bdb5d5)" style="fill: #555555; stroke: #111111; stroke-width: 0.45; stroke-linejoin: miter"/>
   </g>
   <g id="patch_16">
    <path d="M 120.118189 292.279615 
C 121.345563 292.279615 122.522832 291.991629 123.390716 291.479082 
C 124.2586 290.966534 124.746241 290.271274 124.746241 289.546423 
C 124.746241 288.821572 124.2586 288.126311 123.390716 287.613764 
C 122.522832 287.101217 121.345563 286.813231 120.118189 286.813231 
C 118.890815 286.813231 117.713546 287.101217 116.845662 287.613764 
C 115.977778 288.126311 115.490137 288.821572 115.490137 289.546423 
C 115.490137 290.271274 115.977778 290.966534 116.845662 291.479082 
C 117.713546 291.991629 118.890815 292.279615 120.118189 292.279615 
z
" clip-path="url(#pf031bdb5d5)" style="fill: #2b2b2b; stroke: #111111; stroke-width: 0.45; stroke-linejoin: miter"/>
   </g>
   <g id="patch_17">
    <path d="M 94.24393 254.711026 
C 95.471304 254.711026 96.648573 254.423039 97.516457 253.910492 
C 98.384341 253.397945 98.871982 252.702685 98.871982 251.977834 
C 98.871982 251.252983 98.384341 250.557722 97.516457 250.045175 
C 96.648573 249.532628 95.471304 249.244642 94.24393 249.244642 
C 93.016556 249.244642 91.839287 249.532628 90.971403 250.045175 
C 90.103519 250.557722 89.615878 251.252983 89.615878 251.977834 
C 89.615878 252.702685 90.103519 253.397945 90.971403 253.910492 
C 91.839287 254.423039 93.016556 254.711026 94.24393 254.711026 
z
" clip-path="url(#pf031bdb5d5)" style="fill: #111111; stroke: #111111; stroke-width: 0.45; stroke-linejoin: miter"/>
   </g>
   <g id="patch_18">
    <path d="M 133.424308 274.446167 
C 134.651681 274.446167 135.82895 274.158181 136.696835 273.645634 
C 137.564719 273.133087 138.05236 272.437826 138.05236 271.712975 
C 138.05236 270.988124 137.564719 270.292864 136.696835 269.780317 
C 135.82895 269.26777 134.651681 268.979783 133.424308 268.979783 
C 132.196934 268.979783 131.019665 269.26777 130.151781 269.780317 
C 129.283896 270.292864 128.796256 270.988124 128.796256 271.712975 
C 128.796256 272.437826 129.283896 273.133087 130.151781 273.645634 
C 131.019665 274.158181 132.196934 274.446167 133.424308 274.446167 
z
" clip-path="url(#pf031bdb5d5)" style="fill: #1a1a1a; stroke: #111111; stroke-width: 0.45; stroke-linejoin: miter"/>
   </g>
   <g id="patch_19">
    <path d="M 74.683851 240.896363 
C 75.911225 240.896363 77.088494 240.608376 77.956378 240.095829 
C 78.824262 239.583282 79.311903 238.888022 79.311903 238.163171 
C 79.311903 237.43832 78.824262 236.743059 77.956378 236.230512 
C 77.088494 235.717965 75.911225 235.429979 74.683851 235.429979 
C 73.456477 235.429979 72.279209 235.717965 71.411324 236.230512 
C 70.54344 236.743059 70.055799 237.43832 70.055799 238.163171 
C 70.055799 238.888022 70.54344 239.583282 71.411324 240.095829 
C 72.279209 240.608376 73.456477 240.896363 74.683851 240.896363 
z
" clip-path="url(#pf031bdb5d5)" style="fill: #555555; stroke: #111111; stroke-width: 0.45; stroke-linejoin: miter"/>
   </g>
   <g id="patch_20">
    <path d="M 166.105503 252.128065 
C 167.332876 252.128065 168.510145 251.840079 169.37803 251.327532 
C 170.245914 250.814985 170.733555 250.119724 170.733555 249.394873 
C 170.733555 248.670022 170.245914 247.974762 169.37803 247.462215 
C 168.510145 246.949668 167.332876 246.661681 166.105503 246.661681 
C 164.878129 246.661681 163.70086 246.949668 162.832976 247.462215 
C 161.965091 247.974762 161.477451 248.670022 161.477451 249.394873 
C 161.477451 250.119724 161.965091 250.814985 162.832976 251.327532 
C 163.70086 251.840079 164.878129 252.128065 166.105503 252.128065 
z
" clip-path="url(#pf031bdb5d5)" style="fill: #2b2b2b; stroke: #111111; stroke-width: 0.45; stroke-linejoin: miter"/>
   </g>
   <g id="patch_21">
    <path d="M 142.650044 285.030854 
C 143.877417 285.030854 145.054686 284.742868 145.922571 284.230321 
C 146.790455 283.717773 147.278096 283.022513 147.278096 282.297662 
C 147.278096 281.572811 146.790455 280.87755 145.922571 280.365003 
C 145.054686 279.852456 143.877417 279.56447 142.650044 279.56447 
C 141.42267 279.56447 140.245401 279.852456 139.377517 280.365003 
C 138.509632 280.87755 138.021992 281.572811 138.021992 282.297662 
C 138.021992 283.022513 138.509632 283.717773 139.377517 284.230321 
C 140.245401 284.742868 141.42267 285.030854 142.650044 285.030854 
z
" clip-path="url(#pf031bdb5d5)" style="fill: #111111; stroke: #111111; stroke-width: 0.45; stroke-linejoin: miter"/>
   </g>
   <g id="patch_22">
    <path d="M 157.78178 240.931852 
C 159.009153 240.931852 160.186422 240.643866 161.054307 240.131319 
C 161.922191 239.618772 162.409832 238.923511 162.409832 238.19866 
C 162.409832 237.473809 161.922191 236.778549 161.054307 236.266002 
C 160.186422 235.753455 159.009153 235.465468 157.78178 235.465468 
C 156.554406 235.465468 155.377137 235.753455 154.509253 236.266002 
C 153.641368 236.778549 153.153728 237.473809 153.153728 238.19866 
C 153.153728 238.923511 153.641368 239.618772 154.509253 240.131319 
C 155.377137 240.643866 156.554406 240.931852 157.78178 240.931852 
z
" clip-path="url(#pf031bdb5d5)" style="fill: #1a1a1a; stroke: #111111; stroke-width: 0.45; stroke-linejoin: miter"/>
   </g>
   <g id="patch_23">
    <path d="M 109.479068 243.264104 
C 110.706441 243.264104 111.88371 242.976118 112.751595 242.463571 
C 113.619479 241.951023 114.10712 241.255763 114.10712 240.530912 
C 114.10712 239.806061 113.619479 239.1108 112.751595 238.598253 
C 111.88371 238.085706 110.706441 237.79772 109.479068 237.79772 
C 108.251694 237.79772 107.074425 238.085706 106.206541 238.598253 
C 105.338656 239.1108 104.851016 239.806061 104.851016 240.530912 
C 104.851016 241.255763 105.338656 241.951023 106.206541 242.463571 
C 107.074425 242.976118 108.251694 243.264104 109.479068 243.264104 
z
" clip-path="url(#pf031bdb5d5)" style="fill: #555555; stroke: #111111; stroke-width: 0.45; stroke-linejoin: miter"/>
   </g>
   <g id="patch_24">
    <path d="M 183.229317 278.659636 
C 184.456691 278.659636 185.63396 278.37165 186.501844 277.859103 
C 187.369728 277.346556 187.857369 276.651295 187.857369 275.926444 
C 187.857369 275.201593 187.369728 274.506332 186.501844 273.993785 
C 185.63396 273.481238 184.456691 273.193252 183.229317 273.193252 
C 182.001944 273.193252 180.824675 273.481238 179.95679 273.993785 
C 179.088906 274.506332 178.601265 275.201593 178.601265 275.926444 
C 178.601265 276.651295 179.088906 277.346556 179.95679 277.859103 
C 180.824675 278.37165 182.001944 278.659636 183.229317 278.659636 
z
" clip-path="url(#pf031bdb5d5)" style="fill: #2b2b2b; stroke: #111111; stroke-width: 0.45; stroke-linejoin: miter"/>
   </g>
   <g id="patch_25">
    <path d="M 173.94406 287.06988 
C 175.171434 287.06988 176.348703 286.781893 177.216587 286.269346 
C 178.084471 285.756799 178.572112 285.061539 178.572112 284.336688 
C 178.572112 283.611837 178.084471 282.916576 177.216587 282.404029 
C 176.348703 281.891482 175.171434 281.603496 173.94406 281.603496 
C 172.716686 281.603496 171.539417 281.891482 170.671533 282.404029 
C 169.803649 282.916576 169.316008 283.611837 169.316008 284.336688 
C 169.316008 285.061539 169.803649 285.756799 170.671533 286.269346 
C 171.539417 286.781893 172.716686 287.06988 173.94406 287.06988 
z
" clip-path="url(#pf031bdb5d5)" style="fill: #111111; stroke: #111111; stroke-width: 0.45; stroke-linejoin: miter"/>
   </g>
   <g id="patch_26">
    <path d="M 208.488937 265.516401 
Q 238.601586 251.067186 267.807039 237.05328 
" clip-path="url(#pf031bdb5d5)" style="fill: none; stroke: #111111; stroke-width: 0.9; stroke-linecap: round"/>
    <path d="M 264.229803 236.995113 
L 267.807039 237.05328 
L 265.614164 239.880169 
z
" clip-path="url(#pf031bdb5d5)" style="fill: #111111; stroke: #111111; stroke-width: 0.9; stroke-linecap: round"/>
   </g>
   <g id="patch_27">
    <path d="M 208.210359 267.676946 
Q 238.60276 293.478436 268.228075 318.628711 
" clip-path="url(#pf031bdb5d5)" style="fill: none; stroke: #111111; stroke-width: 0.9; stroke-linecap: round"/>
    <path d="M 266.82409 315.337992 
L 268.228075 318.628711 
L 264.753109 317.777467 
z
" clip-path="url(#pf031bdb5d5)" style="fill: #111111; stroke: #111111; stroke-width: 0.9; stroke-linecap: round"/>
   </g>
   <g id="patch_28">
    <path d="M 400.189346 235.7514 
Q 430.109298 235.7514 459.023019 235.7514 
" clip-path="url(#pf031bdb5d5)" style="fill: none; stroke: #111111; stroke-width: 0.9; stroke-linecap: round"/>
    <path d="M 455.823019 234.1514 
L 459.023019 235.7514 
L 455.823019 237.3514 
z
" clip-path="url(#pf031bdb5d5)" style="fill: #111111; stroke: #111111; stroke-width: 0.9; stroke-linecap: round"/>
   </g>
   <g id="patch_29">
    <path d="M 400.189346 320.5746 
Q 430.109298 320.5746 459.023019 320.5746 
" clip-path="url(#pf031bdb5d5)" style="fill: none; stroke: #111111; stroke-width: 0.9; stroke-linecap: round"/>
    <path d="M 455.823019 318.9746 
L 459.023019 320.5746 
L 455.823019 322.1746 
z
" clip-path="url(#pf031bdb5d5)" style="fill: #111111; stroke: #111111; stroke-width: 0.9; stroke-linecap: round"/>
   </g>
   <g id="patch_30">
    <path d="M 607.656181 235.7514 
Q 633.582592 235.7514 658.502771 235.7514 
" clip-path="url(#pf031bdb5d5)" style="fill: none; stroke: #111111; stroke-width: 0.9; stroke-linecap: round"/>
    <path d="M 655.302771 234.1514 
L 658.502771 235.7514 
L 655.302771 237.3514 
z
" clip-path="url(#pf031bdb5d5)" style="fill: #111111; stroke: #111111; stroke-width: 0.9; stroke-linecap: round"/>
   </g>
   <g id="patch_31">
    <path d="M 607.656181 320.5746 
Q 633.582592 320.5746 658.502771 320.5746 
" clip-path="url(#pf031bdb5d5)" style="fill: none; stroke: #111111; stroke-width: 0.9; stroke-linecap: round"/>
    <path d="M 655.302771 318.9746 
L 658.502771 320.5746 
L 655.302771 322.1746 
z
" clip-path="url(#pf031bdb5d5)" style="fill: #111111; stroke: #111111; stroke-width: 0.9; stroke-linecap: round"/>
   </g>
   <g id="patch_32">
    <path d="M 71.0352 332.3556 
L 182.7468 332.3556 
Q 214.6644 332.3556 214.6644 313.506 
L 214.6644 219.258 
Q 214.6644 200.4084 182.7468 200.4084 
L 71.0352 200.4084 
Q 39.1176 200.4084 39.1176 219.258 
L 39.1176 313.506 
Q 39.1176 332.3556 71.0352 332.3556 
z
" clip-path="url(#pf031bdb5d5)" style="fill: #fafafa; stroke: #111111; stroke-linejoin: miter"/>
   </g>
   <g id="patch_33">
    <path d="M 283.28724 266.382 
L 385.42356 266.382 
Q 406.17 266.382 406.17 254.12976 
L 406.17 217.37304 
Q 406.17 205.1208 385.42356 205.1208 
L 283.28724 205.1208 
Q 262.5408 205.1208 262.5408 217.37304 
L 262.5408 254.12976 
Q 262.5408 266.382 283.28724 266.382 
z
" clip-path="url(#pf031bdb5d5)" style="fill: #f7f7f7; stroke: #111111; stroke-linejoin: miter"/>
   </g>
   <g id="patch_34">
    <path d="M 283.28724 351.2052 
L 385.42356 351.2052 
Q 406.17 351.2052 406.17 338.95296 
L 406.17 302.19624 
Q 406.17 289.944 385.42356 289.944 
L 283.28724 289.944 
Q 262.5408 289.944 262.5408 302.19624 
L 262.5408 338.95296 
Q 262.5408 351.2052 283.28724 351.2052 
z
" clip-path="url(#pf031bdb5d5)" style="fill: #f7f7f7; stroke: #111111; stroke-linejoin: miter"/>
   </g>
   <g id="patch_35">
    <path d="M 474.79284 266.382 
L 592.88796 266.382 
Q 613.6344 266.382 613.6344 254.12976 
L 613.6344 217.37304 
Q 613.6344 205.1208 592.88796 205.1208 
L 474.79284 205.1208 
Q 454.0464 205.1208 454.0464 217.37304 
L 454.0464 254.12976 
Q 454.0464 266.382 474.79284 266.382 
z
" clip-path="url(#pf031bdb5d5)" style="fill: #eeeeee; stroke: #111111; stroke-linejoin: miter"/>
   </g>
   <g id="patch_36">
    <path d="M 474.79284 351.2052 
L 592.88796 351.2052 
Q 613.6344 351.2052 613.6344 338.95296 
L 613.6344 302.19624 
Q 613.6344 289.944 592.88796 289.944 
L 474.79284 289.944 
Q 454.0464 289.944 454.0464 302.19624 
L 454.0464 338.95296 
Q 454.0464 351.2052 474.79284 351.2052 
z
" clip-path="url(#pf031bdb5d5)" style="fill: #eeeeee; stroke: #111111; stroke-linejoin: miter"/>
   </g>
   <g id="patch_37">
    <path d="M 674.27784 266.382 
L 744.49656 266.382 
Q 765.243 266.382 765.243 254.12976 
L 765.243 217.37304 
Q 765.243 205.1208 744.49656 205.1208 
L 674.27784 205.1208 
Q 653.5314 205.1208 653.5314 217.37304 
L 653.5314 254.12976 
Q 653.5314 266.382 674.27784 266.382 
z
" clip-path="url(#pf031bdb5d5)" style="fill: #e6e6e6; stroke: #111111; stroke-linejoin: miter"/>
   </g>
   <g id="patch_38">
    <path d="M 674.27784 351.2052 
L 744.49656 351.2052 
Q 765.243 351.2052 765.243 338.95296 
L 765.243 302.19624 
Q 765.243 289.944 744.49656 289.944 
L 674.27784 289.944 
Q 653.5314 289.944 653.5314 302.19624 
L 653.5314 338.95296 
Q 653.5314 351.2052 674.27784 351.2052 
z
" clip-path="url(#pf031bdb5d5)" style="fill: #e6e6e6; stroke: #111111; stroke-linejoin: miter"/>
   </g>
   <g id="text_1">
    <text style="font-weight: 700; font-size: 18px; font-family: 'Source Han Sans CN', 'Noto Sans CJK SC', 'Microsoft YaHei UI', 'Microsoft YaHei', 'PingFang SC', 'Heiti SC', 'SimHei', 'DejaVu Sans', sans-serif; text-anchor: start; fill: #101010" x="31.1382" y="45.15075" transform="rotate(-0 31.1382 45.15075)">图5 统一候选池与约束支配环境选择示意图</text>
   </g>
   <g id="text_2">
    <text style="font-size: 10.6px; font-family: 'Source Han Sans CN', 'Noto Sans CJK SC', 'Microsoft YaHei UI', 'Microsoft YaHei', 'PingFang SC', 'Heiti SC', 'SimHei', 'DejaVu Sans', sans-serif; text-anchor: start; fill: #3d3d3d" x="31.1382" y="58.084975" transform="rotate(-0 31.1382 58.084975)">先比较约束违背度，再比较非支配关系与多样性，由统一竞争得到轨迹解集与安全优先的代表轨迹。</text>
   </g>
   <g id="text_3">
    <text style="font-size: 11px; font-family: 'Source Han Sans CN', 'Noto Sans CJK SC', 'Microsoft YaHei UI', 'Microsoft YaHei', 'PingFang SC', 'Heiti SC', 'SimHei', 'DejaVu Sans', sans-serif; text-anchor: middle; fill: #101010" x="126.891" y="275.066177" transform="rotate(-0 126.891 275.066177)">统一候选池</text>
   </g>
   <g id="text_4">
    <text style="font-size: 10.2px; font-family: 'Source Han Sans CN', 'Noto Sans CJK SC', 'Microsoft YaHei UI', 'Microsoft YaHei', 'PingFang SC', 'Heiti SC', 'SimHei', 'DejaVu Sans', sans-serif; text-anchor: middle; fill: #101010" x="334.3554" y="244.215264" transform="rotate(-0 334.3554 244.215264)">目标值评价</text>
   </g>
   <g id="text_5">
    <text style="font-size: 10.2px; font-family: 'Source Han Sans CN', 'Noto Sans CJK SC', 'Microsoft YaHei UI', 'Microsoft YaHei', 'PingFang SC', 'Heiti SC', 'SimHei', 'DejaVu Sans', sans-serif; text-anchor: middle; fill: #101010" x="334.3554" y="329.038464" transform="rotate(-0 334.3554 329.038464)">约束违背度评价</text>
   </g>
   <g id="text_6">
    <text style="font-size: 10.2px; font-family: 'Source Han Sans CN', 'Noto Sans CJK SC', 'Microsoft YaHei UI', 'Microsoft YaHei', 'PingFang SC', 'Heiti SC', 'SimHei', 'DejaVu Sans', sans-serif; text-anchor: middle; fill: #101010" x="533.8404" y="238.560384" transform="rotate(-0 533.8404 238.560384)">第一层：约束支配比较</text>
   </g>
   <g id="text_7">
    <text style="font-size: 10.2px; font-family: 'Source Han Sans CN', 'Noto Sans CJK SC', 'Microsoft YaHei UI', 'Microsoft YaHei', 'PingFang SC', 'Heiti SC', 'SimHei', 'DejaVu Sans', sans-serif; fill: #101010" transform="translate(487.9404 316.8159)">第二层：非支配排序</text>
    <text style="font-size: 10.2px; font-family: 'Source Han Sans CN', 'Noto Sans CJK SC', 'Microsoft YaHei UI', 'Microsoft YaHei', 'PingFang SC', 'Heiti SC', 'SimHei', 'DejaVu Sans', sans-serif; fill: #101010" transform="translate(503.048353 329.951269)">+ 多样性保持</text>
   </g>
   <g id="text_8">
    <text style="font-size: 10.2px; font-family: 'Source Han Sans CN', 'Noto Sans CJK SC', 'Microsoft YaHei UI', 'Microsoft YaHei', 'PingFang SC', 'Heiti SC', 'SimHei', 'DejaVu Sans', sans-serif; text-anchor: middle; fill: #101010" x="709.3872" y="244.215264" transform="rotate(-0 709.3872 244.215264)">轨迹解集</text>
   </g>
   <g id="text_9">
    <text style="font-size: 10.2px; font-family: 'Source Han Sans CN', 'Noto Sans CJK SC', 'Microsoft YaHei UI', 'Microsoft YaHei', 'PingFang SC', 'Heiti SC', 'SimHei', 'DejaVu Sans', sans-serif; text-anchor: middle; fill: #101010" x="709.3872" y="329.038464" transform="rotate(-0 709.3872 329.038464)">代表轨迹</text>
   </g>
   <g id="text_10">
    <text style="font-size: 9.4px; font-family: 'Source Han Sans CN', 'Noto Sans CJK SC', 'Microsoft YaHei UI', 'Microsoft YaHei', 'PingFang SC', 'Heiti SC', 'SimHei', 'DejaVu Sans', sans-serif; text-anchor: middle; fill: #3d3d3d" x="709.3872" y="370.0548" transform="rotate(-0 709.3872 370.0548)">安全优先 + 折中效率</text>
   </g>
   <g id="text_11">
    <text style="font-size: 9.4px; font-family: 'Source Han Sans CN', 'Noto Sans CJK SC', 'Microsoft YaHei UI', 'Microsoft YaHei', 'PingFang SC', 'Heiti SC', 'SimHei', 'DejaVu Sans', sans-serif; text-anchor: middle; fill: #3d3d3d" x="533.8404" y="190.9836" transform="rotate(-0 533.8404 190.9836)">先比较可行性</text>
   </g>
   <g id="text_12">
    <text style="font-size: 9.4px; font-family: 'Source Han Sans CN', 'Noto Sans CJK SC', 'Microsoft YaHei UI', 'Microsoft YaHei', 'PingFang SC', 'Heiti SC', 'SimHei', 'DejaVu Sans', sans-serif; text-anchor: middle; fill: #3d3d3d" x="533.8404" y="374.7672" transform="rotate(-0 533.8404 374.7672)">再比较 Pareto 优势与多样性</text>
   </g>
   <g id="patch_39">
    <path d="M 61.45992 233.86644 
L 103.75074 233.86644 
Q 111.73014 233.86644 111.73014 229.15404 
L 111.73014 213.60312 
Q 111.73014 208.89072 103.75074 208.89072 
L 61.45992 208.89072 
Q 53.48052 208.89072 53.48052 213.60312 
L 53.48052 229.15404 
Q 53.48052 233.86644 61.45992 233.86644 
z
" clip-path="url(#pf031bdb5d5)" style="fill: #ffffff; stroke: #111111; stroke-width: 0.9; stroke-linejoin: miter"/>
   </g>
   <g id="patch_40">
    <path d="M 284.88312 237.070872 
L 319.99248 237.070872 
Q 327.97188 237.070872 327.97188 232.358472 
L 327.97188 218.31552 
Q 327.97188 213.60312 319.99248 213.60312 
L 284.88312 213.60312 
Q 276.90372 213.60312 276.90372 218.31552 
L 276.90372 232.358472 
Q 276.90372 237.070872 284.88312 237.070872 
z
" clip-path="url(#pf031bdb5d5)" style="fill: #ffffff; stroke: #111111; stroke-width: 0.9; stroke-linejoin: miter"/>
   </g>
   <g id="patch_41">
    <path d="M 284.88312 321.894072 
L 319.99248 321.894072 
Q 327.97188 321.894072 327.97188 317.181672 
L 327.97188 303.13872 
Q 327.97188 298.42632 319.99248 298.42632 
L 284.88312 298.42632 
Q 276.90372 298.42632 276.90372 303.13872 
L 276.90372 317.181672 
Q 276.90372 321.894072 284.88312 321.894072 
z
" clip-path="url(#pf031bdb5d5)" style="fill: #ffffff; stroke: #111111; stroke-width: 0.9; stroke-linejoin: miter"/>
   </g>
   <g id="patch_42">
    <path d="M 675.87372 237.070872 
L 699.81192 237.070872 
Q 707.79132 237.070872 707.79132 232.358472 
L 707.79132 218.31552 
Q 707.79132 213.60312 699.81192 213.60312 
L 675.87372 213.60312 
Q 667.89432 213.60312 667.89432 218.31552 
L 667.89432 232.358472 
Q 667.89432 237.070872 675.87372 237.070872 
z
" clip-path="url(#pf031bdb5d5)" style="fill: #ffffff; stroke: #111111; stroke-width: 0.9; stroke-linejoin: miter"/>
   </g>
   <g id="patch_43">
    <path d="M 675.87372 321.894072 
L 699.81192 321.894072 
Q 707.79132 321.894072 707.79132 317.181672 
L 707.79132 303.13872 
Q 707.79132 298.42632 699.81192 298.42632 
L 675.87372 298.42632 
Q 667.89432 298.42632 667.89432 303.13872 
L 667.89432 317.181672 
Q 667.89432 321.894072 675.87372 321.894072 
z
" clip-path="url(#pf031bdb5d5)" style="fill: #ffffff; stroke: #111111; stroke-width: 0.9; stroke-linejoin: miter"/>
   </g>
   <g id="text_13">
    <text style="font-weight: 700; font-size: 8.8px; font-family: 'Source Han Sans CN', 'Noto Sans CJK SC', 'Microsoft YaHei UI', 'Microsoft YaHei', 'PingFang SC', 'Heiti SC', 'SimHei', 'DejaVu Sans', sans-serif; text-anchor: middle; fill: #101010" x="82.60533" y="223.802017" transform="rotate(-0 82.60533 223.802017)">340</text>
   </g>
   <g id="text_14">
    <text style="font-weight: 700; font-size: 8px; font-family: 'Source Han Sans CN', 'Noto Sans CJK SC', 'Microsoft YaHei UI', 'Microsoft YaHei', 'PingFang SC', 'Heiti SC', 'SimHei', 'DejaVu Sans', sans-serif; text-anchor: middle; fill: #101010" x="302.4378" y="227.540121" transform="rotate(-0 302.4378 227.540121)">F</text>
   </g>
   <g id="text_15">
    <text style="font-weight: 700; font-size: 8px; font-family: 'Source Han Sans CN', 'Noto Sans CJK SC', 'Microsoft YaHei UI', 'Microsoft YaHei', 'PingFang SC', 'Heiti SC', 'SimHei', 'DejaVu Sans', sans-serif; text-anchor: middle; fill: #101010" x="302.4378" y="312.363321" transform="rotate(-0 302.4378 312.363321)">CV</text>
   </g>
   <g id="text_16">
    <text style="font-weight: 700; font-size: 8px; font-family: 'Source Han Sans CN', 'Noto Sans CJK SC', 'Microsoft YaHei UI', 'Microsoft YaHei', 'PingFang SC', 'Heiti SC', 'SimHei', 'DejaVu Sans', sans-serif; text-anchor: middle; fill: #101010" x="687.84282" y="227.540121" transform="rotate(-0 687.84282 227.540121)">250</text>
   </g>
   <g id="text_17">
    <text style="font-weight: 700; font-size: 8px; font-family: 'Source Han Sans CN', 'Noto Sans CJK SC', 'Microsoft YaHei UI', 'Microsoft YaHei', 'PingFang SC', 'Heiti SC', 'SimHei', 'DejaVu Sans', sans-serif; text-anchor: middle; fill: #101010" x="687.84282" y="312.363321" transform="rotate(-0 687.84282 312.363321)">260</text>
   </g>
  </g>
 </g>
 <defs>
  <clipPath id="pf031bdb5d5">
   <rect x="7.2" y="7.2" width="797.94" height="471.24"/>
  </clipPath>
 </defs>
</svg>
