<?xml version="1.0" encoding="utf-8" standalone="no"?>
<!DOCTYPE svg PUBLIC "-//W3C//DTD SVG 1.1//EN"
  "http://www.w3.org/Graphics/SVG/1.1/DTD/svg11.dtd">
<svg xmlns:xlink="http://www.w3.org/1999/xlink" width="823.5pt" height="513.36pt" viewBox="0 0 823.5 513.36" xmlns="http://www.w3.org/2000/svg" version="1.1">
 <metadata>
  <rdf:RDF xmlns:dc="http://purl.org/dc/elements/1.1/" xmlns:cc="http://creativecommons.org/ns#" xmlns:rdf="http://www.w3.org/1999/02/22-rdf-syntax-ns#">
   <cc:Work>
    <dc:type rdf:resource="http://purl.org/dc/dcmitype/StillImage"/>
    <dc:date>2026-04-15T00:23:04.639235</dc:date>
    <dc:format>image/svg+xml</dc:format>
    <dc:creator>
     <cc:Agent>
      <dc:title>Matplotlib v3.10.7, https://matplotlib.org/</dc:title>
     </cc:Agent>
    </dc:creator>
   </cc:Work>
  </rdf:RDF>
 </metadata>
 <defs>
  <style type="text/css">*{stroke-linejoin: round; stroke-linecap: butt}</style>
 </defs>
 <g id="figure_1">
  <g id="patch_1">
   <path d="M 0 513.36 
L 823.5 513.36 
L 823.5 -0 
L 0 -0 
z
" style="fill: #ffffff"/>
  </g>
  <g id="axes_1">
   <g id="patch_2">
    <path d="M 37.9458 178.84224 
L 769.3722 178.84224 
Q 779.0814 178.84224 779.0814 172.85472 
L 779.0814 81.04608 
Q 779.0814 75.05856 769.3722 75.05856 
L 37.9458 75.05856 
Q 28.2366 75.05856 28.2366 81.04608 
L 28.2366 172.85472 
Q 28.2366 178.84224 37.9458 178.84224 
L 37.9458 178.84224 
z
" clip-path="url(#pb296a0185d)" style="fill: none; stroke-dasharray: 2.96,1.28; stroke-dashoffset: 0; stroke: #bdbdbd; stroke-width: 0.8; stroke-linejoin: miter"/>
   </g>
   <g id="patch_3">
    <path d="M 110.7648 328.53024 
L 696.5532 328.53024 
Q 706.2624 328.53024 706.2624 322.54272 
L 706.2624 240.71328 
Q 706.2624 234.72576 696.5532 234.72576 
L 110.7648 234.72576 
Q 101.0556 234.72576 101.0556 240.71328 
L 101.0556 322.54272 
Q 101.0556 328.53024 110.7648 328.53024 
L 110.7648 328.53024 
z
" clip-path="url(#pb296a0185d)" style="fill: none; stroke-dasharray: 2.96,1.28; stroke-dashoffset: 0; stroke: #bdbdbd; stroke-width: 0.8; stroke-linejoin: miter"/>
   </g>
   <g id="patch_4">
    <path d="M 240.2208 453.27024 
L 753.1902 453.27024 
Q 762.8994 453.27024 762.8994 447.28272 
L 762.8994 365.45328 
Q 762.8994 359.46576 753.1902 359.46576 
L 240.2208 359.46576 
Q 230.5116 359.46576 230.5116 365.45328 
L 230.5116 447.28272 
Q 230.5116 453.27024 240.2208 453.27024 
L 240.2208 453.27024 
z
" clip-path="url(#pb296a0185d)" style="fill: none; stroke-dasharray: 2.96,1.28; stroke-dashoffset: 0; stroke: #bdbdbd; stroke-width: 0.8; stroke-linejoin: miter"/>
   </g>
   <g id="patch_5">
    <path d="M 154.838034 119.466 
Q 173.063303 119.466 190.282342 119.466 
" clip-path="url(#pb296a0185d)" style="fill: none; stroke: #111111; stroke-width: 0.9; stroke-linecap: round"/>
    <path d="M 187.082342 117.866 
L 190.282342 119.466 
L 187.082342 121.066 
z
" clip-path="url(#pb296a0185d)" style="fill: #111111; stroke: #111111; stroke-width: 0.9; stroke-linecap: round"/>
   </g>
   <g id="patch_6">
    <path d="M 308.567034 119.466 
Q 326.792303 119.466 344.011342 119.466 
" clip-path="url(#pb296a0185d)" style="fill: none; stroke: #111111; stroke-width: 0.9; stroke-linecap: round"/>
    <path d="M 340.811342 117.866 
L 344.011342 119.466 
L 340.811342 121.066 
z
" clip-path="url(#pb296a0185d)" style="fill: #111111; stroke: #111111; stroke-width: 0.9; stroke-linecap: round"/>
   </g>
   <g id="patch_7">
    <path d="M 462.296034 119.466 
Q 480.521303 119.466 497.740342 119.466 
" clip-path="url(#pb296a0185d)" style="fill: none; stroke: #111111; stroke-width: 0.9; stroke-linecap: round"/>
    <path d="M 494.540342 117.866 
L 497.740342 119.466 
L 494.540342 121.066 
z
" clip-path="url(#pb296a0185d)" style="fill: #111111; stroke: #111111; stroke-width: 0.9; stroke-linecap: round"/>
   </g>
   <g id="patch_8">
    <path d="M 616.025034 119.466 
Q 634.250303 119.466 651.469342 119.466 
" clip-path="url(#pb296a0185d)" style="fill: none; stroke: #111111; stroke-width: 0.9; stroke-linecap: round"/>
    <path d="M 648.269342 117.866 
L 651.469342 119.466 
L 648.269342 121.066 
z
" clip-path="url(#pb296a0185d)" style="fill: #111111; stroke: #111111; stroke-width: 0.9; stroke-linecap: round"/>
   </g>
   <g id="patch_9">
    <path d="M 185.202 218.764034 
Q 185.202 229.239001 185.202 238.707737 
" clip-path="url(#pb296a0185d)" style="fill: none; stroke: #111111; stroke-width: 0.9; stroke-linecap: round"/>
    <path d="M 186.802 235.507737 
L 185.202 238.707737 
L 183.602 235.507737 
z
" clip-path="url(#pb296a0185d)" style="fill: #111111; stroke: #111111; stroke-width: 0.9; stroke-linecap: round"/>
   </g>
   <g id="patch_10">
    <path d="M 395.568 218.764034 
Q 395.568 229.239001 395.568 238.707737 
" clip-path="url(#pb296a0185d)" style="fill: none; stroke: #111111; stroke-width: 0.9; stroke-linecap: round"/>
    <path d="M 397.168 235.507737 
L 395.568 238.707737 
L 393.968 235.507737 
z
" clip-path="url(#pb296a0185d)" style="fill: #111111; stroke: #111111; stroke-width: 0.9; stroke-linecap: round"/>
   </g>
   <g id="patch_11">
    <path d="M 605.934 218.764034 
Q 605.934 229.239001 605.934 238.707737 
" clip-path="url(#pb296a0185d)" style="fill: none; stroke: #111111; stroke-width: 0.9; stroke-linecap: round"/>
    <path d="M 607.534 235.507737 
L 605.934 238.707737 
L 604.334 235.507737 
z
" clip-path="url(#pb296a0185d)" style="fill: #111111; stroke: #111111; stroke-width: 0.9; stroke-linecap: round"/>
   </g>
   <g id="patch_12">
    <path d="M 185.202 298.599462 
Q 185.202 316.554528 185.202 333.503363 
" clip-path="url(#pb296a0185d)" style="fill: none; stroke: #111111; stroke-width: 0.9; stroke-linecap: round"/>
    <path d="M 186.802 330.303363 
L 185.202 333.503363 
L 183.602 330.303363 
z
" clip-path="url(#pb296a0185d)" style="fill: #111111; stroke: #111111; stroke-width: 0.9; stroke-linecap: round"/>
   </g>
   <g id="patch_13">
    <path d="M 395.568 298.599462 
Q 395.568 316.554528 395.568 333.503363 
" clip-path="url(#pb296a0185d)" style="fill: none; stroke: #111111; stroke-width: 0.9; stroke-linecap: round"/>
    <path d="M 397.168 330.303363 
L 395.568 333.503363 
L 393.968 330.303363 
z
" clip-path="url(#pb296a0185d)" style="fill: #111111; stroke: #111111; stroke-width: 0.9; stroke-linecap: round"/>
   </g>
   <g id="patch_14">
    <path d="M 605.934 298.599462 
Q 605.934 316.554528 605.934 333.503363 
" clip-path="url(#pb296a0185d)" style="fill: none; stroke: #111111; stroke-width: 0.9; stroke-linecap: round"/>
    <path d="M 607.534 330.303363 
L 605.934 333.503363 
L 604.334 330.303363 
z
" clip-path="url(#pb296a0185d)" style="fill: #111111; stroke: #111111; stroke-width: 0.9; stroke-linecap: round"/>
   </g>
   <g id="patch_15">
    <path d="M 314.658 338.512607 
Q 314.658 351.48093 314.658 363.443022 
" clip-path="url(#pb296a0185d)" style="fill: none; stroke: #111111; stroke-width: 0.9; stroke-linecap: round"/>
    <path d="M 316.258 360.243022 
L 314.658 363.443022 
L 313.058 360.243022 
z
" clip-path="url(#pb296a0185d)" style="fill: #111111; stroke: #111111; stroke-width: 0.9; stroke-linecap: round"/>
   </g>
   <g id="patch_16">
    <path d="M 373.297997 393.894 
Q 403.659364 393.894 433.0145 393.894 
" clip-path="url(#pb296a0185d)" style="fill: none; stroke: #111111; stroke-width: 0.9; stroke-linecap: round"/>
    <path d="M 429.8145 392.294 
L 433.0145 393.894 
L 429.8145 395.494 
z
" clip-path="url(#pb296a0185d)" style="fill: #111111; stroke: #111111; stroke-width: 0.9; stroke-linecap: round"/>
   </g>
   <g id="patch_17">
    <path d="M 551.299997 393.894 
Q 581.661364 393.894 611.0165 393.894 
" clip-path="url(#pb296a0185d)" style="fill: none; stroke: #111111; stroke-width: 0.9; stroke-linecap: round"/>
    <path d="M 607.8165 392.294 
L 611.0165 393.894 
L 607.8165 395.494 
z
" clip-path="url(#pb296a0185d)" style="fill: #111111; stroke: #111111; stroke-width: 0.9; stroke-linecap: round"/>
   </g>
   <g id="patch_18">
    <path d="M 63.837 469.228539 
Q 63.837 309.069525 63.837 149.916742 
" clip-path="url(#pb296a0185d)" style="fill: none; stroke-dasharray: 3.33,1.44; stroke-dashoffset: 0; stroke: #bdbdbd; stroke-width: 0.9; stroke-linecap: round"/>
    <path d="M 62.237 153.116742 
L 63.837 149.916742 
L 65.437 153.116742 
z
" clip-path="url(#pb296a0185d)" style="fill: #bdbdbd; stroke-dasharray: 3.33,1.44; stroke-dashoffset: 0; stroke: #bdbdbd; stroke-width: 0.9; stroke-linecap: round"/>
   </g>
   <g id="line2d_1">
    <path d="M 395.568 336.5136 
L 314.658 336.5136 
" clip-path="url(#pb296a0185d)" style="fill: none; stroke: #111111; stroke-width: 0.9; stroke-linecap: round"/>
   </g>
   <g id="patch_19">
    <path d="M 52.5096 151.8984 
L 139.8924 151.8984 
Q 160.929 151.8984 160.929 138.92544 
L 160.929 100.00656 
Q 160.929 87.0336 139.8924 87.0336 
L 52.5096 87.0336 
Q 31.473 87.0336 31.473 100.00656 
L 31.473 138.92544 
Q 31.473 151.8984 52.5096 151.8984 
z
" clip-path="url(#pb296a0185d)" style="fill: #f7f7f7; stroke: #111111; stroke-linejoin: miter"/>
   </g>
   <g id="patch_20">
    <path d="M 206.2386 151.8984 
L 293.6214 151.8984 
Q 314.658 151.8984 314.658 138.92544 
L 314.658 100.00656 
Q 314.658 87.0336 293.6214 87.0336 
L 206.2386 87.0336 
Q 185.202 87.0336 185.202 100.00656 
L 185.202 138.92544 
Q 185.202 151.8984 206.2386 151.8984 
z
" clip-path="url(#pb296a0185d)" style="fill: #f7f7f7; stroke: #111111; stroke-linejoin: miter"/>
   </g>
   <g id="patch_21">
    <path d="M 359.9676 151.8984 
L 447.3504 151.8984 
Q 468.387 151.8984 468.387 138.92544 
L 468.387 100.00656 
Q 468.387 87.0336 447.3504 87.0336 
L 359.9676 87.0336 
Q 338.931 87.0336 338.931 100.00656 
L 338.931 138.92544 
Q 338.931 151.8984 359.9676 151.8984 
z
" clip-path="url(#pb296a0185d)" style="fill: #f7f7f7; stroke: #111111; stroke-linejoin: miter"/>
   </g>
   <g id="patch_22">
    <path d="M 513.6966 151.8984 
L 601.0794 151.8984 
Q 622.116 151.8984 622.116 138.92544 
L 622.116 100.00656 
Q 622.116 87.0336 601.0794 87.0336 
L 513.6966 87.0336 
Q 492.66 87.0336 492.66 100.00656 
L 492.66 138.92544 
Q 492.66 151.8984 513.6966 151.8984 
z
" clip-path="url(#pb296a0185d)" style="fill: #f7f7f7; stroke: #111111; stroke-linejoin: miter"/>
   </g>
   <g id="patch_23">
    <path d="M 667.4256 151.8984 
L 754.8084 151.8984 
Q 775.845 151.8984 775.845 138.92544 
L 775.845 100.00656 
Q 775.845 87.0336 754.8084 87.0336 
L 667.4256 87.0336 
Q 646.389 87.0336 646.389 100.00656 
L 646.389 138.92544 
Q 646.389 151.8984 667.4256 151.8984 
z
" clip-path="url(#pb296a0185d)" style="fill: #eeeeee; stroke: #111111; stroke-linejoin: miter"/>
   </g>
   <g id="patch_24">
    <path d="M 141.5106 301.5864 
L 228.8934 301.5864 
Q 249.93 301.5864 249.93 288.61344 
L 249.93 249.69456 
Q 249.93 236.7216 228.8934 236.7216 
L 141.5106 236.7216 
Q 120.474 236.7216 120.474 249.69456 
L 120.474 288.61344 
Q 120.474 301.5864 141.5106 301.5864 
z
" clip-path="url(#pb296a0185d)" style="fill: #eeeeee; stroke: #111111; stroke-linejoin: miter"/>
   </g>
   <g id="patch_25">
    <path d="M 351.8766 301.5864 
L 439.2594 301.5864 
Q 460.296 301.5864 460.296 288.61344 
L 460.296 249.69456 
Q 460.296 236.7216 439.2594 236.7216 
L 351.8766 236.7216 
Q 330.84 236.7216 330.84 249.69456 
L 330.84 288.61344 
Q 330.84 301.5864 351.8766 301.5864 
z
" clip-path="url(#pb296a0185d)" style="fill: #eeeeee; stroke: #111111; stroke-linejoin: miter"/>
   </g>
   <g id="patch_26">
    <path d="M 562.2426 301.5864 
L 649.6254 301.5864 
Q 670.662 301.5864 670.662 288.61344 
L 670.662 249.69456 
Q 670.662 236.7216 649.6254 236.7216 
L 562.2426 236.7216 
Q 541.206 236.7216 541.206 249.69456 
L 541.206 288.61344 
Q 541.206 301.5864 562.2426 301.5864 
z
" clip-path="url(#pb296a0185d)" style="fill: #eeeeee; stroke: #111111; stroke-linejoin: miter"/>
   </g>
   <g id="patch_27">
    <path d="M 270.9666 426.3264 
L 358.3494 426.3264 
Q 379.386 426.3264 379.386 413.35344 
L 379.386 374.43456 
Q 379.386 361.4616 358.3494 361.4616 
L 270.9666 361.4616 
Q 249.93 361.4616 249.93 374.43456 
L 249.93 413.35344 
Q 249.93 426.3264 270.9666 426.3264 
z
" clip-path="url(#pb296a0185d)" style="fill: #fafafa; stroke: #111111; stroke-linejoin: miter"/>
   </g>
   <g id="patch_28">
    <path d="M 448.9686 426.3264 
L 536.3514 426.3264 
Q 557.388 426.3264 557.388 413.35344 
L 557.388 374.43456 
Q 557.388 361.4616 536.3514 361.4616 
L 448.9686 361.4616 
Q 427.932 361.4616 427.932 374.43456 
L 427.932 413.35344 
Q 427.932 426.3264 448.9686 426.3264 
z
" clip-path="url(#pb296a0185d)" style="fill: #fafafa; stroke: #111111; stroke-linejoin: miter"/>
   </g>
   <g id="patch_29">
    <path d="M 626.9706 426.3264 
L 714.3534 426.3264 
Q 735.39 426.3264 735.39 413.35344 
L 735.39 374.43456 
Q 735.39 361.4616 714.3534 361.4616 
L 626.9706 361.4616 
Q 605.934 361.4616 605.934 374.43456 
L 605.934 413.35344 
Q 605.934 426.3264 626.9706 426.3264 
z
" clip-path="url(#pb296a0185d)" style="fill: #e6e6e6; stroke: #111111; stroke-linejoin: miter"/>
   </g>
   <g id="line2d_2">
    <path d="M 711.117 146.9088 
L 711.117 216.7632 
" clip-path="url(#pb296a0185d)" style="fill: none; stroke: #111111; stroke-linecap: round"/>
   </g>
   <g id="line2d_3">
    <path d="M 185.202 216.7632 
L 711.117 216.7632 
" clip-path="url(#pb296a0185d)" style="fill: none; stroke: #111111; stroke-linecap: round"/>
   </g>
   <g id="line2d_4">
    <path d="M 185.202 336.5136 
L 605.934 336.5136 
" clip-path="url(#pb296a0185d)" style="fill: none; stroke: #111111; stroke-linecap: round"/>
   </g>
   <g id="line2d_5">
    <path d="M 670.662 421.3368 
L 670.662 471.2328 
" clip-path="url(#pb296a0185d)" style="fill: none; stroke-dasharray: 3.33,1.44; stroke-dashoffset: 0; stroke: #bdbdbd; stroke-width: 0.9"/>
   </g>
   <g id="line2d_6">
    <path d="M 670.662 471.2328 
L 63.837 471.2328 
" clip-path="url(#pb296a0185d)" style="fill: none; stroke-dasharray: 3.33,1.44; stroke-dashoffset: 0; stroke: #bdbdbd; stroke-width: 0.9"/>
   </g>
   <g id="text_1">
    <text style="font-weight: 700; font-size: 18px; font-family: 'Source Han Sans CN', 'Noto Sans CJK SC', 'Microsoft YaHei UI', 'Microsoft YaHei', 'PingFang SC', 'Heiti SC', 'SimHei', 'DejaVu Sans', sans-serif; text-anchor: start; fill: #101010" x="31.473" y="46.53675" transform="rotate(-0 31.473 46.53675)">图2 本发明方法流程图</text>
   </g>
   <g id="text_2">
    <text style="font-size: 10.6px; font-family: 'Source Han Sans CN', 'Noto Sans CJK SC', 'Microsoft YaHei UI', 'Microsoft YaHei', 'PingFang SC', 'Heiti SC', 'SimHei', 'DejaVu Sans', sans-serif; text-anchor: start; fill: #3d3d3d" x="31.473" y="60.579775" transform="rotate(-0 31.473 60.579775)">主流程覆盖数据获取、建模、环境变化响应、候选池筛选和滚动重规划执行，可直接作为摘要附图使用。</text>
   </g>
   <g id="text_3">
    <text style="font-size: 10.2px; font-family: 'Source Han Sans CN', 'Noto Sans CJK SC', 'Microsoft YaHei UI', 'Microsoft YaHei', 'PingFang SC', 'Heiti SC', 'SimHei', 'DejaVu Sans', sans-serif; text-anchor: middle; fill: #3d3d3d" x="403.659" y="67.533304" transform="rotate(-0 403.659 67.533304)">问题建模与变化诊断</text>
   </g>
   <g id="text_4">
    <text style="font-size: 10.2px; font-family: 'Source Han Sans CN', 'Noto Sans CJK SC', 'Microsoft YaHei UI', 'Microsoft YaHei', 'PingFang SC', 'Heiti SC', 'SimHei', 'DejaVu Sans', sans-serif; text-anchor: middle; fill: #3d3d3d" x="403.659" y="227.200504" transform="rotate(-0 403.659 227.200504)">多源候选生成</text>
   </g>
   <g id="text_5">
    <text style="font-size: 10.2px; font-family: 'Source Han Sans CN', 'Noto Sans CJK SC', 'Microsoft YaHei UI', 'Microsoft YaHei', 'PingFang SC', 'Heiti SC', 'SimHei', 'DejaVu Sans', sans-serif; text-anchor: middle; fill: #3d3d3d" x="496.7055" y="351.940504" transform="rotate(-0 496.7055 351.940504)">统一筛选与滚动执行</text>
   </g>
   <g id="text_6">
    <text style="font-size: 10.2px; font-family: 'Source Han Sans CN', 'Noto Sans CJK SC', 'Microsoft YaHei UI', 'Microsoft YaHei', 'PingFang SC', 'Heiti SC', 'SimHei', 'DejaVu Sans', sans-serif; fill: #101010" transform="translate(65.601 121.69482)">获取动态航行</text>
    <text style="font-size: 10.2px; font-family: 'Source Han Sans CN', 'Noto Sans CJK SC', 'Microsoft YaHei UI', 'Microsoft YaHei', 'PingFang SC', 'Heiti SC', 'SimHei', 'DejaVu Sans', sans-serif; fill: #101010" transform="translate(75.801 134.830189)">环境数据</text>
   </g>
   <g id="text_7">
    <text style="font-size: 10.2px; font-family: 'Source Han Sans CN', 'Noto Sans CJK SC', 'Microsoft YaHei UI', 'Microsoft YaHei', 'PingFang SC', 'Heiti SC', 'SimHei', 'DejaVu Sans', sans-serif; fill: #101010" transform="translate(214.23 121.69482)">构建动态多目标</text>
    <text style="font-size: 10.2px; font-family: 'Source Han Sans CN', 'Noto Sans CJK SC', 'Microsoft YaHei UI', 'Microsoft YaHei', 'PingFang SC', 'Heiti SC', 'SimHei', 'DejaVu Sans', sans-serif; fill: #101010" transform="translate(219.33 134.830189)">轨迹优化模型</text>
   </g>
   <g id="text_8">
    <text style="font-size: 10.2px; font-family: 'Source Han Sans CN', 'Noto Sans CJK SC', 'Microsoft YaHei UI', 'Microsoft YaHei', 'PingFang SC', 'Heiti SC', 'SimHei', 'DejaVu Sans', sans-serif; fill: #101010" transform="translate(373.059 121.69482)">归档当前环境</text>
    <text style="font-size: 10.2px; font-family: 'Source Han Sans CN', 'Noto Sans CJK SC', 'Microsoft YaHei UI', 'Microsoft YaHei', 'PingFang SC', 'Heiti SC', 'SimHei', 'DejaVu Sans', sans-serif; fill: #101010" transform="translate(383.259 134.830189)">精英信息</text>
   </g>
   <g id="text_9">
    <text style="font-size: 10.2px; font-family: 'Source Han Sans CN', 'Noto Sans CJK SC', 'Microsoft YaHei UI', 'Microsoft YaHei', 'PingFang SC', 'Heiti SC', 'SimHei', 'DejaVu Sans', sans-serif; fill: #101010" transform="translate(526.788 121.69482)">确定环境变化</text>
    <text style="font-size: 10.2px; font-family: 'Source Han Sans CN', 'Noto Sans CJK SC', 'Microsoft YaHei UI', 'Microsoft YaHei', 'PingFang SC', 'Heiti SC', 'SimHei', 'DejaVu Sans', sans-serif; fill: #101010" transform="translate(547.188 134.830189)">信息</text>
   </g>
   <g id="text_10">
    <text style="font-size: 10.2px; font-family: 'Source Han Sans CN', 'Noto Sans CJK SC', 'Microsoft YaHei UI', 'Microsoft YaHei', 'PingFang SC', 'Heiti SC', 'SimHei', 'DejaVu Sans', sans-serif; fill: #101010" transform="translate(680.517 121.69482)">确定候选数量</text>
    <text style="font-size: 10.2px; font-family: 'Source Han Sans CN', 'Noto Sans CJK SC', 'Microsoft YaHei UI', 'Microsoft YaHei', 'PingFang SC', 'Heiti SC', 'SimHei', 'DejaVu Sans', sans-serif; fill: #101010" transform="translate(690.717 134.830189)">分配比例</text>
   </g>
   <g id="text_11">
    <text style="font-size: 10.2px; font-family: 'Source Han Sans CN', 'Noto Sans CJK SC', 'Microsoft YaHei UI', 'Microsoft YaHei', 'PingFang SC', 'Heiti SC', 'SimHei', 'DejaVu Sans', sans-serif; text-anchor: middle; fill: #101010" x="185.202" y="277.950504" transform="rotate(-0 185.202 277.950504)">生成记忆候选</text>
   </g>
   <g id="text_12">
    <text style="font-size: 10.2px; font-family: 'Source Han Sans CN', 'Noto Sans CJK SC', 'Microsoft YaHei UI', 'Microsoft YaHei', 'PingFang SC', 'Heiti SC', 'SimHei', 'DejaVu Sans', sans-serif; text-anchor: middle; fill: #101010" x="395.568" y="277.950504" transform="rotate(-0 395.568 277.950504)">生成预测候选</text>
   </g>
   <g id="text_13">
    <text style="font-size: 10.2px; font-family: 'Source Han Sans CN', 'Noto Sans CJK SC', 'Microsoft YaHei UI', 'Microsoft YaHei', 'PingFang SC', 'Heiti SC', 'SimHei', 'DejaVu Sans', sans-serif; text-anchor: middle; fill: #101010" x="605.934" y="277.950504" transform="rotate(-0 605.934 277.950504)">生成迁移候选</text>
   </g>
   <g id="text_14">
    <text style="font-size: 10.2px; font-family: 'Source Han Sans CN', 'Noto Sans CJK SC', 'Microsoft YaHei UI', 'Microsoft YaHei', 'PingFang SC', 'Heiti SC', 'SimHei', 'DejaVu Sans', sans-serif; fill: #101010" transform="translate(294.258 396.12282)">构建统一</text>
    <text style="font-size: 10.2px; font-family: 'Source Han Sans CN', 'Noto Sans CJK SC', 'Microsoft YaHei UI', 'Microsoft YaHei', 'PingFang SC', 'Heiti SC', 'SimHei', 'DejaVu Sans', sans-serif; fill: #101010" transform="translate(299.358 409.258189)">候选池</text>
   </g>
   <g id="text_15">
    <text style="font-size: 10.2px; font-family: 'Source Han Sans CN', 'Noto Sans CJK SC', 'Microsoft YaHei UI', 'Microsoft YaHei', 'PingFang SC', 'Heiti SC', 'SimHei', 'DejaVu Sans', sans-serif; fill: #101010" transform="translate(462.06 396.12282)">执行约束支配</text>
    <text style="font-size: 10.2px; font-family: 'Source Han Sans CN', 'Noto Sans CJK SC', 'Microsoft YaHei UI', 'Microsoft YaHei', 'PingFang SC', 'Heiti SC', 'SimHei', 'DejaVu Sans', sans-serif; fill: #101010" transform="translate(472.26 409.258189)">环境选择</text>
   </g>
   <g id="text_16">
    <text style="font-size: 10.2px; font-family: 'Source Han Sans CN', 'Noto Sans CJK SC', 'Microsoft YaHei UI', 'Microsoft YaHei', 'PingFang SC', 'Heiti SC', 'SimHei', 'DejaVu Sans', sans-serif; fill: #101010" transform="translate(634.962 396.12282)">确定代表轨迹并</text>
    <text style="font-size: 10.2px; font-family: 'Source Han Sans CN', 'Noto Sans CJK SC', 'Microsoft YaHei UI', 'Microsoft YaHei', 'PingFang SC', 'Heiti SC', 'SimHei', 'DejaVu Sans', sans-serif; fill: #101010" transform="translate(634.962 409.258189)">执行滚动重规划</text>
   </g>
   <g id="text_17">
    <text style="font-size: 9.4px; font-family: 'Source Han Sans CN', 'Noto Sans CJK SC', 'Microsoft YaHei UI', 'Microsoft YaHei', 'PingFang SC', 'Heiti SC', 'SimHei', 'DejaVu Sans', sans-serif; fill: #3d3d3d" transform="translate(700.310719 188.039741)">记忆 / 预测 /</text>
    <text style="font-size: 9.4px; font-family: 'Source Han Sans CN', 'Noto Sans CJK SC', 'Microsoft YaHei UI', 'Microsoft YaHei', 'PingFang SC', 'Heiti SC', 'SimHei', 'DejaVu Sans', sans-serif; fill: #3d3d3d" transform="translate(694.309406 199.393472)">迁移 / 重初始化</text>
    <text style="font-size: 9.4px; font-family: 'Source Han Sans CN', 'Noto Sans CJK SC', 'Microsoft YaHei UI', 'Microsoft YaHei', 'PingFang SC', 'Heiti SC', 'SimHei', 'DejaVu Sans', sans-serif; fill: #3d3d3d" transform="translate(703.799 210.747203)">按比例调度</text>
   </g>
   <g id="text_18">
    <text style="font-size: 9.4px; font-family: 'Source Han Sans CN', 'Noto Sans CJK SC', 'Microsoft YaHei UI', 'Microsoft YaHei', 'PingFang SC', 'Heiti SC', 'SimHei', 'DejaVu Sans', sans-serif; text-anchor: end; fill: #3d3d3d" x="630.207" y="478.7172" transform="rotate(-0 630.207 478.7172)">下一规划周期返回 S100</text>
   </g>
   <g id="text_19">
    <text style="font-size: 9.4px; font-family: 'Source Han Sans CN', 'Noto Sans CJK SC', 'Microsoft YaHei UI', 'Microsoft YaHei', 'PingFang SC', 'Heiti SC', 'SimHei', 'DejaVu Sans', sans-serif; text-anchor: start; fill: #3d3d3d" x="47.655" y="466.2432" transform="rotate(-0 47.655 466.2432)">核心逻辑：先诊断环境变化，再按比例生成多类候选，最后统一筛选并执行局部前段。</text>
   </g>
   <g id="patch_30">
    <path d="M 54.1278 120.863088 
L 84.0645 120.863088 
Q 92.1555 120.863088 92.1555 115.873488 
L 92.1555 101.00448 
Q 92.1555 96.01488 84.0645 96.01488 
L 54.1278 96.01488 
Q 46.0368 96.01488 46.0368 101.00448 
L 46.0368 115.873488 
Q 46.0368 120.863088 54.1278 120.863088 
z
" clip-path="url(#pb296a0185d)" style="fill: #ffffff; stroke: #111111; stroke-width: 0.9; stroke-linejoin: miter"/>
   </g>
   <g id="patch_31">
    <path d="M 207.8568 120.863088 
L 237.7935 120.863088 
Q 245.8845 120.863088 245.8845 115.873488 
L 245.8845 101.00448 
Q 245.8845 96.01488 237.7935 96.01488 
L 207.8568 96.01488 
Q 199.7658 96.01488 199.7658 101.00448 
L 199.7658 115.873488 
Q 199.7658 120.863088 207.8568 120.863088 
z
" clip-path="url(#pb296a0185d)" style="fill: #ffffff; stroke: #111111; stroke-width: 0.9; stroke-linejoin: miter"/>
   </g>
   <g id="patch_32">
    <path d="M 361.5858 120.863088 
L 391.5225 120.863088 
Q 399.6135 120.863088 399.6135 115.873488 
L 399.6135 101.00448 
Q 399.6135 96.01488 391.5225 96.01488 
L 361.5858 96.01488 
Q 353.4948 96.01488 353.4948 101.00448 
L 353.4948 115.873488 
Q 353.4948 120.863088 361.5858 120.863088 
z
" clip-path="url(#pb296a0185d)" style="fill: #ffffff; stroke: #111111; stroke-width: 0.9; stroke-linejoin: miter"/>
   </g>
   <g id="patch_33">
    <path d="M 515.3148 120.863088 
L 545.2515 120.863088 
Q 553.3425 120.863088 553.3425 115.873488 
L 553.3425 101.00448 
Q 553.3425 96.01488 545.2515 96.01488 
L 515.3148 96.01488 
Q 507.2238 96.01488 507.2238 101.00448 
L 507.2238 115.873488 
Q 507.2238 120.863088 515.3148 120.863088 
z
" clip-path="url(#pb296a0185d)" style="fill: #ffffff; stroke: #111111; stroke-width: 0.9; stroke-linejoin: miter"/>
   </g>
   <g id="patch_34">
    <path d="M 669.0438 120.863088 
L 698.9805 120.863088 
Q 707.0715 120.863088 707.0715 115.873488 
L 707.0715 101.00448 
Q 707.0715 96.01488 698.9805 96.01488 
L 669.0438 96.01488 
Q 660.9528 96.01488 660.9528 101.00448 
L 660.9528 115.873488 
Q 660.9528 120.863088 669.0438 120.863088 
z
" clip-path="url(#pb296a0185d)" style="fill: #ffffff; stroke: #111111; stroke-width: 0.9; stroke-linejoin: miter"/>
   </g>
   <g id="patch_35">
    <path d="M 143.1288 270.551088 
L 173.0655 270.551088 
Q 181.1565 270.551088 181.1565 265.561488 
L 181.1565 250.69248 
Q 181.1565 245.70288 173.0655 245.70288 
L 143.1288 245.70288 
Q 135.0378 245.70288 135.0378 250.69248 
L 135.0378 265.561488 
Q 135.0378 270.551088 143.1288 270.551088 
z
" clip-path="url(#pb296a0185d)" style="fill: #ffffff; stroke: #111111; stroke-width: 0.9; stroke-linejoin: miter"/>
   </g>
   <g id="patch_36">
    <path d="M 353.4948 270.551088 
L 383.4315 270.551088 
Q 391.5225 270.551088 391.5225 265.561488 
L 391.5225 250.69248 
Q 391.5225 245.70288 383.4315 245.70288 
L 353.4948 245.70288 
Q 345.4038 245.70288 345.4038 250.69248 
L 345.4038 265.561488 
Q 345.4038 270.551088 353.4948 270.551088 
z
" clip-path="url(#pb296a0185d)" style="fill: #ffffff; stroke: #111111; stroke-width: 0.9; stroke-linejoin: miter"/>
   </g>
   <g id="patch_37">
    <path d="M 563.8608 270.551088 
L 593.7975 270.551088 
Q 601.8885 270.551088 601.8885 265.561488 
L 601.8885 250.69248 
Q 601.8885 245.70288 593.7975 245.70288 
L 563.8608 245.70288 
Q 555.7698 245.70288 555.7698 250.69248 
L 555.7698 265.561488 
Q 555.7698 270.551088 563.8608 270.551088 
z
" clip-path="url(#pb296a0185d)" style="fill: #ffffff; stroke: #111111; stroke-width: 0.9; stroke-linejoin: miter"/>
   </g>
   <g id="patch_38">
    <path d="M 272.5848 395.291088 
L 302.5215 395.291088 
Q 310.6125 395.291088 310.6125 390.301488 
L 310.6125 375.43248 
Q 310.6125 370.44288 302.5215 370.44288 
L 272.5848 370.44288 
Q 264.4938 370.44288 264.4938 375.43248 
L 264.4938 390.301488 
Q 264.4938 395.291088 272.5848 395.291088 
z
" clip-path="url(#pb296a0185d)" style="fill: #ffffff; stroke: #111111; stroke-width: 0.9; stroke-linejoin: miter"/>
   </g>
   <g id="patch_39">
    <path d="M 450.5868 395.291088 
L 480.5235 395.291088 
Q 488.6145 395.291088 488.6145 390.301488 
L 488.6145 375.43248 
Q 488.6145 370.44288 480.5235 370.44288 
L 450.5868 370.44288 
Q 442.4958 370.44288 442.4958 375.43248 
L 442.4958 390.301488 
Q 442.4958 395.291088 450.5868 395.291088 
z
" clip-path="url(#pb296a0185d)" style="fill: #ffffff; stroke: #111111; stroke-width: 0.9; stroke-linejoin: miter"/>
   </g>
   <g id="patch_40">
    <path d="M 628.5888 395.291088 
L 658.5255 395.291088 
Q 666.6165 395.291088 666.6165 390.301488 
L 666.6165 375.43248 
Q 666.6165 370.44288 658.5255 370.44288 
L 628.5888 370.44288 
Q 620.4978 370.44288 620.4978 375.43248 
L 620.4978 390.301488 
Q 620.4978 395.291088 628.5888 395.291088 
z
" clip-path="url(#pb296a0185d)" style="fill: #ffffff; stroke: #111111; stroke-width: 0.9; stroke-linejoin: miter"/>
   </g>
   <g id="text_20">
    <text style="font-weight: 700; font-size: 8px; font-family: 'Source Han Sans CN', 'Noto Sans CJK SC', 'Microsoft YaHei UI', 'Microsoft YaHei', 'PingFang SC', 'Heiti SC', 'SimHei', 'DejaVu Sans', sans-serif; text-anchor: middle; fill: #101010" x="69.09615" y="110.642109" transform="rotate(-0 69.09615 110.642109)">S100</text>
   </g>
   <g id="text_21">
    <text style="font-weight: 700; font-size: 8px; font-family: 'Source Han Sans CN', 'Noto Sans CJK SC', 'Microsoft YaHei UI', 'Microsoft YaHei', 'PingFang SC', 'Heiti SC', 'SimHei', 'DejaVu Sans', sans-serif; text-anchor: middle; fill: #101010" x="222.82515" y="110.642109" transform="rotate(-0 222.82515 110.642109)">S200</text>
   </g>
   <g id="text_22">
    <text style="font-weight: 700; font-size: 8px; font-family: 'Source Han Sans CN', 'Noto Sans CJK SC', 'Microsoft YaHei UI', 'Microsoft YaHei', 'PingFang SC', 'Heiti SC', 'SimHei', 'DejaVu Sans', sans-serif; text-anchor: middle; fill: #101010" x="376.55415" y="110.642109" transform="rotate(-0 376.55415 110.642109)">S300</text>
   </g>
   <g id="text_23">
    <text style="font-weight: 700; font-size: 8px; font-family: 'Source Han Sans CN', 'Noto Sans CJK SC', 'Microsoft YaHei UI', 'Microsoft YaHei', 'PingFang SC', 'Heiti SC', 'SimHei', 'DejaVu Sans', sans-serif; text-anchor: middle; fill: #101010" x="530.28315" y="110.642109" transform="rotate(-0 530.28315 110.642109)">S400</text>
   </g>
   <g id="text_24">
    <text style="font-weight: 700; font-size: 8px; font-family: 'Source Han Sans CN', 'Noto Sans CJK SC', 'Microsoft YaHei UI', 'Microsoft YaHei', 'PingFang SC', 'Heiti SC', 'SimHei', 'DejaVu Sans', sans-serif; text-anchor: middle; fill: #101010" x="684.01215" y="110.642109" transform="rotate(-0 684.01215 110.642109)">S500</text>
   </g>
   <g id="text_25">
    <text style="font-weight: 700; font-size: 8px; font-family: 'Source Han Sans CN', 'Noto Sans CJK SC', 'Microsoft YaHei UI', 'Microsoft YaHei', 'PingFang SC', 'Heiti SC', 'SimHei', 'DejaVu Sans', sans-serif; text-anchor: middle; fill: #101010" x="158.09715" y="260.330109" transform="rotate(-0 158.09715 260.330109)">S600</text>
   </g>
   <g id="text_26">
    <text style="font-weight: 700; font-size: 8px; font-family: 'Source Han Sans CN', 'Noto Sans CJK SC', 'Microsoft YaHei UI', 'Microsoft YaHei', 'PingFang SC', 'Heiti SC', 'SimHei', 'DejaVu Sans', sans-serif; text-anchor: middle; fill: #101010" x="368.46315" y="260.330109" transform="rotate(-0 368.46315 260.330109)">S700</text>
   </g>
   <g id="text_27">
    <text style="font-weight: 700; font-size: 8px; font-family: 'Source Han Sans CN', 'Noto Sans CJK SC', 'Microsoft YaHei UI', 'Microsoft YaHei', 'PingFang SC', 'Heiti SC', 'SimHei', 'DejaVu Sans', sans-serif; text-anchor: middle; fill: #101010" x="578.82915" y="260.330109" transform="rotate(-0 578.82915 260.330109)">S800</text>
   </g>
   <g id="text_28">
    <text style="font-weight: 700; font-size: 8px; font-family: 'Source Han Sans CN', 'Noto Sans CJK SC', 'Microsoft YaHei UI', 'Microsoft YaHei', 'PingFang SC', 'Heiti SC', 'SimHei', 'DejaVu Sans', sans-serif; text-anchor: middle; fill: #101010" x="287.55315" y="385.070109" transform="rotate(-0 287.55315 385.070109)">S900</text>
   </g>
   <g id="text_29">
    <text style="font-weight: 700; font-size: 8px; font-family: 'Source Han Sans CN', 'Noto Sans CJK SC', 'Microsoft YaHei UI', 'Microsoft YaHei', 'PingFang SC', 'Heiti SC', 'SimHei', 'DejaVu Sans', sans-serif; text-anchor: middle; fill: #101010" x="465.55515" y="385.070109" transform="rotate(-0 465.55515 385.070109)">S1000</text>
   </g>
   <g id="text_30">
    <text style="font-weight: 700; font-size: 8px; font-family: 'Source Han Sans CN', 'Noto Sans CJK SC', 'Microsoft YaHei UI', 'Microsoft YaHei', 'PingFang SC', 'Heiti SC', 'SimHei', 'DejaVu Sans', sans-serif; text-anchor: middle; fill: #101010" x="643.55715" y="385.070109" transform="rotate(-0 643.55715 385.070109)">S1100</text>
   </g>
  </g>
 </g>
 <defs>
  <clipPath id="pb296a0185d">
   <rect x="7.2" y="7.2" width="809.1" height="498.96"/>
  </clipPath>
 </defs>
</svg>
