<?xml version="1.0" encoding="utf-8" standalone="no"?>
<!DOCTYPE svg PUBLIC "-//W3C//DTD SVG 1.1//EN"
  "http://www.w3.org/Graphics/SVG/1.1/DTD/svg11.dtd">
<svg xmlns:xlink="http://www.w3.org/1999/xlink" width="806.76pt" height="469.008pt" viewBox="0 0 806.76 469.008" xmlns="http://www.w3.org/2000/svg" version="1.1">
 <metadata>
  <rdf:RDF xmlns:dc="http://purl.org/dc/elements/1.1/" xmlns:cc="http://creativecommons.org/ns#" xmlns:rdf="http://www.w3.org/1999/02/22-rdf-syntax-ns#">
   <cc:Work>
    <dc:type rdf:resource="http://purl.org/dc/dcmitype/StillImage"/>
    <dc:date>2026-04-15T00:23:05.839923</dc:date>
    <dc:format>image/svg+xml</dc:format>
    <dc:creator>
     <cc:Agent>
      <dc:title>Matplotlib v3.10.7, https://matplotlib.org/</dc:title>
     </cc:Agent>
    </dc:creator>
   </cc:Work>
  </rdf:RDF>
 </metadata>
 <defs>
  <style type="text/css">*{stroke-linejoin: round; stroke-linecap: butt}</style>
 </defs>
 <g id="figure_1">
  <g id="patch_1">
   <path d="M 0 469.008 
L 806.76 469.008 
L 806.76 -0 
L 0 -0 
z
" style="fill: #ffffff"/>
  </g>
  <g id="axes_1">
   <g id="patch_2">
    <path d="M 191.436758 157.05721 
Q 217.175341 154.947605 241.911057 152.920198 
" clip-path="url(#p958b694ced)" style="fill: none; stroke: #111111; stroke-width: 0.9; stroke-linecap: round"/>
    <path d="M 238.59105 151.586949 
L 241.911057 152.920198 
L 238.852454 154.776254 
z
" clip-path="url(#p958b694ced)" style="fill: #111111; stroke: #111111; stroke-width: 0.9; stroke-linecap: round"/>
   </g>
   <g id="patch_3">
    <path d="M 190.868023 172.260662 
Q 217.173921 198.133905 242.762432 223.30156 
" clip-path="url(#p958b694ced)" style="fill: none; stroke: #111111; stroke-width: 0.9; stroke-linecap: round"/>
    <path d="M 241.602958 219.916945 
L 242.762432 223.30156 
L 239.359055 222.19837 
z
" clip-path="url(#p958b694ced)" style="fill: #111111; stroke: #111111; stroke-width: 0.9; stroke-linecap: round"/>
   </g>
   <g id="patch_4">
    <path d="M 191.416446 289.380491 
Q 217.174601 293.602909 241.939779 297.662553 
" clip-path="url(#p958b694ced)" style="fill: none; stroke: #111111; stroke-width: 0.9; stroke-linecap: round"/>
    <path d="M 239.040752 295.565974 
L 241.939779 297.662553 
L 238.5231 298.723827 
z
" clip-path="url(#p958b694ced)" style="fill: #111111; stroke: #111111; stroke-width: 0.9; stroke-linecap: round"/>
   </g>
   <g id="patch_5">
    <path d="M 365.276692 153.978117 
Q 395.456559 179.951177 424.873746 205.267867 
" clip-path="url(#p958b694ced)" style="fill: none; stroke: #111111; stroke-width: 0.9; stroke-linecap: round"/>
    <path d="M 423.49197 201.967761 
L 424.873746 205.267867 
L 421.404596 204.393224 
z
" clip-path="url(#p958b694ced)" style="fill: #111111; stroke: #111111; stroke-width: 0.9; stroke-linecap: round"/>
   </g>
   <g id="patch_6">
    <path d="M 365.715817 224.991472 
Q 395.456513 218.592696 424.21349 212.405569 
" clip-path="url(#p958b694ced)" style="fill: none; stroke: #111111; stroke-width: 0.9; stroke-linecap: round"/>
    <path d="M 420.748536 211.514448 
L 424.21349 212.405569 
L 421.421621 214.642859 
z
" clip-path="url(#p958b694ced)" style="fill: #111111; stroke: #111111; stroke-width: 0.9; stroke-linecap: round"/>
   </g>
   <g id="patch_7">
    <path d="M 364.986521 296.568369 
Q 395.456845 257.233826 425.310956 218.694759 
" clip-path="url(#p958b694ced)" style="fill: none; stroke: #111111; stroke-width: 0.9; stroke-linecap: round"/>
    <path d="M 422.086406 220.244687 
L 425.310956 218.694759 
L 424.616169 222.204355 
z
" clip-path="url(#p958b694ced)" style="fill: #111111; stroke: #111111; stroke-width: 0.9; stroke-linecap: round"/>
   </g>
   <g id="patch_8">
    <path d="M 555.925743 211.7736 
Q 573.737232 211.7736 590.54249 211.7736 
" clip-path="url(#p958b694ced)" style="fill: none; stroke: #111111; stroke-width: 0.9; stroke-linecap: round"/>
    <path d="M 587.34249 210.1736 
L 590.54249 211.7736 
L 587.34249 213.3736 
z
" clip-path="url(#p958b694ced)" style="fill: #111111; stroke: #111111; stroke-width: 0.9; stroke-linecap: round"/>
   </g>
   <g id="patch_9">
    <path d="M 720.725403 209.816044 
Q 728.247027 173.134713 735.566526 137.439103 
" clip-path="url(#p958b694ced)" style="fill: none; stroke: #111111; stroke-width: 0.9; stroke-linecap: round"/>
    <path d="M 733.356343 140.25248 
L 735.566526 137.439103 
L 736.491118 140.895275 
z
" clip-path="url(#p958b694ced)" style="fill: #111111; stroke: #111111; stroke-width: 0.9; stroke-linecap: round"/>
   </g>
   <g id="patch_10">
    <path d="M 721.637507 210.266379 
Q 728.247037 202.682086 734.195476 195.856381 
" clip-path="url(#p958b694ced)" style="fill: none; stroke: #111111; stroke-width: 0.9; stroke-linecap: round"/>
    <path d="M 730.886853 197.217637 
L 734.195476 195.856381 
L 733.299307 199.320032 
z
" clip-path="url(#p958b694ced)" style="fill: #111111; stroke: #111111; stroke-width: 0.9; stroke-linecap: round"/>
   </g>
   <g id="patch_11">
    <path d="M 721.046526 213.639036 
Q 728.247455 232.230585 735.084956 249.883827 
" clip-path="url(#p958b694ced)" style="fill: none; stroke: #111111; stroke-width: 0.9; stroke-linecap: round"/>
    <path d="M 735.421184 246.321952 
L 735.084956 249.883827 
L 732.437193 247.47772 
z
" clip-path="url(#p958b694ced)" style="fill: #111111; stroke: #111111; stroke-width: 0.9; stroke-linecap: round"/>
   </g>
   <g id="patch_12">
    <path d="M 720.636901 213.748359 
Q 728.247371 261.779032 735.700367 308.815873 
" clip-path="url(#p958b694ced)" style="fill: none; stroke: #111111; stroke-width: 0.9; stroke-linecap: round"/>
    <path d="M 736.77986 305.404906 
L 735.700367 308.815873 
L 733.619289 305.905699 
z
" clip-path="url(#p958b694ced)" style="fill: #111111; stroke: #111111; stroke-width: 0.9; stroke-linecap: round"/>
   </g>
   <g id="patch_13">
    <path d="M 59.49576 202.68144 
L 176.76504 202.68144 
Q 197.3664 202.68144 197.3664 190.861632 
L 197.3664 123.579648 
Q 197.3664 111.75984 176.76504 111.75984 
L 59.49576 111.75984 
Q 38.8944 111.75984 38.8944 123.579648 
L 38.8944 190.861632 
Q 38.8944 202.68144 59.49576 202.68144 
z
" clip-path="url(#p958b694ced)" style="fill: #f1f1f1; stroke: #111111; stroke-linejoin: miter"/>
   </g>
   <g id="patch_14">
    <path d="M 59.49576 320.87952 
L 176.76504 320.87952 
Q 197.3664 320.87952 197.3664 309.059712 
L 197.3664 269.054208 
Q 197.3664 257.2344 176.76504 257.2344 
L 59.49576 257.2344 
Q 38.8944 257.2344 38.8944 269.054208 
L 38.8944 309.059712 
Q 38.8944 320.87952 59.49576 320.87952 
z
" clip-path="url(#p958b694ced)" style="fill: #f1f1f1; stroke: #111111; stroke-linejoin: miter"/>
   </g>
   <g id="patch_15">
    <path d="M 257.58576 184.49712 
L 351.08424 184.49712 
Q 371.6856 184.49712 371.6856 172.677312 
L 371.6856 132.671808 
Q 371.6856 120.852 351.08424 120.852 
L 257.58576 120.852 
Q 236.9844 120.852 236.9844 132.671808 
L 236.9844 172.677312 
Q 236.9844 184.49712 257.58576 184.49712 
z
" clip-path="url(#p958b694ced)" style="fill: #f7f7f7; stroke: #111111; stroke-linejoin: miter"/>
   </g>
   <g id="patch_16">
    <path d="M 257.58576 257.2344 
L 351.08424 257.2344 
Q 371.6856 257.2344 371.6856 245.414592 
L 371.6856 205.409088 
Q 371.6856 193.58928 351.08424 193.58928 
L 257.58576 193.58928 
Q 236.9844 193.58928 236.9844 205.409088 
L 236.9844 245.414592 
Q 236.9844 257.2344 257.58576 257.2344 
z
" clip-path="url(#p958b694ced)" style="fill: #f7f7f7; stroke: #111111; stroke-linejoin: miter"/>
   </g>
   <g id="patch_17">
    <path d="M 257.58576 329.97168 
L 351.08424 329.97168 
Q 371.6856 329.97168 371.6856 318.151872 
L 371.6856 278.146368 
Q 371.6856 266.32656 351.08424 266.32656 
L 257.58576 266.32656 
Q 236.9844 266.32656 236.9844 278.146368 
L 236.9844 318.151872 
Q 236.9844 329.97168 257.58576 329.97168 
z
" clip-path="url(#p958b694ced)" style="fill: #f7f7f7; stroke: #111111; stroke-linejoin: miter"/>
   </g>
   <g id="patch_18">
    <path d="M 439.82856 257.2344 
L 541.25064 257.2344 
Q 561.852 257.2344 561.852 245.414592 
L 561.852 178.132608 
Q 561.852 166.3128 541.25064 166.3128 
L 439.82856 166.3128 
Q 419.2272 166.3128 419.2272 178.132608 
L 419.2272 245.414592 
Q 419.2272 257.2344 439.82856 257.2344 
z
" clip-path="url(#p958b694ced)" style="fill: #eeeeee; stroke: #111111; stroke-linejoin: miter"/>
   </g>
   <g id="patch_19">
    <path d="M 606.22416 257.2344 
L 707.64624 257.2344 
Q 728.2476 257.2344 728.2476 245.414592 
L 728.2476 178.132608 
Q 728.2476 166.3128 707.64624 166.3128 
L 606.22416 166.3128 
Q 585.6228 166.3128 585.6228 178.132608 
L 585.6228 245.414592 
Q 585.6228 257.2344 606.22416 257.2344 
z
" clip-path="url(#p958b694ced)" style="fill: #eeeeee; stroke: #111111; stroke-linejoin: miter"/>
   </g>
   <g id="patch_20">
    <path d="M 740.133 157.22064 
L 779.751 157.22064 
Q 791.6364 157.22064 791.6364 150.40152 
L 791.6364 118.57896 
Q 791.6364 111.75984 779.751 111.75984 
L 740.133 111.75984 
Q 728.2476 111.75984 728.2476 118.57896 
L 728.2476 150.40152 
Q 728.2476 157.22064 740.133 157.22064 
z
" clip-path="url(#p958b694ced)" style="fill: #e6e6e6; stroke: #111111; stroke-linejoin: miter"/>
   </g>
   <g id="patch_21">
    <path d="M 740.133 216.31968 
L 779.751 216.31968 
Q 791.6364 216.31968 791.6364 209.50056 
L 791.6364 177.678 
Q 791.6364 170.85888 779.751 170.85888 
L 740.133 170.85888 
Q 728.2476 170.85888 728.2476 177.678 
L 728.2476 209.50056 
Q 728.2476 216.31968 740.133 216.31968 
z
" clip-path="url(#p958b694ced)" style="fill: #e6e6e6; stroke: #111111; stroke-linejoin: miter"/>
   </g>
   <g id="patch_22">
    <path d="M 740.133 275.41872 
L 779.751 275.41872 
Q 791.6364 275.41872 791.6364 268.5996 
L 791.6364 236.77704 
Q 791.6364 229.95792 779.751 229.95792 
L 740.133 229.95792 
Q 728.2476 229.95792 728.2476 236.77704 
L 728.2476 268.5996 
Q 728.2476 275.41872 740.133 275.41872 
z
" clip-path="url(#p958b694ced)" style="fill: #e6e6e6; stroke: #111111; stroke-linejoin: miter"/>
   </g>
   <g id="patch_23">
    <path d="M 740.133 334.51776 
L 779.751 334.51776 
Q 791.6364 334.51776 791.6364 327.69864 
L 791.6364 295.87608 
Q 791.6364 289.05696 779.751 289.05696 
L 740.133 289.05696 
Q 728.2476 289.05696 728.2476 295.87608 
L 728.2476 327.69864 
Q 728.2476 334.51776 740.133 334.51776 
z
" clip-path="url(#p958b694ced)" style="fill: #e6e6e6; stroke: #111111; stroke-linejoin: miter"/>
   </g>
   <g id="text_1">
    <text style="font-weight: 700; font-size: 18px; font-family: 'Source Han Sans CN', 'Noto Sans CJK SC', 'Microsoft YaHei UI', 'Microsoft YaHei', 'PingFang SC', 'Heiti SC', 'SimHei', 'DejaVu Sans', sans-serif; text-anchor: start; fill: #101010" x="30.9708" y="44.31915" transform="rotate(-0 30.9708 44.31915)">图3 环境变化诊断与自适应分配示意图</text>
   </g>
   <g id="text_2">
    <text style="font-size: 10.6px; font-family: 'Source Han Sans CN', 'Noto Sans CJK SC', 'Microsoft YaHei UI', 'Microsoft YaHei', 'PingFang SC', 'Heiti SC', 'SimHei', 'DejaVu Sans', sans-serif; text-anchor: start; fill: #3d3d3d" x="30.9708" y="56.588095" transform="rotate(-0 30.9708 56.588095)">通过前沿特征构造、变化幅度估计、可迁移性估计和预测置信度估计，驱动 Contextual UCB 分配四类恢复预算。</text>
   </g>
   <g id="text_3">
    <text style="font-size: 10.2px; font-family: 'Source Han Sans CN', 'Noto Sans CJK SC', 'Microsoft YaHei UI', 'Microsoft YaHei', 'PingFang SC', 'Heiti SC', 'SimHei', 'DejaVu Sans', sans-serif; fill: #101010" transform="translate(66.849103 153.46194)">310 历史前沿特征序列</text>
    <text style="font-size: 10.2px; font-family: 'Source Han Sans CN', 'Noto Sans CJK SC', 'Microsoft YaHei UI', 'Microsoft YaHei', 'PingFang SC', 'Heiti SC', 'SimHei', 'DejaVu Sans', sans-serif; fill: #101010" transform="translate(86.897681 166.597309)">phi(t-k ... t-1)</text>
   </g>
   <g id="text_4">
    <text style="font-size: 10.2px; font-family: 'Source Han Sans CN', 'Noto Sans CJK SC', 'Microsoft YaHei UI', 'Microsoft YaHei', 'PingFang SC', 'Heiti SC', 'SimHei', 'DejaVu Sans', sans-serif; fill: #101010" transform="translate(87.5304 285.29826)">当前前沿特征</text>
    <text style="font-size: 10.2px; font-family: 'Source Han Sans CN', 'Noto Sans CJK SC', 'Microsoft YaHei UI', 'Microsoft YaHei', 'PingFang SC', 'Heiti SC', 'SimHei', 'DejaVu Sans', sans-serif; fill: #101010" transform="translate(105.068025 298.433629)">phi(t)</text>
   </g>
   <g id="text_5">
    <text style="font-size: 10.2px; font-family: 'Source Han Sans CN', 'Noto Sans CJK SC', 'Microsoft YaHei UI', 'Microsoft YaHei', 'PingFang SC', 'Heiti SC', 'SimHei', 'DejaVu Sans', sans-serif; fill: #101010" transform="translate(273.735 154.371156)">变化幅度计算</text>
    <text style="font-size: 10.2px; font-family: 'Source Han Sans CN', 'Noto Sans CJK SC', 'Microsoft YaHei UI', 'Microsoft YaHei', 'PingFang SC', 'Heiti SC', 'SimHei', 'DejaVu Sans', sans-serif; fill: #101010" transform="translate(294.044953 167.506525)">M(t)</text>
   </g>
   <g id="text_6">
    <text style="font-size: 10.2px; font-family: 'Source Han Sans CN', 'Noto Sans CJK SC', 'Microsoft YaHei UI', 'Microsoft YaHei', 'PingFang SC', 'Heiti SC', 'SimHei', 'DejaVu Sans', sans-serif; fill: #101010" transform="translate(273.735 227.108436)">可迁移性估计</text>
    <text style="font-size: 10.2px; font-family: 'Source Han Sans CN', 'Noto Sans CJK SC', 'Microsoft YaHei UI', 'Microsoft YaHei', 'PingFang SC', 'Heiti SC', 'SimHei', 'DejaVu Sans', sans-serif; fill: #101010" transform="translate(296.104078 240.243805)">T(t)</text>
   </g>
   <g id="text_7">
    <text style="font-size: 10.2px; font-family: 'Source Han Sans CN', 'Noto Sans CJK SC', 'Microsoft YaHei UI', 'Microsoft YaHei', 'PingFang SC', 'Heiti SC', 'SimHei', 'DejaVu Sans', sans-serif; fill: #101010" transform="translate(268.635 299.845716)">预测置信度估计</text>
    <text style="font-size: 10.2px; font-family: 'Source Han Sans CN', 'Noto Sans CJK SC', 'Microsoft YaHei UI', 'Microsoft YaHei', 'PingFang SC', 'Heiti SC', 'SimHei', 'DejaVu Sans', sans-serif; fill: #101010" transform="translate(289.632656 312.981085)">Cpred</text>
   </g>
   <g id="text_8">
    <text style="font-size: 10.2px; font-family: 'Source Han Sans CN', 'Noto Sans CJK SC', 'Microsoft YaHei UI', 'Microsoft YaHei', 'PingFang SC', 'Heiti SC', 'SimHei', 'DejaVu Sans', sans-serif; fill: #101010" transform="translate(454.8396 213.470196)">上下文区间映射</text>
    <text style="font-size: 10.2px; font-family: 'Source Han Sans CN', 'Noto Sans CJK SC', 'Microsoft YaHei UI', 'Microsoft YaHei', 'PingFang SC', 'Heiti SC', 'SimHei', 'DejaVu Sans', sans-serif; fill: #101010" transform="translate(469.723631 226.605565)">ctx(M(t))</text>
   </g>
   <g id="text_9">
    <text style="font-size: 10.2px; font-family: 'Source Han Sans CN', 'Noto Sans CJK SC', 'Microsoft YaHei UI', 'Microsoft YaHei', 'PingFang SC', 'Heiti SC', 'SimHei', 'DejaVu Sans', sans-serif; fill: #101010" transform="translate(620.953903 208.0149)">330 策略评分器</text>
    <text style="font-size: 10.2px; font-family: 'Source Han Sans CN', 'Noto Sans CJK SC', 'Microsoft YaHei UI', 'Microsoft YaHei', 'PingFang SC', 'Heiti SC', 'SimHei', 'DejaVu Sans', sans-serif; fill: #101010" transform="translate(618.657309 221.150269)">Contextual UCB</text>
   </g>
   <g id="text_10">
    <text style="font-size: 9.4px; font-family: 'Source Han Sans CN', 'Noto Sans CJK SC', 'Microsoft YaHei UI', 'Microsoft YaHei', 'PingFang SC', 'Heiti SC', 'SimHei', 'DejaVu Sans', sans-serif; text-anchor: middle; fill: #101010" x="759.942" y="137.015756" transform="rotate(-0 759.942 137.015756)">N_mem</text>
   </g>
   <g id="text_11">
    <text style="font-size: 9.4px; font-family: 'Source Han Sans CN', 'Noto Sans CJK SC', 'Microsoft YaHei UI', 'Microsoft YaHei', 'PingFang SC', 'Heiti SC', 'SimHei', 'DejaVu Sans', sans-serif; text-anchor: middle; fill: #101010" x="759.942" y="196.146374" transform="rotate(-0 759.942 196.146374)">N_pred</text>
   </g>
   <g id="text_12">
    <text style="font-size: 9.4px; font-family: 'Source Han Sans CN', 'Noto Sans CJK SC', 'Microsoft YaHei UI', 'Microsoft YaHei', 'PingFang SC', 'Heiti SC', 'SimHei', 'DejaVu Sans', sans-serif; text-anchor: middle; fill: #101010" x="759.942" y="255.213836" transform="rotate(-0 759.942 255.213836)">N_trans</text>
   </g>
   <g id="text_13">
    <text style="font-size: 9.4px; font-family: 'Source Han Sans CN', 'Noto Sans CJK SC', 'Microsoft YaHei UI', 'Microsoft YaHei', 'PingFang SC', 'Heiti SC', 'SimHei', 'DejaVu Sans', sans-serif; text-anchor: middle; fill: #101010" x="759.942" y="314.312876" transform="rotate(-0 759.942 314.312876)">N_reinit</text>
   </g>
   <g id="text_14">
    <text style="font-size: 10.2px; font-family: 'Source Han Sans CN', 'Noto Sans CJK SC', 'Microsoft YaHei UI', 'Microsoft YaHei', 'PingFang SC', 'Heiti SC', 'SimHei', 'DejaVu Sans', sans-serif; fill: #3d3d3d" transform="translate(396.5508 294.798101)">先诊断再分配</text>
    <text style="font-size: 10.2px; font-family: 'Source Han Sans CN', 'Noto Sans CJK SC', 'Microsoft YaHei UI', 'Microsoft YaHei', 'PingFang SC', 'Heiti SC', 'SimHei', 'DejaVu Sans', sans-serif; fill: #3d3d3d" transform="translate(396.5508 307.118108)">不是固定比例</text>
   </g>
   <g id="text_15">
    <text style="font-size: 9.4px; font-family: 'Source Han Sans CN', 'Noto Sans CJK SC', 'Microsoft YaHei UI', 'Microsoft YaHei', 'PingFang SC', 'Heiti SC', 'SimHei', 'DejaVu Sans', sans-serif; text-anchor: start; fill: #3d3d3d" x="46.818" y="407.25504" transform="rotate(-0 46.818 407.25504)">诊断量建议：M(t) 表示变化强度，T(t) 表示历史知识可迁移性，Cpred 表示预测可靠性。</text>
   </g>
   <g id="patch_24">
    <path d="M 259.17048 153.129168 
L 291.26106 153.129168 
Q 299.18466 153.129168 299.18466 148.583088 
L 299.18466 133.581024 
Q 299.18466 129.034944 291.26106 129.034944 
L 259.17048 129.034944 
Q 251.24688 129.034944 251.24688 133.581024 
L 251.24688 148.583088 
Q 251.24688 153.129168 259.17048 153.129168 
z
" clip-path="url(#p958b694ced)" style="fill: #ffffff; stroke: #111111; stroke-width: 0.9; stroke-linejoin: miter"/>
   </g>
   <g id="patch_25">
    <path d="M 259.17048 225.866448 
L 291.26106 225.866448 
Q 299.18466 225.866448 299.18466 221.320368 
L 299.18466 206.318304 
Q 299.18466 201.772224 291.26106 201.772224 
L 259.17048 201.772224 
Q 251.24688 201.772224 251.24688 206.318304 
L 251.24688 221.320368 
Q 251.24688 225.866448 259.17048 225.866448 
z
" clip-path="url(#p958b694ced)" style="fill: #ffffff; stroke: #111111; stroke-width: 0.9; stroke-linejoin: miter"/>
   </g>
   <g id="patch_26">
    <path d="M 259.17048 298.603728 
L 291.26106 298.603728 
Q 299.18466 298.603728 299.18466 294.057648 
L 299.18466 279.055584 
Q 299.18466 274.509504 291.26106 274.509504 
L 259.17048 274.509504 
Q 251.24688 274.509504 251.24688 279.055584 
L 251.24688 294.057648 
Q 251.24688 298.603728 259.17048 298.603728 
z
" clip-path="url(#p958b694ced)" style="fill: #ffffff; stroke: #111111; stroke-width: 0.9; stroke-linejoin: miter"/>
   </g>
   <g id="patch_27">
    <path d="M 441.41328 198.589968 
L 476.27712 198.589968 
Q 484.20072 198.589968 484.20072 194.043888 
L 484.20072 179.041824 
Q 484.20072 174.495744 476.27712 174.495744 
L 441.41328 174.495744 
Q 433.48968 174.495744 433.48968 179.041824 
L 433.48968 194.043888 
Q 433.48968 198.589968 441.41328 198.589968 
z
" clip-path="url(#p958b694ced)" style="fill: #ffffff; stroke: #111111; stroke-width: 0.9; stroke-linejoin: miter"/>
   </g>
   <g id="text_16">
    <text style="font-weight: 700; font-size: 8px; font-family: 'Source Han Sans CN', 'Noto Sans CJK SC', 'Microsoft YaHei UI', 'Microsoft YaHei', 'PingFang SC', 'Heiti SC', 'SimHei', 'DejaVu Sans', sans-serif; text-anchor: middle; fill: #101010" x="275.21577" y="143.285181" transform="rotate(-0 275.21577 143.285181)">120</text>
   </g>
   <g id="text_17">
    <text style="font-weight: 700; font-size: 8px; font-family: 'Source Han Sans CN', 'Noto Sans CJK SC', 'Microsoft YaHei UI', 'Microsoft YaHei', 'PingFang SC', 'Heiti SC', 'SimHei', 'DejaVu Sans', sans-serif; text-anchor: middle; fill: #101010" x="275.21577" y="216.022461" transform="rotate(-0 275.21577 216.022461)">120</text>
   </g>
   <g id="text_18">
    <text style="font-weight: 700; font-size: 8px; font-family: 'Source Han Sans CN', 'Noto Sans CJK SC', 'Microsoft YaHei UI', 'Microsoft YaHei', 'PingFang SC', 'Heiti SC', 'SimHei', 'DejaVu Sans', sans-serif; text-anchor: middle; fill: #101010" x="275.21577" y="288.759741" transform="rotate(-0 275.21577 288.759741)">120</text>
   </g>
   <g id="text_19">
    <text style="font-weight: 700; font-size: 8px; font-family: 'Source Han Sans CN', 'Noto Sans CJK SC', 'Microsoft YaHei UI', 'Microsoft YaHei', 'PingFang SC', 'Heiti SC', 'SimHei', 'DejaVu Sans', sans-serif; text-anchor: middle; fill: #101010" x="458.8452" y="188.745981" transform="rotate(-0 458.8452 188.745981)">130</text>
   </g>
  </g>
 </g>
 <defs>
  <clipPath id="p958b694ced">
   <rect x="7.2" y="7.2" width="792.36" height="454.608"/>
  </clipPath>
 </defs>
</svg>
