<?xml version="1.0" encoding="utf-8" standalone="no"?>
<!DOCTYPE svg PUBLIC "-//W3C//DTD SVG 1.1//EN"
  "http://www.w3.org/Graphics/SVG/1.1/DTD/svg11.dtd">
<svg xmlns:xlink="http://www.w3.org/1999/xlink" width="754.083528pt" height="595.504828pt" viewBox="0 0 754.083528 595.504828" xmlns="http://www.w3.org/2000/svg" version="1.1">
 <metadata>
  <rdf:RDF xmlns:dc="http://purl.org/dc/elements/1.1/" xmlns:cc="http://creativecommons.org/ns#" xmlns:rdf="http://www.w3.org/1999/02/22-rdf-syntax-ns#">
   <cc:Work>
    <dc:type rdf:resource="http://purl.org/dc/dcmitype/StillImage"/>
    <dc:date>2026-04-15T00:23:11.339090</dc:date>
    <dc:format>image/svg+xml</dc:format>
    <dc:creator>
     <cc:Agent>
      <dc:title>Matplotlib v3.10.7, https://matplotlib.org/</dc:title>
     </cc:Agent>
    </dc:creator>
   </cc:Work>
  </rdf:RDF>
 </metadata>
 <defs>
  <style type="text/css">*{stroke-linejoin: round; stroke-linecap: butt}</style>
 </defs>
 <g id="figure_1">
  <g id="patch_1">
   <path d="M 0 595.504828 
L 754.083528 595.504828 
L 754.083528 0 
L 0 0 
z
" style="fill: #ffffff"/>
  </g>
  <g id="axes_1">
   <g id="patch_2">
    <path d="M 56.4625 556.345453 
L 735.155403 556.345453 
L 735.155403 46.297453 
L 56.4625 46.297453 
z
" style="fill: #ffffff"/>
   </g>
   <g id="patch_3">
    <path d="M 163.408048 370.589262 
L 155.387251 377.218697 
L 154.289506 374.379703 
L 151.157184 375.590868 
L 150.979171 375.13049 
L 154.111494 373.919326 
L 153.013749 371.080331 
z
" clip-path="url(#pf67b3086b1)" style="fill: #4d4d4d; opacity: 0.75; stroke: #4d4d4d; stroke-width: 0.8; stroke-linejoin: miter"/>
   </g>
   <g id="patch_4">
    <path d="M 163.408048 271.870294 
L 155.387251 278.499729 
L 154.289506 275.660735 
L 151.157184 276.8719 
L 150.979171 276.411522 
L 154.111494 275.200358 
L 153.013749 272.361364 
z
" clip-path="url(#pf67b3086b1)" style="fill: #4d4d4d; opacity: 0.75; stroke: #4d4d4d; stroke-width: 0.8; stroke-linejoin: miter"/>
   </g>
   <g id="patch_5">
    <path d="M 163.408048 173.151327 
L 155.387251 179.780762 
L 154.289506 176.941768 
L 151.157184 178.152932 
L 150.979171 177.692555 
L 154.111494 176.48139 
L 153.013749 173.642396 
z
" clip-path="url(#pf67b3086b1)" style="fill: #4d4d4d; opacity: 0.75; stroke: #4d4d4d; stroke-width: 0.8; stroke-linejoin: miter"/>
   </g>
   <g id="patch_6">
    <path d="M 288.863403 370.589262 
L 280.842605 377.218697 
L 279.744861 374.379703 
L 276.612539 375.590868 
L 276.434526 375.13049 
L 279.566848 373.919326 
L 278.469104 371.080331 
z
" clip-path="url(#pf67b3086b1)" style="fill: #4d4d4d; opacity: 0.75; stroke: #4d4d4d; stroke-width: 0.8; stroke-linejoin: miter"/>
   </g>
   <g id="patch_7">
    <path d="M 288.863403 271.870294 
L 280.842605 278.499729 
L 279.744861 275.660735 
L 276.612539 276.8719 
L 276.434526 276.411522 
L 279.566848 275.200358 
L 278.469104 272.361364 
z
" clip-path="url(#pf67b3086b1)" style="fill: #4d4d4d; opacity: 0.75; stroke: #4d4d4d; stroke-width: 0.8; stroke-linejoin: miter"/>
   </g>
   <g id="patch_8">
    <path d="M 288.863403 173.151327 
L 280.842605 179.780762 
L 279.744861 176.941768 
L 276.612539 178.152932 
L 276.434526 177.692555 
L 279.566848 176.48139 
L 278.469104 173.642396 
z
" clip-path="url(#pf67b3086b1)" style="fill: #4d4d4d; opacity: 0.75; stroke: #4d4d4d; stroke-width: 0.8; stroke-linejoin: miter"/>
   </g>
   <g id="patch_9">
    <path d="M 414.318758 370.589262 
L 406.29796 377.218697 
L 405.200216 374.379703 
L 402.067893 375.590868 
L 401.889881 375.13049 
L 405.022203 373.919326 
L 403.924459 371.080331 
z
" clip-path="url(#pf67b3086b1)" style="fill: #4d4d4d; opacity: 0.75; stroke: #4d4d4d; stroke-width: 0.8; stroke-linejoin: miter"/>
   </g>
   <g id="patch_10">
    <path d="M 414.318758 271.870294 
L 406.29796 278.499729 
L 405.200216 275.660735 
L 402.067893 276.8719 
L 401.889881 276.411522 
L 405.022203 275.200358 
L 403.924459 272.361364 
z
" clip-path="url(#pf67b3086b1)" style="fill: #4d4d4d; opacity: 0.75; stroke: #4d4d4d; stroke-width: 0.8; stroke-linejoin: miter"/>
   </g>
   <g id="patch_11">
    <path d="M 414.318758 173.151327 
L 406.29796 179.780762 
L 405.200216 176.941768 
L 402.067893 178.152932 
L 401.889881 177.692555 
L 405.022203 176.48139 
L 403.924459 173.642396 
z
" clip-path="url(#pf67b3086b1)" style="fill: #4d4d4d; opacity: 0.75; stroke: #4d4d4d; stroke-width: 0.8; stroke-linejoin: miter"/>
   </g>
   <g id="patch_12">
    <path d="M 539.774113 370.589262 
L 531.753315 377.218697 
L 530.655571 374.379703 
L 527.523248 375.590868 
L 527.345236 375.13049 
L 530.477558 373.919326 
L 529.379814 371.080331 
z
" clip-path="url(#pf67b3086b1)" style="fill: #4d4d4d; opacity: 0.75; stroke: #4d4d4d; stroke-width: 0.8; stroke-linejoin: miter"/>
   </g>
   <g id="patch_13">
    <path d="M 539.774113 271.870294 
L 531.753315 278.499729 
L 530.655571 275.660735 
L 527.523248 276.8719 
L 527.345236 276.411522 
L 530.477558 275.200358 
L 529.379814 272.361364 
z
" clip-path="url(#pf67b3086b1)" style="fill: #4d4d4d; opacity: 0.75; stroke: #4d4d4d; stroke-width: 0.8; stroke-linejoin: miter"/>
   </g>
   <g id="patch_14">
    <path d="M 539.774113 173.151327 
L 531.753315 179.780762 
L 530.655571 176.941768 
L 527.523248 178.152932 
L 527.345236 177.692555 
L 530.477558 176.48139 
L 529.379814 173.642396 
z
" clip-path="url(#pf67b3086b1)" style="fill: #4d4d4d; opacity: 0.75; stroke: #4d4d4d; stroke-width: 0.8; stroke-linejoin: miter"/>
   </g>
   <g id="patch_15">
    <path d="M 665.229468 370.589262 
L 657.20867 377.218697 
L 656.110925 374.379703 
L 652.978603 375.590868 
L 652.80059 375.13049 
L 655.932913 373.919326 
L 654.835168 371.080331 
z
" clip-path="url(#pf67b3086b1)" style="fill: #4d4d4d; opacity: 0.75; stroke: #4d4d4d; stroke-width: 0.8; stroke-linejoin: miter"/>
   </g>
   <g id="patch_16">
    <path d="M 665.229468 271.870294 
L 657.20867 278.499729 
L 656.110925 275.660735 
L 652.978603 276.8719 
L 652.80059 276.411522 
L 655.932913 275.200358 
L 654.835168 272.361364 
z
" clip-path="url(#pf67b3086b1)" style="fill: #4d4d4d; opacity: 0.75; stroke: #4d4d4d; stroke-width: 0.8; stroke-linejoin: miter"/>
   </g>
   <g id="patch_17">
    <path d="M 665.229468 173.151327 
L 657.20867 179.780762 
L 656.110925 176.941768 
L 652.978603 178.152932 
L 652.80059 177.692555 
L 655.932913 176.48139 
L 654.835168 173.642396 
z
" clip-path="url(#pf67b3086b1)" style="fill: #4d4d4d; opacity: 0.75; stroke: #4d4d4d; stroke-width: 0.8; stroke-linejoin: miter"/>
   </g>
   <g id="patch_18">
    <path d="M 105.821984 124.449969 
L 726.928823 124.449969 
L 726.928823 54.524034 
L 105.821984 54.524034 
z
" clip-path="url(#pf67b3086b1)" style="fill: #f7f7f7; stroke: #111111; stroke-width: 1.3; stroke-linejoin: miter"/>
   </g>
   <g id="patch_19">
    <path d="M 105.821984 498.759389 
L 726.928823 498.759389 
L 726.928823 428.833453 
L 105.821984 428.833453 
z
" clip-path="url(#pf67b3086b1)" style="fill: #f7f7f7; stroke: #111111; stroke-width: 1.3; stroke-linejoin: miter"/>
   </g>
   <g id="patch_20">
    <path d="M 169.166655 379.473969 
C 174.184599 379.473969 178.997696 377.480319 182.545918 373.932097 
C 186.09414 370.383875 188.08779 365.570778 188.08779 360.552834 
C 188.08779 355.53489 186.09414 350.721793 182.545918 347.173571 
C 178.997696 343.625348 174.184599 341.631698 169.166655 341.631698 
C 164.148711 341.631698 159.335614 343.625348 155.787392 347.173571 
C 152.23917 350.721793 150.245519 355.53489 150.245519 360.552834 
C 150.245519 365.570778 152.23917 370.383875 155.787392 373.932097 
C 159.335614 377.480319 164.148711 379.473969 169.166655 379.473969 
z
" clip-path="url(#pf67b3086b1)" style="fill: #e0e0e0; stroke: #111111; stroke-width: 1.2; stroke-linejoin: miter"/>
   </g>
   <g id="patch_21">
    <path d="M 238.269932 283.222976 
C 243.724219 283.222976 248.955847 281.055965 252.81261 277.199201 
C 256.669373 273.342438 258.836384 268.110811 258.836384 262.656524 
C 258.836384 257.202237 256.669373 251.97061 252.81261 248.113847 
C 248.955847 244.257084 243.724219 242.090072 238.269932 242.090072 
C 232.815646 242.090072 227.584018 244.257084 223.727255 248.113847 
C 219.870492 251.97061 217.703481 257.202237 217.703481 262.656524 
C 217.703481 268.110811 219.870492 273.342438 223.727255 277.199201 
C 227.584018 281.055965 232.815646 283.222976 238.269932 283.222976 
z
" clip-path="url(#pf67b3086b1)" style="fill: #e0e0e0; stroke: #111111; stroke-width: 1.2; stroke-linejoin: miter"/>
   </g>
   <g id="patch_22">
    <path d="M 305.727894 352.326253 
C 312.491209 352.326253 318.978427 349.639159 323.760814 344.856773 
C 328.5432 340.074387 331.230294 333.587169 331.230294 326.823853 
C 331.230294 320.060538 328.5432 313.573319 323.760814 308.790933 
C 318.978427 304.008547 312.491209 301.321453 305.727894 301.321453 
C 298.964578 301.321453 292.47736 304.008547 287.694974 308.790933 
C 282.912587 313.573319 280.225494 320.060538 280.225494 326.823853 
C 280.225494 333.587169 282.912587 340.074387 287.694974 344.856773 
C 292.47736 349.639159 298.964578 352.326253 305.727894 352.326253 
z
" clip-path="url(#pf67b3086b1)" style="fill: #e0e0e0; stroke: #111111; stroke-width: 1.2; stroke-linejoin: miter"/>
   </g>
   <g id="patch_23">
    <path d="M 389.639016 228.927543 
C 395.747817 228.927543 401.60724 226.500491 405.926815 222.180916 
C 410.24639 217.861342 412.673442 212.001919 412.673442 205.893118 
C 412.673442 199.784317 410.24639 193.924894 405.926815 189.605319 
C 401.60724 185.285744 395.747817 182.858692 389.639016 182.858692 
C 383.530215 182.858692 377.670792 185.285744 373.351217 189.605319 
C 369.031643 193.924894 366.60459 199.784317 366.60459 205.893118 
C 366.60459 212.001919 369.031643 217.861342 373.351217 222.180916 
C 377.670792 226.500491 383.530215 228.927543 389.639016 228.927543 
z
" clip-path="url(#pf67b3086b1)" style="fill: #e0e0e0; stroke: #111111; stroke-width: 1.2; stroke-linejoin: miter"/>
   </g>
   <g id="patch_24">
    <path d="M 451.338371 389.345866 
C 456.792658 389.345866 462.024285 387.178855 465.881048 383.322092 
C 469.737811 379.465329 471.904823 374.233701 471.904823 368.779414 
C 471.904823 363.325128 469.737811 358.0935 465.881048 354.236737 
C 462.024285 350.379974 456.792658 348.212963 451.338371 348.212963 
C 445.884084 348.212963 440.652457 350.379974 436.795694 354.236737 
C 432.93893 358.0935 430.771919 363.325128 430.771919 368.779414 
C 430.771919 374.233701 432.93893 379.465329 436.795694 383.322092 
C 440.652457 387.178855 445.884084 389.345866 451.338371 389.345866 
z
" clip-path="url(#pf67b3086b1)" style="fill: #e0e0e0; stroke: #111111; stroke-width: 1.2; stroke-linejoin: miter"/>
   </g>
   <g id="patch_25">
    <path d="M 541.830758 321.065247 
C 548.375902 321.065247 554.653855 318.464833 559.281971 313.836718 
C 563.910087 309.208602 566.5105 302.930649 566.5105 296.385505 
C 566.5105 289.840361 563.910087 283.562408 559.281971 278.934292 
C 554.653855 274.306176 548.375902 271.705763 541.830758 271.705763 
C 535.285614 271.705763 529.007661 274.306176 524.379545 278.934292 
C 519.751429 283.562408 517.151016 289.840361 517.151016 296.385505 
C 517.151016 302.930649 519.751429 309.208602 524.379545 313.836718 
C 529.007661 318.464833 535.285614 321.065247 541.830758 321.065247 
z
" clip-path="url(#pf67b3086b1)" style="fill: #e0e0e0; stroke: #111111; stroke-width: 1.2; stroke-linejoin: miter"/>
   </g>
   <g id="patch_26">
    <path d="M 608.466061 229.750202 
C 613.920348 229.750202 619.151976 227.58319 623.008739 223.726427 
C 626.865502 219.869664 629.032513 214.638037 629.032513 209.18375 
C 629.032513 203.729463 626.865502 198.497836 623.008739 194.641072 
C 619.151976 190.784309 613.920348 188.617298 608.466061 188.617298 
C 603.011775 188.617298 597.780147 190.784309 593.923384 194.641072 
C 590.066621 198.497836 587.89961 203.729463 587.89961 209.18375 
C 587.89961 214.638037 590.066621 219.869664 593.923384 223.726427 
C 597.780147 227.58319 603.011775 229.750202 608.466061 229.750202 
z
" clip-path="url(#pf67b3086b1)" style="fill: #e0e0e0; stroke: #111111; stroke-width: 1.2; stroke-linejoin: miter"/>
   </g>
   <g id="patch_27">
    <path d="M 144.486913 214.119698 
L 202.895635 191.085272 
L 191.378423 135.967182 
L 134.615016 159.001608 
z
" clip-path="url(#pf67b3086b1)" style="fill: url(#h47722f52cb); stroke: #333333; stroke-width: 1.4; stroke-linejoin: miter"/>
   </g>
   <g id="patch_28">
    <path d="M 336.166242 179.56806 
L 431.594577 159.001608 
L 417.60939 93.188963 
L 321.358397 112.932756 
z
" clip-path="url(#pf67b3086b1)" style="fill: url(#h47722f52cb); stroke: #333333; stroke-width: 1.4; stroke-linejoin: miter"/>
   </g>
   <g id="patch_29">
    <path d="M 492.471274 417.31624 
L 616.692642 405.799027 
L 610.111377 357.262202 
L 485.89001 367.956756 
z
" clip-path="url(#pf67b3086b1)" style="fill: url(#h47722f52cb); stroke: #333333; stroke-width: 1.4; stroke-linejoin: miter"/>
   </g>
   <g id="patch_30">
    <path d="M 633.145803 291.449556 
L 701.426423 266.769814 
L 687.441235 197.666537 
L 623.273906 217.410331 
z
" clip-path="url(#pf67b3086b1)" style="fill: url(#h47722f52cb); stroke: #333333; stroke-width: 1.4; stroke-linejoin: miter"/>
   </g>
   <g id="patch_31">
    <path d="M 97.400193 395.224477 
L 83.381182 393.56068 
L 85.926807 396.228268 
L 83.883077 399.297373 
z
" clip-path="url(#pf67b3086b1)" style="fill: #404040; stroke: #111111; stroke-width: 1.2; stroke-linejoin: miter"/>
   </g>
   <g id="patch_32">
    <path d="M 257.49043 107.753817 
L 258.418249 93.666942 
L 255.887544 96.348689 
L 252.715685 94.468385 
z
" clip-path="url(#pf67b3086b1)" style="fill: #666666; stroke: #111111; stroke-width: 1.2; stroke-linejoin: miter"/>
   </g>
   <g id="patch_33">
    <path d="M 473.8315 447.924031 
L 470.471617 461.635781 
L 473.429555 459.434228 
L 476.226715 461.836754 
z
" clip-path="url(#pf67b3086b1)" style="fill: #7b7b7b; stroke: #111111; stroke-width: 1.2; stroke-linejoin: miter"/>
   </g>
   <g id="patch_34">
    <path d="M 583.950851 179.56806 
L 597.771506 182.447363 
L 595.468064 179.56806 
L 597.771506 176.688756 
z
" clip-path="url(#pf67b3086b1)" style="fill: #949494; stroke: #111111; stroke-width: 1.2; stroke-linejoin: miter"/>
   </g>
   <g id="matplotlib.axis_1">
    <g id="xtick_1">
     <g id="line2d_1">
      <path d="M 77.028952 556.345453 
L 77.028952 46.297453 
" clip-path="url(#pf67b3086b1)" style="fill: none; stroke-dasharray: 1.85,0.8; stroke-dashoffset: 0; stroke: #bdbdbd; stroke-opacity: 0.55; stroke-width: 0.5"/>
     </g>
     <g id="line2d_2">
      <defs>
       <path id="m2a66814f91" d="M 0 0 
L 0 3.5 
" style="stroke: #101010; stroke-width: 0.8"/>
      </defs>
      <g>
       <use xlink:href="#m2a66814f91" x="77.028952" y="556.345453" style="fill: #101010; stroke: #101010; stroke-width: 0.8"/>
      </g>
     </g>
     <g id="text_1">
      <text style="font-size: 10px; font-family: 'Source Han Sans CN', 'Noto Sans CJK SC', 'Microsoft YaHei UI', 'Microsoft YaHei', 'PingFang SC', 'Heiti SC', 'SimHei', 'DejaVu Sans', sans-serif; text-anchor: middle; fill: #101010" x="77.028952" y="571.339203" transform="rotate(-0 77.028952 571.339203)">0</text>
     </g>
    </g>
    <g id="xtick_2">
     <g id="line2d_3">
      <path d="M 159.294758 556.345453 
L 159.294758 46.297453 
" clip-path="url(#pf67b3086b1)" style="fill: none; stroke-dasharray: 1.85,0.8; stroke-dashoffset: 0; stroke: #bdbdbd; stroke-opacity: 0.55; stroke-width: 0.5"/>
     </g>
     <g id="line2d_4">
      <g>
       <use xlink:href="#m2a66814f91" x="159.294758" y="556.345453" style="fill: #101010; stroke: #101010; stroke-width: 0.8"/>
      </g>
     </g>
     <g id="text_2">
      <text style="font-size: 10px; font-family: 'Source Han Sans CN', 'Noto Sans CJK SC', 'Microsoft YaHei UI', 'Microsoft YaHei', 'PingFang SC', 'Heiti SC', 'SimHei', 'DejaVu Sans', sans-serif; text-anchor: middle; fill: #101010" x="159.294758" y="571.339203" transform="rotate(-0 159.294758 571.339203)">1000</text>
     </g>
    </g>
    <g id="xtick_3">
     <g id="line2d_5">
      <path d="M 241.560565 556.345453 
L 241.560565 46.297453 
" clip-path="url(#pf67b3086b1)" style="fill: none; stroke-dasharray: 1.85,0.8; stroke-dashoffset: 0; stroke: #bdbdbd; stroke-opacity: 0.55; stroke-width: 0.5"/>
     </g>
     <g id="line2d_6">
      <g>
       <use xlink:href="#m2a66814f91" x="241.560565" y="556.345453" style="fill: #101010; stroke: #101010; stroke-width: 0.8"/>
      </g>
     </g>
     <g id="text_3">
      <text style="font-size: 10px; font-family: 'Source Han Sans CN', 'Noto Sans CJK SC', 'Microsoft YaHei UI', 'Microsoft YaHei', 'PingFang SC', 'Heiti SC', 'SimHei', 'DejaVu Sans', sans-serif; text-anchor: middle; fill: #101010" x="241.560565" y="571.339203" transform="rotate(-0 241.560565 571.339203)">2000</text>
     </g>
    </g>
    <g id="xtick_4">
     <g id="line2d_7">
      <path d="M 323.826371 556.345453 
L 323.826371 46.297453 
" clip-path="url(#pf67b3086b1)" style="fill: none; stroke-dasharray: 1.85,0.8; stroke-dashoffset: 0; stroke: #bdbdbd; stroke-opacity: 0.55; stroke-width: 0.5"/>
     </g>
     <g id="line2d_8">
      <g>
       <use xlink:href="#m2a66814f91" x="323.826371" y="556.345453" style="fill: #101010; stroke: #101010; stroke-width: 0.8"/>
      </g>
     </g>
     <g id="text_4">
      <text style="font-size: 10px; font-family: 'Source Han Sans CN', 'Noto Sans CJK SC', 'Microsoft YaHei UI', 'Microsoft YaHei', 'PingFang SC', 'Heiti SC', 'SimHei', 'DejaVu Sans', sans-serif; text-anchor: middle; fill: #101010" x="323.826371" y="571.339203" transform="rotate(-0 323.826371 571.339203)">3000</text>
     </g>
    </g>
    <g id="xtick_5">
     <g id="line2d_9">
      <path d="M 406.092177 556.345453 
L 406.092177 46.297453 
" clip-path="url(#pf67b3086b1)" style="fill: none; stroke-dasharray: 1.85,0.8; stroke-dashoffset: 0; stroke: #bdbdbd; stroke-opacity: 0.55; stroke-width: 0.5"/>
     </g>
     <g id="line2d_10">
      <g>
       <use xlink:href="#m2a66814f91" x="406.092177" y="556.345453" style="fill: #101010; stroke: #101010; stroke-width: 0.8"/>
      </g>
     </g>
     <g id="text_5">
      <text style="font-size: 10px; font-family: 'Source Han Sans CN', 'Noto Sans CJK SC', 'Microsoft YaHei UI', 'Microsoft YaHei', 'PingFang SC', 'Heiti SC', 'SimHei', 'DejaVu Sans', sans-serif; text-anchor: middle; fill: #101010" x="406.092177" y="571.339203" transform="rotate(-0 406.092177 571.339203)">4000</text>
     </g>
    </g>
    <g id="xtick_6">
     <g id="line2d_11">
      <path d="M 488.357984 556.345453 
L 488.357984 46.297453 
" clip-path="url(#pf67b3086b1)" style="fill: none; stroke-dasharray: 1.85,0.8; stroke-dashoffset: 0; stroke: #bdbdbd; stroke-opacity: 0.55; stroke-width: 0.5"/>
     </g>
     <g id="line2d_12">
      <g>
       <use xlink:href="#m2a66814f91" x="488.357984" y="556.345453" style="fill: #101010; stroke: #101010; stroke-width: 0.8"/>
      </g>
     </g>
     <g id="text_6">
      <text style="font-size: 10px; font-family: 'Source Han Sans CN', 'Noto Sans CJK SC', 'Microsoft YaHei UI', 'Microsoft YaHei', 'PingFang SC', 'Heiti SC', 'SimHei', 'DejaVu Sans', sans-serif; text-anchor: middle; fill: #101010" x="488.357984" y="571.339203" transform="rotate(-0 488.357984 571.339203)">5000</text>
     </g>
    </g>
    <g id="xtick_7">
     <g id="line2d_13">
      <path d="M 570.62379 556.345453 
L 570.62379 46.297453 
" clip-path="url(#pf67b3086b1)" style="fill: none; stroke-dasharray: 1.85,0.8; stroke-dashoffset: 0; stroke: #bdbdbd; stroke-opacity: 0.55; stroke-width: 0.5"/>
     </g>
     <g id="line2d_14">
      <g>
       <use xlink:href="#m2a66814f91" x="570.62379" y="556.345453" style="fill: #101010; stroke: #101010; stroke-width: 0.8"/>
      </g>
     </g>
     <g id="text_7">
      <text style="font-size: 10px; font-family: 'Source Han Sans CN', 'Noto Sans CJK SC', 'Microsoft YaHei UI', 'Microsoft YaHei', 'PingFang SC', 'Heiti SC', 'SimHei', 'DejaVu Sans', sans-serif; text-anchor: middle; fill: #101010" x="570.62379" y="571.339203" transform="rotate(-0 570.62379 571.339203)">6000</text>
     </g>
    </g>
    <g id="xtick_8">
     <g id="line2d_15">
      <path d="M 652.889597 556.345453 
L 652.889597 46.297453 
" clip-path="url(#pf67b3086b1)" style="fill: none; stroke-dasharray: 1.85,0.8; stroke-dashoffset: 0; stroke: #bdbdbd; stroke-opacity: 0.55; stroke-width: 0.5"/>
     </g>
     <g id="line2d_16">
      <g>
       <use xlink:href="#m2a66814f91" x="652.889597" y="556.345453" style="fill: #101010; stroke: #101010; stroke-width: 0.8"/>
      </g>
     </g>
     <g id="text_8">
      <text style="font-size: 10px; font-family: 'Source Han Sans CN', 'Noto Sans CJK SC', 'Microsoft YaHei UI', 'Microsoft YaHei', 'PingFang SC', 'Heiti SC', 'SimHei', 'DejaVu Sans', sans-serif; text-anchor: middle; fill: #101010" x="652.889597" y="571.339203" transform="rotate(-0 652.889597 571.339203)">7000</text>
     </g>
    </g>
    <g id="xtick_9">
     <g id="line2d_17">
      <path d="M 735.155403 556.345453 
L 735.155403 46.297453 
" clip-path="url(#pf67b3086b1)" style="fill: none; stroke-dasharray: 1.85,0.8; stroke-dashoffset: 0; stroke: #bdbdbd; stroke-opacity: 0.55; stroke-width: 0.5"/>
     </g>
     <g id="line2d_18">
      <g>
       <use xlink:href="#m2a66814f91" x="735.155403" y="556.345453" style="fill: #101010; stroke: #101010; stroke-width: 0.8"/>
      </g>
     </g>
     <g id="text_9">
      <text style="font-size: 10px; font-family: 'Source Han Sans CN', 'Noto Sans CJK SC', 'Microsoft YaHei UI', 'Microsoft YaHei', 'PingFang SC', 'Heiti SC', 'SimHei', 'DejaVu Sans', sans-serif; text-anchor: middle; fill: #101010" x="735.155403" y="571.339203" transform="rotate(-0 735.155403 571.339203)">8000</text>
     </g>
    </g>
    <g id="text_10">
     <text style="font-size: 10px; font-family: 'Source Han Sans CN', 'Noto Sans CJK SC', 'Microsoft YaHei UI', 'Microsoft YaHei', 'PingFang SC', 'Heiti SC', 'SimHei', 'DejaVu Sans', sans-serif; text-anchor: middle; fill: #101010" x="395.808952" y="585.818891" transform="rotate(-0 395.808952 585.818891)">x / m</text>
    </g>
   </g>
   <g id="matplotlib.axis_2">
    <g id="ytick_1">
     <g id="line2d_19">
      <path d="M 56.4625 523.439131 
L 735.155403 523.439131 
" clip-path="url(#pf67b3086b1)" style="fill: none; stroke-dasharray: 1.85,0.8; stroke-dashoffset: 0; stroke: #bdbdbd; stroke-opacity: 0.55; stroke-width: 0.5"/>
     </g>
     <g id="line2d_20">
      <defs>
       <path id="m64b72781e9" d="M 0 0 
L -3.5 0 
" style="stroke: #101010; stroke-width: 0.8"/>
      </defs>
      <g>
       <use xlink:href="#m64b72781e9" x="56.4625" y="523.439131" style="fill: #101010; stroke: #101010; stroke-width: 0.8"/>
      </g>
     </g>
     <g id="text_11">
      <text style="font-size: 10px; font-family: 'Source Han Sans CN', 'Noto Sans CJK SC', 'Microsoft YaHei UI', 'Microsoft YaHei', 'PingFang SC', 'Heiti SC', 'SimHei', 'DejaVu Sans', sans-serif; text-anchor: end; fill: #101010" x="49.4625" y="527.436006" transform="rotate(-0 49.4625 527.436006)">-3000</text>
     </g>
    </g>
    <g id="ytick_2">
     <g id="line2d_21">
      <path d="M 56.4625 441.173324 
L 735.155403 441.173324 
" clip-path="url(#pf67b3086b1)" style="fill: none; stroke-dasharray: 1.85,0.8; stroke-dashoffset: 0; stroke: #bdbdbd; stroke-opacity: 0.55; stroke-width: 0.5"/>
     </g>
     <g id="line2d_22">
      <g>
       <use xlink:href="#m64b72781e9" x="56.4625" y="441.173324" style="fill: #101010; stroke: #101010; stroke-width: 0.8"/>
      </g>
     </g>
     <g id="text_12">
      <text style="font-size: 10px; font-family: 'Source Han Sans CN', 'Noto Sans CJK SC', 'Microsoft YaHei UI', 'Microsoft YaHei', 'PingFang SC', 'Heiti SC', 'SimHei', 'DejaVu Sans', sans-serif; text-anchor: end; fill: #101010" x="49.4625" y="445.170199" transform="rotate(-0 49.4625 445.170199)">-2000</text>
     </g>
    </g>
    <g id="ytick_3">
     <g id="line2d_23">
      <path d="M 56.4625 358.907518 
L 735.155403 358.907518 
" clip-path="url(#pf67b3086b1)" style="fill: none; stroke-dasharray: 1.85,0.8; stroke-dashoffset: 0; stroke: #bdbdbd; stroke-opacity: 0.55; stroke-width: 0.5"/>
     </g>
     <g id="line2d_24">
      <g>
       <use xlink:href="#m64b72781e9" x="56.4625" y="358.907518" style="fill: #101010; stroke: #101010; stroke-width: 0.8"/>
      </g>
     </g>
     <g id="text_13">
      <text style="font-size: 10px; font-family: 'Source Han Sans CN', 'Noto Sans CJK SC', 'Microsoft YaHei UI', 'Microsoft YaHei', 'PingFang SC', 'Heiti SC', 'SimHei', 'DejaVu Sans', sans-serif; text-anchor: end; fill: #101010" x="49.4625" y="362.904393" transform="rotate(-0 49.4625 362.904393)">-1000</text>
     </g>
    </g>
    <g id="ytick_4">
     <g id="line2d_25">
      <path d="M 56.4625 276.641711 
L 735.155403 276.641711 
" clip-path="url(#pf67b3086b1)" style="fill: none; stroke-dasharray: 1.85,0.8; stroke-dashoffset: 0; stroke: #bdbdbd; stroke-opacity: 0.55; stroke-width: 0.5"/>
     </g>
     <g id="line2d_26">
      <g>
       <use xlink:href="#m64b72781e9" x="56.4625" y="276.641711" style="fill: #101010; stroke: #101010; stroke-width: 0.8"/>
      </g>
     </g>
     <g id="text_14">
      <text style="font-size: 10px; font-family: 'Source Han Sans CN', 'Noto Sans CJK SC', 'Microsoft YaHei UI', 'Microsoft YaHei', 'PingFang SC', 'Heiti SC', 'SimHei', 'DejaVu Sans', sans-serif; text-anchor: end; fill: #101010" x="49.4625" y="280.638586" transform="rotate(-0 49.4625 280.638586)">0</text>
     </g>
    </g>
    <g id="ytick_5">
     <g id="line2d_27">
      <path d="M 56.4625 194.375905 
L 735.155403 194.375905 
" clip-path="url(#pf67b3086b1)" style="fill: none; stroke-dasharray: 1.85,0.8; stroke-dashoffset: 0; stroke: #bdbdbd; stroke-opacity: 0.55; stroke-width: 0.5"/>
     </g>
     <g id="line2d_28">
      <g>
       <use xlink:href="#m64b72781e9" x="56.4625" y="194.375905" style="fill: #101010; stroke: #101010; stroke-width: 0.8"/>
      </g>
     </g>
     <g id="text_15">
      <text style="font-size: 10px; font-family: 'Source Han Sans CN', 'Noto Sans CJK SC', 'Microsoft YaHei UI', 'Microsoft YaHei', 'PingFang SC', 'Heiti SC', 'SimHei', 'DejaVu Sans', sans-serif; text-anchor: end; fill: #101010" x="49.4625" y="198.37278" transform="rotate(-0 49.4625 198.37278)">1000</text>
     </g>
    </g>
    <g id="ytick_6">
     <g id="line2d_29">
      <path d="M 56.4625 112.110098 
L 735.155403 112.110098 
" clip-path="url(#pf67b3086b1)" style="fill: none; stroke-dasharray: 1.85,0.8; stroke-dashoffset: 0; stroke: #bdbdbd; stroke-opacity: 0.55; stroke-width: 0.5"/>
     </g>
     <g id="line2d_30">
      <g>
       <use xlink:href="#m64b72781e9" x="56.4625" y="112.110098" style="fill: #101010; stroke: #101010; stroke-width: 0.8"/>
      </g>
     </g>
     <g id="text_16">
      <text style="font-size: 10px; font-family: 'Source Han Sans CN', 'Noto Sans CJK SC', 'Microsoft YaHei UI', 'Microsoft YaHei', 'PingFang SC', 'Heiti SC', 'SimHei', 'DejaVu Sans', sans-serif; text-anchor: end; fill: #101010" x="49.4625" y="116.106973" transform="rotate(-0 49.4625 116.106973)">2000</text>
     </g>
    </g>
    <g id="text_17">
     <text style="font-size: 10px; font-family: 'Source Han Sans CN', 'Noto Sans CJK SC', 'Microsoft YaHei UI', 'Microsoft YaHei', 'PingFang SC', 'Heiti SC', 'SimHei', 'DejaVu Sans', sans-serif; text-anchor: middle; fill: #101010" x="15.135938" y="301.321453" transform="rotate(-90 15.135938 301.321453)">y / m</text>
    </g>
   </g>
   <g id="QuadContourSet_1">
    <path d="M 239.495314 438.446198 
L 242.248981 438.658092 
L 245.002648 438.822967 
L 247.756316 438.941652 
L 250.509983 439.014756 
L 253.26365 439.042673 
L 256.017317 439.025589 
L 258.770984 438.96348 
L 261.524651 438.856115 
L 264.278319 438.703055 
L 267.031986 438.503652 
L 269.785653 438.257041 
L 270.351908 438.196873 
L 272.53932 437.9705 
L 275.292987 437.638305 
L 278.046654 437.256843 
L 280.800322 436.824409 
L 283.553989 436.339051 
L 286.307656 435.798567 
L 286.691768 435.716497 
L 289.061323 435.215648 
L 291.81499 434.576684 
L 294.568657 433.876338 
L 296.882024 433.236121 
L 297.322325 433.114228 
L 300.075992 432.300288 
L 302.829659 431.416235 
L 304.74392 430.755745 
L 305.583326 430.462822 
L 308.336993 429.443078 
L 311.09066 428.34179 
L 311.24931 428.275369 
L 313.844328 427.164753 
L 316.597995 425.898127 
L 316.813102 425.794992 
L 319.351662 424.539187 
L 321.676068 423.314616 
L 322.105329 423.079338 
L 324.858996 421.508258 
L 325.986965 420.83424 
L 327.612663 419.814816 
L 329.842589 418.353864 
L 330.36633 417.990937 
L 333.119998 416.018047 
L 333.316578 415.873488 
L 335.873665 413.87062 
L 336.468159 413.393112 
L 338.627332 411.533845 
L 339.336252 410.912736 
L 341.380999 408.981412 
L 341.956883 408.43236 
L 344.134666 406.184397 
L 344.359541 405.951984 
L 346.577548 403.471608 
L 346.888333 403.093281 
L 348.636763 400.991232 
L 349.642001 399.675153 
L 350.550449 398.510856 
L 352.337883 396.03048 
L 352.395668 395.943903 
L 354.053271 393.550103 
L 355.149335 391.860238 
L 355.686849 391.069727 
L 357.288313 388.589351 
L 357.903002 387.598545 
L 358.890614 386.108975 
L 360.518416 383.628599 
L 360.656669 383.4163 
L 362.272932 381.148223 
L 363.410336 379.615237 
L 364.19353 378.667847 
L 366.164004 376.437643 
L 366.415848 376.187471 
L 368.917671 373.909347 
L 369.178197 373.707095 
L 371.671338 371.957978 
L 372.944073 371.226719 
L 374.425005 370.464238 
L 377.178672 369.329335 
L 378.992174 368.746343 
L 379.932339 368.47559 
L 382.686007 367.85756 
L 385.439674 367.411951 
L 388.193341 367.108307 
L 390.947008 366.922131 
L 393.700675 366.833415 
L 396.454342 366.825589 
L 399.20801 366.884765 
L 401.961677 366.999178 
L 404.715344 367.158766 
L 407.469011 367.354861 
L 410.222678 367.57994 
L 412.976345 367.827438 
L 415.730012 368.091604 
L 418.48368 368.367377 
L 421.237347 368.650292 
L 422.144859 368.746343 
L 423.991014 368.947085 
L 426.744681 369.24907 
L 429.498348 369.547577 
L 432.252015 369.839677 
L 435.005683 370.122764 
L 437.75935 370.394515 
L 440.513017 370.65286 
L 443.266684 370.895944 
L 446.020351 371.122103 
L 447.396691 371.226719 
L 448.774018 371.33612 
L 451.527686 371.535563 
L 454.281353 371.712741 
L 457.03502 371.866427 
L 459.788687 371.995475 
L 462.542354 372.098803 
L 465.296021 372.175377 
L 468.049689 372.224193 
L 470.803356 372.244256 
L 473.557023 372.234571 
L 476.31069 372.194124 
L 479.064357 372.12187 
L 481.818024 372.016716 
L 484.571692 371.877508 
L 487.325359 371.703021 
L 490.079026 371.491941 
L 492.832693 371.242851 
L 492.987878 371.226719 
L 495.58636 370.970184 
L 498.340027 370.65969 
L 501.093694 370.308729 
L 503.847362 369.915454 
L 506.601029 369.477853 
L 509.354696 368.993735 
L 510.644709 368.746343 
L 512.108363 368.476578 
L 514.86203 367.924518 
L 517.615697 367.32113 
L 520.369365 366.663492 
L 521.916002 366.265967 
L 523.123032 365.965053 
L 525.876699 365.229718 
L 528.630366 364.433086 
L 530.713341 363.785591 
L 531.384033 363.58179 
L 534.1377 362.696264 
L 536.891368 361.740318 
L 538.074824 361.305215 
L 539.645035 360.736468 
L 542.398702 359.675827 
L 544.467406 358.824838 
L 545.152369 358.545463 
L 547.906036 357.366944 
L 550.141094 356.344462 
L 550.659703 356.107715 
L 553.413371 354.79513 
L 555.253082 353.864086 
L 556.167038 353.399561 
L 558.920705 351.93323 
L 559.906769 351.38371 
L 561.674372 350.388046 
L 564.171924 348.903334 
L 564.428039 348.748651 
L 567.181706 347.02938 
L 568.112947 346.422958 
L 569.935374 345.209467 
L 571.76099 343.942582 
L 572.689041 343.2806 
L 575.147188 341.462206 
L 575.442708 341.236304 
L 578.196375 339.068135 
L 578.303398 338.98183 
L 580.950042 336.761976 
L 581.253123 336.501454 
L 583.703709 334.298611 
L 584.006386 334.021078 
L 586.457377 331.657835 
L 586.577023 331.540702 
L 588.983858 329.060326 
L 589.211044 328.812079 
L 591.237287 326.579949 
L 591.964711 325.72319 
L 593.338252 324.099573 
L 594.718378 322.344467 
L 595.289162 321.619197 
L 597.105854 319.138821 
L 597.472045 318.600287 
L 598.802674 316.658445 
L 600.225712 314.379572 
L 600.35306 314.178069 
L 601.8061 311.697693 
L 602.979379 309.471165 
L 603.115671 309.217317 
L 604.33481 306.736941 
L 605.418087 304.256565 
L 605.733047 303.450027 
L 606.405087 301.776189 
L 607.281331 299.295813 
L 608.038022 296.815437 
L 608.486714 295.090059 
L 608.690374 294.335061 
L 609.250148 291.854684 
L 609.698673 289.374308 
L 610.038897 286.893932 
L 610.272917 284.413556 
L 610.402004 281.93318 
L 610.426622 279.452804 
L 610.346433 276.972428 
L 610.1603 274.492052 
L 609.866272 272.011676 
L 609.461567 269.5313 
L 608.942541 267.050924 
L 608.486714 265.26996 
L 608.313107 264.570548 
L 607.586125 262.090172 
L 606.734073 259.609795 
L 605.749628 257.129419 
L 605.733047 257.091902 
L 604.673557 254.649043 
L 603.453975 252.168667 
L 602.979379 251.294505 
L 602.117833 249.688291 
L 600.641648 247.207915 
L 600.225712 246.565433 
L 599.04223 244.727539 
L 597.472045 242.510043 
L 597.286102 242.247163 
L 595.401151 239.766787 
L 594.718378 238.933718 
L 593.360554 237.286411 
L 591.964711 235.710883 
L 591.154993 234.806035 
L 589.211044 232.770539 
L 588.780032 232.325659 
L 586.457377 230.064113 
L 586.22839 229.845283 
L 583.703709 227.554641 
L 583.489709 227.364907 
L 580.950042 225.213967 
L 580.550243 224.88453 
L 578.196375 223.020739 
L 577.392467 222.404154 
L 575.442708 220.95895 
L 573.99459 219.923778 
L 572.689041 219.016874 
L 570.329963 217.443402 
L 569.935374 217.186276 
L 567.181706 215.448433 
L 566.380616 214.963026 
L 564.428039 213.799433 
L 562.101249 212.48265 
L 561.674372 212.243853 
L 558.920705 210.755703 
L 557.452284 210.002274 
L 556.167038 209.346261 
L 553.413371 208.007195 
L 552.367594 207.521898 
L 550.659703 206.728534 
L 547.906036 205.517977 
L 546.767571 205.041522 
L 545.152369 204.360713 
L 542.398702 203.261858 
L 540.535976 202.561146 
L 539.645035 202.221576 
L 536.891368 201.220732 
L 534.1377 200.287054 
L 533.49922 200.08077 
L 531.384033 199.383356 
L 528.630366 198.53126 
L 525.876699 197.737236 
L 525.377053 197.600394 
L 523.123032 196.965975 
L 520.369365 196.241529 
L 517.615697 195.568028 
L 515.654535 195.120018 
L 514.86203 194.932705 
L 512.108363 194.320342 
L 509.354696 193.753397 
L 506.601029 193.229508 
L 503.847362 192.746499 
L 503.191835 192.639641 
L 501.093694 192.282625 
L 498.340027 191.851744 
L 495.58636 191.458322 
L 492.832693 191.100708 
L 490.079026 190.777383 
L 487.325359 190.486952 
L 484.571692 190.228135 
L 483.744488 190.159265 
L 481.818024 189.990142 
L 479.064357 189.77921 
L 476.31069 189.598459 
L 473.557023 189.44693 
L 470.803356 189.323746 
L 468.049689 189.228104 
L 465.296021 189.159272 
L 462.542354 189.116579 
L 459.788687 189.099411 
L 457.03502 189.107205 
L 454.281353 189.139444 
L 451.527686 189.195651 
L 448.774018 189.275383 
L 446.020351 189.37823 
L 443.266684 189.503803 
L 440.513017 189.651735 
L 437.75935 189.821676 
L 435.005683 190.013284 
L 433.111298 190.159265 
L 432.252015 190.222811 
L 429.498348 190.444965 
L 426.744681 190.686989 
L 423.991014 190.948605 
L 421.237347 191.229532 
L 418.48368 191.529479 
L 415.730012 191.848144 
L 412.976345 192.185216 
L 410.222678 192.540368 
L 409.480924 192.639641 
L 407.469011 192.901245 
L 404.715344 193.274769 
L 401.961677 193.665047 
L 399.20801 194.071758 
L 396.454342 194.494571 
L 393.700675 194.933148 
L 392.555388 195.120018 
L 390.947008 195.377017 
L 388.193341 195.828748 
L 385.439674 196.295243 
L 382.686007 196.776212 
L 379.932339 197.271377 
L 378.141209 197.600394 
L 377.178672 197.774648 
L 374.425005 198.280929 
L 371.671338 198.80088 
L 368.917671 199.334344 
L 366.164004 199.881203 
L 365.171402 200.08077 
L 363.410336 200.431703 
L 360.656669 200.990283 
L 357.903002 201.562437 
L 355.149335 202.148246 
L 353.242464 202.561146 
L 352.395668 202.743761 
L 349.642001 203.344306 
L 346.888333 203.959397 
L 344.134666 204.589361 
L 342.194746 205.041522 
L 341.380999 205.231296 
L 338.627332 205.881327 
L 335.873665 206.547895 
L 333.119998 207.231591 
L 331.968694 207.521898 
L 330.36633 207.927994 
L 327.612663 208.6395 
L 324.858996 209.370584 
L 322.537987 210.002274 
L 322.105329 210.121139 
L 319.351662 210.88807 
L 316.597995 211.677623 
L 313.871578 212.48265 
L 313.844328 212.490808 
L 311.09066 213.325928 
L 308.336993 214.187316 
L 305.928551 214.963026 
L 305.583326 215.076283 
L 302.829659 215.994847 
L 300.075992 216.943965 
L 298.661838 217.443402 
L 297.322325 217.927579 
L 294.568657 218.947705 
L 292.019158 219.923778 
L 291.81499 220.00416 
L 289.061323 221.107799 
L 286.307656 222.251035 
L 285.945858 222.404154 
L 283.553989 223.45062 
L 280.800322 224.696595 
L 280.393176 224.88453 
L 278.046654 226.010174 
L 275.316553 227.364907 
L 275.292987 227.377124 
L 272.53932 228.830351 
L 270.674822 229.845283 
L 269.785653 230.353973 
L 267.031986 231.968033 
L 266.435066 232.325659 
L 264.278319 233.692319 
L 262.565787 234.806035 
L 261.524651 235.52684 
L 259.042246 237.286411 
L 258.770984 237.492551 
L 256.017317 239.626851 
L 255.840102 239.766787 
L 253.26365 241.965529 
L 252.939621 242.247163 
L 250.509983 244.548916 
L 250.324408 244.727539 
L 247.978235 247.207915 
L 247.756316 247.468387 
L 245.886691 249.688291 
L 245.002648 250.869721 
L 244.039564 252.168667 
L 242.426218 254.649043 
L 242.248981 254.962843 
L 241.031378 257.129419 
L 239.851193 259.609795 
L 239.495314 260.509887 
L 238.871087 262.090172 
L 238.083127 264.570548 
L 237.478623 267.050924 
L 237.0462 269.5313 
L 236.773955 272.011676 
L 236.741647 272.654119 
L 236.648517 274.492052 
L 236.657247 276.972428 
L 236.741647 278.618043 
L 236.784357 279.452804 
L 237.011266 281.93318 
L 237.318491 284.413556 
L 237.683076 286.893932 
L 238.078677 289.374308 
L 238.475102 291.854684 
L 238.837904 294.335061 
L 239.128056 296.815437 
L 239.301762 299.295813 
L 239.31045 301.776189 
L 239.101039 304.256565 
L 238.616535 306.736941 
L 237.797031 309.217317 
L 236.741647 311.374187 
L 236.582919 311.697693 
L 234.933657 314.178069 
L 233.98798 315.277433 
L 232.808908 316.658445 
L 231.234313 318.14817 
L 230.202374 319.138821 
L 228.480645 320.519365 
L 227.138805 321.619197 
L 225.726978 322.611705 
L 223.671783 324.099573 
L 222.973311 324.542901 
L 220.219644 326.352758 
L 219.88553 326.579949 
L 217.465977 328.054428 
L 215.885167 329.060326 
L 214.71231 329.740205 
L 211.958643 331.413008 
L 211.756558 331.540702 
L 209.204975 333.035175 
L 207.606682 334.021078 
L 206.451308 334.690771 
L 203.697641 336.37276 
L 203.495601 336.501454 
L 200.943974 338.051875 
L 199.49472 338.98183 
L 198.190307 339.79019 
L 195.636145 341.462206 
L 195.43664 341.589864 
L 192.682972 343.431751 
L 191.956183 343.942582 
L 189.929305 345.354449 
L 188.47072 346.422958 
L 187.175638 347.374421 
L 185.19194 348.903334 
L 184.421971 349.505678 
L 182.126512 351.38371 
L 181.668304 351.768927 
L 179.276596 353.864086 
L 178.914637 354.194092 
L 176.641706 356.344462 
L 176.160969 356.824218 
L 174.220242 358.824838 
L 173.407302 359.721601 
L 172.010712 361.305215 
L 170.653635 362.977776 
L 170.01269 363.785591 
L 168.221796 366.265967 
L 167.899968 366.761614 
L 166.628912 368.746343 
L 165.246955 371.226719 
L 165.146301 371.434901 
L 164.052673 373.707095 
L 163.063781 376.187471 
L 162.392634 378.298 
L 162.274404 378.667847 
L 161.672398 381.148223 
L 161.270586 383.628599 
L 161.068076 386.108975 
L 161.065772 388.589351 
L 161.266519 391.069727 
L 161.675268 393.550103 
L 162.299259 396.03048 
L 162.392634 396.306897 
L 163.131338 398.510856 
L 164.193541 400.991232 
L 165.146301 402.807013 
L 165.496124 403.471608 
L 167.040604 405.951984 
L 167.899968 407.138088 
L 168.851211 408.43236 
L 170.653635 410.572381 
L 170.94646 410.912736 
L 173.344918 413.393112 
L 173.407302 413.451596 
L 176.076476 415.873488 
L 176.160969 415.943636 
L 178.914637 418.149615 
L 179.180371 418.353864 
L 181.668304 420.129222 
L 182.707083 420.83424 
L 184.421971 421.92791 
L 186.725333 423.314616 
L 187.175638 423.572241 
L 189.929305 425.075606 
L 191.331802 425.794992 
L 192.682972 426.461653 
L 195.43664 427.738842 
L 196.668508 428.275369 
L 198.190307 428.920382 
L 200.943974 430.011994 
L 202.966193 430.755745 
L 203.697641 431.02049 
L 206.451308 431.957034 
L 209.204975 432.816613 
L 210.655158 433.236121 
L 211.958643 433.611836 
L 214.71231 434.3466 
L 217.465977 435.015789 
L 220.219644 435.622915 
L 220.682512 435.716497 
L 222.973311 436.184345 
L 225.726978 436.690784 
L 228.480645 437.14209 
L 231.234313 437.540542 
L 233.98798 437.888136 
L 236.741647 438.186605 
L 236.853395 438.196873 
L 239.495314 438.446198 
z
" clip-path="url(#pf67b3086b1)" style="fill: none; stroke-dasharray: 3.7,1.6; stroke-dashoffset: 0; stroke: #2b2b2b"/>
    <path d="M 247.756316 418.500319 
L 250.509983 418.627955 
L 253.26365 418.681293 
L 256.017317 418.660775 
L 258.770984 418.566519 
L 261.524651 418.398324 
L 262.031039 418.353864 
L 264.278319 418.149484 
L 267.031986 417.821713 
L 269.785653 417.415273 
L 272.53932 416.928709 
L 275.292987 416.360242 
L 277.353354 415.873488 
L 278.046654 415.700865 
L 280.800322 414.931477 
L 283.553989 414.069725 
L 285.50937 413.393112 
L 286.307656 413.097586 
L 289.061323 411.985984 
L 291.491924 410.912736 
L 291.81499 410.757884 
L 294.568657 409.341574 
L 296.210839 408.43236 
L 297.322325 407.754125 
L 300.075992 405.960891 
L 300.088976 405.951984 
L 302.829659 403.847033 
L 303.294652 403.471608 
L 305.583326 401.36696 
L 305.975704 400.991232 
L 308.208382 398.510856 
L 308.336993 398.341074 
L 310.041941 396.03048 
L 311.09066 394.290124 
L 311.529082 393.550103 
L 312.68763 391.069727 
L 313.546349 388.589351 
L 313.844328 387.284219 
L 314.11344 386.108975 
L 314.397917 383.628599 
L 314.404895 381.148223 
L 314.132356 378.667847 
L 313.844328 377.368061 
L 313.571072 376.187471 
L 312.705958 373.707095 
L 311.519961 371.226719 
L 311.09066 370.505296 
L 309.971083 368.746343 
L 308.336993 366.644644 
L 308.018205 366.265967 
L 305.583326 363.788091 
L 305.580629 363.785591 
L 302.829659 361.525074 
L 302.531469 361.305215 
L 300.075992 359.657122 
L 298.669175 358.824838 
L 297.322325 358.083074 
L 294.568657 356.751036 
L 293.613823 356.344462 
L 291.81499 355.614795 
L 289.061323 354.649888 
L 286.408637 353.864086 
L 286.307656 353.835022 
L 283.553989 353.143683 
L 280.800322 352.573895 
L 278.046654 352.113773 
L 275.292987 351.753845 
L 272.53932 351.486566 
L 270.98784 351.38371 
L 269.785653 351.304186 
L 267.031986 351.203425 
L 264.278319 351.18281 
L 261.524651 351.239434 
L 258.770984 351.371245 
L 258.605994 351.38371 
L 256.017317 351.573212 
L 253.26365 351.846996 
L 250.509983 352.192913 
L 247.756316 352.611592 
L 245.002648 353.104204 
L 242.248981 353.672449 
L 241.431138 353.864086 
L 239.495314 354.315724 
L 236.741647 355.038143 
L 233.98798 355.844229 
L 232.440874 356.344462 
L 231.234313 356.740183 
L 228.480645 357.731775 
L 225.726978 358.821174 
L 225.718398 358.824838 
L 222.973311 360.036542 
L 220.340179 361.305215 
L 220.219644 361.366183 
L 217.465977 362.861044 
L 215.887616 363.785591 
L 214.71231 364.522211 
L 212.119922 366.265967 
L 211.958643 366.384283 
L 209.204975 368.533134 
L 208.947266 368.746343 
L 206.451308 371.053261 
L 206.273348 371.226719 
L 204.047312 373.707095 
L 203.697641 374.167624 
L 202.228888 376.187471 
L 200.943974 378.376106 
L 200.778759 378.667847 
L 199.698362 381.148223 
L 198.958609 383.628599 
L 198.558252 386.108975 
L 198.498908 388.589351 
L 198.785355 391.069727 
L 199.425834 393.550103 
L 200.432392 396.03048 
L 200.943974 396.952951 
L 201.840119 398.510856 
L 203.670951 400.991232 
L 203.697641 401.021091 
L 205.999363 403.471608 
L 206.451308 403.879517 
L 208.886319 405.951984 
L 209.204975 406.188396 
L 211.958643 408.10489 
L 212.463731 408.43236 
L 214.71231 409.734254 
L 216.927375 410.912736 
L 217.465977 411.17357 
L 220.219644 412.405446 
L 222.658547 413.393112 
L 222.973311 413.511269 
L 225.726978 414.455243 
L 228.480645 415.296942 
L 230.608708 415.873488 
L 231.234313 416.033447 
L 233.98798 416.655061 
L 236.741647 417.18962 
L 239.495314 417.639809 
L 242.248981 418.007907 
L 245.002648 418.295803 
L 245.764191 418.353864 
L 247.756316 418.500319 
z
M 468.049689 353.97469 
L 470.803356 354.055994 
L 473.557023 354.09396 
L 476.31069 354.08797 
L 479.064357 354.037286 
L 481.818024 353.941049 
L 483.3042 353.864086 
L 484.571692 353.800596 
L 487.325359 353.616871 
L 490.079026 353.385892 
L 492.832693 353.106245 
L 495.58636 352.776338 
L 498.340027 352.394392 
L 501.093694 351.958425 
L 503.847362 351.466236 
L 504.265012 351.38371 
L 506.601029 350.930261 
L 509.354696 350.337504 
L 512.108363 349.682476 
L 514.86203 348.962024 
L 515.070671 348.903334 
L 517.615697 348.193126 
L 520.369365 347.355227 
L 523.123032 346.442656 
L 523.179074 346.422958 
L 525.876699 345.474404 
L 528.630366 344.424766 
L 529.817203 343.942582 
L 531.384033 343.30127 
L 534.1377 342.096757 
L 535.501657 341.462206 
L 536.891368 340.806207 
L 539.645035 339.424306 
L 540.481959 338.98183 
L 542.398702 337.946192 
L 544.912543 336.501454 
L 545.152369 336.359755 
L 547.906036 334.661942 
L 548.895056 334.021078 
L 550.659703 332.836774 
L 552.501864 331.540702 
L 553.413371 330.872327 
L 555.783539 329.060326 
L 556.167038 328.752781 
L 558.779802 326.579949 
L 558.920705 326.456206 
L 561.522104 324.099573 
L 561.674372 323.952883 
L 564.034992 321.619197 
L 564.428039 321.202952 
L 566.337172 319.138821 
L 567.181706 318.153081 
L 568.442336 316.658445 
L 569.935374 314.73168 
L 570.359801 314.178069 
L 572.108926 311.697693 
L 572.689041 310.792829 
L 573.695832 309.217317 
L 575.119611 306.736941 
L 575.442708 306.110353 
L 576.402524 304.256565 
L 577.534331 301.776189 
L 578.196375 300.111502 
L 578.524474 299.295813 
L 579.386153 296.815437 
L 580.106888 294.335061 
L 580.691971 291.854684 
L 580.950042 290.447685 
L 581.151594 289.374308 
L 581.486846 286.893932 
L 581.691992 284.413556 
L 581.76822 281.93318 
L 581.71572 279.452804 
L 581.533695 276.972428 
L 581.22035 274.492052 
L 580.950042 272.987415 
L 580.778097 272.011676 
L 580.209849 269.5313 
L 579.502797 267.050924 
L 578.650998 264.570548 
L 578.196375 263.434412 
L 577.662251 262.090172 
L 576.529842 259.609795 
L 575.442708 257.523846 
L 575.237112 257.129419 
L 573.799273 254.649043 
L 572.689041 252.935592 
L 572.188446 252.168667 
L 570.408607 249.688291 
L 569.935374 249.082391 
L 568.449903 247.207915 
L 567.181706 245.737088 
L 566.29429 244.727539 
L 564.428039 242.758614 
L 563.931452 242.247163 
L 561.674372 240.073354 
L 561.346738 239.766787 
L 558.920705 237.627513 
L 558.520623 237.286411 
L 556.167038 235.381547 
L 555.428006 234.806035 
L 553.413371 233.306405 
L 552.037339 232.325659 
L 550.659703 231.380922 
L 548.309534 229.845283 
L 547.906036 229.590009 
L 545.152369 227.917841 
L 544.194564 227.364907 
L 542.398702 226.353506 
L 539.645035 224.894133 
L 539.626147 224.88453 
L 536.891368 223.518139 
L 534.502453 222.404154 
L 534.1377 222.236075 
L 531.384033 221.025557 
L 528.686864 219.923778 
L 528.630366 219.900815 
L 525.876699 218.833663 
L 523.123032 217.843948 
L 521.935866 217.443402 
L 520.369365 216.91326 
L 517.615697 216.042174 
L 514.86203 215.237319 
L 513.85667 214.963026 
L 512.108363 214.480843 
L 509.354696 213.77704 
L 506.601029 213.131046 
L 503.847362 212.539964 
L 503.557965 212.48265 
L 501.093694 211.984946 
L 498.340027 211.479592 
L 495.58636 211.023569 
L 492.832693 210.614819 
L 490.079026 210.251476 
L 487.93531 210.002274 
L 487.325359 209.929276 
L 484.571692 209.641758 
L 481.818024 209.396642 
L 479.064357 209.192655 
L 476.31069 209.028666 
L 473.557023 208.903668 
L 470.803356 208.816776 
L 468.049689 208.767216 
L 465.296021 208.754317 
L 462.542354 208.777501 
L 459.788687 208.83628 
L 457.03502 208.930243 
L 454.281353 209.059049 
L 451.527686 209.222426 
L 448.774018 209.420153 
L 446.020351 209.65206 
L 443.266684 209.918019 
L 442.486148 210.002274 
L 440.513017 210.211271 
L 437.75935 210.53498 
L 435.005683 210.891788 
L 432.252015 211.281712 
L 429.498348 211.704773 
L 426.744681 212.160988 
L 424.923798 212.48265 
L 423.991014 212.646154 
L 421.237347 213.155914 
L 418.48368 213.698525 
L 415.730012 214.273985 
L 412.976345 214.882253 
L 412.622933 214.963026 
L 410.222678 215.512517 
L 407.469011 216.173911 
L 404.715344 216.867911 
L 402.523611 217.443402 
L 401.961677 217.592237 
L 399.20801 218.34085 
L 396.454342 219.121903 
L 393.738106 219.923778 
L 393.700675 219.935002 
L 390.947008 220.773422 
L 388.193341 221.644091 
L 385.865159 222.404154 
L 385.439674 222.546209 
L 382.686007 223.47836 
L 379.932339 224.442546 
L 378.692564 224.88453 
L 377.178672 225.440219 
L 374.425005 226.471632 
L 372.102098 227.364907 
L 371.671338 227.536523 
L 368.917671 228.642347 
L 366.164004 229.780715 
L 366.008307 229.845283 
L 363.410336 230.969197 
L 360.656669 232.192285 
L 360.357409 232.325659 
L 357.903002 233.47438 
L 355.149335 234.79459 
L 355.125467 234.806035 
L 352.395668 236.190276 
L 350.276863 237.286411 
L 349.642001 237.636256 
L 346.888333 239.16311 
L 345.810506 239.766787 
L 344.134666 240.774808 
L 341.71861 242.247163 
L 341.380999 242.470055 
L 338.627332 244.294886 
L 337.978873 244.727539 
L 335.873665 246.264683 
L 334.591234 247.207915 
L 333.119998 248.405488 
L 331.551306 249.688291 
L 330.36633 250.774818 
L 328.849312 252.168667 
L 327.612663 253.462667 
L 326.478435 254.649043 
L 324.858996 256.615177 
L 324.434278 257.129419 
L 322.700407 259.609795 
L 322.105329 260.649538 
L 321.274237 262.090172 
L 320.148506 264.570548 
L 319.351662 266.957784 
L 319.320162 267.050924 
L 318.763063 269.5313 
L 318.483626 272.011676 
L 318.471534 274.492052 
L 318.718278 276.972428 
L 319.217185 279.452804 
L 319.351662 279.90209 
L 319.947231 281.93318 
L 320.911129 284.413556 
L 322.105329 286.880776 
L 322.111588 286.893932 
L 323.508112 289.374308 
L 324.858996 291.434697 
L 325.130761 291.854684 
L 326.944643 294.335061 
L 327.612663 295.154381 
L 328.955963 296.815437 
L 330.36633 298.395148 
L 331.165297 299.295813 
L 333.119998 301.313454 
L 333.566327 301.776189 
L 335.873665 303.986174 
L 336.155372 304.256565 
L 338.627332 306.464926 
L 338.931961 306.736941 
L 341.380999 308.785178 
L 341.899441 309.217317 
L 344.134666 310.971742 
L 345.065645 311.697693 
L 346.888333 313.042222 
L 348.443667 314.178069 
L 349.642001 315.00926 
L 352.052772 316.658445 
L 352.395668 316.882023 
L 355.149335 318.670314 
L 355.87772 319.138821 
L 357.903002 320.382917 
L 359.956653 321.619197 
L 360.656669 322.022874 
L 363.410336 323.598212 
L 364.295891 324.099573 
L 366.164004 325.114991 
L 368.917671 326.570856 
L 368.934759 326.579949 
L 371.671338 327.981755 
L 373.845062 329.060326 
L 374.425005 329.338184 
L 377.178672 330.652925 
L 379.088032 331.540702 
L 379.932339 331.920989 
L 382.686007 333.151117 
L 384.688278 334.021078 
L 385.439674 334.338494 
L 388.193341 335.492861 
L 390.686708 336.501454 
L 390.947008 336.604243 
L 393.700675 337.689462 
L 396.454342 338.731808 
L 397.122428 338.98183 
L 399.20801 339.747687 
L 401.961677 340.726871 
L 404.101326 341.462206 
L 404.715344 341.670275 
L 407.469011 342.589138 
L 410.222678 343.468018 
L 411.757125 343.942582 
L 412.976345 344.316652 
L 415.730012 345.13696 
L 418.48368 345.917924 
L 420.34052 346.422958 
L 421.237347 346.666516 
L 423.991014 347.389141 
L 426.744681 348.072445 
L 429.498348 348.716814 
L 430.332764 348.903334 
L 432.252015 349.335148 
L 435.005683 349.919427 
L 437.75935 350.464292 
L 440.513017 350.969965 
L 442.949449 351.38371 
L 443.266684 351.438391 
L 446.020351 351.880412 
L 448.774018 352.282309 
L 451.527686 352.64415 
L 454.281353 352.965951 
L 457.03502 353.247674 
L 459.788687 353.48922 
L 462.542354 353.690421 
L 465.296021 353.851042 
L 465.594537 353.864086 
L 468.049689 353.97469 
z
" clip-path="url(#pf67b3086b1)" style="fill: none; stroke-dasharray: 3.7,1.6; stroke-dashoffset: 0; stroke: #2b2b2b"/>
    <path d="M 462.542354 339.272968 
L 465.296021 339.510088 
L 468.049689 339.69183 
L 470.803356 339.817993 
L 473.557023 339.888221 
L 476.31069 339.902003 
L 479.064357 339.858657 
L 481.818024 339.757327 
L 484.571692 339.596968 
L 487.325359 339.376338 
L 490.079026 339.093986 
L 490.976652 338.98183 
L 492.832693 338.750942 
L 495.58636 338.34463 
L 498.340027 337.87161 
L 501.093694 337.329474 
L 503.847362 336.715532 
L 504.711871 336.501454 
L 506.601029 336.03009 
L 509.354696 335.268548 
L 512.108363 334.425776 
L 513.322052 334.021078 
L 514.86203 333.498892 
L 517.615697 332.483423 
L 519.962556 331.540702 
L 520.369365 331.373198 
L 523.123032 330.160431 
L 525.430157 329.060326 
L 525.876699 328.840282 
L 528.630366 327.39834 
L 530.092403 326.579949 
L 531.384033 325.826457 
L 534.1377 324.114387 
L 534.160435 324.099573 
L 536.891368 322.228863 
L 537.734946 321.619197 
L 539.645035 320.156759 
L 540.912993 319.138821 
L 542.398702 317.864867 
L 543.74858 316.658445 
L 545.152369 315.306675 
L 546.283467 314.178069 
L 547.906036 312.417153 
L 548.549487 311.697693 
L 550.570552 309.217317 
L 550.659703 309.096849 
L 552.368688 306.736941 
L 553.413371 305.114217 
L 553.956641 304.256565 
L 555.348642 301.776189 
L 556.167038 300.095213 
L 556.553021 299.295813 
L 557.581285 296.815437 
L 558.434311 294.335061 
L 558.920705 292.576452 
L 559.120739 291.854684 
L 559.647014 289.374308 
L 560.01143 286.893932 
L 560.216501 284.413556 
L 560.263511 281.93318 
L 560.152527 279.452804 
L 559.882411 276.972428 
L 559.450804 274.492052 
L 558.920705 272.285851 
L 558.854844 272.011676 
L 558.096685 269.5313 
L 557.164272 267.050924 
L 556.167038 264.826729 
L 556.051043 264.570548 
L 554.757052 262.090172 
L 553.413371 259.853806 
L 553.264181 259.609795 
L 551.568363 257.129419 
L 550.659703 255.938481 
L 549.650924 254.649043 
L 547.906036 252.628736 
L 547.49646 252.168667 
L 545.152369 249.755846 
L 545.084359 249.688291 
L 542.398702 247.218282 
L 542.386959 247.207915 
L 539.645035 244.945547 
L 539.368268 244.727539 
L 536.891368 242.888111 
L 535.98233 242.247163 
L 534.1377 241.011049 
L 532.171127 239.766787 
L 531.384033 239.289911 
L 528.630366 237.711473 
L 527.844217 237.286411 
L 525.876699 236.258875 
L 523.123032 234.918625 
L 522.877917 234.806035 
L 520.369365 233.683874 
L 517.615697 232.545073 
L 517.048866 232.325659 
L 514.86203 231.49479 
L 512.108363 230.529218 
L 509.988992 229.845283 
L 509.354696 229.642859 
L 506.601029 228.828938 
L 503.847362 228.088018 
L 501.093694 227.41663 
L 500.860787 227.364907 
L 498.340027 226.80577 
L 495.58636 226.258671 
L 492.832693 225.773312 
L 490.079026 225.347389 
L 487.325359 224.978845 
L 486.498309 224.88453 
L 484.571692 224.662736 
L 481.818024 224.400071 
L 479.064357 224.190779 
L 476.31069 224.033622 
L 473.557023 223.927545 
L 470.803356 223.871664 
L 468.049689 223.865251 
L 465.296021 223.907734 
L 462.542354 223.998676 
L 459.788687 224.137776 
L 457.03502 224.324851 
L 454.281353 224.559834 
L 451.527686 224.842761 
L 451.176659 224.88453 
L 448.774018 225.17055 
L 446.020351 225.545858 
L 443.266684 225.96952 
L 440.513017 226.441963 
L 437.75935 226.963675 
L 435.816293 227.364907 
L 435.005683 227.534319 
L 432.252015 228.153377 
L 429.498348 228.823767 
L 426.744681 229.546207 
L 425.66849 229.845283 
L 423.991014 230.32194 
L 421.237347 231.152229 
L 418.48368 232.03772 
L 417.627481 232.325659 
L 415.730012 232.984035 
L 412.976345 233.990628 
L 410.856862 234.806035 
L 410.222678 235.059793 
L 407.469011 236.201732 
L 404.98357 237.286411 
L 404.715344 237.409188 
L 401.961677 238.704954 
L 399.803653 239.766787 
L 399.20801 240.076945 
L 396.454342 241.550444 
L 395.193344 242.247163 
L 393.700675 243.128333 
L 391.079021 244.727539 
L 390.947008 244.814377 
L 388.193341 246.657905 
L 387.390766 247.207915 
L 385.439674 248.666496 
L 384.099545 249.688291 
L 382.686007 250.877842 
L 381.174442 252.168667 
L 379.932339 253.355387 
L 378.591436 254.649043 
L 377.178672 256.198678 
L 376.334341 257.129419 
L 374.425005 259.569918 
L 374.393817 259.609795 
L 372.734212 262.090172 
L 371.671338 264.035219 
L 371.376683 264.570548 
L 370.284563 267.050924 
L 369.472106 269.5313 
L 368.924082 272.011676 
L 368.917671 272.064765 
L 368.618325 274.492052 
L 368.562347 276.972428 
L 368.748923 279.452804 
L 368.917671 280.437734 
L 369.164571 281.93318 
L 369.801536 284.413556 
L 370.665177 286.893932 
L 371.671338 289.178935 
L 371.75496 289.374308 
L 373.036956 291.854684 
L 374.425005 294.129625 
L 374.547636 294.335061 
L 376.247465 296.815437 
L 377.178672 298.012514 
L 378.162065 299.295813 
L 379.932339 301.355578 
L 380.289948 301.776189 
L 382.627875 304.256565 
L 382.686007 304.312957 
L 385.176495 306.736941 
L 385.439674 306.972227 
L 387.954253 309.217317 
L 388.193341 309.414855 
L 390.947008 311.676687 
L 390.972717 311.697693 
L 393.700675 313.773554 
L 394.239224 314.178069 
L 396.454342 315.737749 
L 397.786111 316.658445 
L 399.20801 317.585573 
L 401.647497 319.138821 
L 401.961677 319.328592 
L 404.715344 320.963556 
L 405.851471 321.619197 
L 407.469011 322.509902 
L 410.222678 323.973535 
L 410.46546 324.099573 
L 412.976345 325.350787 
L 415.56182 326.579949 
L 415.730012 326.657124 
L 418.48368 327.886318 
L 421.237347 329.049475 
L 421.26389 329.060326 
L 423.991014 330.143526 
L 426.744681 331.173898 
L 427.773398 331.540702 
L 429.498348 332.142093 
L 432.252015 333.048891 
L 435.005683 333.895371 
L 435.438275 334.021078 
L 437.75935 334.685424 
L 440.513017 335.41727 
L 443.266684 336.091318 
L 445.087086 336.501454 
L 446.020351 336.710139 
L 448.774018 337.275585 
L 451.527686 337.784851 
L 454.281353 338.238494 
L 457.03502 338.636953 
L 459.788687 338.980543 
L 459.800851 338.98183 
L 462.542354 339.272968 
z
" clip-path="url(#pf67b3086b1)" style="fill: none; stroke-dasharray: 3.7,1.6; stroke-dashoffset: 0; stroke: #2b2b2b"/>
    <path d="M 470.803356 326.597974 
L 473.557023 326.701147 
L 476.31069 326.730223 
L 479.064357 326.684391 
L 481.426604 326.579949 
L 481.818024 326.562379 
L 484.571692 326.360668 
L 487.325359 326.079083 
L 490.079026 325.715774 
L 492.832693 325.268599 
L 495.58636 324.735104 
L 498.340027 324.112507 
L 498.390428 324.099573 
L 501.093694 323.383701 
L 503.847362 322.55695 
L 506.601029 321.628531 
L 506.626272 321.619197 
L 509.354696 320.566812 
L 512.108363 319.390927 
L 512.652539 319.138821 
L 514.86203 318.060429 
L 517.493067 316.658445 
L 517.615697 316.588978 
L 520.369365 314.917016 
L 521.501729 314.178069 
L 523.123032 313.040652 
L 524.916622 311.697693 
L 525.876699 310.916529 
L 527.848132 309.217317 
L 528.630366 308.47583 
L 530.374515 306.736941 
L 531.384033 305.614898 
L 532.553993 304.256565 
L 534.1377 302.174163 
L 534.429372 301.776189 
L 536.019458 299.295813 
L 536.891368 297.695888 
L 537.35791 296.815437 
L 538.45298 294.335061 
L 539.324949 291.854684 
L 539.645035 290.647629 
L 539.977077 289.374308 
L 540.41656 286.893932 
L 540.649822 284.413556 
L 540.678511 281.93318 
L 540.502729 279.452804 
L 540.121033 276.972428 
L 539.645035 274.970154 
L 539.529304 274.492052 
L 538.717375 272.011676 
L 537.683706 269.5313 
L 536.891368 267.966606 
L 536.414154 267.050924 
L 534.891742 264.570548 
L 534.1377 263.505314 
L 533.098153 262.090172 
L 531.384033 260.036253 
L 531.012451 259.609795 
L 528.630366 257.161938 
L 528.597122 257.129419 
L 525.876699 254.711947 
L 525.801861 254.649043 
L 523.123032 252.577562 
L 522.560325 252.168667 
L 520.369365 250.68754 
L 518.785764 249.688291 
L 517.615697 248.994505 
L 514.86203 247.475484 
L 514.340797 247.207915 
L 512.108363 246.119442 
L 509.354696 244.888147 
L 508.965589 244.727539 
L 506.601029 243.7913 
L 503.847362 242.800516 
L 502.15057 242.247163 
L 501.093694 241.913469 
L 498.340027 241.128216 
L 495.58636 240.430319 
L 492.832693 239.816397 
L 492.577965 239.766787 
L 490.079026 239.290165 
L 487.325359 238.841991 
L 484.571692 238.468925 
L 481.818024 238.169013 
L 479.064357 237.940599 
L 476.31069 237.782306 
L 473.557023 237.693024 
L 470.803356 237.671895 
L 468.049689 237.718306 
L 465.296021 237.831872 
L 462.542354 238.012429 
L 459.788687 238.260021 
L 457.03502 238.574895 
L 454.281353 238.95749 
L 451.527686 239.408422 
L 449.622186 239.766787 
L 448.774018 239.931313 
L 446.020351 240.53206 
L 443.266684 241.205761 
L 440.513017 241.953812 
L 439.520793 242.247163 
L 437.75935 242.791143 
L 435.005683 243.716083 
L 432.252015 244.723366 
L 432.241254 244.727539 
L 429.498348 245.851632 
L 426.744681 247.070995 
L 426.451044 247.207915 
L 423.991014 248.433834 
L 421.633438 249.688291 
L 421.237347 249.915914 
L 418.48368 251.575366 
L 417.546269 252.168667 
L 415.730012 253.427205 
L 414.045378 254.649043 
L 412.976345 255.509624 
L 411.040489 257.129419 
L 410.222678 257.901264 
L 408.469352 259.609795 
L 407.469011 260.730971 
L 406.286879 262.090172 
L 404.715344 264.220075 
L 404.461702 264.570548 
L 402.963556 267.050924 
L 401.961677 269.145423 
L 401.77899 269.5313 
L 400.883535 272.011676 
L 400.271909 274.492052 
L 399.93174 276.972428 
L 399.853533 279.452804 
L 400.030536 281.93318 
L 400.458638 284.413556 
L 401.136329 286.893932 
L 401.961677 289.099613 
L 402.0635 289.374308 
L 403.232178 291.854684 
L 404.658237 294.335061 
L 404.715344 294.419648 
L 406.33524 296.815437 
L 407.469011 298.264517 
L 408.281668 299.295813 
L 410.222678 301.462272 
L 410.507586 301.776189 
L 412.976345 304.203817 
L 413.031013 304.256565 
L 415.730012 306.610006 
L 415.879299 306.736941 
L 418.48368 308.760184 
L 419.091056 309.217317 
L 421.237347 310.707738 
L 422.718822 311.697693 
L 423.991014 312.489059 
L 426.744681 314.1268 
L 426.834406 314.178069 
L 429.498348 315.60739 
L 431.573739 316.658445 
L 432.252015 316.983516 
L 435.005683 318.235941 
L 437.128332 319.138821 
L 437.75935 319.394879 
L 440.513017 320.445016 
L 443.266684 321.413465 
L 443.897647 321.619197 
L 446.020351 322.285326 
L 448.774018 323.074229 
L 451.527686 323.785836 
L 452.880352 324.099573 
L 454.281353 324.415121 
L 457.03502 324.964038 
L 459.788687 325.438663 
L 462.542354 325.839327 
L 465.296021 326.166186 
L 468.049689 326.419218 
L 470.52149 326.579949 
L 470.803356 326.597974 
z
" clip-path="url(#pf67b3086b1)" style="fill: none; stroke-dasharray: 3.7,1.6; stroke-dashoffset: 0; stroke: #2b2b2b"/>
   </g>
   <g id="line2d_31">
    <path d="M 89.368823 395.927131 
L 155.181468 385.232576 
L 221.816771 340.80904 
L 300.791945 306.257402 
L 404.446861 266.769814 
L 513.037726 242.090072 
L 632.323145 200.957169 
L 706.362371 172.986795 
" clip-path="url(#pf67b3086b1)" style="fill: none; stroke: #1a1a1a; stroke-width: 2.6; stroke-linecap: square"/>
   </g>
   <g id="patch_35">
    <path d="M 56.4625 556.345453 
L 56.4625 46.297453 
" style="fill: none; stroke: #111111; stroke-width: 1.2; stroke-linejoin: miter; stroke-linecap: square"/>
   </g>
   <g id="patch_36">
    <path d="M 735.155403 556.345453 
L 735.155403 46.297453 
" style="fill: none; stroke: #111111; stroke-width: 1.2; stroke-linejoin: miter; stroke-linecap: square"/>
   </g>
   <g id="patch_37">
    <path d="M 56.4625 556.345453 
L 735.155403 556.345453 
" style="fill: none; stroke: #111111; stroke-width: 1.2; stroke-linejoin: miter; stroke-linecap: square"/>
   </g>
   <g id="patch_38">
    <path d="M 56.4625 46.297453 
L 735.155403 46.297453 
" style="fill: none; stroke: #111111; stroke-width: 1.2; stroke-linejoin: miter; stroke-linecap: square"/>
   </g>
   <g id="text_18">
    <text style="font-size: 7.8px; font-family: 'Source Han Sans CN', 'Noto Sans CJK SC', 'Microsoft YaHei UI', 'Microsoft YaHei', 'PingFang SC', 'Heiti SC', 'SimHei', 'DejaVu Sans', sans-serif; text-anchor: middle; fill: #101010" x="169.166655" y="362.700881" transform="rotate(-0 169.166655 362.700881)">Beacon A</text>
   </g>
   <g id="text_19">
    <text style="font-size: 7.8px; font-family: 'Source Han Sans CN', 'Noto Sans CJK SC', 'Microsoft YaHei UI', 'Microsoft YaHei', 'PingFang SC', 'Heiti SC', 'SimHei', 'DejaVu Sans', sans-serif; text-anchor: middle; fill: #101010" x="238.269932" y="264.804571" transform="rotate(-0 238.269932 264.804571)">Beacon B</text>
   </g>
   <g id="text_20">
    <text style="font-size: 7.8px; font-family: 'Source Han Sans CN', 'Noto Sans CJK SC', 'Microsoft YaHei UI', 'Microsoft YaHei', 'PingFang SC', 'Heiti SC', 'SimHei', 'DejaVu Sans', sans-serif; text-anchor: middle; fill: #101010" x="305.727894" y="328.926806" transform="rotate(-0 305.727894 328.926806)">Mooring</text>
   </g>
   <g id="text_21">
    <text style="font-size: 7.8px; font-family: 'Source Han Sans CN', 'Noto Sans CJK SC', 'Microsoft YaHei UI', 'Microsoft YaHei', 'PingFang SC', 'Heiti SC', 'SimHei', 'DejaVu Sans', sans-serif; text-anchor: middle; fill: #101010" x="389.639016" y="208.041165" transform="rotate(-0 389.639016 208.041165)">Islet East</text>
   </g>
   <g id="text_22">
    <text style="font-size: 7.8px; font-family: 'Source Han Sans CN', 'Noto Sans CJK SC', 'Microsoft YaHei UI', 'Microsoft YaHei', 'PingFang SC', 'Heiti SC', 'SimHei', 'DejaVu Sans', sans-serif; text-anchor: middle; fill: #101010" x="451.338371" y="370.927461" transform="rotate(-0 451.338371 370.927461)">Cluster C</text>
   </g>
   <g id="text_23">
    <text style="font-size: 7.8px; font-family: 'Source Han Sans CN', 'Noto Sans CJK SC', 'Microsoft YaHei UI', 'Microsoft YaHei', 'PingFang SC', 'Heiti SC', 'SimHei', 'DejaVu Sans', sans-serif; text-anchor: middle; fill: #101010" x="541.830758" y="298.533552" transform="rotate(-0 541.830758 298.533552)">Shoal South</text>
   </g>
   <g id="text_24">
    <text style="font-size: 7.8px; font-family: 'Source Han Sans CN', 'Noto Sans CJK SC', 'Microsoft YaHei UI', 'Microsoft YaHei', 'PingFang SC', 'Heiti SC', 'SimHei', 'DejaVu Sans', sans-serif; text-anchor: middle; fill: #101010" x="608.466061" y="211.331797" transform="rotate(-0 608.466061 211.331797)">Breakwater Tip</text>
   </g>
   <g id="text_25">
    <text style="font-size: 7.8px; font-family: 'Source Han Sans CN', 'Noto Sans CJK SC', 'Microsoft YaHei UI', 'Microsoft YaHei', 'PingFang SC', 'Heiti SC', 'SimHei', 'DejaVu Sans', sans-serif; text-anchor: middle; fill: #101010" x="168.343997" y="177.191487" transform="rotate(-0 168.343997 177.191487)">West Pier Zone</text>
   </g>
   <g id="text_26">
    <text style="font-size: 7.8px; font-family: 'Source Han Sans CN', 'Noto Sans CJK SC', 'Microsoft YaHei UI', 'Microsoft YaHei', 'PingFang SC', 'Heiti SC', 'SimHei', 'DejaVu Sans', sans-serif; text-anchor: middle; fill: #101010" x="376.682152" y="138.320894" transform="rotate(-0 376.682152 138.320894)">Central Terminal</text>
   </g>
   <g id="text_27">
    <text style="font-size: 7.8px; font-family: 'Source Han Sans CN', 'Noto Sans CJK SC', 'Microsoft YaHei UI', 'Microsoft YaHei', 'PingFang SC', 'Heiti SC', 'SimHei', 'DejaVu Sans', sans-serif; text-anchor: middle; fill: #101010" x="551.291326" y="389.209056" transform="rotate(-0 551.291326 389.209056)">South Cargo Apron</text>
   </g>
   <g id="text_28">
    <text style="font-size: 7.8px; font-family: 'Source Han Sans CN', 'Noto Sans CJK SC', 'Microsoft YaHei UI', 'Microsoft YaHei', 'PingFang SC', 'Heiti SC', 'SimHei', 'DejaVu Sans', sans-serif; text-anchor: middle; fill: #101010" x="661.321842" y="245.472106" transform="rotate(-0 661.321842 245.472106)">East Dock Basin</text>
   </g>
   <g id="text_29">
    <text style="font-size: 9px; font-family: 'Source Han Sans CN', 'Noto Sans CJK SC', 'Microsoft YaHei UI', 'Microsoft YaHei', 'PingFang SC', 'Heiti SC', 'SimHei', 'DejaVu Sans', sans-serif; text-anchor: middle; fill: #101010" x="89.368823" y="409.455973" transform="rotate(-0 89.368823 409.455973)">Own Ship</text>
   </g>
   <g id="text_30">
    <text style="font-size: 9px; font-family: 'Source Han Sans CN', 'Noto Sans CJK SC', 'Microsoft YaHei UI', 'Microsoft YaHei', 'PingFang SC', 'Heiti SC', 'SimHei', 'DejaVu Sans', sans-serif; text-anchor: middle; fill: #101010" x="256.36841" y="113.247038" transform="rotate(-0 256.36841 113.247038)">Target A</text>
   </g>
   <g id="text_31">
    <text style="font-size: 9px; font-family: 'Source Han Sans CN', 'Noto Sans CJK SC', 'Microsoft YaHei UI', 'Microsoft YaHei', 'PingFang SC', 'Heiti SC', 'SimHei', 'DejaVu Sans', sans-serif; text-anchor: middle; fill: #101010" x="473.550139" y="469.45798" transform="rotate(-0 473.550139 469.45798)">Target B</text>
   </g>
   <g id="text_32">
    <text style="font-size: 9px; font-family: 'Source Han Sans CN', 'Noto Sans CJK SC', 'Microsoft YaHei UI', 'Microsoft YaHei', 'PingFang SC', 'Heiti SC', 'SimHei', 'DejaVu Sans', sans-serif; text-anchor: middle; fill: #101010" x="592.0129" y="193.04487" transform="rotate(-0 592.0129 193.04487)">Target C</text>
   </g>
   <g id="text_33">
    <text style="font-size: 9.5px; font-family: 'Source Han Sans CN', 'Noto Sans CJK SC', 'Microsoft YaHei UI', 'Microsoft YaHei', 'PingFang SC', 'Heiti SC', 'SimHei', 'DejaVu Sans', sans-serif; text-anchor: middle; fill: #101010" x="706.362371" y="158.17895" transform="rotate(-0 706.362371 158.17895)">Goal</text>
   </g>
   <g id="text_34">
    <text style="font-size: 9.5px; font-family: 'Source Han Sans CN', 'Noto Sans CJK SC', 'Microsoft YaHei UI', 'Microsoft YaHei', 'PingFang SC', 'Heiti SC', 'SimHei', 'DejaVu Sans', sans-serif; text-anchor: start; fill: #101010" x="103.35401" y="410.734976" transform="rotate(-0 103.35401 410.734976)">Start</text>
   </g>
   <g id="patch_39">
    <path d="M 374.873799 239.109385 
Q 397.00903 251.225105 418.163527 262.804019 
" style="fill: none; stroke: #111111; stroke-linecap: round"/>
    <path d="M 415.818892 259.42309 
L 418.163527 262.804019 
L 414.052002 262.65117 
" style="fill: none; stroke: #111111; stroke-linecap: round"/>
   </g>
   <g id="text_35">
    <text style="font-size: 9.2px; font-family: 'Source Han Sans CN', 'Noto Sans CJK SC', 'Microsoft YaHei UI', 'Microsoft YaHei', 'PingFang SC', 'Heiti SC', 'SimHei', 'DejaVu Sans', sans-serif; text-anchor: start; fill: #101010" x="346.860797" y="233.863492" transform="rotate(-0 346.860797 233.863492)">窄通道</text>
   </g>
   <g id="patch_40">
    <path d="M 566.228106 171.03477 
Q 569.968289 207.211709 573.593496 242.276541 
" style="fill: none; stroke: #111111; stroke-linecap: round"/>
    <path d="M 575.045298 238.426831 
L 573.593496 242.276541 
L 571.384809 238.805273 
" style="fill: none; stroke: #111111; stroke-linecap: round"/>
   </g>
   <g id="text_36">
    <text style="font-size: 9.2px; font-family: 'Source Han Sans CN', 'Noto Sans CJK SC', 'Microsoft YaHei UI', 'Microsoft YaHei', 'PingFang SC', 'Heiti SC', 'SimHei', 'DejaVu Sans', sans-serif; text-anchor: start; fill: #101010" x="537.717468" y="164.760214" transform="rotate(-0 537.717468 164.760214)">受限机动空间</text>
   </g>
   <g id="text_37">
    <text style="font-size: 9px; font-family: 'Source Han Sans CN', 'Noto Sans CJK SC', 'Microsoft YaHei UI', 'Microsoft YaHei', 'PingFang SC', 'Heiti SC', 'SimHei', 'DejaVu Sans', sans-serif; text-anchor: start; fill: #2b2b2b" x="476.018113" y="311.19335" transform="rotate(-0 476.018113 311.19335)">Harbor Conflict Zone</text>
   </g>
   <g id="text_38">
    <text style="font-size: 9px; font-family: 'Source Han Sans CN', 'Noto Sans CJK SC', 'Microsoft YaHei UI', 'Microsoft YaHei', 'PingFang SC', 'Heiti SC', 'SimHei', 'DejaVu Sans', sans-serif; text-anchor: start; fill: #4d4d4d" x="159.294758" y="157.356292" transform="rotate(-0 159.294758 157.356292)">Harbor Set</text>
   </g>
   <g id="text_39">
    <text style="font-size: 13.5px; font-family: 'Source Han Sans CN', 'Noto Sans CJK SC', 'Microsoft YaHei UI', 'Microsoft YaHei', 'PingFang SC', 'Heiti SC', 'SimHei', 'DejaVu Sans', sans-serif; fill: #101010" transform="translate(308.853131 17.991562)">图8 港口高密障碍场景示意图</text>
    <text style="font-size: 13.5px; font-family: 'Source Han Sans CN', 'Noto Sans CJK SC', 'Microsoft YaHei UI', 'Microsoft YaHei', 'PingFang SC', 'Heiti SC', 'SimHei', 'DejaVu Sans', sans-serif; fill: #101010" transform="translate(186.558952 34.297453)">含受限航道、密集障碍物、目标船会遇、局部风险场和受限机动空间。</text>
   </g>
   <g id="PathCollection_1">
    <defs>
     <path id="m520ba63040" d="M 0 -6.708204 
L -1.506086 -2.072949 
L -6.379881 -2.072949 
L -2.436898 0.791796 
L -3.942983 5.427051 
L -0 2.562306 
L 3.942983 5.427051 
L 2.436898 0.791796 
L 6.379881 -2.072949 
L 1.506086 -2.072949 
z
" style="stroke: #111111"/>
    </defs>
    <g clip-path="url(#pf67b3086b1)">
     <use xlink:href="#m520ba63040" x="706.362371" y="172.986795" style="fill: #555555; stroke: #111111"/>
    </g>
   </g>
  </g>
 </g>
 <defs>
  <clipPath id="pf67b3086b1">
   <rect x="56.4625" y="46.297453" width="678.692903" height="510.048"/>
  </clipPath>
 </defs>
 <defs>
  <pattern id="h47722f52cb" patternUnits="userSpaceOnUse" x="0" y="0" width="72" height="72">
   <rect x="0" y="0" width="73" height="73" fill="none"/>
   <path d="M -36 36 
L 36 -36 
M -32 40 
L 40 -32 
M -28 44 
L 44 -28 
M -24 48 
L 48 -24 
M -20 52 
L 52 -20 
M -16 56 
L 56 -16 
M -12 60 
L 60 -12 
M -8 64 
L 64 -8 
M -4 68 
L 68 -4 
M 0 72 
L 72 0 
M 4 76 
L 76 4 
M 8 80 
L 80 8 
M 12 84 
L 84 12 
M 16 88 
L 88 16 
M 20 92 
L 92 20 
M 24 96 
L 96 24 
M 28 100 
L 100 28 
M 32 104 
L 104 32 
M 36 108 
L 108 36 
" style="fill: #333333; stroke: #333333; stroke-width: 1.0; stroke-linecap: butt; stroke-linejoin: miter"/>
  </pattern>
 </defs>
</svg>
