<?xml version="1.0" encoding="utf-8" standalone="no"?>
<!DOCTYPE svg PUBLIC "-//W3C//DTD SVG 1.1//EN"
  "http://www.w3.org/Graphics/SVG/1.1/DTD/svg11.dtd">
<svg xmlns:xlink="http://www.w3.org/1999/xlink" width="823.5pt" height="469.008pt" viewBox="0 0 823.5 469.008" xmlns="http://www.w3.org/2000/svg" version="1.1">
 <metadata>
  <rdf:RDF xmlns:dc="http://purl.org/dc/elements/1.1/" xmlns:cc="http://creativecommons.org/ns#" xmlns:rdf="http://www.w3.org/1999/02/22-rdf-syntax-ns#">
   <cc:Work>
    <dc:type rdf:resource="http://purl.org/dc/dcmitype/StillImage"/>
    <dc:date>2026-04-15T00:23:08.602755</dc:date>
    <dc:format>image/svg+xml</dc:format>
    <dc:creator>
     <cc:Agent>
      <dc:title>Matplotlib v3.10.7, https://matplotlib.org/</dc:title>
     </cc:Agent>
    </dc:creator>
   </cc:Work>
  </rdf:RDF>
 </metadata>
 <defs>
  <style type="text/css">*{stroke-linejoin: round; stroke-linecap: butt}</style>
 </defs>
 <g id="figure_1">
  <g id="patch_1">
   <path d="M 0 469.008 
L 823.5 469.008 
L 823.5 -0 
L 0 -0 
z
" style="fill: #ffffff"/>
  </g>
  <g id="axes_1">
   <g id="patch_2">
    <path d="M 120.474 186.315552 
L 175.4928 186.315552 
Q 196.5294 186.315552 196.5294 174.495744 
L 196.5294 148.12848 
Q 196.5294 136.308672 175.4928 136.308672 
L 120.474 136.308672 
Q 99.4374 136.308672 99.4374 148.12848 
L 99.4374 174.495744 
Q 99.4374 186.315552 120.474 186.315552 
z
" clip-path="url(#p498d694725)" style="fill: #dfe7f1; opacity: 0.35"/>
   </g>
   <g id="patch_3">
    <path d="M 209.475 186.315552 
L 264.4938 186.315552 
Q 285.5304 186.315552 285.5304 174.495744 
L 285.5304 148.12848 
Q 285.5304 136.308672 264.4938 136.308672 
L 209.475 136.308672 
Q 188.4384 136.308672 188.4384 148.12848 
L 188.4384 174.495744 
Q 188.4384 186.315552 209.475 186.315552 
z
" clip-path="url(#p498d694725)" style="fill: #dfe7f1; opacity: 0.35"/>
   </g>
   <g id="patch_4">
    <path d="M 187.204997 159.49368 
Q 189.248699 159.49368 190.286171 159.49368 
" clip-path="url(#p498d694725)" style="fill: none; stroke: #475467; stroke-width: 0.9; stroke-linecap: round"/>
    <path d="M 187.086171 157.89368 
L 190.286171 159.49368 
L 187.086171 161.09368 
z
" clip-path="url(#p498d694725)" style="fill: #475467; stroke: #475467; stroke-width: 0.9; stroke-linecap: round"/>
   </g>
   <g id="patch_5">
    <path d="M 276.203034 159.49368 
Q 298.477426 159.49368 319.745588 159.49368 
" clip-path="url(#p498d694725)" style="fill: none; stroke-dasharray: 3.33,1.44; stroke-dashoffset: 0; stroke: #d7dee8; stroke-width: 0.9; stroke-linecap: round"/>
    <path d="M 316.545588 157.89368 
L 319.745588 159.49368 
L 316.545588 161.09368 
z
" clip-path="url(#p498d694725)" style="fill: #d7dee8; stroke-dasharray: 3.33,1.44; stroke-dashoffset: 0; stroke: #d7dee8; stroke-width: 0.9; stroke-linecap: round"/>
   </g>
   <g id="patch_6">
    <path d="M 338.931 186.315552 
L 393.9498 186.315552 
Q 414.9864 186.315552 414.9864 174.495744 
L 414.9864 148.12848 
Q 414.9864 136.308672 393.9498 136.308672 
L 338.931 136.308672 
Q 317.8944 136.308672 317.8944 148.12848 
L 317.8944 174.495744 
Q 317.8944 186.315552 338.931 186.315552 
z
" clip-path="url(#p498d694725)" style="fill: #dfe7f1; opacity: 0.35"/>
   </g>
   <g id="patch_7">
    <path d="M 427.932 186.315552 
L 482.9508 186.315552 
Q 503.9874 186.315552 503.9874 174.495744 
L 503.9874 148.12848 
Q 503.9874 136.308672 482.9508 136.308672 
L 427.932 136.308672 
Q 406.8954 136.308672 406.8954 148.12848 
L 406.8954 174.495744 
Q 406.8954 186.315552 427.932 186.315552 
z
" clip-path="url(#p498d694725)" style="fill: #dfe7f1; opacity: 0.35"/>
   </g>
   <g id="patch_8">
    <path d="M 405.661997 159.49368 
Q 407.705699 159.49368 408.743171 159.49368 
" clip-path="url(#p498d694725)" style="fill: none; stroke: #475467; stroke-width: 0.9; stroke-linecap: round"/>
    <path d="M 405.543171 157.89368 
L 408.743171 159.49368 
L 405.543171 161.09368 
z
" clip-path="url(#p498d694725)" style="fill: #475467; stroke: #475467; stroke-width: 0.9; stroke-linecap: round"/>
   </g>
   <g id="patch_9">
    <path d="M 494.660034 159.49368 
Q 516.934426 159.49368 538.202588 159.49368 
" clip-path="url(#p498d694725)" style="fill: none; stroke-dasharray: 3.33,1.44; stroke-dashoffset: 0; stroke: #d7dee8; stroke-width: 0.9; stroke-linecap: round"/>
    <path d="M 535.002588 157.89368 
L 538.202588 159.49368 
L 535.002588 161.09368 
z
" clip-path="url(#p498d694725)" style="fill: #d7dee8; stroke-dasharray: 3.33,1.44; stroke-dashoffset: 0; stroke: #d7dee8; stroke-width: 0.9; stroke-linecap: round"/>
   </g>
   <g id="patch_10">
    <path d="M 557.388 186.315552 
L 612.4068 186.315552 
Q 633.4434 186.315552 633.4434 174.495744 
L 633.4434 148.12848 
Q 633.4434 136.308672 612.4068 136.308672 
L 557.388 136.308672 
Q 536.3514 136.308672 536.3514 148.12848 
L 536.3514 174.495744 
Q 536.3514 186.315552 557.388 186.315552 
z
" clip-path="url(#p498d694725)" style="fill: #dfe7f1; opacity: 0.35"/>
   </g>
   <g id="patch_11">
    <path d="M 646.389 186.315552 
L 701.4078 186.315552 
Q 722.4444 186.315552 722.4444 174.495744 
L 722.4444 148.12848 
Q 722.4444 136.308672 701.4078 136.308672 
L 646.389 136.308672 
Q 625.3524 136.308672 625.3524 148.12848 
L 625.3524 174.495744 
Q 625.3524 186.315552 646.389 186.315552 
z
" clip-path="url(#p498d694725)" style="fill: #dfe7f1; opacity: 0.35"/>
   </g>
   <g id="patch_12">
    <path d="M 624.118997 159.49368 
Q 626.162699 159.49368 627.200171 159.49368 
" clip-path="url(#p498d694725)" style="fill: none; stroke: #475467; stroke-width: 0.9; stroke-linecap: round"/>
    <path d="M 624.000171 157.89368 
L 627.200171 159.49368 
L 624.000171 161.09368 
z
" clip-path="url(#p498d694725)" style="fill: #475467; stroke: #475467; stroke-width: 0.9; stroke-linecap: round"/>
   </g>
   <g id="patch_13">
    <path d="M 713.117034 159.49368 
Q 735.391426 159.49368 756.659588 159.49368 
" clip-path="url(#p498d694725)" style="fill: none; stroke-dasharray: 3.33,1.44; stroke-dashoffset: 0; stroke: #d7dee8; stroke-width: 0.9; stroke-linecap: round"/>
    <path d="M 753.459588 157.89368 
L 756.659588 159.49368 
L 753.459588 161.09368 
z
" clip-path="url(#p498d694725)" style="fill: #d7dee8; stroke-dasharray: 3.33,1.44; stroke-dashoffset: 0; stroke: #d7dee8; stroke-width: 0.9; stroke-linecap: round"/>
   </g>
   <g id="patch_14">
    <path d="M 685.200608 160.619556 
Q 430.969879 -16.326816 147.503957 106.020844 
" clip-path="url(#p498d694725)" style="fill: none; stroke-dasharray: 3.33,1.44; stroke-dashoffset: 0; stroke: #d7dee8; stroke-width: 0.9; stroke-linecap: round"/>
    <path d="M 151.07602 106.221765 
L 147.503957 106.020844 
L 149.807932 103.283747 
z
" clip-path="url(#p498d694725)" style="fill: #d7dee8; stroke-dasharray: 3.33,1.44; stroke-dashoffset: 0; stroke: #d7dee8; stroke-width: 0.9; stroke-linecap: round"/>
   </g>
   <g id="line2d_1">
    <path d="M 63.837 225.41184 
L 759.663 225.41184 
" clip-path="url(#p498d694725)" style="fill: none; stroke: #475467; stroke-linecap: round"/>
   </g>
   <g id="patch_15">
    <path d="M 117.2376 184.49712 
L 172.2564 184.49712 
Q 193.293 184.49712 193.293 172.677312 
L 193.293 146.310048 
Q 193.293 134.49024 172.2564 134.49024 
L 117.2376 134.49024 
Q 96.201 134.49024 96.201 146.310048 
L 96.201 172.677312 
Q 96.201 184.49712 117.2376 184.49712 
z
" clip-path="url(#p498d694725)" style="fill: #f4f8fe; stroke: #475467; stroke-linejoin: miter"/>
   </g>
   <g id="patch_16">
    <path d="M 206.2386 184.49712 
L 261.2574 184.49712 
Q 282.294 184.49712 282.294 172.677312 
L 282.294 146.310048 
Q 282.294 134.49024 261.2574 134.49024 
L 206.2386 134.49024 
Q 185.202 134.49024 185.202 146.310048 
L 185.202 172.677312 
Q 185.202 184.49712 206.2386 184.49712 
z
" clip-path="url(#p498d694725)" style="fill: #eef9f1; stroke: #475467; stroke-linejoin: miter"/>
   </g>
   <g id="line2d_2">
    <path d="M 144.747 225.41184 
L 233.748 225.41184 
" clip-path="url(#p498d694725)" style="fill: none; stroke: #d7dee8; stroke-width: 1.2; stroke-linecap: round"/>
   </g>
   <g id="line2d_3">
    <path d="M 128.565 243.59616 
L 169.02 252.68832 
" clip-path="url(#p498d694725)" style="fill: none; stroke: #4a78b8; stroke-width: 1.2; stroke-linecap: round"/>
   </g>
   <g id="line2d_4">
    <path d="M 209.475 261.78048 
L 258.021 270.87264 
" clip-path="url(#p498d694725)" style="fill: none; stroke: #b07243; stroke-width: 1.2; stroke-linecap: round"/>
   </g>
   <g id="patch_17">
    <path d="M 335.6946 184.49712 
L 390.7134 184.49712 
Q 411.75 184.49712 411.75 172.677312 
L 411.75 146.310048 
Q 411.75 134.49024 390.7134 134.49024 
L 335.6946 134.49024 
Q 314.658 134.49024 314.658 146.310048 
L 314.658 172.677312 
Q 314.658 184.49712 335.6946 184.49712 
z
" clip-path="url(#p498d694725)" style="fill: #f4f8fe; stroke: #475467; stroke-linejoin: miter"/>
   </g>
   <g id="patch_18">
    <path d="M 424.6956 184.49712 
L 479.7144 184.49712 
Q 500.751 184.49712 500.751 172.677312 
L 500.751 146.310048 
Q 500.751 134.49024 479.7144 134.49024 
L 424.6956 134.49024 
Q 403.659 134.49024 403.659 146.310048 
L 403.659 172.677312 
Q 403.659 184.49712 424.6956 184.49712 
z
" clip-path="url(#p498d694725)" style="fill: #eef9f1; stroke: #475467; stroke-linejoin: miter"/>
   </g>
   <g id="line2d_5">
    <path d="M 363.204 225.41184 
L 452.205 225.41184 
" clip-path="url(#p498d694725)" style="fill: none; stroke: #d7dee8; stroke-width: 1.2; stroke-linecap: round"/>
   </g>
   <g id="line2d_6">
    <path d="M 347.022 225.41184 
L 387.477 234.504 
" clip-path="url(#p498d694725)" style="fill: none; stroke: #4a78b8; stroke-width: 1.2; stroke-linecap: round"/>
   </g>
   <g id="line2d_7">
    <path d="M 427.932 225.41184 
L 476.478 234.504 
" clip-path="url(#p498d694725)" style="fill: none; stroke: #b07243; stroke-width: 1.2; stroke-linecap: round"/>
   </g>
   <g id="patch_19">
    <path d="M 554.1516 184.49712 
L 609.1704 184.49712 
Q 630.207 184.49712 630.207 172.677312 
L 630.207 146.310048 
Q 630.207 134.49024 609.1704 134.49024 
L 554.1516 134.49024 
Q 533.115 134.49024 533.115 146.310048 
L 533.115 172.677312 
Q 533.115 184.49712 554.1516 184.49712 
z
" clip-path="url(#p498d694725)" style="fill: #f4f8fe; stroke: #475467; stroke-linejoin: miter"/>
   </g>
   <g id="patch_20">
    <path d="M 643.1526 184.49712 
L 698.1714 184.49712 
Q 719.208 184.49712 719.208 172.677312 
L 719.208 146.310048 
Q 719.208 134.49024 698.1714 134.49024 
L 643.1526 134.49024 
Q 622.116 134.49024 622.116 146.310048 
L 622.116 172.677312 
Q 622.116 184.49712 643.1526 184.49712 
z
" clip-path="url(#p498d694725)" style="fill: #eef9f1; stroke: #475467; stroke-linejoin: miter"/>
   </g>
   <g id="line2d_8">
    <path d="M 581.661 225.41184 
L 670.662 225.41184 
" clip-path="url(#p498d694725)" style="fill: none; stroke: #d7dee8; stroke-width: 1.2; stroke-linecap: round"/>
   </g>
   <g id="line2d_9">
    <path d="M 565.479 207.22752 
L 605.934 216.31968 
" clip-path="url(#p498d694725)" style="fill: none; stroke: #4a78b8; stroke-width: 1.2; stroke-linecap: round"/>
   </g>
   <g id="line2d_10">
    <path d="M 646.389 189.0432 
L 694.935 198.13536 
" clip-path="url(#p498d694725)" style="fill: none; stroke: #b07243; stroke-width: 1.2; stroke-linecap: round"/>
   </g>
   <g id="line2d_11">
    <path d="M 80.019 325.4256 
L 201.384 307.24128 
L 411.75 243.59616 
L 630.207 198.13536 
L 735.39 161.76672 
" clip-path="url(#p498d694725)" style="fill: none; stroke: #4a78b8; stroke-width: 2.5; stroke-linecap: square"/>
   </g>
   <g id="text_1">
    <text style="font-weight: 700; font-size: 18px; font-family: 'Source Han Sans CN', 'Noto Sans CJK SC', 'Microsoft YaHei UI', 'Microsoft YaHei', 'PingFang SC', 'Heiti SC', 'SimHei', 'DejaVu Sans', sans-serif; text-anchor: start; fill: #1f2937" x="31.473" y="44.31915" transform="rotate(-0 31.473 44.31915)">图6 滚动重规划执行示意图</text>
   </g>
   <g id="text_2">
    <text style="font-size: 10.6px; font-family: 'Source Han Sans CN', 'Noto Sans CJK SC', 'Microsoft YaHei UI', 'Microsoft YaHei', 'PingFang SC', 'Heiti SC', 'SimHei', 'DejaVu Sans', sans-serif; text-anchor: start; fill: #667085" x="31.473" y="56.588095" transform="rotate(-0 31.473 56.588095)">规划周期由局部规划时域和执行时域组成；每次只执行代表轨迹前段，再触发下一轮规划。</text>
   </g>
   <g id="text_3">
    <text style="font-size: 10.2px; font-family: 'Source Han Sans CN', 'Noto Sans CJK SC', 'Microsoft YaHei UI', 'Microsoft YaHei', 'PingFang SC', 'Heiti SC', 'SimHei', 'DejaVu Sans', sans-serif; text-anchor: start; fill: #1f2937" x="767.754" y="228.220824" transform="rotate(-0 767.754 228.220824)">时间</text>
   </g>
   <g id="text_4">
    <text style="font-size: 10.2px; font-family: 'Source Han Sans CN', 'Noto Sans CJK SC', 'Microsoft YaHei UI', 'Microsoft YaHei', 'PingFang SC', 'Heiti SC', 'SimHei', 'DejaVu Sans', sans-serif; text-anchor: middle; fill: #1f2937" x="144.747" y="162.302664" transform="rotate(-0 144.747 162.302664)">局部规划时域</text>
   </g>
   <g id="text_5">
    <text style="font-size: 10.2px; font-family: 'Source Han Sans CN', 'Noto Sans CJK SC', 'Microsoft YaHei UI', 'Microsoft YaHei', 'PingFang SC', 'Heiti SC', 'SimHei', 'DejaVu Sans', sans-serif; text-anchor: middle; fill: #1f2937" x="233.748" y="162.302664" transform="rotate(-0 233.748 162.302664)">执行时域</text>
   </g>
   <g id="text_6">
    <text style="font-size: 10.2px; font-family: 'Source Han Sans CN', 'Noto Sans CJK SC', 'Microsoft YaHei UI', 'Microsoft YaHei', 'PingFang SC', 'Heiti SC', 'SimHei', 'DejaVu Sans', sans-serif; text-anchor: middle; fill: #1f2937" x="363.204" y="162.302664" transform="rotate(-0 363.204 162.302664)">局部规划时域</text>
   </g>
   <g id="text_7">
    <text style="font-size: 10.2px; font-family: 'Source Han Sans CN', 'Noto Sans CJK SC', 'Microsoft YaHei UI', 'Microsoft YaHei', 'PingFang SC', 'Heiti SC', 'SimHei', 'DejaVu Sans', sans-serif; text-anchor: middle; fill: #1f2937" x="452.205" y="162.302664" transform="rotate(-0 452.205 162.302664)">执行时域</text>
   </g>
   <g id="text_8">
    <text style="font-size: 10.2px; font-family: 'Source Han Sans CN', 'Noto Sans CJK SC', 'Microsoft YaHei UI', 'Microsoft YaHei', 'PingFang SC', 'Heiti SC', 'SimHei', 'DejaVu Sans', sans-serif; text-anchor: middle; fill: #1f2937" x="581.661" y="162.302664" transform="rotate(-0 581.661 162.302664)">局部规划时域</text>
   </g>
   <g id="text_9">
    <text style="font-size: 10.2px; font-family: 'Source Han Sans CN', 'Noto Sans CJK SC', 'Microsoft YaHei UI', 'Microsoft YaHei', 'PingFang SC', 'Heiti SC', 'SimHei', 'DejaVu Sans', sans-serif; text-anchor: middle; fill: #1f2937" x="670.662" y="162.302664" transform="rotate(-0 670.662 162.302664)">执行时域</text>
   </g>
   <g id="text_10">
    <text style="font-size: 10.2px; font-family: 'Source Han Sans CN', 'Noto Sans CJK SC', 'Microsoft YaHei UI', 'Microsoft YaHei', 'PingFang SC', 'Heiti SC', 'SimHei', 'DejaVu Sans', sans-serif; text-anchor: middle; fill: #1f2937" x="387.477" y="139.03632" transform="rotate(-0 387.477 139.03632)">仅执行代表轨迹前段</text>
   </g>
   <g id="text_11">
    <text style="font-size: 9.4px; font-family: 'Source Han Sans CN', 'Noto Sans CJK SC', 'Microsoft YaHei UI', 'Microsoft YaHei', 'PingFang SC', 'Heiti SC', 'SimHei', 'DejaVu Sans', sans-serif; text-anchor: middle; fill: #667085" x="423.8865" y="123.440672" transform="rotate(-0 423.8865 123.440672)">环境更新后再次规划</text>
   </g>
   <g id="text_12">
    <text style="font-size: 9.4px; font-family: 'Source Han Sans CN', 'Noto Sans CJK SC', 'Microsoft YaHei UI', 'Microsoft YaHei', 'PingFang SC', 'Heiti SC', 'SimHei', 'DejaVu Sans', sans-serif; text-anchor: start; fill: #667085" x="88.11" y="407.25504" transform="rotate(-0 88.11 407.25504)">关键点：本发明不是一次性全局规划，而是局部规划、局部执行、持续更新的闭环。</text>
   </g>
  </g>
 </g>
 <defs>
  <clipPath id="p498d694725">
   <rect x="7.2" y="7.2" width="809.1" height="454.608"/>
  </clipPath>
 </defs>
</svg>
