<?xml version="1.0" encoding="utf-8" standalone="no"?>
<!DOCTYPE svg PUBLIC "-//W3C//DTD SVG 1.1//EN"
  "http://www.w3.org/Graphics/SVG/1.1/DTD/svg11.dtd">
<svg xmlns:xlink="http://www.w3.org/1999/xlink" width="750.96pt" height="341.496pt" viewBox="0 0 750.96 341.496" xmlns="http://www.w3.org/2000/svg" version="1.1">
 <metadata>
  <rdf:RDF xmlns:dc="http://purl.org/dc/elements/1.1/" xmlns:cc="http://creativecommons.org/ns#" xmlns:rdf="http://www.w3.org/1999/02/22-rdf-syntax-ns#">
   <cc:Work>
    <dc:type rdf:resource="http://purl.org/dc/dcmitype/StillImage"/>
    <dc:date>2026-04-15T00:23:11.916141</dc:date>
    <dc:format>image/svg+xml</dc:format>
    <dc:creator>
     <cc:Agent>
      <dc:title>Matplotlib v3.10.7, https://matplotlib.org/</dc:title>
     </cc:Agent>
    </dc:creator>
   </cc:Work>
  </rdf:RDF>
 </metadata>
 <defs>
  <style type="text/css">*{stroke-linejoin: round; stroke-linecap: butt}</style>
 </defs>
 <g id="figure_1">
  <g id="patch_1">
   <path d="M 0 341.496 
L 750.96 341.496 
L 750.96 -0 
L 0 -0 
z
" style="fill: #ffffff"/>
  </g>
  <g id="axes_1">
   <g id="patch_2">
    <path d="M 46.97424 299.623824 
L 150.09264 299.623824 
Q 172.18944 299.623824 172.18944 289.810944 
L 172.18944 54.301824 
Q 172.18944 44.488944 150.09264 44.488944 
L 46.97424 44.488944 
Q 24.87744 44.488944 24.87744 54.301824 
L 24.87744 289.810944 
Q 24.87744 299.623824 46.97424 299.623824 
z
" clip-path="url(#p9d41ea8049)" style="fill: #dfe7f1; opacity: 0.35"/>
   </g>
   <g id="patch_3">
    <path d="M 231.11424 299.623824 
L 334.23264 299.623824 
Q 356.32944 299.623824 356.32944 289.810944 
L 356.32944 54.301824 
Q 356.32944 44.488944 334.23264 44.488944 
L 231.11424 44.488944 
Q 209.01744 44.488944 209.01744 54.301824 
L 209.01744 289.810944 
Q 209.01744 299.623824 231.11424 299.623824 
z
" clip-path="url(#p9d41ea8049)" style="fill: #dfe7f1; opacity: 0.35"/>
   </g>
   <g id="patch_4">
    <path d="M 422.61984 299.623824 
L 525.73824 299.623824 
Q 547.83504 299.623824 547.83504 289.810944 
L 547.83504 54.301824 
Q 547.83504 44.488944 525.73824 44.488944 
L 422.61984 44.488944 
Q 400.52304 44.488944 400.52304 54.301824 
L 400.52304 289.810944 
Q 400.52304 299.623824 422.61984 299.623824 
z
" clip-path="url(#p9d41ea8049)" style="fill: #dfe7f1; opacity: 0.35"/>
   </g>
   <g id="patch_5">
    <path d="M 606.75984 299.623824 
L 709.87824 299.623824 
Q 731.97504 299.623824 731.97504 289.810944 
L 731.97504 54.301824 
Q 731.97504 44.488944 709.87824 44.488944 
L 606.75984 44.488944 
Q 584.66304 44.488944 584.66304 54.301824 
L 584.66304 289.810944 
Q 584.66304 299.623824 606.75984 299.623824 
z
" clip-path="url(#p9d41ea8049)" style="fill: #dfe7f1; opacity: 0.35"/>
   </g>
   <g id="patch_6">
    <path d="M 163.876346 170.748 
Q 183.973242 170.748 201.722267 170.748 
" clip-path="url(#p9d41ea8049)" style="fill: none; stroke: #4a78b8; stroke-width: 2.1; stroke-linecap: round"/>
    <path d="M 198.522267 169.148 
L 201.722267 170.748 
L 198.522267 172.348 
z
" clip-path="url(#p9d41ea8049)" style="fill: #4a78b8; stroke: #4a78b8; stroke-width: 2.1; stroke-linecap: round"/>
   </g>
   <g id="patch_7">
    <path d="M 348.015897 170.748 
Q 371.7966 170.748 393.229432 170.748 
" clip-path="url(#p9d41ea8049)" style="fill: none; stroke: #4a78b8; stroke-width: 2.1; stroke-linecap: round"/>
    <path d="M 390.029432 169.148 
L 393.229432 170.748 
L 390.029432 172.348 
z
" clip-path="url(#p9d41ea8049)" style="fill: #4a78b8; stroke: #4a78b8; stroke-width: 2.1; stroke-linecap: round"/>
   </g>
   <g id="patch_8">
    <path d="M 539.521946 170.748 
Q 559.618842 170.748 577.367867 170.748 
" clip-path="url(#p9d41ea8049)" style="fill: none; stroke: #4a78b8; stroke-width: 2.1; stroke-linecap: round"/>
    <path d="M 574.167867 169.148 
L 577.367867 170.748 
L 574.167867 172.348 
z
" clip-path="url(#p9d41ea8049)" style="fill: #4a78b8; stroke: #4a78b8; stroke-width: 2.1; stroke-linecap: round"/>
   </g>
   <g id="patch_9">
    <path d="M 98.784851 162.072681 
L 68.191384 162.678907 
L 75.875764 164.798691 
L 71.607577 168.34074 
z
" clip-path="url(#p9d41ea8049)" style="fill: #4a78b8; stroke: #475467; stroke-linejoin: miter"/>
   </g>
   <g id="patch_10">
    <path d="M 108.477 134.76744 
L 135.1773 137.384208 
L 129.6531 134.76744 
L 135.1773 132.150672 
z
" clip-path="url(#p9d41ea8049)" style="fill: #b07243; stroke: #475467; stroke-linejoin: miter"/>
   </g>
   <g id="patch_11">
    <path d="M 117.684 239.43816 
C 127.4509 239.43816 136.819087 237.714915 143.725329 234.64795 
C 150.63157 231.580985 154.512 227.420704 154.512 223.08336 
C 154.512 218.746016 150.63157 214.585735 143.725329 211.51877 
C 136.819087 208.451805 127.4509 206.72856 117.684 206.72856 
C 107.9171 206.72856 98.548913 208.451805 91.642671 211.51877 
C 84.73643 214.585735 80.856 218.746016 80.856 223.08336 
C 80.856 227.420704 84.73643 231.580985 91.642671 234.64795 
C 98.548913 237.714915 107.9171 239.43816 117.684 239.43816 
L 117.684 239.43816 
z
" clip-path="url(#p9d41ea8049)" style="fill: none; stroke: #c45b3c; stroke-width: 1.3; stroke-linejoin: miter"/>
   </g>
   <g id="patch_12">
    <path d="M 66.1248 245.98008 
C 71.98494 245.98008 77.605852 244.946133 81.749597 243.105954 
C 85.893342 241.265775 88.2216 238.769606 88.2216 236.1672 
C 88.2216 233.564794 85.893342 231.068625 81.749597 229.228446 
C 77.605852 227.388267 71.98494 226.35432 66.1248 226.35432 
C 60.26466 226.35432 54.643748 227.388267 50.500003 229.228446 
C 46.356258 231.068625 44.028 233.564794 44.028 236.1672 
C 44.028 238.769606 46.356258 241.265775 50.500003 243.105954 
C 54.643748 244.946133 60.26466 245.98008 66.1248 245.98008 
z
" clip-path="url(#p9d41ea8049)" style="fill: #d1d5db; stroke: #475467; stroke-linejoin: miter"/>
   </g>
   <g id="patch_13">
    <path d="M 253.21104 211.307904 
L 312.13584 211.307904 
Q 319.50144 211.307904 319.50144 208.036944 
L 319.50144 188.411184 
Q 319.50144 185.140224 312.13584 185.140224 
L 253.21104 185.140224 
Q 245.84544 185.140224 245.84544 188.411184 
L 245.84544 208.036944 
Q 245.84544 211.307904 253.21104 211.307904 
z
" clip-path="url(#p9d41ea8049)" style="fill: #dfe7f1; opacity: 0.35"/>
   </g>
   <g id="patch_14">
    <path d="M 279.7272 123.31908 
C 288.51741 123.31908 296.948779 121.76816 303.164396 119.007891 
C 309.380013 116.247622 312.8724 112.503369 312.8724 108.59976 
C 312.8724 104.696151 309.380013 100.951898 303.164396 98.191629 
C 296.948779 95.43136 288.51741 93.88044 279.7272 93.88044 
C 270.93699 93.88044 262.505621 95.43136 256.290004 98.191629 
C 250.074387 100.951898 246.582 104.696151 246.582 108.59976 
C 246.582 112.503369 250.074387 116.247622 256.290004 119.007891 
C 262.505621 121.76816 270.93699 123.31908 279.7272 123.31908 
z
" clip-path="url(#p9d41ea8049)" style="fill: #fff2e8; stroke: #475467; stroke-width: 1.4; stroke-linejoin: miter"/>
   </g>
   <g id="patch_15">
    <path d="M 279.7272 175.290091 
Q 279.7272 142.944222 279.7272 112.387208 
" clip-path="url(#p9d41ea8049)" style="fill: none; stroke: #4a78b8; stroke-width: 1.6; stroke-linecap: round"/>
    <path d="M 278.1272 115.587208 
L 279.7272 112.387208 
L 281.3272 115.587208 
z
" clip-path="url(#p9d41ea8049)" style="fill: #4a78b8; stroke: #4a78b8; stroke-width: 1.6; stroke-linecap: round"/>
   </g>
   <g id="patch_16">
    <path d="M 353.3832 192.00924 
C 362.17341 192.00924 370.604779 190.45832 376.820396 187.698051 
C 383.036013 184.937782 386.5284 181.193529 386.5284 177.28992 
C 386.5284 173.386311 383.036013 169.642058 376.820396 166.881789 
C 370.604779 164.12152 362.17341 162.5706 353.3832 162.5706 
C 344.59299 162.5706 336.161621 164.12152 329.946004 166.881789 
C 323.730387 169.642058 320.238 173.386311 320.238 177.28992 
C 320.238 181.193529 323.730387 184.937782 329.946004 187.698051 
C 336.161621 190.45832 344.59299 192.00924 353.3832 192.00924 
z
" clip-path="url(#p9d41ea8049)" style="fill: #fff2e8; stroke: #475467; stroke-width: 1.4; stroke-linejoin: miter"/>
   </g>
   <g id="patch_17">
    <path d="M 281.727744 177.28992 
Q 316.556127 177.28992 349.595655 177.28992 
" clip-path="url(#p9d41ea8049)" style="fill: none; stroke: #4a78b8; stroke-width: 1.6; stroke-linecap: round"/>
    <path d="M 346.395655 175.68992 
L 349.595655 177.28992 
L 346.395655 178.88992 
z
" clip-path="url(#p9d41ea8049)" style="fill: #4a78b8; stroke: #4a78b8; stroke-width: 1.6; stroke-linecap: round"/>
   </g>
   <g id="patch_18">
    <path d="M 279.7272 273.78324 
C 288.51741 273.78324 296.948779 272.23232 303.164396 269.472051 
C 309.380013 266.711782 312.8724 262.967529 312.8724 259.06392 
C 312.8724 255.160311 309.380013 251.416058 303.164396 248.655789 
C 296.948779 245.89552 288.51741 244.3446 279.7272 244.3446 
C 270.93699 244.3446 262.505621 245.89552 256.290004 248.655789 
C 250.074387 251.416058 246.582 255.160311 246.582 259.06392 
C 246.582 262.967529 250.074387 266.711782 256.290004 269.472051 
C 262.505621 272.23232 270.93699 273.78324 279.7272 273.78324 
z
" clip-path="url(#p9d41ea8049)" style="fill: #fff2e8; stroke: #475467; stroke-width: 1.4; stroke-linejoin: miter"/>
   </g>
   <g id="patch_19">
    <path d="M 279.7272 179.291347 
Q 279.7272 218.177068 279.7272 255.273935 
" clip-path="url(#p9d41ea8049)" style="fill: none; stroke: #4a78b8; stroke-width: 1.6; stroke-linecap: round"/>
    <path d="M 281.3272 252.073935 
L 279.7272 255.273935 
L 278.1272 252.073935 
z
" clip-path="url(#p9d41ea8049)" style="fill: #4a78b8; stroke: #4a78b8; stroke-width: 1.6; stroke-linecap: round"/>
   </g>
   <g id="patch_20">
    <path d="M 206.0712 192.00924 
C 214.86141 192.00924 223.292779 190.45832 229.508396 187.698051 
C 235.724013 184.937782 239.2164 181.193529 239.2164 177.28992 
C 239.2164 173.386311 235.724013 169.642058 229.508396 166.881789 
C 223.292779 164.12152 214.86141 162.5706 206.0712 162.5706 
C 197.28099 162.5706 188.849621 164.12152 182.634004 166.881789 
C 176.418387 169.642058 172.926 173.386311 172.926 177.28992 
C 172.926 181.193529 176.418387 184.937782 182.634004 187.698051 
C 188.849621 190.45832 197.28099 192.00924 206.0712 192.00924 
z
" clip-path="url(#p9d41ea8049)" style="fill: #fff2e8; stroke: #475467; stroke-width: 1.4; stroke-linejoin: miter"/>
   </g>
   <g id="patch_21">
    <path d="M 277.726656 177.28992 
Q 242.898273 177.28992 209.858745 177.28992 
" clip-path="url(#p9d41ea8049)" style="fill: none; stroke: #4a78b8; stroke-width: 1.6; stroke-linecap: round"/>
    <path d="M 213.058745 178.88992 
L 209.858745 177.28992 
L 213.058745 175.68992 
z
" clip-path="url(#p9d41ea8049)" style="fill: #4a78b8; stroke: #4a78b8; stroke-width: 1.6; stroke-linecap: round"/>
   </g>
   <g id="patch_22">
    <path d="M 445.4532 129.533904 
L 517.63608 129.533904 
Q 536.78664 129.533904 536.78664 121.029408 
L 536.78664 98.78688 
Q 536.78664 90.282384 517.63608 90.282384 
L 445.4532 90.282384 
Q 426.30264 90.282384 426.30264 98.78688 
L 426.30264 121.029408 
Q 426.30264 129.533904 445.4532 129.533904 
z
" clip-path="url(#p9d41ea8049)" style="fill: #dfe7f1; opacity: 0.35"/>
   </g>
   <g id="patch_23">
    <path d="M 485.969625 149.904991 
C 487.141653 149.904991 488.265836 149.698202 489.094585 149.330166 
C 489.923334 148.96213 490.388985 148.462897 490.388985 147.942415 
C 490.388985 147.421934 489.923334 146.9227 489.094585 146.554665 
C 488.265836 146.186629 487.141653 145.979839 485.969625 145.979839 
C 484.797597 145.979839 483.673415 146.186629 482.844666 146.554665 
C 482.015917 146.9227 481.550265 147.421934 481.550265 147.942415 
C 481.550265 148.462897 482.015917 148.96213 482.844666 149.330166 
C 483.673415 149.698202 484.797597 149.904991 485.969625 149.904991 
z
" clip-path="url(#p9d41ea8049)" style="fill: #4a78b8; stroke: #475467; stroke-width: 0.4; stroke-linejoin: miter"/>
   </g>
   <g id="patch_24">
    <path d="M 494.843124 171.886059 
C 496.015152 171.886059 497.139335 171.67927 497.968084 171.311234 
C 498.796833 170.943198 499.262484 170.443964 499.262484 169.923483 
C 499.262484 169.403002 498.796833 168.903768 497.968084 168.535732 
C 497.139335 168.167696 496.015152 167.960907 494.843124 167.960907 
C 493.671096 167.960907 492.546914 168.167696 491.718165 168.535732 
C 490.889416 168.903768 490.423764 169.403002 490.423764 169.923483 
C 490.423764 170.443964 490.889416 170.943198 491.718165 171.311234 
C 492.546914 171.67927 493.671096 171.886059 494.843124 171.886059 
z
" clip-path="url(#p9d41ea8049)" style="fill: #b07243; stroke: #475467; stroke-width: 0.4; stroke-linejoin: miter"/>
   </g>
   <g id="patch_25">
    <path d="M 466.823238 150.678912 
C 467.995266 150.678912 469.119449 150.472123 469.948198 150.104087 
C 470.776947 149.736051 471.242598 149.236817 471.242598 148.716336 
C 471.242598 148.195855 470.776947 147.696621 469.948198 147.328585 
C 469.119449 146.96055 467.995266 146.75376 466.823238 146.75376 
C 465.65121 146.75376 464.527028 146.96055 463.698279 147.328585 
C 462.86953 147.696621 462.403878 148.195855 462.403878 148.716336 
C 462.403878 149.236817 462.86953 149.736051 463.698279 150.104087 
C 464.527028 150.472123 465.65121 150.678912 466.823238 150.678912 
z
" clip-path="url(#p9d41ea8049)" style="fill: #c45b3c; stroke: #475467; stroke-width: 0.4; stroke-linejoin: miter"/>
   </g>
   <g id="patch_26">
    <path d="M 449.446257 152.390443 
C 450.618285 152.390443 451.742468 152.183654 452.571216 151.815618 
C 453.399965 151.447582 453.865617 150.948348 453.865617 150.427867 
C 453.865617 149.907386 453.399965 149.408152 452.571216 149.040116 
C 451.742468 148.67208 450.618285 148.465291 449.446257 148.465291 
C 448.274229 148.465291 447.150047 148.67208 446.321298 149.040116 
C 445.492549 149.408152 445.026897 149.907386 445.026897 150.427867 
C 445.026897 150.948348 445.492549 151.447582 446.321298 151.815618 
C 447.150047 152.183654 448.274229 152.390443 449.446257 152.390443 
z
" clip-path="url(#p9d41ea8049)" style="fill: #4a78b8; stroke: #475467; stroke-width: 0.4; stroke-linejoin: miter"/>
   </g>
   <g id="patch_27">
    <path d="M 496.103157 163.946531 
C 497.275185 163.946531 498.399367 163.739741 499.228116 163.371706 
C 500.056865 163.00367 500.522517 162.504436 500.522517 161.983955 
C 500.522517 161.463474 500.056865 160.96424 499.228116 160.596204 
C 498.399367 160.228168 497.275185 160.021379 496.103157 160.021379 
C 494.931129 160.021379 493.806946 160.228168 492.978197 160.596204 
C 492.149448 160.96424 491.683797 161.463474 491.683797 161.983955 
C 491.683797 162.504436 492.149448 163.00367 492.978197 163.371706 
C 493.806946 163.739741 494.931129 163.946531 496.103157 163.946531 
z
" clip-path="url(#p9d41ea8049)" style="fill: #b07243; stroke: #475467; stroke-width: 0.4; stroke-linejoin: miter"/>
   </g>
   <g id="patch_28">
    <path d="M 466.992125 170.145306 
C 468.164153 170.145306 469.288336 169.938516 470.117085 169.57048 
C 470.945833 169.202445 471.411485 168.703211 471.411485 168.18273 
C 471.411485 167.662248 470.945833 167.163015 470.117085 166.794979 
C 469.288336 166.426943 468.164153 166.220154 466.992125 166.220154 
C 465.820097 166.220154 464.695915 166.426943 463.867166 166.794979 
C 463.038417 167.163015 462.572765 167.662248 462.572765 168.18273 
C 462.572765 168.703211 463.038417 169.202445 463.867166 169.57048 
C 464.695915 169.938516 465.820097 170.145306 466.992125 170.145306 
z
" clip-path="url(#p9d41ea8049)" style="fill: #c45b3c; stroke: #475467; stroke-width: 0.4; stroke-linejoin: miter"/>
   </g>
   <g id="patch_29">
    <path d="M 464.154139 164.694228 
C 465.326167 164.694228 466.45035 164.487439 467.279099 164.119403 
C 468.107848 163.751367 468.573499 163.252133 468.573499 162.731652 
C 468.573499 162.211171 468.107848 161.711937 467.279099 161.343901 
C 466.45035 160.975865 465.326167 160.769076 464.154139 160.769076 
C 462.982112 160.769076 461.857929 160.975865 461.02918 161.343901 
C 460.200431 161.711937 459.734779 162.211171 459.734779 162.731652 
C 459.734779 163.252133 460.200431 163.751367 461.02918 164.119403 
C 461.857929 164.487439 462.982112 164.694228 464.154139 164.694228 
z
" clip-path="url(#p9d41ea8049)" style="fill: #4a78b8; stroke: #475467; stroke-width: 0.4; stroke-linejoin: miter"/>
   </g>
   <g id="patch_30">
    <path d="M 478.866405 161.147819 
C 480.038433 161.147819 481.162616 160.94103 481.991365 160.572994 
C 482.820114 160.204958 483.285765 159.705724 483.285765 159.185243 
C 483.285765 158.664762 482.820114 158.165528 481.991365 157.797492 
C 481.162616 157.429456 480.038433 157.222667 478.866405 157.222667 
C 477.694377 157.222667 476.570195 157.429456 475.741446 157.797492 
C 474.912697 158.165528 474.447045 158.664762 474.447045 159.185243 
C 474.447045 159.705724 474.912697 160.204958 475.741446 160.572994 
C 476.570195 160.94103 477.694377 161.147819 478.866405 161.147819 
z
" clip-path="url(#p9d41ea8049)" style="fill: #b07243; stroke: #475467; stroke-width: 0.4; stroke-linejoin: miter"/>
   </g>
   <g id="patch_31">
    <path d="M 507.795655 153.324842 
C 508.967683 153.324842 510.091866 153.118052 510.920615 152.750016 
C 511.749363 152.381981 512.215015 151.882747 512.215015 151.362266 
C 512.215015 150.841784 511.749363 150.342551 510.920615 149.974515 
C 510.091866 149.606479 508.967683 149.39969 507.795655 149.39969 
C 506.623627 149.39969 505.499445 149.606479 504.670696 149.974515 
C 503.841947 150.342551 503.376295 150.841784 503.376295 151.362266 
C 503.376295 151.882747 503.841947 152.381981 504.670696 152.750016 
C 505.499445 153.118052 506.623627 153.324842 507.795655 153.324842 
z
" clip-path="url(#p9d41ea8049)" style="fill: #c45b3c; stroke: #475467; stroke-width: 0.4; stroke-linejoin: miter"/>
   </g>
   <g id="patch_32">
    <path d="M 485.797787 146.904005 
C 486.969815 146.904005 488.093997 146.697216 488.922746 146.32918 
C 489.751495 145.961144 490.217147 145.46191 490.217147 144.941429 
C 490.217147 144.420948 489.751495 143.921714 488.922746 143.553678 
C 488.093997 143.185643 486.969815 142.978853 485.797787 142.978853 
C 484.625759 142.978853 483.501576 143.185643 482.672827 143.553678 
C 481.844078 143.921714 481.378427 144.420948 481.378427 144.941429 
C 481.378427 145.46191 481.844078 145.961144 482.672827 146.32918 
C 483.501576 146.697216 484.625759 146.904005 485.797787 146.904005 
z
" clip-path="url(#p9d41ea8049)" style="fill: #4a78b8; stroke: #475467; stroke-width: 0.4; stroke-linejoin: miter"/>
   </g>
   <g id="patch_33">
    <path d="M 461.823022 174.012024 
C 462.99505 174.012024 464.119232 173.805235 464.947981 173.437199 
C 465.77673 173.069163 466.242382 172.56993 466.242382 172.049448 
C 466.242382 171.528967 465.77673 171.029733 464.947981 170.661698 
C 464.119232 170.293662 462.99505 170.086872 461.823022 170.086872 
C 460.650994 170.086872 459.526811 170.293662 458.698063 170.661698 
C 457.869314 171.029733 457.403662 171.528967 457.403662 172.049448 
C 457.403662 172.56993 457.869314 173.069163 458.698063 173.437199 
C 459.526811 173.805235 460.650994 174.012024 461.823022 174.012024 
z
" clip-path="url(#p9d41ea8049)" style="fill: #b07243; stroke: #475467; stroke-width: 0.4; stroke-linejoin: miter"/>
   </g>
   <g id="patch_34">
    <path d="M 485.229774 177.81517 
C 486.401802 177.81517 487.525984 177.608381 488.354733 177.240345 
C 489.183482 176.872309 489.649134 176.373076 489.649134 175.852594 
C 489.649134 175.332113 489.183482 174.83288 488.354733 174.464844 
C 487.525984 174.096808 486.401802 173.890018 485.229774 173.890018 
C 484.057746 173.890018 482.933563 174.096808 482.104814 174.464844 
C 481.276065 174.83288 480.810414 175.332113 480.810414 175.852594 
C 480.810414 176.373076 481.276065 176.872309 482.104814 177.240345 
C 482.933563 177.608381 484.057746 177.81517 485.229774 177.81517 
z
" clip-path="url(#p9d41ea8049)" style="fill: #c45b3c; stroke: #475467; stroke-width: 0.4; stroke-linejoin: miter"/>
   </g>
   <g id="patch_35">
    <path d="M 451.238453 162.410689 
C 452.410481 162.410689 453.534664 162.203899 454.363413 161.835863 
C 455.192162 161.467828 455.657813 160.968594 455.657813 160.448113 
C 455.657813 159.927631 455.192162 159.428398 454.363413 159.060362 
C 453.534664 158.692326 452.410481 158.485537 451.238453 158.485537 
C 450.066425 158.485537 448.942243 158.692326 448.113494 159.060362 
C 447.284745 159.428398 446.819093 159.927631 446.819093 160.448113 
C 446.819093 160.968594 447.284745 161.467828 448.113494 161.835863 
C 448.942243 162.203899 450.066425 162.410689 451.238453 162.410689 
z
" clip-path="url(#p9d41ea8049)" style="fill: #4a78b8; stroke: #475467; stroke-width: 0.4; stroke-linejoin: miter"/>
   </g>
   <g id="patch_36">
    <path d="M 476.607097 149.252305 
C 477.779125 149.252305 478.903307 149.045516 479.732056 148.67748 
C 480.560805 148.309444 481.026457 147.81021 481.026457 147.289729 
C 481.026457 146.769248 480.560805 146.270014 479.732056 145.901978 
C 478.903307 145.533942 477.779125 145.327153 476.607097 145.327153 
C 475.435069 145.327153 474.310886 145.533942 473.482137 145.901978 
C 472.653388 146.270014 472.187737 146.769248 472.187737 147.289729 
C 472.187737 147.81021 472.653388 148.309444 473.482137 148.67748 
C 474.310886 149.045516 475.435069 149.252305 476.607097 149.252305 
z
" clip-path="url(#p9d41ea8049)" style="fill: #b07243; stroke: #475467; stroke-width: 0.4; stroke-linejoin: miter"/>
   </g>
   <g id="patch_37">
    <path d="M 486.213031 162.435913 
C 487.385059 162.435913 488.509242 162.229124 489.337991 161.861088 
C 490.16674 161.493052 490.632391 160.993819 490.632391 160.473337 
C 490.632391 159.952856 490.16674 159.453622 489.337991 159.085587 
C 488.509242 158.717551 487.385059 158.510761 486.213031 158.510761 
C 485.041003 158.510761 483.916821 158.717551 483.088072 159.085587 
C 482.259323 159.453622 481.793671 159.952856 481.793671 160.473337 
C 481.793671 160.993819 482.259323 161.493052 483.088072 161.861088 
C 483.916821 162.229124 485.041003 162.435913 486.213031 162.435913 
z
" clip-path="url(#p9d41ea8049)" style="fill: #c45b3c; stroke: #475467; stroke-width: 0.4; stroke-linejoin: miter"/>
   </g>
   <g id="patch_38">
    <path d="M 478.414168 171.156382 
C 479.586196 171.156382 480.710378 170.949593 481.539127 170.581557 
C 482.367876 170.213521 482.833528 169.714287 482.833528 169.193806 
C 482.833528 168.673325 482.367876 168.174091 481.539127 167.806055 
C 480.710378 167.438019 479.586196 167.23123 478.414168 167.23123 
C 477.24214 167.23123 476.117957 167.438019 475.289208 167.806055 
C 474.460459 168.174091 473.994808 168.673325 473.994808 169.193806 
C 473.994808 169.714287 474.460459 170.213521 475.289208 170.581557 
C 476.117957 170.949593 477.24214 171.156382 478.414168 171.156382 
z
" clip-path="url(#p9d41ea8049)" style="fill: #4a78b8; stroke: #475467; stroke-width: 0.4; stroke-linejoin: miter"/>
   </g>
   <g id="patch_39">
    <path d="M 449.830961 172.959099 
C 451.002989 172.959099 452.127171 172.752309 452.95592 172.384274 
C 453.784669 172.016238 454.250321 171.517004 454.250321 170.996523 
C 454.250321 170.476042 453.784669 169.976808 452.95592 169.608772 
C 452.127171 169.240736 451.002989 169.033947 449.830961 169.033947 
C 448.658933 169.033947 447.53475 169.240736 446.706001 169.608772 
C 445.877252 169.976808 445.411601 170.476042 445.411601 170.996523 
C 445.411601 171.517004 445.877252 172.016238 446.706001 172.384274 
C 447.53475 172.752309 448.658933 172.959099 449.830961 172.959099 
z
" clip-path="url(#p9d41ea8049)" style="fill: #b07243; stroke: #475467; stroke-width: 0.4; stroke-linejoin: miter"/>
   </g>
   <g id="patch_40">
    <path d="M 489.913854 172.69073 
C 491.085882 172.69073 492.210065 172.483941 493.038814 172.115905 
C 493.867563 171.747869 494.333214 171.248636 494.333214 170.728154 
C 494.333214 170.207673 493.867563 169.708439 493.038814 169.340404 
C 492.210065 168.972368 491.085882 168.765578 489.913854 168.765578 
C 488.741826 168.765578 487.617644 168.972368 486.788895 169.340404 
C 485.960146 169.708439 485.494494 170.207673 485.494494 170.728154 
C 485.494494 171.248636 485.960146 171.747869 486.788895 172.115905 
C 487.617644 172.483941 488.741826 172.69073 489.913854 172.69073 
z
" clip-path="url(#p9d41ea8049)" style="fill: #c45b3c; stroke: #475467; stroke-width: 0.4; stroke-linejoin: miter"/>
   </g>
   <g id="patch_41">
    <path d="M 445.4532 253.830384 
L 517.63608 253.830384 
Q 536.78664 253.830384 536.78664 245.325888 
L 536.78664 219.8124 
Q 536.78664 211.307904 517.63608 211.307904 
L 445.4532 211.307904 
Q 426.30264 211.307904 426.30264 219.8124 
L 426.30264 245.325888 
Q 426.30264 253.830384 445.4532 253.830384 
z
" clip-path="url(#p9d41ea8049)" style="fill: #dfe7f1; opacity: 0.35"/>
   </g>
   <g id="patch_42">
    <path d="M 478.5984 126.957384 
Q 478.5984 138.038351 478.5984 148.113087 
" clip-path="url(#p9d41ea8049)" style="fill: none; stroke: #475467; stroke-width: 0.9; stroke-linecap: round"/>
    <path d="M 480.1984 144.913087 
L 478.5984 148.113087 
L 476.9984 144.913087 
z
" clip-path="url(#p9d41ea8049)" style="fill: #475467; stroke: #475467; stroke-width: 0.9; stroke-linecap: round"/>
   </g>
   <g id="patch_43">
    <path d="M 478.5984 192.376584 
Q 478.5984 203.457551 478.5984 213.532287 
" clip-path="url(#p9d41ea8049)" style="fill: none; stroke: #475467; stroke-width: 0.9; stroke-linecap: round"/>
    <path d="M 480.1984 210.332287 
L 478.5984 213.532287 
L 476.9984 210.332287 
z
" clip-path="url(#p9d41ea8049)" style="fill: #475467; stroke: #475467; stroke-width: 0.9; stroke-linecap: round"/>
   </g>
   <g id="patch_44">
    <path d="M 611.1792 246.634272 
C 613.523256 246.634272 615.771621 246.220693 617.429119 245.484622 
C 619.086617 244.74855 620.01792 243.750082 620.01792 242.70912 
C 620.01792 241.668158 619.086617 240.66969 617.429119 239.933618 
C 615.771621 239.197547 613.523256 238.783968 611.1792 238.783968 
C 608.835144 238.783968 606.586779 239.197547 604.929281 239.933618 
C 603.271783 240.66969 602.34048 241.668158 602.34048 242.70912 
C 602.34048 243.750082 603.271783 244.74855 604.929281 245.484622 
C 606.586779 246.220693 608.835144 246.634272 611.1792 246.634272 
z
" clip-path="url(#p9d41ea8049)" style="fill: #ffffff; stroke: #475467; stroke-width: 1.1; stroke-linejoin: miter"/>
   </g>
   <g id="patch_45">
    <path d="M 714.2976 109.908144 
C 717.032332 109.908144 719.655424 109.425635 721.589172 108.566885 
C 723.522919 107.708135 724.60944 106.543256 724.60944 105.3288 
C 724.60944 104.114344 723.522919 102.949465 721.589172 102.090715 
C 719.655424 101.231965 717.032332 100.749456 714.2976 100.749456 
C 711.562868 100.749456 708.939776 101.231965 707.006028 102.090715 
C 705.072281 102.949465 703.98576 104.114344 703.98576 105.3288 
C 703.98576 106.543256 705.072281 107.708135 707.006028 108.566885 
C 708.939776 109.425635 711.562868 109.908144 714.2976 109.908144 
z
" clip-path="url(#p9d41ea8049)" style="fill: #b07243; stroke: #475467; stroke-width: 1.1; stroke-linejoin: miter"/>
   </g>
   <g id="patch_46">
    <path d="M 651.69 98.78688 
L 695.8836 98.78688 
Q 710.6148 98.78688 710.6148 92.24496 
L 710.6148 82.43208 
Q 710.6148 75.89016 695.8836 75.89016 
L 651.69 75.89016 
Q 636.9588 75.89016 636.9588 82.43208 
L 636.9588 92.24496 
Q 636.9588 98.78688 651.69 98.78688 
z
" clip-path="url(#p9d41ea8049)" style="fill: #ffffff; stroke: #475467; stroke-linejoin: miter"/>
   </g>
   <g id="patch_47">
    <path d="M 44.028 298.31544 
L 147.1464 298.31544 
Q 169.2432 298.31544 169.2432 288.50256 
L 169.2432 52.99344 
Q 169.2432 43.18056 147.1464 43.18056 
L 44.028 43.18056 
Q 21.9312 43.18056 21.9312 52.99344 
L 21.9312 288.50256 
Q 21.9312 298.31544 44.028 298.31544 
z
" clip-path="url(#p9d41ea8049)" style="fill: #edf4ff; stroke: #475467; stroke-width: 1.6; stroke-linejoin: miter"/>
   </g>
   <g id="patch_48">
    <path d="M 228.168 298.31544 
L 331.2864 298.31544 
Q 353.3832 298.31544 353.3832 288.50256 
L 353.3832 52.99344 
Q 353.3832 43.18056 331.2864 43.18056 
L 228.168 43.18056 
Q 206.0712 43.18056 206.0712 52.99344 
L 206.0712 288.50256 
Q 206.0712 298.31544 228.168 298.31544 
z
" clip-path="url(#p9d41ea8049)" style="fill: #fff2e8; stroke: #475467; stroke-width: 1.6; stroke-linejoin: miter"/>
   </g>
   <g id="patch_49">
    <path d="M 419.6736 298.31544 
L 522.792 298.31544 
Q 544.8888 298.31544 544.8888 288.50256 
L 544.8888 52.99344 
Q 544.8888 43.18056 522.792 43.18056 
L 419.6736 43.18056 
Q 397.5768 43.18056 397.5768 52.99344 
L 397.5768 288.50256 
Q 397.5768 298.31544 419.6736 298.31544 
z
" clip-path="url(#p9d41ea8049)" style="fill: #fff7f0; stroke: #475467; stroke-width: 1.6; stroke-linejoin: miter"/>
   </g>
   <g id="patch_50">
    <path d="M 603.8136 298.31544 
L 706.932 298.31544 
Q 729.0288 298.31544 729.0288 288.50256 
L 729.0288 52.99344 
Q 729.0288 43.18056 706.932 43.18056 
L 603.8136 43.18056 
Q 581.7168 43.18056 581.7168 52.99344 
L 581.7168 288.50256 
Q 581.7168 298.31544 603.8136 298.31544 
z
" clip-path="url(#p9d41ea8049)" style="fill: #eef9f1; stroke: #475467; stroke-width: 1.6; stroke-linejoin: miter"/>
   </g>
   <g id="patch_51">
    <path d="M 250.2648 209.99952 
L 309.1896 209.99952 
Q 316.5552 209.99952 316.5552 206.72856 
L 316.5552 187.1028 
Q 316.5552 183.83184 309.1896 183.83184 
L 250.2648 183.83184 
Q 242.8992 183.83184 242.8992 187.1028 
L 242.8992 206.72856 
Q 242.8992 209.99952 250.2648 209.99952 
z
" clip-path="url(#p9d41ea8049)" style="fill: #ffffff; stroke: #475467; stroke-linejoin: miter"/>
   </g>
   <g id="patch_52">
    <path d="M 442.50696 128.22552 
L 514.68984 128.22552 
Q 533.8404 128.22552 533.8404 119.721024 
L 533.8404 97.478496 
Q 533.8404 88.974 514.68984 88.974 
L 442.50696 88.974 
Q 423.3564 88.974 423.3564 97.478496 
L 423.3564 119.721024 
Q 423.3564 128.22552 442.50696 128.22552 
z
" clip-path="url(#p9d41ea8049)" style="fill: #fff7f0; stroke: #475467; stroke-linejoin: miter"/>
   </g>
   <g id="patch_53">
    <path d="M 442.50696 252.522 
L 514.68984 252.522 
Q 533.8404 252.522 533.8404 244.017504 
L 533.8404 218.504016 
Q 533.8404 209.99952 514.68984 209.99952 
L 442.50696 209.99952 
Q 423.3564 209.99952 423.3564 218.504016 
L 423.3564 244.017504 
Q 423.3564 252.522 442.50696 252.522 
z
" clip-path="url(#p9d41ea8049)" style="fill: #f4f8fe; stroke: #475467; stroke-linejoin: miter"/>
   </g>
   <g id="line2d_1">
    <path d="M 611.1792 242.70912 
L 640.6416 219.8124 
L 670.104 190.37376 
L 699.5664 138.0384 
L 714.2976 105.3288 
" clip-path="url(#p9d41ea8049)" style="fill: none; stroke: #4a78b8; stroke-width: 2.8; stroke-linecap: square"/>
   </g>
   <g id="text_1">
    <text style="font-weight: 700; font-size: 12px; font-family: 'Source Han Sans CN', 'Noto Sans CJK SC', 'Microsoft YaHei UI', 'Microsoft YaHei', 'PingFang SC', 'Heiti SC', 'SimHei', 'DejaVu Sans', sans-serif; fill: #1f2937" transform="translate(39.865012 62.085218)">Dynamic Maritime</text>
    <text style="font-weight: 700; font-size: 12px; font-family: 'Source Han Sans CN', 'Noto Sans CJK SC', 'Microsoft YaHei UI', 'Microsoft YaHei', 'PingFang SC', 'Heiti SC', 'SimHei', 'DejaVu Sans', sans-serif; fill: #1f2937" transform="translate(56.930325 76.637468)">Environment</text>
   </g>
   <g id="text_2">
    <text style="font-weight: 700; font-size: 12px; font-family: 'Source Han Sans CN', 'Noto Sans CJK SC', 'Microsoft YaHei UI', 'Microsoft YaHei', 'PingFang SC', 'Heiti SC', 'SimHei', 'DejaVu Sans', sans-serif; fill: #1f2937" transform="translate(230.904075 62.105843)">Adaptive KEMM</text>
    <text style="font-weight: 700; font-size: 12px; font-family: 'Source Han Sans CN', 'Noto Sans CJK SC', 'Microsoft YaHei UI', 'Microsoft YaHei', 'PingFang SC', 'Heiti SC', 'SimHei', 'DejaVu Sans', sans-serif; fill: #1f2937" transform="translate(228.7197 76.599968)">Response Engine</text>
   </g>
   <g id="text_3">
    <text style="font-weight: 700; font-size: 12px; font-family: 'Source Han Sans CN', 'Noto Sans CJK SC', 'Microsoft YaHei UI', 'Microsoft YaHei', 'PingFang SC', 'Heiti SC', 'SimHei', 'DejaVu Sans', sans-serif; fill: #1f2937" transform="translate(401.691862 62.134905)">Unified Candidate Pool</text>
    <text style="font-weight: 700; font-size: 12px; font-family: 'Source Han Sans CN', 'Noto Sans CJK SC', 'Microsoft YaHei UI', 'Microsoft YaHei', 'PingFang SC', 'Heiti SC', 'SimHei', 'DejaVu Sans', sans-serif; fill: #1f2937" transform="translate(430.5453 76.62903)">and Selection</text>
   </g>
   <g id="text_4">
    <text style="font-weight: 700; font-size: 12px; font-family: 'Source Han Sans CN', 'Noto Sans CJK SC', 'Microsoft YaHei UI', 'Microsoft YaHei', 'PingFang SC', 'Heiti SC', 'SimHei', 'DejaVu Sans', sans-serif; fill: #1f2937" transform="translate(619.416862 62.152718)">Safe Rolling</text>
    <text style="font-weight: 700; font-size: 12px; font-family: 'Source Han Sans CN', 'Noto Sans CJK SC', 'Microsoft YaHei UI', 'Microsoft YaHei', 'PingFang SC', 'Heiti SC', 'SimHei', 'DejaVu Sans', sans-serif; fill: #1f2937" transform="translate(591.725925 76.704968)">Replanning Outcome</text>
   </g>
   <g id="text_5">
    <text style="font-size: 10px; font-family: 'Source Han Sans CN', 'Noto Sans CJK SC', 'Microsoft YaHei UI', 'Microsoft YaHei', 'PingFang SC', 'Heiti SC', 'SimHei', 'DejaVu Sans', sans-serif; text-anchor: middle; fill: #1f2937" x="95.5872" y="118.41264" transform="rotate(-0 95.5872 118.41264)">Own ship + targets</text>
   </g>
   <g id="text_6">
    <text style="font-size: 9.2px; font-family: 'Source Han Sans CN', 'Noto Sans CJK SC', 'Microsoft YaHei UI', 'Microsoft YaHei', 'PingFang SC', 'Heiti SC', 'SimHei', 'DejaVu Sans', sans-serif; fill: #667085" transform="translate(38.3862 257.71145)">Crossing / harbor clutter /</text>
    <text style="font-size: 9.2px; font-family: 'Source Han Sans CN', 'Noto Sans CJK SC', 'Microsoft YaHei UI', 'Microsoft YaHei', 'PingFang SC', 'Heiti SC', 'SimHei', 'DejaVu Sans', sans-serif; fill: #667085" transform="translate(51.809575 268.8768)">risk field / obstacles</text>
   </g>
   <g id="text_7">
    <text style="font-size: 8.8px; font-family: 'Source Han Sans CN', 'Noto Sans CJK SC', 'Microsoft YaHei UI', 'Microsoft YaHei', 'PingFang SC', 'Heiti SC', 'SimHei', 'DejaVu Sans', sans-serif; fill: #1f2937" transform="translate(260.98595 193.67288)">Adaptive</text>
    <text style="font-size: 8.8px; font-family: 'Source Han Sans CN', 'Noto Sans CJK SC', 'Microsoft YaHei UI', 'Microsoft YaHei', 'PingFang SC', 'Heiti SC', 'SimHei', 'DejaVu Sans', sans-serif; fill: #1f2937" transform="translate(261.439012 205.005355)">allocator</text>
   </g>
   <g id="text_8">
    <text style="font-size: 10.5px; font-family: 'Source Han Sans CN', 'Noto Sans CJK SC', 'Microsoft YaHei UI', 'Microsoft YaHei', 'PingFang SC', 'Heiti SC', 'SimHei', 'DejaVu Sans', sans-serif; text-anchor: middle; fill: #1f2937" x="279.7272" y="226.35432" transform="rotate(-0 279.7272 226.35432)">Adaptive allocation</text>
   </g>
   <g id="text_9">
    <text style="font-size: 9px; font-family: 'Source Han Sans CN', 'Noto Sans CJK SC', 'Microsoft YaHei UI', 'Microsoft YaHei', 'PingFang SC', 'Heiti SC', 'SimHei', 'DejaVu Sans', sans-serif; text-anchor: middle; fill: #1f2937" x="279.7272" y="111.026244" transform="rotate(-0 279.7272 111.026244)">Memory</text>
   </g>
   <g id="text_10">
    <text style="font-size: 9px; font-family: 'Source Han Sans CN', 'Noto Sans CJK SC', 'Microsoft YaHei UI', 'Microsoft YaHei', 'PingFang SC', 'Heiti SC', 'SimHei', 'DejaVu Sans', sans-serif; text-anchor: middle; fill: #1f2937" x="353.3832" y="179.768436" transform="rotate(-0 353.3832 179.768436)">Prediction</text>
   </g>
   <g id="text_11">
    <text style="font-size: 9px; font-family: 'Source Han Sans CN', 'Noto Sans CJK SC', 'Microsoft YaHei UI', 'Microsoft YaHei', 'PingFang SC', 'Heiti SC', 'SimHei', 'DejaVu Sans', sans-serif; text-anchor: middle; fill: #1f2937" x="279.7272" y="261.542436" transform="rotate(-0 279.7272 261.542436)">Transfer</text>
   </g>
   <g id="text_12">
    <text style="font-size: 9px; font-family: 'Source Han Sans CN', 'Noto Sans CJK SC', 'Microsoft YaHei UI', 'Microsoft YaHei', 'PingFang SC', 'Heiti SC', 'SimHei', 'DejaVu Sans', sans-serif; text-anchor: middle; fill: #1f2937" x="206.0712" y="179.768436" transform="rotate(-0 206.0712 179.768436)">Reinit</text>
   </g>
   <g id="text_13">
    <text style="font-size: 9.2px; font-family: 'Source Han Sans CN', 'Noto Sans CJK SC', 'Microsoft YaHei UI', 'Microsoft YaHei', 'PingFang SC', 'Heiti SC', 'SimHei', 'DejaVu Sans', sans-serif; text-anchor: middle; fill: #667085" x="279.7272" y="288.50256" transform="rotate(-0 279.7272 288.50256)">Diagnose change -&gt; allocate budgets</text>
   </g>
   <g id="text_14">
    <text style="font-size: 10px; font-family: 'Source Han Sans CN', 'Noto Sans CJK SC', 'Microsoft YaHei UI', 'Microsoft YaHei', 'PingFang SC', 'Heiti SC', 'SimHei', 'DejaVu Sans', sans-serif; text-anchor: middle; fill: #1f2937" x="478.5984" y="111.353666" transform="rotate(-0 478.5984 111.353666)">Candidate pool</text>
   </g>
   <g id="text_15">
    <text style="font-size: 9.5px; font-family: 'Source Han Sans CN', 'Noto Sans CJK SC', 'Microsoft YaHei UI', 'Microsoft YaHei', 'PingFang SC', 'Heiti SC', 'SimHei', 'DejaVu Sans', sans-serif; fill: #1f2937" transform="translate(444.606212 227.76001)">Constraint-first</text>
    <text style="font-size: 9.5px; font-family: 'Source Han Sans CN', 'Noto Sans CJK SC', 'Microsoft YaHei UI', 'Microsoft YaHei', 'PingFang SC', 'Heiti SC', 'SimHei', 'DejaVu Sans', sans-serif; fill: #1f2937" transform="translate(458.383439 239.993932)">selection</text>
   </g>
   <g id="text_16">
    <text style="font-size: 9.2px; font-family: 'Source Han Sans CN', 'Noto Sans CJK SC', 'Microsoft YaHei UI', 'Microsoft YaHei', 'PingFang SC', 'Heiti SC', 'SimHei', 'DejaVu Sans', sans-serif; text-anchor: middle; fill: #667085" x="478.5984" y="275.41872" transform="rotate(-0 478.5984 275.41872)">Feasible + diverse + Pareto-efficient</text>
   </g>
   <g id="text_17">
    <text style="font-size: 9.6px; font-family: 'Source Han Sans CN', 'Noto Sans CJK SC', 'Microsoft YaHei UI', 'Microsoft YaHei', 'PingFang SC', 'Heiti SC', 'SimHei', 'DejaVu Sans', sans-serif; text-anchor: middle; fill: #1f2937" x="673.7868" y="89.98227" transform="rotate(-0 673.7868 89.98227)">Risk down</text>
   </g>
   <g id="text_18">
    <text style="font-size: 10px; font-family: 'Source Han Sans CN', 'Noto Sans CJK SC', 'Microsoft YaHei UI', 'Microsoft YaHei', 'PingFang SC', 'Heiti SC', 'SimHei', 'DejaVu Sans', sans-serif; fill: #1f2937" transform="translate(626.590744 263.28247)">Faster recovery</text>
    <text style="font-size: 10px; font-family: 'Source Han Sans CN', 'Noto Sans CJK SC', 'Microsoft YaHei UI', 'Microsoft YaHei', 'PingFang SC', 'Heiti SC', 'SimHei', 'DejaVu Sans', sans-serif; fill: #1f2937" transform="translate(634.200119 275.41872)">stable route</text>
   </g>
   <g id="text_19">
    <text style="font-weight: 700; font-size: 11px; font-family: 'Source Han Sans CN', 'Noto Sans CJK SC', 'Microsoft YaHei UI', 'Microsoft YaHei', 'PingFang SC', 'Heiti SC', 'SimHei', 'DejaVu Sans', sans-serif; text-anchor: middle; fill: #1f2937" x="375.48" y="321.21216" transform="rotate(-0 375.48 321.21216)">Dynamic scene -&gt; adaptive knowledge reuse -&gt; unified competition -&gt; safer and more efficient replanning</text>
   </g>
  </g>
 </g>
 <defs>
  <clipPath id="p9d41ea8049">
   <rect x="7.2" y="7.2" width="736.56" height="327.096"/>
  </clipPath>
 </defs>
</svg>
