<?xml version="1.0" encoding="utf-8" standalone="no"?>
<!DOCTYPE svg PUBLIC "-//W3C//DTD SVG 1.1//EN"
  "http://www.w3.org/Graphics/SVG/1.1/DTD/svg11.dtd">
<svg xmlns:xlink="http://www.w3.org/1999/xlink" width="806.76pt" height="480.096pt" viewBox="0 0 806.76 480.096" xmlns="http://www.w3.org/2000/svg" version="1.1">
 <metadata>
  <rdf:RDF xmlns:dc="http://purl.org/dc/elements/1.1/" xmlns:cc="http://creativecommons.org/ns#" xmlns:rdf="http://www.w3.org/1999/02/22-rdf-syntax-ns#">
   <cc:Work>
    <dc:type rdf:resource="http://purl.org/dc/dcmitype/StillImage"/>
    <dc:date>2026-04-16T21:15:31.721283</dc:date>
    <dc:format>image/svg+xml</dc:format>
    <dc:creator>
     <cc:Agent>
      <dc:title>Matplotlib v3.10.7, https://matplotlib.org/</dc:title>
     </cc:Agent>
    </dc:creator>
   </cc:Work>
  </rdf:RDF>
 </metadata>
 <defs>
  <style type="text/css">*{stroke-linejoin: round; stroke-linecap: butt}</style>
 </defs>
 <g id="figure_1">
  <g id="patch_1">
   <path d="M 0 480.096 
L 806.76 480.096 
L 806.76 0 
L 0 0 
z
" style="fill: #ffffff"/>
  </g>
  <g id="axes_1">
   <g id="patch_2">
    <path d="M 70.5888 153.428544 
L 164.08728 153.428544 
Q 184.68864 153.428544 184.68864 141.320448 
L 184.68864 109.65312 
Q 184.68864 97.545024 164.08728 97.545024 
L 70.5888 97.545024 
Q 49.98744 97.545024 49.98744 109.65312 
L 49.98744 141.320448 
Q 49.98744 153.428544 70.5888 153.428544 
z
" clip-path="url(#pf1f26b2d10)" style="fill: #dfe7f1; opacity: 0.35"/>
   </g>
   <g id="patch_3">
    <path d="M 70.5888 241.910784 
L 164.08728 241.910784 
Q 184.68864 241.910784 184.68864 229.802688 
L 184.68864 193.4784 
Q 184.68864 181.370304 164.08728 181.370304 
L 70.5888 181.370304 
Q 49.98744 181.370304 49.98744 193.4784 
L 49.98744 229.802688 
Q 49.98744 241.910784 70.5888 241.910784 
z
" clip-path="url(#pf1f26b2d10)" style="fill: #dfe7f1; opacity: 0.35"/>
   </g>
   <g id="patch_4">
    <path d="M 73.75824 349.020864 
L 160.91784 349.020864 
Q 184.68864 349.020864 184.68864 335.049984 
L 184.68864 297.794304 
Q 184.68864 283.823424 160.91784 283.823424 
L 73.75824 283.823424 
Q 49.98744 283.823424 49.98744 297.794304 
L 49.98744 335.049984 
Q 49.98744 349.020864 73.75824 349.020864 
z
" clip-path="url(#pf1f26b2d10)" style="fill: #dfe7f1; opacity: 0.35"/>
   </g>
   <g id="patch_5">
    <path d="M 114.1686 148.90529 
Q 114.1686 165.534182 114.1686 181.156843 
" clip-path="url(#pf1f26b2d10)" style="fill: none; stroke: #475467; stroke-width: 0.9; stroke-linecap: round"/>
    <path d="M 115.7686 177.956843 
L 114.1686 181.156843 
L 112.5686 177.956843 
z
" clip-path="url(#pf1f26b2d10)" style="fill: #475467; stroke: #475467; stroke-width: 0.9; stroke-linecap: round"/>
   </g>
   <g id="patch_6">
    <path d="M 114.1686 237.388951 
Q 114.1686 261.00422 114.1686 283.613258 
" clip-path="url(#pf1f26b2d10)" style="fill: none; stroke: #475467; stroke-width: 0.9; stroke-linecap: round"/>
    <path d="M 115.7686 280.413258 
L 114.1686 283.613258 
L 112.5686 280.413258 
z
" clip-path="url(#pf1f26b2d10)" style="fill: #475467; stroke: #475467; stroke-width: 0.9; stroke-linecap: round"/>
   </g>
   <g id="patch_7">
    <path d="M 82.4742 313.162272 
C 83.945154 313.162272 85.35606 312.818791 86.396182 312.207478 
C 87.436304 311.596164 88.02072 310.766928 88.02072 309.9024 
C 88.02072 309.037872 87.436304 308.208636 86.396182 307.597322 
C 85.35606 306.986009 83.945154 306.642528 82.4742 306.642528 
C 81.003246 306.642528 79.59234 306.986009 78.552218 307.597322 
C 77.512096 308.208636 76.92768 309.037872 76.92768 309.9024 
C 76.92768 310.766928 77.512096 311.596164 78.552218 312.207478 
C 79.59234 312.818791 81.003246 313.162272 82.4742 313.162272 
z
" clip-path="url(#pf1f26b2d10)" style="fill: #4a78b8; stroke: #475467; stroke-width: 0.5; stroke-linejoin: miter"/>
   </g>
   <g id="patch_8">
    <path d="M 114.1686 301.519872 
C 115.639554 301.519872 117.05046 301.176391 118.090582 300.565078 
C 119.130704 299.953764 119.71512 299.124528 119.71512 298.26 
C 119.71512 297.395472 119.130704 296.566236 118.090582 295.954922 
C 117.05046 295.343609 115.639554 295.000128 114.1686 295.000128 
C 112.697646 295.000128 111.28674 295.343609 110.246618 295.954922 
C 109.206496 296.566236 108.62208 297.395472 108.62208 298.26 
C 108.62208 299.124528 109.206496 299.953764 110.246618 300.565078 
C 111.28674 301.176391 112.697646 301.519872 114.1686 301.519872 
z
" clip-path="url(#pf1f26b2d10)" style="fill: #4a78b8; stroke: #475467; stroke-width: 0.5; stroke-linejoin: miter"/>
   </g>
   <g id="patch_9">
    <path d="M 145.863 313.162272 
C 147.333954 313.162272 148.74486 312.818791 149.784982 312.207478 
C 150.825104 311.596164 151.40952 310.766928 151.40952 309.9024 
C 151.40952 309.037872 150.825104 308.208636 149.784982 307.597322 
C 148.74486 306.986009 147.333954 306.642528 145.863 306.642528 
C 144.392046 306.642528 142.98114 306.986009 141.941018 307.597322 
C 140.900896 308.208636 140.31648 309.037872 140.31648 309.9024 
C 140.31648 310.766928 140.900896 311.596164 141.941018 312.207478 
C 142.98114 312.818791 144.392046 313.162272 145.863 313.162272 
z
" clip-path="url(#pf1f26b2d10)" style="fill: #4a78b8; stroke: #475467; stroke-width: 0.5; stroke-linejoin: miter"/>
   </g>
   <g id="patch_10">
    <path d="M 252.8316 153.428544 
L 346.33008 153.428544 
Q 366.93144 153.428544 366.93144 141.320448 
L 366.93144 109.65312 
Q 366.93144 97.545024 346.33008 97.545024 
L 252.8316 97.545024 
Q 232.23024 97.545024 232.23024 109.65312 
L 232.23024 141.320448 
Q 232.23024 153.428544 252.8316 153.428544 
z
" clip-path="url(#pf1f26b2d10)" style="fill: #dfe7f1; opacity: 0.35"/>
   </g>
   <g id="patch_11">
    <path d="M 252.8316 241.910784 
L 346.33008 241.910784 
Q 366.93144 241.910784 366.93144 229.802688 
L 366.93144 193.4784 
Q 366.93144 181.370304 346.33008 181.370304 
L 252.8316 181.370304 
Q 232.23024 181.370304 232.23024 193.4784 
L 232.23024 229.802688 
Q 232.23024 241.910784 252.8316 241.910784 
z
" clip-path="url(#pf1f26b2d10)" style="fill: #dfe7f1; opacity: 0.35"/>
   </g>
   <g id="patch_12">
    <path d="M 256.00104 349.020864 
L 343.16064 349.020864 
Q 366.93144 349.020864 366.93144 335.049984 
L 366.93144 297.794304 
Q 366.93144 283.823424 343.16064 283.823424 
L 256.00104 283.823424 
Q 232.23024 283.823424 232.23024 297.794304 
L 232.23024 335.049984 
Q 232.23024 349.020864 256.00104 349.020864 
z
" clip-path="url(#pf1f26b2d10)" style="fill: #dfe7f1; opacity: 0.35"/>
   </g>
   <g id="patch_13">
    <path d="M 296.4114 148.90529 
Q 296.4114 165.534182 296.4114 181.156843 
" clip-path="url(#pf1f26b2d10)" style="fill: none; stroke: #475467; stroke-width: 0.9; stroke-linecap: round"/>
    <path d="M 298.0114 177.956843 
L 296.4114 181.156843 
L 294.8114 177.956843 
z
" clip-path="url(#pf1f26b2d10)" style="fill: #475467; stroke: #475467; stroke-width: 0.9; stroke-linecap: round"/>
   </g>
   <g id="patch_14">
    <path d="M 296.4114 237.388951 
Q 296.4114 261.00422 296.4114 283.613258 
" clip-path="url(#pf1f26b2d10)" style="fill: none; stroke: #475467; stroke-width: 0.9; stroke-linecap: round"/>
    <path d="M 298.0114 280.413258 
L 296.4114 283.613258 
L 294.8114 280.413258 
z
" clip-path="url(#pf1f26b2d10)" style="fill: #475467; stroke: #475467; stroke-width: 0.9; stroke-linecap: round"/>
   </g>
   <g id="patch_15">
    <path d="M 264.717 313.162272 
C 266.187954 313.162272 267.59886 312.818791 268.638982 312.207478 
C 269.679104 311.596164 270.26352 310.766928 270.26352 309.9024 
C 270.26352 309.037872 269.679104 308.208636 268.638982 307.597322 
C 267.59886 306.986009 266.187954 306.642528 264.717 306.642528 
C 263.246046 306.642528 261.83514 306.986009 260.795018 307.597322 
C 259.754896 308.208636 259.17048 309.037872 259.17048 309.9024 
C 259.17048 310.766928 259.754896 311.596164 260.795018 312.207478 
C 261.83514 312.818791 263.246046 313.162272 264.717 313.162272 
z
" clip-path="url(#pf1f26b2d10)" style="fill: #4a78b8; stroke: #475467; stroke-width: 0.5; stroke-linejoin: miter"/>
   </g>
   <g id="patch_16">
    <path d="M 296.4114 301.519872 
C 297.882354 301.519872 299.29326 301.176391 300.333382 300.565078 
C 301.373504 299.953764 301.95792 299.124528 301.95792 298.26 
C 301.95792 297.395472 301.373504 296.566236 300.333382 295.954922 
C 299.29326 295.343609 297.882354 295.000128 296.4114 295.000128 
C 294.940446 295.000128 293.52954 295.343609 292.489418 295.954922 
C 291.449296 296.566236 290.86488 297.395472 290.86488 298.26 
C 290.86488 299.124528 291.449296 299.953764 292.489418 300.565078 
C 293.52954 301.176391 294.940446 301.519872 296.4114 301.519872 
z
" clip-path="url(#pf1f26b2d10)" style="fill: #4a78b8; stroke: #475467; stroke-width: 0.5; stroke-linejoin: miter"/>
   </g>
   <g id="patch_17">
    <path d="M 328.1058 313.162272 
C 329.576754 313.162272 330.98766 312.818791 332.027782 312.207478 
C 333.067904 311.596164 333.65232 310.766928 333.65232 309.9024 
C 333.65232 309.037872 333.067904 308.208636 332.027782 307.597322 
C 330.98766 306.986009 329.576754 306.642528 328.1058 306.642528 
C 326.634846 306.642528 325.22394 306.986009 324.183818 307.597322 
C 323.143696 308.208636 322.55928 309.037872 322.55928 309.9024 
C 322.55928 310.766928 323.143696 311.596164 324.183818 312.207478 
C 325.22394 312.818791 326.634846 313.162272 328.1058 313.162272 
z
" clip-path="url(#pf1f26b2d10)" style="fill: #4a78b8; stroke: #475467; stroke-width: 0.5; stroke-linejoin: miter"/>
   </g>
   <g id="patch_18">
    <path d="M 435.0744 153.428544 
L 528.57288 153.428544 
Q 549.17424 153.428544 549.17424 141.320448 
L 549.17424 109.65312 
Q 549.17424 97.545024 528.57288 97.545024 
L 435.0744 97.545024 
Q 414.47304 97.545024 414.47304 109.65312 
L 414.47304 141.320448 
Q 414.47304 153.428544 435.0744 153.428544 
z
" clip-path="url(#pf1f26b2d10)" style="fill: #dfe7f1; opacity: 0.35"/>
   </g>
   <g id="patch_19">
    <path d="M 435.0744 241.910784 
L 528.57288 241.910784 
Q 549.17424 241.910784 549.17424 229.802688 
L 549.17424 193.4784 
Q 549.17424 181.370304 528.57288 181.370304 
L 435.0744 181.370304 
Q 414.47304 181.370304 414.47304 193.4784 
L 414.47304 229.802688 
Q 414.47304 241.910784 435.0744 241.910784 
z
" clip-path="url(#pf1f26b2d10)" style="fill: #dfe7f1; opacity: 0.35"/>
   </g>
   <g id="patch_20">
    <path d="M 438.24384 349.020864 
L 525.40344 349.020864 
Q 549.17424 349.020864 549.17424 335.049984 
L 549.17424 297.794304 
Q 549.17424 283.823424 525.40344 283.823424 
L 438.24384 283.823424 
Q 414.47304 283.823424 414.47304 297.794304 
L 414.47304 335.049984 
Q 414.47304 349.020864 438.24384 349.020864 
z
" clip-path="url(#pf1f26b2d10)" style="fill: #dfe7f1; opacity: 0.35"/>
   </g>
   <g id="patch_21">
    <path d="M 478.6542 148.90529 
Q 478.6542 165.534182 478.6542 181.156843 
" clip-path="url(#pf1f26b2d10)" style="fill: none; stroke: #475467; stroke-width: 0.9; stroke-linecap: round"/>
    <path d="M 480.2542 177.956843 
L 478.6542 181.156843 
L 477.0542 177.956843 
z
" clip-path="url(#pf1f26b2d10)" style="fill: #475467; stroke: #475467; stroke-width: 0.9; stroke-linecap: round"/>
   </g>
   <g id="patch_22">
    <path d="M 478.6542 237.388951 
Q 478.6542 261.00422 478.6542 283.613258 
" clip-path="url(#pf1f26b2d10)" style="fill: none; stroke: #475467; stroke-width: 0.9; stroke-linecap: round"/>
    <path d="M 480.2542 280.413258 
L 478.6542 283.613258 
L 477.0542 280.413258 
z
" clip-path="url(#pf1f26b2d10)" style="fill: #475467; stroke: #475467; stroke-width: 0.9; stroke-linecap: round"/>
   </g>
   <g id="patch_23">
    <path d="M 446.9598 313.162272 
C 448.430754 313.162272 449.84166 312.818791 450.881782 312.207478 
C 451.921904 311.596164 452.50632 310.766928 452.50632 309.9024 
C 452.50632 309.037872 451.921904 308.208636 450.881782 307.597322 
C 449.84166 306.986009 448.430754 306.642528 446.9598 306.642528 
C 445.488846 306.642528 444.07794 306.986009 443.037818 307.597322 
C 441.997696 308.208636 441.41328 309.037872 441.41328 309.9024 
C 441.41328 310.766928 441.997696 311.596164 443.037818 312.207478 
C 444.07794 312.818791 445.488846 313.162272 446.9598 313.162272 
z
" clip-path="url(#pf1f26b2d10)" style="fill: #4a78b8; stroke: #475467; stroke-width: 0.5; stroke-linejoin: miter"/>
   </g>
   <g id="patch_24">
    <path d="M 478.6542 301.519872 
C 480.125154 301.519872 481.53606 301.176391 482.576182 300.565078 
C 483.616304 299.953764 484.20072 299.124528 484.20072 298.26 
C 484.20072 297.395472 483.616304 296.566236 482.576182 295.954922 
C 481.53606 295.343609 480.125154 295.000128 478.6542 295.000128 
C 477.183246 295.000128 475.77234 295.343609 474.732218 295.954922 
C 473.692096 296.566236 473.10768 297.395472 473.10768 298.26 
C 473.10768 299.124528 473.692096 299.953764 474.732218 300.565078 
C 475.77234 301.176391 477.183246 301.519872 478.6542 301.519872 
z
" clip-path="url(#pf1f26b2d10)" style="fill: #4a78b8; stroke: #475467; stroke-width: 0.5; stroke-linejoin: miter"/>
   </g>
   <g id="patch_25">
    <path d="M 510.3486 313.162272 
C 511.819554 313.162272 513.23046 312.818791 514.270582 312.207478 
C 515.310704 311.596164 515.89512 310.766928 515.89512 309.9024 
C 515.89512 309.037872 515.310704 308.208636 514.270582 307.597322 
C 513.23046 306.986009 511.819554 306.642528 510.3486 306.642528 
C 508.877646 306.642528 507.46674 306.986009 506.426618 307.597322 
C 505.386496 308.208636 504.80208 309.037872 504.80208 309.9024 
C 504.80208 310.766928 505.386496 311.596164 506.426618 312.207478 
C 507.46674 312.818791 508.877646 313.162272 510.3486 313.162272 
z
" clip-path="url(#pf1f26b2d10)" style="fill: #4a78b8; stroke: #475467; stroke-width: 0.5; stroke-linejoin: miter"/>
   </g>
   <g id="patch_26">
    <path d="M 617.3172 153.428544 
L 710.81568 153.428544 
Q 731.41704 153.428544 731.41704 141.320448 
L 731.41704 109.65312 
Q 731.41704 97.545024 710.81568 97.545024 
L 617.3172 97.545024 
Q 596.71584 97.545024 596.71584 109.65312 
L 596.71584 141.320448 
Q 596.71584 153.428544 617.3172 153.428544 
z
" clip-path="url(#pf1f26b2d10)" style="fill: #dfe7f1; opacity: 0.35"/>
   </g>
   <g id="patch_27">
    <path d="M 617.3172 241.910784 
L 710.81568 241.910784 
Q 731.41704 241.910784 731.41704 229.802688 
L 731.41704 193.4784 
Q 731.41704 181.370304 710.81568 181.370304 
L 617.3172 181.370304 
Q 596.71584 181.370304 596.71584 193.4784 
L 596.71584 229.802688 
Q 596.71584 241.910784 617.3172 241.910784 
z
" clip-path="url(#pf1f26b2d10)" style="fill: #dfe7f1; opacity: 0.35"/>
   </g>
   <g id="patch_28">
    <path d="M 620.48664 349.020864 
L 707.64624 349.020864 
Q 731.41704 349.020864 731.41704 335.049984 
L 731.41704 297.794304 
Q 731.41704 283.823424 707.64624 283.823424 
L 620.48664 283.823424 
Q 596.71584 283.823424 596.71584 297.794304 
L 596.71584 335.049984 
Q 596.71584 349.020864 620.48664 349.020864 
z
" clip-path="url(#pf1f26b2d10)" style="fill: #dfe7f1; opacity: 0.35"/>
   </g>
   <g id="patch_29">
    <path d="M 660.897 148.90529 
Q 660.897 165.534182 660.897 181.156843 
" clip-path="url(#pf1f26b2d10)" style="fill: none; stroke: #475467; stroke-width: 0.9; stroke-linecap: round"/>
    <path d="M 662.497 177.956843 
L 660.897 181.156843 
L 659.297 177.956843 
z
" clip-path="url(#pf1f26b2d10)" style="fill: #475467; stroke: #475467; stroke-width: 0.9; stroke-linecap: round"/>
   </g>
   <g id="patch_30">
    <path d="M 660.897 237.388951 
Q 660.897 261.00422 660.897 283.613258 
" clip-path="url(#pf1f26b2d10)" style="fill: none; stroke: #475467; stroke-width: 0.9; stroke-linecap: round"/>
    <path d="M 662.497 280.413258 
L 660.897 283.613258 
L 659.297 280.413258 
z
" clip-path="url(#pf1f26b2d10)" style="fill: #475467; stroke: #475467; stroke-width: 0.9; stroke-linecap: round"/>
   </g>
   <g id="patch_31">
    <path d="M 629.2026 313.162272 
C 630.673554 313.162272 632.08446 312.818791 633.124582 312.207478 
C 634.164704 311.596164 634.74912 310.766928 634.74912 309.9024 
C 634.74912 309.037872 634.164704 308.208636 633.124582 307.597322 
C 632.08446 306.986009 630.673554 306.642528 629.2026 306.642528 
C 627.731646 306.642528 626.32074 306.986009 625.280618 307.597322 
C 624.240496 308.208636 623.65608 309.037872 623.65608 309.9024 
C 623.65608 310.766928 624.240496 311.596164 625.280618 312.207478 
C 626.32074 312.818791 627.731646 313.162272 629.2026 313.162272 
z
" clip-path="url(#pf1f26b2d10)" style="fill: #4a78b8; stroke: #475467; stroke-width: 0.5; stroke-linejoin: miter"/>
   </g>
   <g id="patch_32">
    <path d="M 660.897 301.519872 
C 662.367954 301.519872 663.77886 301.176391 664.818982 300.565078 
C 665.859104 299.953764 666.44352 299.124528 666.44352 298.26 
C 666.44352 297.395472 665.859104 296.566236 664.818982 295.954922 
C 663.77886 295.343609 662.367954 295.000128 660.897 295.000128 
C 659.426046 295.000128 658.01514 295.343609 656.975018 295.954922 
C 655.934896 296.566236 655.35048 297.395472 655.35048 298.26 
C 655.35048 299.124528 655.934896 299.953764 656.975018 300.565078 
C 658.01514 301.176391 659.426046 301.519872 660.897 301.519872 
z
" clip-path="url(#pf1f26b2d10)" style="fill: #4a78b8; stroke: #475467; stroke-width: 0.5; stroke-linejoin: miter"/>
   </g>
   <g id="patch_33">
    <path d="M 692.5914 313.162272 
C 694.062354 313.162272 695.47326 312.818791 696.513382 312.207478 
C 697.553504 311.596164 698.13792 310.766928 698.13792 309.9024 
C 698.13792 309.037872 697.553504 308.208636 696.513382 307.597322 
C 695.47326 306.986009 694.062354 306.642528 692.5914 306.642528 
C 691.120446 306.642528 689.70954 306.986009 688.669418 307.597322 
C 687.629296 308.208636 687.04488 309.037872 687.04488 309.9024 
C 687.04488 310.766928 687.629296 311.596164 688.669418 312.207478 
C 689.70954 312.818791 691.120446 313.162272 692.5914 313.162272 
z
" clip-path="url(#pf1f26b2d10)" style="fill: #4a78b8; stroke: #475467; stroke-width: 0.5; stroke-linejoin: miter"/>
   </g>
   <g id="patch_34">
    <path d="M 303.54264 451.473984 
L 509.55624 451.473984 
Q 541.25064 451.473984 541.25064 432.846144 
L 541.25064 404.904384 
Q 541.25064 386.276544 509.55624 386.276544 
L 303.54264 386.276544 
Q 271.84824 386.276544 271.84824 404.904384 
L 271.84824 432.846144 
Q 271.84824 451.473984 303.54264 451.473984 
z
" clip-path="url(#pf1f26b2d10)" style="fill: #dfe7f1; opacity: 0.35"/>
   </g>
   <g id="patch_35">
    <path d="M 114.1686 344.503294 
Q 114.1686 356.474071 114.1686 367.438617 
" clip-path="url(#pf1f26b2d10)" style="fill: none; stroke: #b07243; stroke-width: 0.9; stroke-linecap: round"/>
    <path d="M 115.7686 364.238617 
L 114.1686 367.438617 
L 112.5686 364.238617 
z
" clip-path="url(#pf1f26b2d10)" style="fill: #b07243; stroke: #b07243; stroke-width: 0.9; stroke-linecap: round"/>
   </g>
   <g id="patch_36">
    <path d="M 296.4114 344.503294 
Q 296.4114 356.474071 296.4114 367.438617 
" clip-path="url(#pf1f26b2d10)" style="fill: none; stroke: #b07243; stroke-width: 0.9; stroke-linecap: round"/>
    <path d="M 298.0114 364.238617 
L 296.4114 367.438617 
L 294.8114 364.238617 
z
" clip-path="url(#pf1f26b2d10)" style="fill: #b07243; stroke: #b07243; stroke-width: 0.9; stroke-linecap: round"/>
   </g>
   <g id="patch_37">
    <path d="M 478.6542 344.503294 
Q 478.6542 356.474071 478.6542 367.438617 
" clip-path="url(#pf1f26b2d10)" style="fill: none; stroke: #b07243; stroke-width: 0.9; stroke-linecap: round"/>
    <path d="M 480.2542 364.238617 
L 478.6542 367.438617 
L 477.0542 364.238617 
z
" clip-path="url(#pf1f26b2d10)" style="fill: #b07243; stroke: #b07243; stroke-width: 0.9; stroke-linecap: round"/>
   </g>
   <g id="patch_38">
    <path d="M 660.897 344.503294 
Q 660.897 356.474071 660.897 367.438617 
" clip-path="url(#pf1f26b2d10)" style="fill: none; stroke: #b07243; stroke-width: 0.9; stroke-linecap: round"/>
    <path d="M 662.497 364.238617 
L 660.897 367.438617 
L 659.297 364.238617 
z
" clip-path="url(#pf1f26b2d10)" style="fill: #b07243; stroke: #b07243; stroke-width: 0.9; stroke-linecap: round"/>
   </g>
   <g id="patch_39">
    <path d="M 403.38 372.43937 
Q 403.38 379.754159 403.38 386.062718 
" clip-path="url(#pf1f26b2d10)" style="fill: none; stroke: #b07243; stroke-width: 0.9; stroke-linecap: round"/>
    <path d="M 404.98 382.862718 
L 403.38 386.062718 
L 401.78 382.862718 
z
" clip-path="url(#pf1f26b2d10)" style="fill: #b07243; stroke: #b07243; stroke-width: 0.9; stroke-linecap: round"/>
   </g>
   <g id="patch_40">
    <path d="M 67.41936 151.56576 
L 160.91784 151.56576 
Q 181.5192 151.56576 181.5192 139.457664 
L 181.5192 107.790336 
Q 181.5192 95.68224 160.91784 95.68224 
L 67.41936 95.68224 
Q 46.818 95.68224 46.818 107.790336 
L 46.818 139.457664 
Q 46.818 151.56576 67.41936 151.56576 
z
" clip-path="url(#pf1f26b2d10)" style="fill: #edf4ff; stroke: #475467; stroke-linejoin: miter"/>
   </g>
   <g id="patch_41">
    <path d="M 67.41936 240.048 
L 160.91784 240.048 
Q 181.5192 240.048 181.5192 227.939904 
L 181.5192 191.615616 
Q 181.5192 179.50752 160.91784 179.50752 
L 67.41936 179.50752 
Q 46.818 179.50752 46.818 191.615616 
L 46.818 227.939904 
Q 46.818 240.048 67.41936 240.048 
z
" clip-path="url(#pf1f26b2d10)" style="fill: #fff2e8; stroke: #475467; stroke-linejoin: miter"/>
   </g>
   <g id="patch_42">
    <path d="M 70.5888 347.15808 
L 157.7484 347.15808 
Q 181.5192 347.15808 181.5192 333.1872 
L 181.5192 295.93152 
Q 181.5192 281.96064 157.7484 281.96064 
L 70.5888 281.96064 
Q 46.818 281.96064 46.818 295.93152 
L 46.818 333.1872 
Q 46.818 347.15808 70.5888 347.15808 
z
" clip-path="url(#pf1f26b2d10)" style="fill: #fff7f0; stroke: #475467; stroke-linejoin: miter"/>
   </g>
   <g id="patch_43">
    <path d="M 249.66216 151.56576 
L 343.16064 151.56576 
Q 363.762 151.56576 363.762 139.457664 
L 363.762 107.790336 
Q 363.762 95.68224 343.16064 95.68224 
L 249.66216 95.68224 
Q 229.0608 95.68224 229.0608 107.790336 
L 229.0608 139.457664 
Q 229.0608 151.56576 249.66216 151.56576 
z
" clip-path="url(#pf1f26b2d10)" style="fill: #edf4ff; stroke: #475467; stroke-linejoin: miter"/>
   </g>
   <g id="patch_44">
    <path d="M 249.66216 240.048 
L 343.16064 240.048 
Q 363.762 240.048 363.762 227.939904 
L 363.762 191.615616 
Q 363.762 179.50752 343.16064 179.50752 
L 249.66216 179.50752 
Q 229.0608 179.50752 229.0608 191.615616 
L 229.0608 227.939904 
Q 229.0608 240.048 249.66216 240.048 
z
" clip-path="url(#pf1f26b2d10)" style="fill: #fff2e8; stroke: #475467; stroke-linejoin: miter"/>
   </g>
   <g id="patch_45">
    <path d="M 252.8316 347.15808 
L 339.9912 347.15808 
Q 363.762 347.15808 363.762 333.1872 
L 363.762 295.93152 
Q 363.762 281.96064 339.9912 281.96064 
L 252.8316 281.96064 
Q 229.0608 281.96064 229.0608 295.93152 
L 229.0608 333.1872 
Q 229.0608 347.15808 252.8316 347.15808 
z
" clip-path="url(#pf1f26b2d10)" style="fill: #fff7f0; stroke: #475467; stroke-linejoin: miter"/>
   </g>
   <g id="patch_46">
    <path d="M 431.90496 151.56576 
L 525.40344 151.56576 
Q 546.0048 151.56576 546.0048 139.457664 
L 546.0048 107.790336 
Q 546.0048 95.68224 525.40344 95.68224 
L 431.90496 95.68224 
Q 411.3036 95.68224 411.3036 107.790336 
L 411.3036 139.457664 
Q 411.3036 151.56576 431.90496 151.56576 
z
" clip-path="url(#pf1f26b2d10)" style="fill: #edf4ff; stroke: #475467; stroke-linejoin: miter"/>
   </g>
   <g id="patch_47">
    <path d="M 431.90496 240.048 
L 525.40344 240.048 
Q 546.0048 240.048 546.0048 227.939904 
L 546.0048 191.615616 
Q 546.0048 179.50752 525.40344 179.50752 
L 431.90496 179.50752 
Q 411.3036 179.50752 411.3036 191.615616 
L 411.3036 227.939904 
Q 411.3036 240.048 431.90496 240.048 
z
" clip-path="url(#pf1f26b2d10)" style="fill: #fff2e8; stroke: #475467; stroke-linejoin: miter"/>
   </g>
   <g id="patch_48">
    <path d="M 435.0744 347.15808 
L 522.234 347.15808 
Q 546.0048 347.15808 546.0048 333.1872 
L 546.0048 295.93152 
Q 546.0048 281.96064 522.234 281.96064 
L 435.0744 281.96064 
Q 411.3036 281.96064 411.3036 295.93152 
L 411.3036 333.1872 
Q 411.3036 347.15808 435.0744 347.15808 
z
" clip-path="url(#pf1f26b2d10)" style="fill: #fff7f0; stroke: #475467; stroke-linejoin: miter"/>
   </g>
   <g id="patch_49">
    <path d="M 614.14776 151.56576 
L 707.64624 151.56576 
Q 728.2476 151.56576 728.2476 139.457664 
L 728.2476 107.790336 
Q 728.2476 95.68224 707.64624 95.68224 
L 614.14776 95.68224 
Q 593.5464 95.68224 593.5464 107.790336 
L 593.5464 139.457664 
Q 593.5464 151.56576 614.14776 151.56576 
z
" clip-path="url(#pf1f26b2d10)" style="fill: #edf4ff; stroke: #475467; stroke-linejoin: miter"/>
   </g>
   <g id="patch_50">
    <path d="M 614.14776 240.048 
L 707.64624 240.048 
Q 728.2476 240.048 728.2476 227.939904 
L 728.2476 191.615616 
Q 728.2476 179.50752 707.64624 179.50752 
L 614.14776 179.50752 
Q 593.5464 179.50752 593.5464 191.615616 
L 593.5464 227.939904 
Q 593.5464 240.048 614.14776 240.048 
z
" clip-path="url(#pf1f26b2d10)" style="fill: #fff2e8; stroke: #475467; stroke-linejoin: miter"/>
   </g>
   <g id="patch_51">
    <path d="M 617.3172 347.15808 
L 704.4768 347.15808 
Q 728.2476 347.15808 728.2476 333.1872 
L 728.2476 295.93152 
Q 728.2476 281.96064 704.4768 281.96064 
L 617.3172 281.96064 
Q 593.5464 281.96064 593.5464 295.93152 
L 593.5464 333.1872 
Q 593.5464 347.15808 617.3172 347.15808 
z
" clip-path="url(#pf1f26b2d10)" style="fill: #fff7f0; stroke: #475467; stroke-linejoin: miter"/>
   </g>
   <g id="patch_52">
    <path d="M 300.3732 449.6112 
L 506.3868 449.6112 
Q 538.0812 449.6112 538.0812 430.98336 
L 538.0812 403.0416 
Q 538.0812 384.41376 506.3868 384.41376 
L 300.3732 384.41376 
Q 268.6788 384.41376 268.6788 403.0416 
L 268.6788 430.98336 
Q 268.6788 449.6112 300.3732 449.6112 
z
" clip-path="url(#pf1f26b2d10)" style="fill: #eef9f1; stroke: #475467; stroke-linejoin: miter"/>
   </g>
   <g id="line2d_1">
    <path d="M 114.1686 370.44288 
L 660.897 370.44288 
" clip-path="url(#pf1f26b2d10)" style="fill: none; stroke: #b07243; stroke-linecap: round"/>
   </g>
   <g id="text_1">
    <text style="font-weight: 700; font-size: 18px; font-family: 'Source Han Sans CN', 'Noto Sans CJK SC', 'Microsoft YaHei UI', 'Microsoft YaHei', 'PingFang SC', 'Heiti SC', 'SimHei', 'DejaVu Sans', sans-serif; text-anchor: start; fill: #1f2937" x="30.9708" y="44.87355" transform="rotate(-0 30.9708 44.87355)">图4 多源候选解协同生成示意图</text>
   </g>
   <g id="text_2">
    <text style="font-size: 10.6px; font-family: 'Source Han Sans CN', 'Noto Sans CJK SC', 'Microsoft YaHei UI', 'Microsoft YaHei', 'PingFang SC', 'Heiti SC', 'SimHei', 'DejaVu Sans', sans-serif; text-anchor: start; fill: #667085" x="30.9708" y="57.586015" transform="rotate(-0 30.9708 57.586015)">记忆、预测、迁移和重初始化四类机制只负责提名候选，所有候选统一汇入候选池，任何单模块都不直接决定最终轨迹。</text>
   </g>
   <g id="text_3">
    <text style="font-size: 10.2px; font-family: 'Source Han Sans CN', 'Noto Sans CJK SC', 'Microsoft YaHei UI', 'Microsoft YaHei', 'PingFang SC', 'Heiti SC', 'SimHei', 'DejaVu Sans', sans-serif; text-anchor: middle; fill: #1f2937" x="114.1686" y="126.432984" transform="rotate(-0 114.1686 126.432984)">历史记忆库</text>
   </g>
   <g id="text_4">
    <text style="font-size: 10.2px; font-family: 'Source Han Sans CN', 'Noto Sans CJK SC', 'Microsoft YaHei UI', 'Microsoft YaHei', 'PingFang SC', 'Heiti SC', 'SimHei', 'DejaVu Sans', sans-serif; text-anchor: middle; fill: #1f2937" x="114.1686" y="212.586744" transform="rotate(-0 114.1686 212.586744)">历史记忆模块</text>
   </g>
   <g id="text_5">
    <text style="font-size: 10.2px; font-family: 'Source Han Sans CN', 'Noto Sans CJK SC', 'Microsoft YaHei UI', 'Microsoft YaHei', 'PingFang SC', 'Heiti SC', 'SimHei', 'DejaVu Sans', sans-serif; text-anchor: middle; fill: #1f2937" x="114.1686" y="317.368344" transform="rotate(-0 114.1686 317.368344)">记忆候选</text>
   </g>
   <g id="text_6">
    <text style="font-size: 10.2px; font-family: 'Source Han Sans CN', 'Noto Sans CJK SC', 'Microsoft YaHei UI', 'Microsoft YaHei', 'PingFang SC', 'Heiti SC', 'SimHei', 'DejaVu Sans', sans-serif; text-anchor: middle; fill: #1f2937" x="296.4114" y="126.432984" transform="rotate(-0 296.4114 126.432984)">前沿特征序列</text>
   </g>
   <g id="text_7">
    <text style="font-size: 10.2px; font-family: 'Source Han Sans CN', 'Noto Sans CJK SC', 'Microsoft YaHei UI', 'Microsoft YaHei', 'PingFang SC', 'Heiti SC', 'SimHei', 'DejaVu Sans', sans-serif; text-anchor: middle; fill: #1f2937" x="296.4114" y="212.586744" transform="rotate(-0 296.4114 212.586744)">前沿预测模块</text>
   </g>
   <g id="text_8">
    <text style="font-size: 10.2px; font-family: 'Source Han Sans CN', 'Noto Sans CJK SC', 'Microsoft YaHei UI', 'Microsoft YaHei', 'PingFang SC', 'Heiti SC', 'SimHei', 'DejaVu Sans', sans-serif; text-anchor: middle; fill: #1f2937" x="296.4114" y="317.368344" transform="rotate(-0 296.4114 317.368344)">预测候选</text>
   </g>
   <g id="text_9">
    <text style="font-size: 10.2px; font-family: 'Source Han Sans CN', 'Noto Sans CJK SC', 'Microsoft YaHei UI', 'Microsoft YaHei', 'PingFang SC', 'Heiti SC', 'SimHei', 'DejaVu Sans', sans-serif; text-anchor: middle; fill: #1f2937" x="478.6542" y="126.432984" transform="rotate(-0 478.6542 126.432984)">历史源环境集合</text>
   </g>
   <g id="text_10">
    <text style="font-size: 10.2px; font-family: 'Source Han Sans CN', 'Noto Sans CJK SC', 'Microsoft YaHei UI', 'Microsoft YaHei', 'PingFang SC', 'Heiti SC', 'SimHei', 'DejaVu Sans', sans-serif; text-anchor: middle; fill: #1f2937" x="478.6542" y="212.586744" transform="rotate(-0 478.6542 212.586744)">跨环境迁移模块</text>
   </g>
   <g id="text_11">
    <text style="font-size: 10.2px; font-family: 'Source Han Sans CN', 'Noto Sans CJK SC', 'Microsoft YaHei UI', 'Microsoft YaHei', 'PingFang SC', 'Heiti SC', 'SimHei', 'DejaVu Sans', sans-serif; text-anchor: middle; fill: #1f2937" x="478.6542" y="317.368344" transform="rotate(-0 478.6542 317.368344)">迁移候选</text>
   </g>
   <g id="text_12">
    <text style="font-size: 10.2px; font-family: 'Source Han Sans CN', 'Noto Sans CJK SC', 'Microsoft YaHei UI', 'Microsoft YaHei', 'PingFang SC', 'Heiti SC', 'SimHei', 'DejaVu Sans', sans-serif; text-anchor: middle; fill: #1f2937" x="660.897" y="126.432984" transform="rotate(-0 660.897 126.432984)">探索预算触发</text>
   </g>
   <g id="text_13">
    <text style="font-size: 10.2px; font-family: 'Source Han Sans CN', 'Noto Sans CJK SC', 'Microsoft YaHei UI', 'Microsoft YaHei', 'PingFang SC', 'Heiti SC', 'SimHei', 'DejaVu Sans', sans-serif; text-anchor: middle; fill: #1f2937" x="660.897" y="212.586744" transform="rotate(-0 660.897 212.586744)">重初始化模块</text>
   </g>
   <g id="text_14">
    <text style="font-size: 10.2px; font-family: 'Source Han Sans CN', 'Noto Sans CJK SC', 'Microsoft YaHei UI', 'Microsoft YaHei', 'PingFang SC', 'Heiti SC', 'SimHei', 'DejaVu Sans', sans-serif; text-anchor: middle; fill: #1f2937" x="660.897" y="317.368344" transform="rotate(-0 660.897 317.368344)">重初始化候选</text>
   </g>
   <g id="text_15">
    <text style="font-size: 11px; font-family: 'Source Han Sans CN', 'Noto Sans CJK SC', 'Microsoft YaHei UI', 'Microsoft YaHei', 'PingFang SC', 'Heiti SC', 'SimHei', 'DejaVu Sans', sans-serif; text-anchor: middle; fill: #1f2937" x="403.38" y="420.041777" transform="rotate(-0 403.38 420.041777)">统一候选池</text>
   </g>
   <g id="text_16">
    <text style="font-size: 10.2px; font-family: 'Source Han Sans CN', 'Noto Sans CJK SC', 'Microsoft YaHei UI', 'Microsoft YaHei', 'PingFang SC', 'Heiti SC', 'SimHei', 'DejaVu Sans', sans-serif; text-anchor: middle; fill: #667085" x="403.38" y="361.12896" transform="rotate(-0 403.38 361.12896)">并行提名</text>
   </g>
   <g id="text_17">
    <text style="font-size: 9.4px; font-family: 'Source Han Sans CN', 'Noto Sans CJK SC', 'Microsoft YaHei UI', 'Microsoft YaHei', 'PingFang SC', 'Heiti SC', 'SimHei', 'DejaVu Sans', sans-serif; text-anchor: middle; fill: #667085" x="403.38" y="465.91056" transform="rotate(-0 403.38 465.91056)">说明：候选池统一承接四类来源，最终优劣由环境选择决定，而非由单个模块直接输出。</text>
   </g>
  </g>
 </g>
 <defs>
  <clipPath id="pf1f26b2d10">
   <rect x="7.2" y="7.2" width="792.36" height="465.696"/>
  </clipPath>
 </defs>
</svg>
