<?xml version="1.0" encoding="utf-8" standalone="no"?>
<!DOCTYPE svg PUBLIC "-//W3C//DTD SVG 1.1//EN"
  "http://www.w3.org/Graphics/SVG/1.1/DTD/svg11.dtd">
<svg xmlns:xlink="http://www.w3.org/1999/xlink" width="840.24pt" height="502.272pt" viewBox="0 0 840.24 502.272" xmlns="http://www.w3.org/2000/svg" version="1.1">
 <metadata>
  <rdf:RDF xmlns:dc="http://purl.org/dc/elements/1.1/" xmlns:cc="http://creativecommons.org/ns#" xmlns:rdf="http://www.w3.org/1999/02/22-rdf-syntax-ns#">
   <cc:Work>
    <dc:type rdf:resource="http://purl.org/dc/dcmitype/StillImage"/>
    <dc:date>2026-04-16T21:15:25.588194</dc:date>
    <dc:format>image/svg+xml</dc:format>
    <dc:creator>
     <cc:Agent>
      <dc:title>Matplotlib v3.10.7, https://matplotlib.org/</dc:title>
     </cc:Agent>
    </dc:creator>
   </cc:Work>
  </rdf:RDF>
 </metadata>
 <defs>
  <style type="text/css">*{stroke-linejoin: round; stroke-linecap: butt}</style>
 </defs>
 <g id="figure_1">
  <g id="patch_1">
   <path d="M 0 502.272 
L 840.24 502.272 
L 840.24 0 
L 0 0 
z
" style="fill: #ffffff"/>
  </g>
  <g id="axes_1">
   <g id="patch_2">
    <path d="M 46.84032 428.721408 
L 182.27808 428.721408 
Q 192.18816 428.721408 192.18816 422.866944 
L 192.18816 98.919936 
Q 192.18816 93.065472 182.27808 93.065472 
L 46.84032 93.065472 
Q 36.93024 93.065472 36.93024 98.919936 
L 36.93024 422.866944 
Q 36.93024 428.721408 46.84032 428.721408 
L 46.84032 428.721408 
z
" clip-path="url(#p46a65353ad)" style="fill: none; stroke-dasharray: 2.96,1.28; stroke-dashoffset: 0; stroke: #d7dee8; stroke-width: 0.8; stroke-linejoin: miter"/>
   </g>
   <g id="patch_3">
    <path d="M 220.26672 189.664128 
L 653.00688 189.664128 
Q 662.91696 189.664128 662.91696 183.809664 
L 662.91696 94.041216 
Q 662.91696 88.186752 653.00688 88.186752 
L 220.26672 88.186752 
Q 210.35664 88.186752 210.35664 94.041216 
L 210.35664 183.809664 
Q 210.35664 189.664128 220.26672 189.664128 
L 220.26672 189.664128 
z
" clip-path="url(#p46a65353ad)" style="fill: none; stroke-dasharray: 2.96,1.28; stroke-dashoffset: 0; stroke: #d7dee8; stroke-width: 0.8; stroke-linejoin: miter"/>
   </g>
   <g id="patch_4">
    <path d="M 220.26672 321.389568 
L 653.00688 321.389568 
Q 662.91696 321.389568 662.91696 315.535104 
L 662.91696 240.402816 
Q 662.91696 234.548352 653.00688 234.548352 
L 220.26672 234.548352 
Q 210.35664 234.548352 210.35664 240.402816 
L 210.35664 315.535104 
Q 210.35664 321.389568 220.26672 321.389568 
L 220.26672 321.389568 
z
" clip-path="url(#p46a65353ad)" style="fill: none; stroke-dasharray: 2.96,1.28; stroke-dashoffset: 0; stroke: #d7dee8; stroke-width: 0.8; stroke-linejoin: miter"/>
   </g>
   <g id="patch_5">
    <path d="M 286.33392 457.993728 
L 603.45648 457.993728 
Q 613.36656 457.993728 613.36656 452.139264 
L 613.36656 362.370816 
Q 613.36656 356.516352 603.45648 356.516352 
L 286.33392 356.516352 
Q 276.42384 356.516352 276.42384 362.370816 
L 276.42384 452.139264 
Q 276.42384 457.993728 286.33392 457.993728 
L 286.33392 457.993728 
z
" clip-path="url(#p46a65353ad)" style="fill: none; stroke-dasharray: 2.96,1.28; stroke-dashoffset: 0; stroke: #d7dee8; stroke-width: 0.8; stroke-linejoin: miter"/>
   </g>
   <g id="patch_6">
    <path d="M 682.73712 428.721408 
L 793.39968 428.721408 
Q 803.30976 428.721408 803.30976 422.866944 
L 803.30976 98.919936 
Q 803.30976 93.065472 793.39968 93.065472 
L 682.73712 93.065472 
Q 672.82704 93.065472 672.82704 98.919936 
L 672.82704 422.866944 
Q 672.82704 428.721408 682.73712 428.721408 
L 682.73712 428.721408 
z
" clip-path="url(#p46a65353ad)" style="fill: none; stroke-dasharray: 2.96,1.28; stroke-dashoffset: 0; stroke: #d7dee8; stroke-width: 0.8; stroke-linejoin: miter"/>
   </g>
   <g id="patch_7">
    <path d="M 73.2672 170.149248 
L 162.45792 170.149248 
Q 183.92976 170.149248 183.92976 157.464576 
L 183.92976 129.168 
Q 183.92976 116.483328 162.45792 116.483328 
L 73.2672 116.483328 
Q 51.79536 116.483328 51.79536 129.168 
L 51.79536 157.464576 
Q 51.79536 170.149248 73.2672 170.149248 
z
" clip-path="url(#p46a65353ad)" style="fill: #dfe7f1; opacity: 0.35"/>
   </g>
   <g id="patch_8">
    <path d="M 73.2672 226.254528 
L 162.45792 226.254528 
Q 183.92976 226.254528 183.92976 213.569856 
L 183.92976 185.27328 
Q 183.92976 172.588608 162.45792 172.588608 
L 73.2672 172.588608 
Q 51.79536 172.588608 51.79536 185.27328 
L 51.79536 213.569856 
Q 51.79536 226.254528 73.2672 226.254528 
z
" clip-path="url(#p46a65353ad)" style="fill: #dfe7f1; opacity: 0.35"/>
   </g>
   <g id="patch_9">
    <path d="M 73.2672 279.920448 
L 162.45792 279.920448 
Q 183.92976 279.920448 183.92976 267.235776 
L 183.92976 238.9392 
Q 183.92976 226.254528 162.45792 226.254528 
L 73.2672 226.254528 
Q 51.79536 226.254528 51.79536 238.9392 
L 51.79536 267.235776 
Q 51.79536 279.920448 73.2672 279.920448 
z
" clip-path="url(#p46a65353ad)" style="fill: #dfe7f1; opacity: 0.35"/>
   </g>
   <g id="patch_10">
    <path d="M 73.2672 348.222528 
L 162.45792 348.222528 
Q 183.92976 348.222528 183.92976 335.537856 
L 183.92976 307.24128 
Q 183.92976 294.556608 162.45792 294.556608 
L 73.2672 294.556608 
Q 51.79536 294.556608 51.79536 307.24128 
L 51.79536 335.537856 
Q 51.79536 348.222528 73.2672 348.222528 
z
" clip-path="url(#p46a65353ad)" style="fill: #dfe7f1; opacity: 0.35"/>
   </g>
   <g id="patch_11">
    <path d="M 246.6936 170.149248 
L 302.85072 170.149248 
Q 324.32256 170.149248 324.32256 157.464576 
L 324.32256 114.53184 
Q 324.32256 101.847168 302.85072 101.847168 
L 246.6936 101.847168 
Q 225.22176 101.847168 225.22176 114.53184 
L 225.22176 157.464576 
Q 225.22176 170.149248 246.6936 170.149248 
z
" clip-path="url(#p46a65353ad)" style="fill: #dfe7f1; opacity: 0.35"/>
   </g>
   <g id="patch_12">
    <path d="M 370.5696 170.149248 
L 426.72672 170.149248 
Q 448.19856 170.149248 448.19856 157.464576 
L 448.19856 114.53184 
Q 448.19856 101.847168 426.72672 101.847168 
L 370.5696 101.847168 
Q 349.09776 101.847168 349.09776 114.53184 
L 349.09776 157.464576 
Q 349.09776 170.149248 370.5696 170.149248 
z
" clip-path="url(#p46a65353ad)" style="fill: #dfe7f1; opacity: 0.35"/>
   </g>
   <g id="patch_13">
    <path d="M 494.4456 170.149248 
L 550.60272 170.149248 
Q 572.07456 170.149248 572.07456 157.464576 
L 572.07456 114.53184 
Q 572.07456 101.847168 550.60272 101.847168 
L 494.4456 101.847168 
Q 472.97376 101.847168 472.97376 114.53184 
L 472.97376 157.464576 
Q 472.97376 170.149248 494.4456 170.149248 
z
" clip-path="url(#p46a65353ad)" style="fill: #dfe7f1; opacity: 0.35"/>
   </g>
   <g id="patch_14">
    <path d="M 618.3216 170.149248 
L 674.47872 170.149248 
Q 695.95056 170.149248 695.95056 157.464576 
L 695.95056 114.53184 
Q 695.95056 101.847168 674.47872 101.847168 
L 618.3216 101.847168 
Q 596.84976 101.847168 596.84976 114.53184 
L 596.84976 157.464576 
Q 596.84976 170.149248 618.3216 170.149248 
z
" clip-path="url(#p46a65353ad)" style="fill: #dfe7f1; opacity: 0.35"/>
   </g>
   <g id="patch_15">
    <path d="M 246.6936 306.753408 
L 302.85072 306.753408 
Q 324.32256 306.753408 324.32256 294.068736 
L 324.32256 260.89344 
Q 324.32256 248.208768 302.85072 248.208768 
L 246.6936 248.208768 
Q 225.22176 248.208768 225.22176 260.89344 
L 225.22176 294.068736 
Q 225.22176 306.753408 246.6936 306.753408 
z
" clip-path="url(#p46a65353ad)" style="fill: #dfe7f1; opacity: 0.35"/>
   </g>
   <g id="patch_16">
    <path d="M 362.3112 306.753408 
L 418.46832 306.753408 
Q 439.94016 306.753408 439.94016 294.068736 
L 439.94016 260.89344 
Q 439.94016 248.208768 418.46832 248.208768 
L 362.3112 248.208768 
Q 340.83936 248.208768 340.83936 260.89344 
L 340.83936 294.068736 
Q 340.83936 306.753408 362.3112 306.753408 
z
" clip-path="url(#p46a65353ad)" style="fill: #dfe7f1; opacity: 0.35"/>
   </g>
   <g id="patch_17">
    <path d="M 477.9288 306.753408 
L 534.08592 306.753408 
Q 555.55776 306.753408 555.55776 294.068736 
L 555.55776 260.89344 
Q 555.55776 248.208768 534.08592 248.208768 
L 477.9288 248.208768 
Q 456.45696 248.208768 456.45696 260.89344 
L 456.45696 294.068736 
Q 456.45696 306.753408 477.9288 306.753408 
z
" clip-path="url(#p46a65353ad)" style="fill: #dfe7f1; opacity: 0.35"/>
   </g>
   <g id="patch_18">
    <path d="M 593.5464 306.753408 
L 649.70352 306.753408 
Q 671.17536 306.753408 671.17536 294.068736 
L 671.17536 260.89344 
Q 671.17536 248.208768 649.70352 248.208768 
L 593.5464 248.208768 
Q 572.07456 248.208768 572.07456 260.89344 
L 572.07456 294.068736 
Q 572.07456 306.753408 593.5464 306.753408 
z
" clip-path="url(#p46a65353ad)" style="fill: #dfe7f1; opacity: 0.35"/>
   </g>
   <g id="patch_19">
    <path d="M 329.2776 414.085248 
L 426.72672 414.085248 
Q 448.19856 414.085248 448.19856 401.400576 
L 448.19856 368.22528 
Q 448.19856 355.540608 426.72672 355.540608 
L 329.2776 355.540608 
Q 307.80576 355.540608 307.80576 368.22528 
L 307.80576 401.400576 
Q 307.80576 414.085248 329.2776 414.085248 
z
" clip-path="url(#p46a65353ad)" style="fill: #dfe7f1; opacity: 0.35"/>
   </g>
   <g id="patch_20">
    <path d="M 494.4456 414.085248 
L 591.89472 414.085248 
Q 613.36656 414.085248 613.36656 401.400576 
L 613.36656 368.22528 
Q 613.36656 355.540608 591.89472 355.540608 
L 494.4456 355.540608 
Q 472.97376 355.540608 472.97376 368.22528 
L 472.97376 401.400576 
Q 472.97376 414.085248 494.4456 414.085248 
z
" clip-path="url(#p46a65353ad)" style="fill: #dfe7f1; opacity: 0.35"/>
   </g>
   <g id="patch_21">
    <path d="M 403.6032 477.508608 
L 525.82752 477.508608 
Q 547.29936 477.508608 547.29936 464.823936 
L 547.29936 436.52736 
Q 547.29936 423.842688 525.82752 423.842688 
L 403.6032 423.842688 
Q 382.13136 423.842688 382.13136 436.52736 
L 382.13136 464.823936 
Q 382.13136 477.508608 403.6032 477.508608 
z
" clip-path="url(#p46a65353ad)" style="fill: #dfe7f1; opacity: 0.35"/>
   </g>
   <g id="patch_22">
    <path d="M 717.4224 214.057728 
L 773.57952 214.057728 
Q 795.05136 214.057728 795.05136 201.373056 
L 795.05136 173.07648 
Q 795.05136 160.391808 773.57952 160.391808 
L 717.4224 160.391808 
Q 695.95056 160.391808 695.95056 173.07648 
L 695.95056 201.373056 
Q 695.95056 214.057728 717.4224 214.057728 
z
" clip-path="url(#p46a65353ad)" style="fill: #dfe7f1; opacity: 0.35"/>
   </g>
   <g id="patch_23">
    <path d="M 717.4224 284.799168 
L 773.57952 284.799168 
Q 795.05136 284.799168 795.05136 272.114496 
L 795.05136 243.81792 
Q 795.05136 231.133248 773.57952 231.133248 
L 717.4224 231.133248 
Q 695.95056 231.133248 695.95056 243.81792 
L 695.95056 272.114496 
Q 695.95056 284.799168 717.4224 284.799168 
z
" clip-path="url(#p46a65353ad)" style="fill: #dfe7f1; opacity: 0.35"/>
   </g>
   <g id="patch_24">
    <path d="M 717.4224 367.737408 
L 773.57952 367.737408 
Q 795.05136 367.737408 795.05136 355.052736 
L 795.05136 326.75616 
Q 795.05136 314.071488 773.57952 314.071488 
L 717.4224 314.071488 
Q 695.95056 314.071488 695.95056 326.75616 
L 695.95056 355.052736 
Q 695.95056 367.737408 717.4224 367.737408 
z
" clip-path="url(#p46a65353ad)" style="fill: #dfe7f1; opacity: 0.35"/>
   </g>
   <g id="patch_25">
    <path d="M 190.883369 134.04672 
Q 209.530001 134.04672 227.170403 134.04672 
" clip-path="url(#p46a65353ad)" style="fill: none; stroke: #d7dee8; stroke-width: 0.9; stroke-linecap: round"/>
    <path d="M 223.970403 132.44672 
L 227.170403 134.04672 
L 223.970403 135.64672 
z
" clip-path="url(#p46a65353ad)" style="fill: #d7dee8; stroke: #d7dee8; stroke-width: 0.9; stroke-linecap: round"/>
   </g>
   <g id="patch_26">
    <path d="M 314.759369 134.04672 
Q 333.406001 134.04672 351.046403 134.04672 
" clip-path="url(#p46a65353ad)" style="fill: none; stroke: #475467; stroke-width: 0.9; stroke-linecap: round"/>
    <path d="M 347.846403 132.44672 
L 351.046403 134.04672 
L 347.846403 135.64672 
z
" clip-path="url(#p46a65353ad)" style="fill: #475467; stroke: #475467; stroke-width: 0.9; stroke-linecap: round"/>
   </g>
   <g id="patch_27">
    <path d="M 438.635369 134.04672 
Q 457.282001 134.04672 474.922403 134.04672 
" clip-path="url(#p46a65353ad)" style="fill: none; stroke: #475467; stroke-width: 0.9; stroke-linecap: round"/>
    <path d="M 471.722403 132.44672 
L 474.922403 134.04672 
L 471.722403 135.64672 
z
" clip-path="url(#p46a65353ad)" style="fill: #475467; stroke: #475467; stroke-width: 0.9; stroke-linecap: round"/>
   </g>
   <g id="patch_28">
    <path d="M 562.511369 134.04672 
Q 581.158001 134.04672 598.798403 134.04672 
" clip-path="url(#p46a65353ad)" style="fill: none; stroke: #475467; stroke-width: 0.9; stroke-linecap: round"/>
    <path d="M 595.598403 132.44672 
L 598.798403 134.04672 
L 595.598403 135.64672 
z
" clip-path="url(#p46a65353ad)" style="fill: #475467; stroke: #475467; stroke-width: 0.9; stroke-linecap: round"/>
   </g>
   <g id="patch_29">
    <path d="M 271.4688 223.861144 
Q 271.4688 236.498072 271.4688 248.12877 
" clip-path="url(#p46a65353ad)" style="fill: none; stroke: #4a78b8; stroke-width: 0.9; stroke-linecap: round"/>
    <path d="M 273.0688 244.92877 
L 271.4688 248.12877 
L 269.8688 244.92877 
z
" clip-path="url(#p46a65353ad)" style="fill: #4a78b8; stroke: #4a78b8; stroke-width: 0.9; stroke-linecap: round"/>
   </g>
   <g id="patch_30">
    <path d="M 387.0864 223.861144 
Q 387.0864 236.498072 387.0864 248.12877 
" clip-path="url(#p46a65353ad)" style="fill: none; stroke: #4a78b8; stroke-width: 0.9; stroke-linecap: round"/>
    <path d="M 388.6864 244.92877 
L 387.0864 248.12877 
L 385.4864 244.92877 
z
" clip-path="url(#p46a65353ad)" style="fill: #4a78b8; stroke: #4a78b8; stroke-width: 0.9; stroke-linecap: round"/>
   </g>
   <g id="patch_31">
    <path d="M 502.704 223.861144 
Q 502.704 236.498072 502.704 248.12877 
" clip-path="url(#p46a65353ad)" style="fill: none; stroke: #4a78b8; stroke-width: 0.9; stroke-linecap: round"/>
    <path d="M 504.304 244.92877 
L 502.704 248.12877 
L 501.104 244.92877 
z
" clip-path="url(#p46a65353ad)" style="fill: #4a78b8; stroke: #4a78b8; stroke-width: 0.9; stroke-linecap: round"/>
   </g>
   <g id="patch_32">
    <path d="M 618.3216 223.861144 
Q 618.3216 236.498072 618.3216 248.12877 
" clip-path="url(#p46a65353ad)" style="fill: none; stroke: #4a78b8; stroke-width: 0.9; stroke-linecap: round"/>
    <path d="M 619.9216 244.92877 
L 618.3216 248.12877 
L 616.7216 244.92877 
z
" clip-path="url(#p46a65353ad)" style="fill: #4a78b8; stroke: #4a78b8; stroke-width: 0.9; stroke-linecap: round"/>
   </g>
   <g id="patch_33">
    <path d="M 271.4688 301.920664 
Q 271.4688 314.557592 271.4688 326.18829 
" clip-path="url(#p46a65353ad)" style="fill: none; stroke: #b07243; stroke-width: 0.9; stroke-linecap: round"/>
    <path d="M 273.0688 322.98829 
L 271.4688 326.18829 
L 269.8688 322.98829 
z
" clip-path="url(#p46a65353ad)" style="fill: #b07243; stroke: #b07243; stroke-width: 0.9; stroke-linecap: round"/>
   </g>
   <g id="patch_34">
    <path d="M 387.0864 301.920664 
Q 387.0864 314.557592 387.0864 326.18829 
" clip-path="url(#p46a65353ad)" style="fill: none; stroke: #b07243; stroke-width: 0.9; stroke-linecap: round"/>
    <path d="M 388.6864 322.98829 
L 387.0864 326.18829 
L 385.4864 322.98829 
z
" clip-path="url(#p46a65353ad)" style="fill: #b07243; stroke: #b07243; stroke-width: 0.9; stroke-linecap: round"/>
   </g>
   <g id="patch_35">
    <path d="M 502.704 301.920664 
Q 502.704 314.557592 502.704 326.18829 
" clip-path="url(#p46a65353ad)" style="fill: none; stroke: #b07243; stroke-width: 0.9; stroke-linecap: round"/>
    <path d="M 504.304 322.98829 
L 502.704 326.18829 
L 501.104 322.98829 
z
" clip-path="url(#p46a65353ad)" style="fill: #b07243; stroke: #b07243; stroke-width: 0.9; stroke-linecap: round"/>
   </g>
   <g id="patch_36">
    <path d="M 618.3216 301.920664 
Q 618.3216 314.557592 618.3216 326.18829 
" clip-path="url(#p46a65353ad)" style="fill: none; stroke: #b07243; stroke-width: 0.9; stroke-linecap: round"/>
    <path d="M 619.9216 322.98829 
L 618.3216 326.18829 
L 616.7216 322.98829 
z
" clip-path="url(#p46a65353ad)" style="fill: #b07243; stroke: #b07243; stroke-width: 0.9; stroke-linecap: round"/>
   </g>
   <g id="patch_37">
    <path d="M 374.6988 331.192984 
Q 374.6988 343.829912 374.6988 355.46061 
" clip-path="url(#p46a65353ad)" style="fill: none; stroke: #b07243; stroke-width: 0.9; stroke-linecap: round"/>
    <path d="M 376.2988 352.26061 
L 374.6988 355.46061 
L 373.0988 352.26061 
z
" clip-path="url(#p46a65353ad)" style="fill: #b07243; stroke: #b07243; stroke-width: 0.9; stroke-linecap: round"/>
   </g>
   <g id="patch_38">
    <path d="M 438.635369 382.86144 
Q 457.282001 382.86144 474.922403 382.86144 
" clip-path="url(#p46a65353ad)" style="fill: none; stroke: #475467; stroke-width: 0.9; stroke-linecap: round"/>
    <path d="M 471.722403 381.26144 
L 474.922403 382.86144 
L 471.722403 384.46144 
z
" clip-path="url(#p46a65353ad)" style="fill: #475467; stroke: #475467; stroke-width: 0.9; stroke-linecap: round"/>
   </g>
   <g id="patch_39">
    <path d="M 465.5412 409.251313 
Q 465.5412 417.011936 465.5412 423.766329 
" clip-path="url(#p46a65353ad)" style="fill: none; stroke: #475467; stroke-width: 0.9; stroke-linecap: round"/>
    <path d="M 467.1412 420.566329 
L 465.5412 423.766329 
L 463.9412 420.566329 
z
" clip-path="url(#p46a65353ad)" style="fill: #475467; stroke: #475467; stroke-width: 0.9; stroke-linecap: round"/>
   </g>
   <g id="patch_40">
    <path d="M 668.202155 380.886644 
Q 684.388953 284.066446 700.409828 188.238704 
" clip-path="url(#p46a65353ad)" style="fill: none; stroke: #475467; stroke-width: 0.9; stroke-linecap: round"/>
    <path d="M 698.304065 191.131067 
L 700.409828 188.238704 
L 701.46026 191.658733 
z
" clip-path="url(#p46a65353ad)" style="fill: #475467; stroke: #475467; stroke-width: 0.9; stroke-linecap: round"/>
   </g>
   <g id="patch_41">
    <path d="M 660.202082 388.267442 
Q 680.260067 323.095603 700.022065 258.885476 
" clip-path="url(#p46a65353ad)" style="fill: none; stroke: #475467; stroke-width: 0.9; stroke-linecap: round"/>
    <path d="M 697.551559 261.473255 
L 700.022065 258.885476 
L 700.609984 262.414549 
z
" clip-path="url(#p46a65353ad)" style="fill: #475467; stroke: #475467; stroke-width: 0.9; stroke-linecap: round"/>
   </g>
   <g id="patch_42">
    <path d="M 644.030054 446.952036 
Q 672.00179 393.837439 699.50466 341.613159 
" clip-path="url(#p46a65353ad)" style="fill: none; stroke: #475467; stroke-width: 0.9; stroke-linecap: round"/>
    <path d="M 696.597889 343.698988 
L 699.50466 341.613159 
L 699.42926 345.190073 
z
" clip-path="url(#p46a65353ad)" style="fill: #475467; stroke: #475467; stroke-width: 0.9; stroke-linecap: round"/>
   </g>
   <g id="patch_43">
    <path d="M 465.5412 472.67646 
Q 465.5412 476.777369 465.5412 479.872048 
" clip-path="url(#p46a65353ad)" style="fill: none; stroke: #475467; stroke-width: 0.9; stroke-linecap: round"/>
    <path d="M 467.1412 476.672048 
L 465.5412 479.872048 
L 463.9412 476.672048 
z
" clip-path="url(#p46a65353ad)" style="fill: #475467; stroke: #475467; stroke-width: 0.9; stroke-linecap: round"/>
   </g>
   <g id="patch_44">
    <path d="M 463.641479 483.491655 
Q 397.843285 504.389484 347.991401 458.099409 
" clip-path="url(#p46a65353ad)" style="fill: none; stroke-dasharray: 3.33,1.44; stroke-dashoffset: 0; stroke: #d7dee8; stroke-width: 0.9; stroke-linecap: round"/>
    <path d="M 349.247653 461.44931 
L 347.991401 458.099409 
L 351.425073 459.104348 
z
" clip-path="url(#p46a65353ad)" style="fill: #d7dee8; stroke-dasharray: 3.33,1.44; stroke-dashoffset: 0; stroke: #d7dee8; stroke-width: 0.9; stroke-linecap: round"/>
   </g>
   <g id="line2d_1">
    <path d="M 420.12 329.19552 
L 374.6988 329.19552 
" clip-path="url(#p46a65353ad)" style="fill: none; stroke: #b07243; stroke-width: 0.9; stroke-linecap: round"/>
   </g>
   <g id="line2d_2">
    <path d="M 535.7376 407.25504 
L 465.5412 407.25504 
" clip-path="url(#p46a65353ad)" style="fill: none; stroke: #475467; stroke-width: 0.9; stroke-linecap: round"/>
   </g>
   <g id="line2d_3">
    <path d="M 601.8048 382.86144 
L 667.872 382.86144 
" clip-path="url(#p46a65353ad)" style="fill: none; stroke: #475467; stroke-width: 0.9; stroke-linecap: round"/>
   </g>
   <g id="line2d_4">
    <path d="M 601.8048 390.17952 
L 659.6136 390.17952 
" clip-path="url(#p46a65353ad)" style="fill: none; stroke: #475467; stroke-width: 0.9; stroke-linecap: round"/>
   </g>
   <g id="line2d_5">
    <path d="M 535.7376 448.72416 
L 643.0968 448.72416 
" clip-path="url(#p46a65353ad)" style="fill: none; stroke: #475467; stroke-width: 0.9; stroke-linecap: round"/>
   </g>
   <g id="patch_45">
    <path d="M 69.96384 168.19776 
L 159.15456 168.19776 
Q 180.6264 168.19776 180.6264 155.513088 
L 180.6264 127.216512 
Q 180.6264 114.53184 159.15456 114.53184 
L 69.96384 114.53184 
Q 48.492 114.53184 48.492 127.216512 
L 48.492 155.513088 
Q 48.492 168.19776 69.96384 168.19776 
z
" clip-path="url(#p46a65353ad)" style="fill: #edf4ff; stroke: #475467; stroke-linejoin: miter"/>
   </g>
   <g id="patch_46">
    <path d="M 69.96384 224.30304 
L 159.15456 224.30304 
Q 180.6264 224.30304 180.6264 211.618368 
L 180.6264 183.321792 
Q 180.6264 170.63712 159.15456 170.63712 
L 69.96384 170.63712 
Q 48.492 170.63712 48.492 183.321792 
L 48.492 211.618368 
Q 48.492 224.30304 69.96384 224.30304 
z
" clip-path="url(#p46a65353ad)" style="fill: #edf4ff; stroke: #475467; stroke-linejoin: miter"/>
   </g>
   <g id="patch_47">
    <path d="M 69.96384 277.96896 
L 159.15456 277.96896 
Q 180.6264 277.96896 180.6264 265.284288 
L 180.6264 236.987712 
Q 180.6264 224.30304 159.15456 224.30304 
L 69.96384 224.30304 
Q 48.492 224.30304 48.492 236.987712 
L 48.492 265.284288 
Q 48.492 277.96896 69.96384 277.96896 
z
" clip-path="url(#p46a65353ad)" style="fill: #edf4ff; stroke: #475467; stroke-linejoin: miter"/>
   </g>
   <g id="patch_48">
    <path d="M 69.96384 346.27104 
L 159.15456 346.27104 
Q 180.6264 346.27104 180.6264 333.586368 
L 180.6264 305.289792 
Q 180.6264 292.60512 159.15456 292.60512 
L 69.96384 292.60512 
Q 48.492 292.60512 48.492 305.289792 
L 48.492 333.586368 
Q 48.492 346.27104 69.96384 346.27104 
z
" clip-path="url(#p46a65353ad)" style="fill: #edf4ff; stroke: #475467; stroke-linejoin: miter"/>
   </g>
   <g id="patch_49">
    <path d="M 243.39024 168.19776 
L 299.54736 168.19776 
Q 321.0192 168.19776 321.0192 155.513088 
L 321.0192 112.580352 
Q 321.0192 99.89568 299.54736 99.89568 
L 243.39024 99.89568 
Q 221.9184 99.89568 221.9184 112.580352 
L 221.9184 155.513088 
Q 221.9184 168.19776 243.39024 168.19776 
z
" clip-path="url(#p46a65353ad)" style="fill: #f4f8fe; stroke: #475467; stroke-linejoin: miter"/>
   </g>
   <g id="patch_50">
    <path d="M 367.26624 168.19776 
L 423.42336 168.19776 
Q 444.8952 168.19776 444.8952 155.513088 
L 444.8952 112.580352 
Q 444.8952 99.89568 423.42336 99.89568 
L 367.26624 99.89568 
Q 345.7944 99.89568 345.7944 112.580352 
L 345.7944 155.513088 
Q 345.7944 168.19776 367.26624 168.19776 
z
" clip-path="url(#p46a65353ad)" style="fill: #f4f8fe; stroke: #475467; stroke-linejoin: miter"/>
   </g>
   <g id="patch_51">
    <path d="M 491.14224 168.19776 
L 547.29936 168.19776 
Q 568.7712 168.19776 568.7712 155.513088 
L 568.7712 112.580352 
Q 568.7712 99.89568 547.29936 99.89568 
L 491.14224 99.89568 
Q 469.6704 99.89568 469.6704 112.580352 
L 469.6704 155.513088 
Q 469.6704 168.19776 491.14224 168.19776 
z
" clip-path="url(#p46a65353ad)" style="fill: #f4f8fe; stroke: #475467; stroke-linejoin: miter"/>
   </g>
   <g id="patch_52">
    <path d="M 615.01824 168.19776 
L 671.17536 168.19776 
Q 692.6472 168.19776 692.6472 155.513088 
L 692.6472 112.580352 
Q 692.6472 99.89568 671.17536 99.89568 
L 615.01824 99.89568 
Q 593.5464 99.89568 593.5464 112.580352 
L 593.5464 155.513088 
Q 593.5464 168.19776 615.01824 168.19776 
z
" clip-path="url(#p46a65353ad)" style="fill: #f4f8fe; stroke: #475467; stroke-linejoin: miter"/>
   </g>
   <g id="patch_53">
    <path d="M 243.39024 304.80192 
L 299.54736 304.80192 
Q 321.0192 304.80192 321.0192 292.117248 
L 321.0192 258.941952 
Q 321.0192 246.25728 299.54736 246.25728 
L 243.39024 246.25728 
Q 221.9184 246.25728 221.9184 258.941952 
L 221.9184 292.117248 
Q 221.9184 304.80192 243.39024 304.80192 
z
" clip-path="url(#p46a65353ad)" style="fill: #fff2e8; stroke: #475467; stroke-linejoin: miter"/>
   </g>
   <g id="patch_54">
    <path d="M 359.00784 304.80192 
L 415.16496 304.80192 
Q 436.6368 304.80192 436.6368 292.117248 
L 436.6368 258.941952 
Q 436.6368 246.25728 415.16496 246.25728 
L 359.00784 246.25728 
Q 337.536 246.25728 337.536 258.941952 
L 337.536 292.117248 
Q 337.536 304.80192 359.00784 304.80192 
z
" clip-path="url(#p46a65353ad)" style="fill: #fff2e8; stroke: #475467; stroke-linejoin: miter"/>
   </g>
   <g id="patch_55">
    <path d="M 474.62544 304.80192 
L 530.78256 304.80192 
Q 552.2544 304.80192 552.2544 292.117248 
L 552.2544 258.941952 
Q 552.2544 246.25728 530.78256 246.25728 
L 474.62544 246.25728 
Q 453.1536 246.25728 453.1536 258.941952 
L 453.1536 292.117248 
Q 453.1536 304.80192 474.62544 304.80192 
z
" clip-path="url(#p46a65353ad)" style="fill: #fff2e8; stroke: #475467; stroke-linejoin: miter"/>
   </g>
   <g id="patch_56">
    <path d="M 590.24304 304.80192 
L 646.40016 304.80192 
Q 667.872 304.80192 667.872 292.117248 
L 667.872 258.941952 
Q 667.872 246.25728 646.40016 246.25728 
L 590.24304 246.25728 
Q 568.7712 246.25728 568.7712 258.941952 
L 568.7712 292.117248 
Q 568.7712 304.80192 590.24304 304.80192 
z
" clip-path="url(#p46a65353ad)" style="fill: #fff2e8; stroke: #475467; stroke-linejoin: miter"/>
   </g>
   <g id="patch_57">
    <path d="M 325.97424 412.13376 
L 423.42336 412.13376 
Q 444.8952 412.13376 444.8952 399.449088 
L 444.8952 366.273792 
Q 444.8952 353.58912 423.42336 353.58912 
L 325.97424 353.58912 
Q 304.5024 353.58912 304.5024 366.273792 
L 304.5024 399.449088 
Q 304.5024 412.13376 325.97424 412.13376 
z
" clip-path="url(#p46a65353ad)" style="fill: #fff7f0; stroke: #475467; stroke-linejoin: miter"/>
   </g>
   <g id="patch_58">
    <path d="M 491.14224 412.13376 
L 588.59136 412.13376 
Q 610.0632 412.13376 610.0632 399.449088 
L 610.0632 366.273792 
Q 610.0632 353.58912 588.59136 353.58912 
L 491.14224 353.58912 
Q 469.6704 353.58912 469.6704 366.273792 
L 469.6704 399.449088 
Q 469.6704 412.13376 491.14224 412.13376 
z
" clip-path="url(#p46a65353ad)" style="fill: #fff7f0; stroke: #475467; stroke-linejoin: miter"/>
   </g>
   <g id="patch_59">
    <path d="M 400.29984 475.55712 
L 522.52416 475.55712 
Q 543.996 475.55712 543.996 462.872448 
L 543.996 434.575872 
Q 543.996 421.8912 522.52416 421.8912 
L 400.29984 421.8912 
Q 378.828 421.8912 378.828 434.575872 
L 378.828 462.872448 
Q 378.828 475.55712 400.29984 475.55712 
z
" clip-path="url(#p46a65353ad)" style="fill: #eef9f1; stroke: #475467; stroke-linejoin: miter"/>
   </g>
   <g id="patch_60">
    <path d="M 714.11904 212.10624 
L 770.27616 212.10624 
Q 791.748 212.10624 791.748 199.421568 
L 791.748 171.124992 
Q 791.748 158.44032 770.27616 158.44032 
L 714.11904 158.44032 
Q 692.6472 158.44032 692.6472 171.124992 
L 692.6472 199.421568 
Q 692.6472 212.10624 714.11904 212.10624 
z
" clip-path="url(#p46a65353ad)" style="fill: #eef9f1; stroke: #475467; stroke-linejoin: miter"/>
   </g>
   <g id="patch_61">
    <path d="M 714.11904 282.84768 
L 770.27616 282.84768 
Q 791.748 282.84768 791.748 270.163008 
L 791.748 241.866432 
Q 791.748 229.18176 770.27616 229.18176 
L 714.11904 229.18176 
Q 692.6472 229.18176 692.6472 241.866432 
L 692.6472 270.163008 
Q 692.6472 282.84768 714.11904 282.84768 
z
" clip-path="url(#p46a65353ad)" style="fill: #eef9f1; stroke: #475467; stroke-linejoin: miter"/>
   </g>
   <g id="patch_62">
    <path d="M 714.11904 365.78592 
L 770.27616 365.78592 
Q 791.748 365.78592 791.748 353.101248 
L 791.748 324.804672 
Q 791.748 312.12 770.27616 312.12 
L 714.11904 312.12 
Q 692.6472 312.12 692.6472 324.804672 
L 692.6472 353.101248 
Q 692.6472 365.78592 714.11904 365.78592 
z
" clip-path="url(#p46a65353ad)" style="fill: #eef9f1; stroke: #475467; stroke-linejoin: miter"/>
   </g>
   <g id="line2d_6">
    <path d="M 188.8848 319.43808 
L 188.8848 134.04672 
" clip-path="url(#p46a65353ad)" style="fill: none; stroke: #d7dee8; stroke-linecap: round"/>
   </g>
   <g id="line2d_7">
    <path d="M 172.368 141.3648 
L 188.8848 141.3648 
" clip-path="url(#p46a65353ad)" style="fill: none; stroke: #d7dee8; stroke-linecap: round"/>
   </g>
   <g id="line2d_8">
    <path d="M 172.368 197.47008 
L 188.8848 197.47008 
" clip-path="url(#p46a65353ad)" style="fill: none; stroke: #d7dee8; stroke-linecap: round"/>
   </g>
   <g id="line2d_9">
    <path d="M 172.368 251.136 
L 188.8848 251.136 
" clip-path="url(#p46a65353ad)" style="fill: none; stroke: #d7dee8; stroke-linecap: round"/>
   </g>
   <g id="line2d_10">
    <path d="M 172.368 319.43808 
L 188.8848 319.43808 
" clip-path="url(#p46a65353ad)" style="fill: none; stroke: #d7dee8; stroke-linecap: round"/>
   </g>
   <g id="line2d_11">
    <path d="M 643.0968 163.31904 
L 643.0968 221.86368 
" clip-path="url(#p46a65353ad)" style="fill: none; stroke: #4a78b8; stroke-linecap: round"/>
   </g>
   <g id="line2d_12">
    <path d="M 271.4688 221.86368 
L 643.0968 221.86368 
" clip-path="url(#p46a65353ad)" style="fill: none; stroke: #4a78b8; stroke-linecap: round"/>
   </g>
   <g id="line2d_13">
    <path d="M 271.4688 329.19552 
L 618.3216 329.19552 
" clip-path="url(#p46a65353ad)" style="fill: none; stroke: #b07243; stroke-linecap: round"/>
   </g>
   <g id="text_1">
    <text style="font-weight: 700; font-size: 18px; font-family: 'Source Han Sans CN', 'Noto Sans CJK SC', 'Microsoft YaHei UI', 'Microsoft YaHei', 'PingFang SC', 'Heiti SC', 'SimHei', 'DejaVu Sans', sans-serif; text-anchor: start; fill: #1f2937" x="31.9752" y="45.98235" transform="rotate(-0 31.9752 45.98235)">图1 本发明总体系统框图</text>
   </g>
   <g id="text_2">
    <text style="font-size: 10.6px; font-family: 'Source Han Sans CN', 'Noto Sans CJK SC', 'Microsoft YaHei UI', 'Microsoft YaHei', 'PingFang SC', 'Heiti SC', 'SimHei', 'DejaVu Sans', sans-serif; text-anchor: start; fill: #667085" x="31.9752" y="59.581855" transform="rotate(-0 31.9752 59.581855)">面向动态航行环境的数据输入先进入建模与变化响应主链，再由多源知识模块与场景感知绕行初值共同提名候选，并通过统一竞争得到轨迹解集、代表轨迹与控制结果。</text>
   </g>
   <g id="text_3">
    <text style="font-size: 10.2px; font-family: 'Source Han Sans CN', 'Noto Sans CJK SC', 'Microsoft YaHei UI', 'Microsoft YaHei', 'PingFang SC', 'Heiti SC', 'SimHei', 'DejaVu Sans', sans-serif; text-anchor: middle; fill: #667085" x="114.5592" y="85.651096" transform="rotate(-0 114.5592 85.651096)">输入层</text>
   </g>
   <g id="text_4">
    <text style="font-size: 10.2px; font-family: 'Source Han Sans CN', 'Noto Sans CJK SC', 'Microsoft YaHei UI', 'Microsoft YaHei', 'PingFang SC', 'Heiti SC', 'SimHei', 'DejaVu Sans', sans-serif; text-anchor: middle; fill: #667085" x="436.6368" y="80.772376" transform="rotate(-0 436.6368 80.772376)">核心决策链</text>
   </g>
   <g id="text_5">
    <text style="font-size: 10.2px; font-family: 'Source Han Sans CN', 'Noto Sans CJK SC', 'Microsoft YaHei UI', 'Microsoft YaHei', 'PingFang SC', 'Heiti SC', 'SimHei', 'DejaVu Sans', sans-serif; text-anchor: middle; fill: #667085" x="436.6368" y="227.133976" transform="rotate(-0 436.6368 227.133976)">核心增强响应层</text>
   </g>
   <g id="text_6">
    <text style="font-size: 10.2px; font-family: 'Source Han Sans CN', 'Noto Sans CJK SC', 'Microsoft YaHei UI', 'Microsoft YaHei', 'PingFang SC', 'Heiti SC', 'SimHei', 'DejaVu Sans', sans-serif; text-anchor: middle; fill: #667085" x="444.8952" y="349.101976" transform="rotate(-0 444.8952 349.101976)">统一筛选与执行</text>
   </g>
   <g id="text_7">
    <text style="font-size: 10.2px; font-family: 'Source Han Sans CN', 'Noto Sans CJK SC', 'Microsoft YaHei UI', 'Microsoft YaHei', 'PingFang SC', 'Heiti SC', 'SimHei', 'DejaVu Sans', sans-serif; text-anchor: middle; fill: #667085" x="738.0684" y="85.651096" transform="rotate(-0 738.0684 85.651096)">输出层</text>
   </g>
   <g id="text_8">
    <text style="font-size: 10.2px; font-family: 'Source Han Sans CN', 'Noto Sans CJK SC', 'Microsoft YaHei UI', 'Microsoft YaHei', 'PingFang SC', 'Heiti SC', 'SimHei', 'DejaVu Sans', sans-serif; text-anchor: middle; fill: #1f2937" x="114.5592" y="144.173784" transform="rotate(-0 114.5592 144.173784)">本船状态数据</text>
   </g>
   <g id="text_9">
    <text style="font-size: 10.2px; font-family: 'Source Han Sans CN', 'Noto Sans CJK SC', 'Microsoft YaHei UI', 'Microsoft YaHei', 'PingFang SC', 'Heiti SC', 'SimHei', 'DejaVu Sans', sans-serif; text-anchor: middle; fill: #1f2937" x="114.5592" y="200.279064" transform="rotate(-0 114.5592 200.279064)">目标船状态数据</text>
   </g>
   <g id="text_10">
    <text style="font-size: 10.2px; font-family: 'Source Han Sans CN', 'Noto Sans CJK SC', 'Microsoft YaHei UI', 'Microsoft YaHei', 'PingFang SC', 'Heiti SC', 'SimHei', 'DejaVu Sans', sans-serif; text-anchor: middle; fill: #1f2937" x="114.5592" y="253.944984" transform="rotate(-0 114.5592 253.944984)">静态障碍物数据</text>
   </g>
   <g id="text_11">
    <text style="font-size: 10.2px; font-family: 'Source Han Sans CN', 'Noto Sans CJK SC', 'Microsoft YaHei UI', 'Microsoft YaHei', 'PingFang SC', 'Heiti SC', 'SimHei', 'DejaVu Sans', sans-serif; text-anchor: middle; fill: #1f2937" x="114.5592" y="322.247064" transform="rotate(-0 114.5592 322.247064)">环境场数据</text>
   </g>
   <g id="text_12">
    <text style="font-size: 10.2px; font-family: 'Source Han Sans CN', 'Noto Sans CJK SC', 'Microsoft YaHei UI', 'Microsoft YaHei', 'PingFang SC', 'Heiti SC', 'SimHei', 'DejaVu Sans', sans-serif; text-anchor: middle; fill: #1f2937" x="271.4688" y="136.855704" transform="rotate(-0 271.4688 136.855704)">数据获取模块</text>
   </g>
   <g id="text_13">
    <text style="font-size: 10.2px; font-family: 'Source Han Sans CN', 'Noto Sans CJK SC', 'Microsoft YaHei UI', 'Microsoft YaHei', 'PingFang SC', 'Heiti SC', 'SimHei', 'DejaVu Sans', sans-serif; text-anchor: middle; fill: #1f2937" x="395.3448" y="136.855704" transform="rotate(-0 395.3448 136.855704)">轨迹建模模块</text>
   </g>
   <g id="text_14">
    <text style="font-size: 10.2px; font-family: 'Source Han Sans CN', 'Noto Sans CJK SC', 'Microsoft YaHei UI', 'Microsoft YaHei', 'PingFang SC', 'Heiti SC', 'SimHei', 'DejaVu Sans', sans-serif; text-anchor: middle; fill: #1f2937" x="519.2208" y="136.855704" transform="rotate(-0 519.2208 136.855704)">变化诊断模块</text>
   </g>
   <g id="text_15">
    <text style="font-size: 10.2px; font-family: 'Source Han Sans CN', 'Noto Sans CJK SC', 'Microsoft YaHei UI', 'Microsoft YaHei', 'PingFang SC', 'Heiti SC', 'SimHei', 'DejaVu Sans', sans-serif; text-anchor: middle; fill: #1f2937" x="643.0968" y="136.855704" transform="rotate(-0 643.0968 136.855704)">自适应分配模块</text>
   </g>
   <g id="text_16">
    <text style="font-size: 10.2px; font-family: 'Source Han Sans CN', 'Noto Sans CJK SC', 'Microsoft YaHei UI', 'Microsoft YaHei', 'PingFang SC', 'Heiti SC', 'SimHei', 'DejaVu Sans', sans-serif; text-anchor: middle; fill: #1f2937" x="271.4688" y="278.338584" transform="rotate(-0 271.4688 278.338584)">历史记忆模块</text>
   </g>
   <g id="text_17">
    <text style="font-size: 10.2px; font-family: 'Source Han Sans CN', 'Noto Sans CJK SC', 'Microsoft YaHei UI', 'Microsoft YaHei', 'PingFang SC', 'Heiti SC', 'SimHei', 'DejaVu Sans', sans-serif; text-anchor: middle; fill: #1f2937" x="387.0864" y="278.338584" transform="rotate(-0 387.0864 278.338584)">前沿预测模块</text>
   </g>
   <g id="text_18">
    <text style="font-size: 10.2px; font-family: 'Source Han Sans CN', 'Noto Sans CJK SC', 'Microsoft YaHei UI', 'Microsoft YaHei', 'PingFang SC', 'Heiti SC', 'SimHei', 'DejaVu Sans', sans-serif; text-anchor: middle; fill: #1f2937" x="502.704" y="278.338584" transform="rotate(-0 502.704 278.338584)">跨环境迁移模块</text>
   </g>
   <g id="text_19">
    <text style="font-size: 10.2px; font-family: 'Source Han Sans CN', 'Noto Sans CJK SC', 'Microsoft YaHei UI', 'Microsoft YaHei', 'PingFang SC', 'Heiti SC', 'SimHei', 'DejaVu Sans', sans-serif; text-anchor: middle; fill: #1f2937" x="618.3216" y="278.338584" transform="rotate(-0 618.3216 278.338584)">重初始化模块</text>
   </g>
   <g id="text_20">
    <text style="font-size: 10.2px; font-family: 'Source Han Sans CN', 'Noto Sans CJK SC', 'Microsoft YaHei UI', 'Microsoft YaHei', 'PingFang SC', 'Heiti SC', 'SimHei', 'DejaVu Sans', sans-serif; text-anchor: middle; fill: #1f2937" x="374.6988" y="385.670424" transform="rotate(-0 374.6988 385.670424)">候选池构建模块</text>
   </g>
   <g id="text_21">
    <text style="font-size: 10.2px; font-family: 'Source Han Sans CN', 'Noto Sans CJK SC', 'Microsoft YaHei UI', 'Microsoft YaHei', 'PingFang SC', 'Heiti SC', 'SimHei', 'DejaVu Sans', sans-serif; text-anchor: middle; fill: #1f2937" x="539.8668" y="385.670424" transform="rotate(-0 539.8668 385.670424)">环境选择模块</text>
   </g>
   <g id="text_22">
    <text style="font-size: 10.2px; font-family: 'Source Han Sans CN', 'Noto Sans CJK SC', 'Microsoft YaHei UI', 'Microsoft YaHei', 'PingFang SC', 'Heiti SC', 'SimHei', 'DejaVu Sans', sans-serif; text-anchor: middle; fill: #1f2937" x="461.412" y="451.533144" transform="rotate(-0 461.412 451.533144)">轨迹输出执行模块</text>
   </g>
   <g id="text_23">
    <text style="font-size: 10.2px; font-family: 'Source Han Sans CN', 'Noto Sans CJK SC', 'Microsoft YaHei UI', 'Microsoft YaHei', 'PingFang SC', 'Heiti SC', 'SimHei', 'DejaVu Sans', sans-serif; text-anchor: middle; fill: #1f2937" x="742.1976" y="188.082264" transform="rotate(-0 742.1976 188.082264)">轨迹解集</text>
   </g>
   <g id="text_24">
    <text style="font-size: 10.2px; font-family: 'Source Han Sans CN', 'Noto Sans CJK SC', 'Microsoft YaHei UI', 'Microsoft YaHei', 'PingFang SC', 'Heiti SC', 'SimHei', 'DejaVu Sans', sans-serif; text-anchor: middle; fill: #1f2937" x="742.1976" y="258.823704" transform="rotate(-0 742.1976 258.823704)">代表轨迹</text>
   </g>
   <g id="text_25">
    <text style="font-size: 10.2px; font-family: 'Source Han Sans CN', 'Noto Sans CJK SC', 'Microsoft YaHei UI', 'Microsoft YaHei', 'PingFang SC', 'Heiti SC', 'SimHei', 'DejaVu Sans', sans-serif; text-anchor: middle; fill: #1f2937" x="742.1976" y="341.761944" transform="rotate(-0 742.1976 341.761944)">控制结果</text>
   </g>
   <g id="text_26">
    <text style="font-size: 10.2px; font-family: 'Source Han Sans CN', 'Noto Sans CJK SC', 'Microsoft YaHei UI', 'Microsoft YaHei', 'PingFang SC', 'Heiti SC', 'SimHei', 'DejaVu Sans', sans-serif; text-anchor: middle; fill: #667085" x="114.5592" y="99.89568" transform="rotate(-0 114.5592 99.89568)">航行环境输入</text>
   </g>
   <g id="text_27">
    <text style="font-size: 9.4px; font-family: 'Source Han Sans CN', 'Noto Sans CJK SC', 'Microsoft YaHei UI', 'Microsoft YaHei', 'PingFang SC', 'Heiti SC', 'SimHei', 'DejaVu Sans', sans-serif; text-anchor: middle; fill: #667085" x="457.2828" y="208.203264" transform="rotate(-0 457.2828 208.203264)">依据变化信息调度四类候选来源</text>
   </g>
   <g id="text_28">
    <text style="font-size: 9.4px; font-family: 'Source Han Sans CN', 'Noto Sans CJK SC', 'Microsoft YaHei UI', 'Microsoft YaHei', 'PingFang SC', 'Heiti SC', 'SimHei', 'DejaVu Sans', sans-serif; text-anchor: middle; fill: #667085" x="444.8952" y="342.368064" transform="rotate(-0 444.8952 342.368064)">并行提名候选并与绕行初值统一汇聚</text>
   </g>
   <g id="text_29">
    <text style="font-size: 9.4px; font-family: 'Source Han Sans CN', 'Noto Sans CJK SC', 'Microsoft YaHei UI', 'Microsoft YaHei', 'PingFang SC', 'Heiti SC', 'SimHei', 'DejaVu Sans', sans-serif; fill: #667085" transform="translate(580.798709 310.523709)">ship实施时可注入</text>
    <text style="font-size: 9.4px; font-family: 'Source Han Sans CN', 'Noto Sans CJK SC', 'Microsoft YaHei UI', 'Microsoft YaHei', 'PingFang SC', 'Heiti SC', 'SimHei', 'DejaVu Sans', sans-serif; fill: #667085" transform="translate(580.7216 321.87744)">场景感知绕行初值</text>
   </g>
   <g id="text_30">
    <text style="font-size: 9.4px; font-family: 'Source Han Sans CN', 'Noto Sans CJK SC', 'Microsoft YaHei UI', 'Microsoft YaHei', 'PingFang SC', 'Heiti SC', 'SimHei', 'DejaVu Sans', sans-serif; text-anchor: middle; fill: #667085" x="515.0916" y="479.365472" transform="rotate(-0 515.0916 479.365472)">执行反馈</text>
   </g>
   <g id="text_31">
    <text style="font-size: 9.4px; font-family: 'Source Han Sans CN', 'Noto Sans CJK SC', 'Microsoft YaHei UI', 'Microsoft YaHei', 'PingFang SC', 'Heiti SC', 'SimHei', 'DejaVu Sans', sans-serif; text-anchor: middle; fill: #667085" x="436.6368" y="489.217536" transform="rotate(-0 436.6368 489.217536)">核心逻辑：先建模并诊断变化，再调度记忆 / 预测 / 迁移 / 探索并融合绕行初值；风险维表达安全暴露，终端推进由 fuel/time 与代表解排序体现。</text>
   </g>
  </g>
 </g>
 <defs>
  <clipPath id="p46a65353ad">
   <rect x="7.2" y="7.2" width="825.84" height="487.872"/>
  </clipPath>
 </defs>
</svg>
