<?xml version="1.0" encoding="utf-8" standalone="no"?>
<!DOCTYPE svg PUBLIC "-//W3C//DTD SVG 1.1//EN"
  "http://www.w3.org/Graphics/SVG/1.1/DTD/svg11.dtd">
<svg xmlns:xlink="http://www.w3.org/1999/xlink" width="823.5pt" height="513.36pt" viewBox="0 0 823.5 513.36" xmlns="http://www.w3.org/2000/svg" version="1.1">
 <metadata>
  <rdf:RDF xmlns:dc="http://purl.org/dc/elements/1.1/" xmlns:cc="http://creativecommons.org/ns#" xmlns:rdf="http://www.w3.org/1999/02/22-rdf-syntax-ns#">
   <cc:Work>
    <dc:type rdf:resource="http://purl.org/dc/dcmitype/StillImage"/>
    <dc:date>2026-04-16T21:15:27.790768</dc:date>
    <dc:format>image/svg+xml</dc:format>
    <dc:creator>
     <cc:Agent>
      <dc:title>Matplotlib v3.10.7, https://matplotlib.org/</dc:title>
     </cc:Agent>
    </dc:creator>
   </cc:Work>
  </rdf:RDF>
 </metadata>
 <defs>
  <style type="text/css">*{stroke-linejoin: round; stroke-linecap: butt}</style>
 </defs>
 <g id="figure_1">
  <g id="patch_1">
   <path d="M 0 513.36 
L 823.5 513.36 
L 823.5 -0 
L 0 -0 
z
" style="fill: #ffffff"/>
  </g>
  <g id="axes_1">
   <g id="patch_2">
    <path d="M 37.9458 178.84224 
L 769.3722 178.84224 
Q 779.0814 178.84224 779.0814 172.85472 
L 779.0814 81.04608 
Q 779.0814 75.05856 769.3722 75.05856 
L 37.9458 75.05856 
Q 28.2366 75.05856 28.2366 81.04608 
L 28.2366 172.85472 
Q 28.2366 178.84224 37.9458 178.84224 
L 37.9458 178.84224 
z
" clip-path="url(#p134dda4739)" style="fill: none; stroke-dasharray: 2.96,1.28; stroke-dashoffset: 0; stroke: #d7dee8; stroke-width: 0.8; stroke-linejoin: miter"/>
   </g>
   <g id="patch_3">
    <path d="M 110.7648 328.53024 
L 696.5532 328.53024 
Q 706.2624 328.53024 706.2624 322.54272 
L 706.2624 240.71328 
Q 706.2624 234.72576 696.5532 234.72576 
L 110.7648 234.72576 
Q 101.0556 234.72576 101.0556 240.71328 
L 101.0556 322.54272 
Q 101.0556 328.53024 110.7648 328.53024 
L 110.7648 328.53024 
z
" clip-path="url(#p134dda4739)" style="fill: none; stroke-dasharray: 2.96,1.28; stroke-dashoffset: 0; stroke: #d7dee8; stroke-width: 0.8; stroke-linejoin: miter"/>
   </g>
   <g id="patch_4">
    <path d="M 240.2208 453.27024 
L 753.1902 453.27024 
Q 762.8994 453.27024 762.8994 447.28272 
L 762.8994 365.45328 
Q 762.8994 359.46576 753.1902 359.46576 
L 240.2208 359.46576 
Q 230.5116 359.46576 230.5116 365.45328 
L 230.5116 447.28272 
Q 230.5116 453.27024 240.2208 453.27024 
L 240.2208 453.27024 
z
" clip-path="url(#p134dda4739)" style="fill: none; stroke-dasharray: 2.96,1.28; stroke-dashoffset: 0; stroke: #d7dee8; stroke-width: 0.8; stroke-linejoin: miter"/>
   </g>
   <g id="patch_5">
    <path d="M 55.746 153.89424 
L 143.1288 153.89424 
Q 164.1654 153.89424 164.1654 140.92128 
L 164.1654 102.0024 
Q 164.1654 89.02944 143.1288 89.02944 
L 55.746 89.02944 
Q 34.7094 89.02944 34.7094 102.0024 
L 34.7094 140.92128 
Q 34.7094 153.89424 55.746 153.89424 
z
" clip-path="url(#p134dda4739)" style="fill: #dfe7f1; opacity: 0.35"/>
   </g>
   <g id="patch_6">
    <path d="M 209.475 153.89424 
L 296.8578 153.89424 
Q 317.8944 153.89424 317.8944 140.92128 
L 317.8944 102.0024 
Q 317.8944 89.02944 296.8578 89.02944 
L 209.475 89.02944 
Q 188.4384 89.02944 188.4384 102.0024 
L 188.4384 140.92128 
Q 188.4384 153.89424 209.475 153.89424 
z
" clip-path="url(#p134dda4739)" style="fill: #dfe7f1; opacity: 0.35"/>
   </g>
   <g id="patch_7">
    <path d="M 363.204 153.89424 
L 450.5868 153.89424 
Q 471.6234 153.89424 471.6234 140.92128 
L 471.6234 102.0024 
Q 471.6234 89.02944 450.5868 89.02944 
L 363.204 89.02944 
Q 342.1674 89.02944 342.1674 102.0024 
L 342.1674 140.92128 
Q 342.1674 153.89424 363.204 153.89424 
z
" clip-path="url(#p134dda4739)" style="fill: #dfe7f1; opacity: 0.35"/>
   </g>
   <g id="patch_8">
    <path d="M 516.933 153.89424 
L 604.3158 153.89424 
Q 625.3524 153.89424 625.3524 140.92128 
L 625.3524 102.0024 
Q 625.3524 89.02944 604.3158 89.02944 
L 516.933 89.02944 
Q 495.8964 89.02944 495.8964 102.0024 
L 495.8964 140.92128 
Q 495.8964 153.89424 516.933 153.89424 
z
" clip-path="url(#p134dda4739)" style="fill: #dfe7f1; opacity: 0.35"/>
   </g>
   <g id="patch_9">
    <path d="M 670.662 153.89424 
L 758.0448 153.89424 
Q 779.0814 153.89424 779.0814 140.92128 
L 779.0814 102.0024 
Q 779.0814 89.02944 758.0448 89.02944 
L 670.662 89.02944 
Q 649.6254 89.02944 649.6254 102.0024 
L 649.6254 140.92128 
Q 649.6254 153.89424 670.662 153.89424 
z
" clip-path="url(#p134dda4739)" style="fill: #dfe7f1; opacity: 0.35"/>
   </g>
   <g id="patch_10">
    <path d="M 144.747 303.58224 
L 232.1298 303.58224 
Q 253.1664 303.58224 253.1664 290.60928 
L 253.1664 251.6904 
Q 253.1664 238.71744 232.1298 238.71744 
L 144.747 238.71744 
Q 123.7104 238.71744 123.7104 251.6904 
L 123.7104 290.60928 
Q 123.7104 303.58224 144.747 303.58224 
z
" clip-path="url(#p134dda4739)" style="fill: #dfe7f1; opacity: 0.35"/>
   </g>
   <g id="patch_11">
    <path d="M 355.113 303.58224 
L 442.4958 303.58224 
Q 463.5324 303.58224 463.5324 290.60928 
L 463.5324 251.6904 
Q 463.5324 238.71744 442.4958 238.71744 
L 355.113 238.71744 
Q 334.0764 238.71744 334.0764 251.6904 
L 334.0764 290.60928 
Q 334.0764 303.58224 355.113 303.58224 
z
" clip-path="url(#p134dda4739)" style="fill: #dfe7f1; opacity: 0.35"/>
   </g>
   <g id="patch_12">
    <path d="M 565.479 303.58224 
L 652.8618 303.58224 
Q 673.8984 303.58224 673.8984 290.60928 
L 673.8984 251.6904 
Q 673.8984 238.71744 652.8618 238.71744 
L 565.479 238.71744 
Q 544.4424 238.71744 544.4424 251.6904 
L 544.4424 290.60928 
Q 544.4424 303.58224 565.479 303.58224 
z
" clip-path="url(#p134dda4739)" style="fill: #dfe7f1; opacity: 0.35"/>
   </g>
   <g id="patch_13">
    <path d="M 274.203 428.32224 
L 361.5858 428.32224 
Q 382.6224 428.32224 382.6224 415.34928 
L 382.6224 376.4304 
Q 382.6224 363.45744 361.5858 363.45744 
L 274.203 363.45744 
Q 253.1664 363.45744 253.1664 376.4304 
L 253.1664 415.34928 
Q 253.1664 428.32224 274.203 428.32224 
z
" clip-path="url(#p134dda4739)" style="fill: #dfe7f1; opacity: 0.35"/>
   </g>
   <g id="patch_14">
    <path d="M 452.205 428.32224 
L 539.5878 428.32224 
Q 560.6244 428.32224 560.6244 415.34928 
L 560.6244 376.4304 
Q 560.6244 363.45744 539.5878 363.45744 
L 452.205 363.45744 
Q 431.1684 363.45744 431.1684 376.4304 
L 431.1684 415.34928 
Q 431.1684 428.32224 452.205 428.32224 
z
" clip-path="url(#p134dda4739)" style="fill: #dfe7f1; opacity: 0.35"/>
   </g>
   <g id="patch_15">
    <path d="M 630.207 428.32224 
L 717.5898 428.32224 
Q 738.6264 428.32224 738.6264 415.34928 
L 738.6264 376.4304 
Q 738.6264 363.45744 717.5898 363.45744 
L 630.207 363.45744 
Q 609.1704 363.45744 609.1704 376.4304 
L 609.1704 415.34928 
Q 609.1704 428.32224 630.207 428.32224 
z
" clip-path="url(#p134dda4739)" style="fill: #dfe7f1; opacity: 0.35"/>
   </g>
   <g id="patch_16">
    <path d="M 154.838034 119.466 
Q 173.063303 119.466 190.282342 119.466 
" clip-path="url(#p134dda4739)" style="fill: none; stroke: #475467; stroke-width: 0.9; stroke-linecap: round"/>
    <path d="M 187.082342 117.866 
L 190.282342 119.466 
L 187.082342 121.066 
z
" clip-path="url(#p134dda4739)" style="fill: #475467; stroke: #475467; stroke-width: 0.9; stroke-linecap: round"/>
   </g>
   <g id="patch_17">
    <path d="M 308.567034 119.466 
Q 326.792303 119.466 344.011342 119.466 
" clip-path="url(#p134dda4739)" style="fill: none; stroke: #475467; stroke-width: 0.9; stroke-linecap: round"/>
    <path d="M 340.811342 117.866 
L 344.011342 119.466 
L 340.811342 121.066 
z
" clip-path="url(#p134dda4739)" style="fill: #475467; stroke: #475467; stroke-width: 0.9; stroke-linecap: round"/>
   </g>
   <g id="patch_18">
    <path d="M 462.296034 119.466 
Q 480.521303 119.466 497.740342 119.466 
" clip-path="url(#p134dda4739)" style="fill: none; stroke: #475467; stroke-width: 0.9; stroke-linecap: round"/>
    <path d="M 494.540342 117.866 
L 497.740342 119.466 
L 494.540342 121.066 
z
" clip-path="url(#p134dda4739)" style="fill: #475467; stroke: #475467; stroke-width: 0.9; stroke-linecap: round"/>
   </g>
   <g id="patch_19">
    <path d="M 616.025034 119.466 
Q 634.250303 119.466 651.469342 119.466 
" clip-path="url(#p134dda4739)" style="fill: none; stroke: #475467; stroke-width: 0.9; stroke-linecap: round"/>
    <path d="M 648.269342 117.866 
L 651.469342 119.466 
L 648.269342 121.066 
z
" clip-path="url(#p134dda4739)" style="fill: #475467; stroke: #475467; stroke-width: 0.9; stroke-linecap: round"/>
   </g>
   <g id="patch_20">
    <path d="M 185.202 218.764034 
Q 185.202 229.239001 185.202 238.707737 
" clip-path="url(#p134dda4739)" style="fill: none; stroke: #4a78b8; stroke-width: 0.9; stroke-linecap: round"/>
    <path d="M 186.802 235.507737 
L 185.202 238.707737 
L 183.602 235.507737 
z
" clip-path="url(#p134dda4739)" style="fill: #4a78b8; stroke: #4a78b8; stroke-width: 0.9; stroke-linecap: round"/>
   </g>
   <g id="patch_21">
    <path d="M 395.568 218.764034 
Q 395.568 229.239001 395.568 238.707737 
" clip-path="url(#p134dda4739)" style="fill: none; stroke: #4a78b8; stroke-width: 0.9; stroke-linecap: round"/>
    <path d="M 397.168 235.507737 
L 395.568 238.707737 
L 393.968 235.507737 
z
" clip-path="url(#p134dda4739)" style="fill: #4a78b8; stroke: #4a78b8; stroke-width: 0.9; stroke-linecap: round"/>
   </g>
   <g id="patch_22">
    <path d="M 605.934 218.764034 
Q 605.934 229.239001 605.934 238.707737 
" clip-path="url(#p134dda4739)" style="fill: none; stroke: #4a78b8; stroke-width: 0.9; stroke-linecap: round"/>
    <path d="M 607.534 235.507737 
L 605.934 238.707737 
L 604.334 235.507737 
z
" clip-path="url(#p134dda4739)" style="fill: #4a78b8; stroke: #4a78b8; stroke-width: 0.9; stroke-linecap: round"/>
   </g>
   <g id="patch_23">
    <path d="M 185.202 298.599462 
Q 185.202 316.554528 185.202 333.503363 
" clip-path="url(#p134dda4739)" style="fill: none; stroke: #b07243; stroke-width: 0.9; stroke-linecap: round"/>
    <path d="M 186.802 330.303363 
L 185.202 333.503363 
L 183.602 330.303363 
z
" clip-path="url(#p134dda4739)" style="fill: #b07243; stroke: #b07243; stroke-width: 0.9; stroke-linecap: round"/>
   </g>
   <g id="patch_24">
    <path d="M 395.568 298.599462 
Q 395.568 316.554528 395.568 333.503363 
" clip-path="url(#p134dda4739)" style="fill: none; stroke: #b07243; stroke-width: 0.9; stroke-linecap: round"/>
    <path d="M 397.168 330.303363 
L 395.568 333.503363 
L 393.968 330.303363 
z
" clip-path="url(#p134dda4739)" style="fill: #b07243; stroke: #b07243; stroke-width: 0.9; stroke-linecap: round"/>
   </g>
   <g id="patch_25">
    <path d="M 605.934 298.599462 
Q 605.934 316.554528 605.934 333.503363 
" clip-path="url(#p134dda4739)" style="fill: none; stroke: #b07243; stroke-width: 0.9; stroke-linecap: round"/>
    <path d="M 607.534 330.303363 
L 605.934 333.503363 
L 604.334 330.303363 
z
" clip-path="url(#p134dda4739)" style="fill: #b07243; stroke: #b07243; stroke-width: 0.9; stroke-linecap: round"/>
   </g>
   <g id="patch_26">
    <path d="M 314.658 338.512607 
Q 314.658 351.48093 314.658 363.443022 
" clip-path="url(#p134dda4739)" style="fill: none; stroke: #b07243; stroke-width: 0.9; stroke-linecap: round"/>
    <path d="M 316.258 360.243022 
L 314.658 363.443022 
L 313.058 360.243022 
z
" clip-path="url(#p134dda4739)" style="fill: #b07243; stroke: #b07243; stroke-width: 0.9; stroke-linecap: round"/>
   </g>
   <g id="patch_27">
    <path d="M 373.297997 393.894 
Q 403.659364 393.894 433.0145 393.894 
" clip-path="url(#p134dda4739)" style="fill: none; stroke: #475467; stroke-width: 0.9; stroke-linecap: round"/>
    <path d="M 429.8145 392.294 
L 433.0145 393.894 
L 429.8145 395.494 
z
" clip-path="url(#p134dda4739)" style="fill: #475467; stroke: #475467; stroke-width: 0.9; stroke-linecap: round"/>
   </g>
   <g id="patch_28">
    <path d="M 551.299997 393.894 
Q 581.661364 393.894 611.0165 393.894 
" clip-path="url(#p134dda4739)" style="fill: none; stroke: #475467; stroke-width: 0.9; stroke-linecap: round"/>
    <path d="M 607.8165 392.294 
L 611.0165 393.894 
L 607.8165 395.494 
z
" clip-path="url(#p134dda4739)" style="fill: #475467; stroke: #475467; stroke-width: 0.9; stroke-linecap: round"/>
   </g>
   <g id="patch_29">
    <path d="M 63.837 469.228539 
Q 63.837 309.069525 63.837 149.916742 
" clip-path="url(#p134dda4739)" style="fill: none; stroke-dasharray: 3.33,1.44; stroke-dashoffset: 0; stroke: #d7dee8; stroke-width: 0.9; stroke-linecap: round"/>
    <path d="M 62.237 153.116742 
L 63.837 149.916742 
L 65.437 153.116742 
z
" clip-path="url(#p134dda4739)" style="fill: #d7dee8; stroke-dasharray: 3.33,1.44; stroke-dashoffset: 0; stroke: #d7dee8; stroke-width: 0.9; stroke-linecap: round"/>
   </g>
   <g id="line2d_1">
    <path d="M 395.568 336.5136 
L 314.658 336.5136 
" clip-path="url(#p134dda4739)" style="fill: none; stroke: #b07243; stroke-width: 0.9; stroke-linecap: round"/>
   </g>
   <g id="patch_30">
    <path d="M 52.5096 151.8984 
L 139.8924 151.8984 
Q 160.929 151.8984 160.929 138.92544 
L 160.929 100.00656 
Q 160.929 87.0336 139.8924 87.0336 
L 52.5096 87.0336 
Q 31.473 87.0336 31.473 100.00656 
L 31.473 138.92544 
Q 31.473 151.8984 52.5096 151.8984 
z
" clip-path="url(#p134dda4739)" style="fill: #f4f8fe; stroke: #475467; stroke-linejoin: miter"/>
   </g>
   <g id="patch_31">
    <path d="M 206.2386 151.8984 
L 293.6214 151.8984 
Q 314.658 151.8984 314.658 138.92544 
L 314.658 100.00656 
Q 314.658 87.0336 293.6214 87.0336 
L 206.2386 87.0336 
Q 185.202 87.0336 185.202 100.00656 
L 185.202 138.92544 
Q 185.202 151.8984 206.2386 151.8984 
z
" clip-path="url(#p134dda4739)" style="fill: #f4f8fe; stroke: #475467; stroke-linejoin: miter"/>
   </g>
   <g id="patch_32">
    <path d="M 359.9676 151.8984 
L 447.3504 151.8984 
Q 468.387 151.8984 468.387 138.92544 
L 468.387 100.00656 
Q 468.387 87.0336 447.3504 87.0336 
L 359.9676 87.0336 
Q 338.931 87.0336 338.931 100.00656 
L 338.931 138.92544 
Q 338.931 151.8984 359.9676 151.8984 
z
" clip-path="url(#p134dda4739)" style="fill: #f4f8fe; stroke: #475467; stroke-linejoin: miter"/>
   </g>
   <g id="patch_33">
    <path d="M 513.6966 151.8984 
L 601.0794 151.8984 
Q 622.116 151.8984 622.116 138.92544 
L 622.116 100.00656 
Q 622.116 87.0336 601.0794 87.0336 
L 513.6966 87.0336 
Q 492.66 87.0336 492.66 100.00656 
L 492.66 138.92544 
Q 492.66 151.8984 513.6966 151.8984 
z
" clip-path="url(#p134dda4739)" style="fill: #f4f8fe; stroke: #475467; stroke-linejoin: miter"/>
   </g>
   <g id="patch_34">
    <path d="M 667.4256 151.8984 
L 754.8084 151.8984 
Q 775.845 151.8984 775.845 138.92544 
L 775.845 100.00656 
Q 775.845 87.0336 754.8084 87.0336 
L 667.4256 87.0336 
Q 646.389 87.0336 646.389 100.00656 
L 646.389 138.92544 
Q 646.389 151.8984 667.4256 151.8984 
z
" clip-path="url(#p134dda4739)" style="fill: #fff2e8; stroke: #475467; stroke-linejoin: miter"/>
   </g>
   <g id="patch_35">
    <path d="M 141.5106 301.5864 
L 228.8934 301.5864 
Q 249.93 301.5864 249.93 288.61344 
L 249.93 249.69456 
Q 249.93 236.7216 228.8934 236.7216 
L 141.5106 236.7216 
Q 120.474 236.7216 120.474 249.69456 
L 120.474 288.61344 
Q 120.474 301.5864 141.5106 301.5864 
z
" clip-path="url(#p134dda4739)" style="fill: #fff2e8; stroke: #475467; stroke-linejoin: miter"/>
   </g>
   <g id="patch_36">
    <path d="M 351.8766 301.5864 
L 439.2594 301.5864 
Q 460.296 301.5864 460.296 288.61344 
L 460.296 249.69456 
Q 460.296 236.7216 439.2594 236.7216 
L 351.8766 236.7216 
Q 330.84 236.7216 330.84 249.69456 
L 330.84 288.61344 
Q 330.84 301.5864 351.8766 301.5864 
z
" clip-path="url(#p134dda4739)" style="fill: #fff2e8; stroke: #475467; stroke-linejoin: miter"/>
   </g>
   <g id="patch_37">
    <path d="M 562.2426 301.5864 
L 649.6254 301.5864 
Q 670.662 301.5864 670.662 288.61344 
L 670.662 249.69456 
Q 670.662 236.7216 649.6254 236.7216 
L 562.2426 236.7216 
Q 541.206 236.7216 541.206 249.69456 
L 541.206 288.61344 
Q 541.206 301.5864 562.2426 301.5864 
z
" clip-path="url(#p134dda4739)" style="fill: #fff2e8; stroke: #475467; stroke-linejoin: miter"/>
   </g>
   <g id="patch_38">
    <path d="M 270.9666 426.3264 
L 358.3494 426.3264 
Q 379.386 426.3264 379.386 413.35344 
L 379.386 374.43456 
Q 379.386 361.4616 358.3494 361.4616 
L 270.9666 361.4616 
Q 249.93 361.4616 249.93 374.43456 
L 249.93 413.35344 
Q 249.93 426.3264 270.9666 426.3264 
z
" clip-path="url(#p134dda4739)" style="fill: #fff7f0; stroke: #475467; stroke-linejoin: miter"/>
   </g>
   <g id="patch_39">
    <path d="M 448.9686 426.3264 
L 536.3514 426.3264 
Q 557.388 426.3264 557.388 413.35344 
L 557.388 374.43456 
Q 557.388 361.4616 536.3514 361.4616 
L 448.9686 361.4616 
Q 427.932 361.4616 427.932 374.43456 
L 427.932 413.35344 
Q 427.932 426.3264 448.9686 426.3264 
z
" clip-path="url(#p134dda4739)" style="fill: #fff7f0; stroke: #475467; stroke-linejoin: miter"/>
   </g>
   <g id="patch_40">
    <path d="M 626.9706 426.3264 
L 714.3534 426.3264 
Q 735.39 426.3264 735.39 413.35344 
L 735.39 374.43456 
Q 735.39 361.4616 714.3534 361.4616 
L 626.9706 361.4616 
Q 605.934 361.4616 605.934 374.43456 
L 605.934 413.35344 
Q 605.934 426.3264 626.9706 426.3264 
z
" clip-path="url(#p134dda4739)" style="fill: #eef9f1; stroke: #475467; stroke-linejoin: miter"/>
   </g>
   <g id="line2d_2">
    <path d="M 711.117 146.9088 
L 711.117 216.7632 
" clip-path="url(#p134dda4739)" style="fill: none; stroke: #4a78b8; stroke-linecap: round"/>
   </g>
   <g id="line2d_3">
    <path d="M 185.202 216.7632 
L 711.117 216.7632 
" clip-path="url(#p134dda4739)" style="fill: none; stroke: #4a78b8; stroke-linecap: round"/>
   </g>
   <g id="line2d_4">
    <path d="M 185.202 336.5136 
L 605.934 336.5136 
" clip-path="url(#p134dda4739)" style="fill: none; stroke: #b07243; stroke-linecap: round"/>
   </g>
   <g id="line2d_5">
    <path d="M 670.662 421.3368 
L 670.662 471.2328 
" clip-path="url(#p134dda4739)" style="fill: none; stroke-dasharray: 3.33,1.44; stroke-dashoffset: 0; stroke: #d7dee8; stroke-width: 0.9"/>
   </g>
   <g id="line2d_6">
    <path d="M 670.662 471.2328 
L 63.837 471.2328 
" clip-path="url(#p134dda4739)" style="fill: none; stroke-dasharray: 3.33,1.44; stroke-dashoffset: 0; stroke: #d7dee8; stroke-width: 0.9"/>
   </g>
   <g id="text_1">
    <text style="font-weight: 700; font-size: 18px; font-family: 'Source Han Sans CN', 'Noto Sans CJK SC', 'Microsoft YaHei UI', 'Microsoft YaHei', 'PingFang SC', 'Heiti SC', 'SimHei', 'DejaVu Sans', sans-serif; text-anchor: start; fill: #1f2937" x="31.473" y="46.53675" transform="rotate(-0 31.473 46.53675)">图2 本发明方法流程图</text>
   </g>
   <g id="text_2">
    <text style="font-size: 10.6px; font-family: 'Source Han Sans CN', 'Noto Sans CJK SC', 'Microsoft YaHei UI', 'Microsoft YaHei', 'PingFang SC', 'Heiti SC', 'SimHei', 'DejaVu Sans', sans-serif; text-anchor: start; fill: #667085" x="31.473" y="60.579775" transform="rotate(-0 31.473 60.579775)">主流程覆盖数据获取、建模、环境变化响应、绕行初值注入、候选池筛选和滚动重规划执行，可直接作为摘要附图使用。</text>
   </g>
   <g id="text_3">
    <text style="font-size: 10.2px; font-family: 'Source Han Sans CN', 'Noto Sans CJK SC', 'Microsoft YaHei UI', 'Microsoft YaHei', 'PingFang SC', 'Heiti SC', 'SimHei', 'DejaVu Sans', sans-serif; text-anchor: middle; fill: #667085" x="403.659" y="67.533304" transform="rotate(-0 403.659 67.533304)">问题建模与变化诊断</text>
   </g>
   <g id="text_4">
    <text style="font-size: 10.2px; font-family: 'Source Han Sans CN', 'Noto Sans CJK SC', 'Microsoft YaHei UI', 'Microsoft YaHei', 'PingFang SC', 'Heiti SC', 'SimHei', 'DejaVu Sans', sans-serif; text-anchor: middle; fill: #667085" x="403.659" y="227.200504" transform="rotate(-0 403.659 227.200504)">多源候选与启发式初值</text>
   </g>
   <g id="text_5">
    <text style="font-size: 10.2px; font-family: 'Source Han Sans CN', 'Noto Sans CJK SC', 'Microsoft YaHei UI', 'Microsoft YaHei', 'PingFang SC', 'Heiti SC', 'SimHei', 'DejaVu Sans', sans-serif; text-anchor: middle; fill: #667085" x="496.7055" y="351.940504" transform="rotate(-0 496.7055 351.940504)">统一筛选与滚动执行</text>
   </g>
   <g id="text_6">
    <text style="font-size: 10.2px; font-family: 'Source Han Sans CN', 'Noto Sans CJK SC', 'Microsoft YaHei UI', 'Microsoft YaHei', 'PingFang SC', 'Heiti SC', 'SimHei', 'DejaVu Sans', sans-serif; fill: #1f2937" transform="translate(65.601 115.7073)">获取动态航行</text>
    <text style="font-size: 10.2px; font-family: 'Source Han Sans CN', 'Noto Sans CJK SC', 'Microsoft YaHei UI', 'Microsoft YaHei', 'PingFang SC', 'Heiti SC', 'SimHei', 'DejaVu Sans', sans-serif; fill: #1f2937" transform="translate(75.801 128.842669)">环境数据</text>
   </g>
   <g id="text_7">
    <text style="font-size: 10.2px; font-family: 'Source Han Sans CN', 'Noto Sans CJK SC', 'Microsoft YaHei UI', 'Microsoft YaHei', 'PingFang SC', 'Heiti SC', 'SimHei', 'DejaVu Sans', sans-serif; fill: #1f2937" transform="translate(214.23 115.7073)">构建动态多目标</text>
    <text style="font-size: 10.2px; font-family: 'Source Han Sans CN', 'Noto Sans CJK SC', 'Microsoft YaHei UI', 'Microsoft YaHei', 'PingFang SC', 'Heiti SC', 'SimHei', 'DejaVu Sans', sans-serif; fill: #1f2937" transform="translate(219.33 128.842669)">轨迹优化模型</text>
   </g>
   <g id="text_8">
    <text style="font-size: 10.2px; font-family: 'Source Han Sans CN', 'Noto Sans CJK SC', 'Microsoft YaHei UI', 'Microsoft YaHei', 'PingFang SC', 'Heiti SC', 'SimHei', 'DejaVu Sans', sans-serif; fill: #1f2937" transform="translate(373.059 115.7073)">归档当前环境</text>
    <text style="font-size: 10.2px; font-family: 'Source Han Sans CN', 'Noto Sans CJK SC', 'Microsoft YaHei UI', 'Microsoft YaHei', 'PingFang SC', 'Heiti SC', 'SimHei', 'DejaVu Sans', sans-serif; fill: #1f2937" transform="translate(383.259 128.842669)">精英信息</text>
   </g>
   <g id="text_9">
    <text style="font-size: 10.2px; font-family: 'Source Han Sans CN', 'Noto Sans CJK SC', 'Microsoft YaHei UI', 'Microsoft YaHei', 'PingFang SC', 'Heiti SC', 'SimHei', 'DejaVu Sans', sans-serif; fill: #1f2937" transform="translate(526.788 115.7073)">确定环境变化</text>
    <text style="font-size: 10.2px; font-family: 'Source Han Sans CN', 'Noto Sans CJK SC', 'Microsoft YaHei UI', 'Microsoft YaHei', 'PingFang SC', 'Heiti SC', 'SimHei', 'DejaVu Sans', sans-serif; fill: #1f2937" transform="translate(547.188 128.842669)">信息</text>
   </g>
   <g id="text_10">
    <text style="font-size: 10.2px; font-family: 'Source Han Sans CN', 'Noto Sans CJK SC', 'Microsoft YaHei UI', 'Microsoft YaHei', 'PingFang SC', 'Heiti SC', 'SimHei', 'DejaVu Sans', sans-serif; fill: #1f2937" transform="translate(675.417 115.7073)">确定候选预算与</text>
    <text style="font-size: 10.2px; font-family: 'Source Han Sans CN', 'Noto Sans CJK SC', 'Microsoft YaHei UI', 'Microsoft YaHei', 'PingFang SC', 'Heiti SC', 'SimHei', 'DejaVu Sans', sans-serif; fill: #1f2937" transform="translate(675.417 128.842669)">启发式注入策略</text>
   </g>
   <g id="text_11">
    <text style="font-size: 10.2px; font-family: 'Source Han Sans CN', 'Noto Sans CJK SC', 'Microsoft YaHei UI', 'Microsoft YaHei', 'PingFang SC', 'Heiti SC', 'SimHei', 'DejaVu Sans', sans-serif; text-anchor: middle; fill: #1f2937" x="185.202" y="271.962984" transform="rotate(-0 185.202 271.962984)">生成记忆候选</text>
   </g>
   <g id="text_12">
    <text style="font-size: 10.2px; font-family: 'Source Han Sans CN', 'Noto Sans CJK SC', 'Microsoft YaHei UI', 'Microsoft YaHei', 'PingFang SC', 'Heiti SC', 'SimHei', 'DejaVu Sans', sans-serif; text-anchor: middle; fill: #1f2937" x="395.568" y="271.962984" transform="rotate(-0 395.568 271.962984)">生成预测候选</text>
   </g>
   <g id="text_13">
    <text style="font-size: 10.2px; font-family: 'Source Han Sans CN', 'Noto Sans CJK SC', 'Microsoft YaHei UI', 'Microsoft YaHei', 'PingFang SC', 'Heiti SC', 'SimHei', 'DejaVu Sans', sans-serif; text-anchor: middle; fill: #1f2937" x="605.934" y="271.962984" transform="rotate(-0 605.934 271.962984)">生成迁移候选</text>
   </g>
   <g id="text_14">
    <text style="font-size: 10.2px; font-family: 'Source Han Sans CN', 'Noto Sans CJK SC', 'Microsoft YaHei UI', 'Microsoft YaHei', 'PingFang SC', 'Heiti SC', 'SimHei', 'DejaVu Sans', sans-serif; fill: #1f2937" transform="translate(294.258 390.1353)">构建统一</text>
    <text style="font-size: 10.2px; font-family: 'Source Han Sans CN', 'Noto Sans CJK SC', 'Microsoft YaHei UI', 'Microsoft YaHei', 'PingFang SC', 'Heiti SC', 'SimHei', 'DejaVu Sans', sans-serif; fill: #1f2937" transform="translate(299.358 403.270669)">候选池</text>
   </g>
   <g id="text_15">
    <text style="font-size: 10.2px; font-family: 'Source Han Sans CN', 'Noto Sans CJK SC', 'Microsoft YaHei UI', 'Microsoft YaHei', 'PingFang SC', 'Heiti SC', 'SimHei', 'DejaVu Sans', sans-serif; fill: #1f2937" transform="translate(462.06 390.1353)">执行约束支配</text>
    <text style="font-size: 10.2px; font-family: 'Source Han Sans CN', 'Noto Sans CJK SC', 'Microsoft YaHei UI', 'Microsoft YaHei', 'PingFang SC', 'Heiti SC', 'SimHei', 'DejaVu Sans', sans-serif; fill: #1f2937" transform="translate(472.26 403.270669)">环境选择</text>
   </g>
   <g id="text_16">
    <text style="font-size: 10.2px; font-family: 'Source Han Sans CN', 'Noto Sans CJK SC', 'Microsoft YaHei UI', 'Microsoft YaHei', 'PingFang SC', 'Heiti SC', 'SimHei', 'DejaVu Sans', sans-serif; fill: #1f2937" transform="translate(634.962 390.1353)">确定代表轨迹并</text>
    <text style="font-size: 10.2px; font-family: 'Source Han Sans CN', 'Noto Sans CJK SC', 'Microsoft YaHei UI', 'Microsoft YaHei', 'PingFang SC', 'Heiti SC', 'SimHei', 'DejaVu Sans', sans-serif; fill: #1f2937" transform="translate(634.962 403.270669)">执行滚动重规划</text>
   </g>
   <g id="text_17">
    <text style="font-size: 9.4px; font-family: 'Source Han Sans CN', 'Noto Sans CJK SC', 'Microsoft YaHei UI', 'Microsoft YaHei', 'PingFang SC', 'Heiti SC', 'SimHei', 'DejaVu Sans', sans-serif; fill: #667085" transform="translate(700.310719 188.039741)">记忆 / 预测 /</text>
    <text style="font-size: 9.4px; font-family: 'Source Han Sans CN', 'Noto Sans CJK SC', 'Microsoft YaHei UI', 'Microsoft YaHei', 'PingFang SC', 'Heiti SC', 'SimHei', 'DejaVu Sans', sans-serif; fill: #667085" transform="translate(694.309406 199.393472)">迁移 / 重初始化</text>
    <text style="font-size: 9.4px; font-family: 'Source Han Sans CN', 'Noto Sans CJK SC', 'Microsoft YaHei UI', 'Microsoft YaHei', 'PingFang SC', 'Heiti SC', 'SimHei', 'DejaVu Sans', sans-serif; fill: #667085" transform="translate(684.999 210.747203)">与绕行初值协同调度</text>
   </g>
   <g id="text_18">
    <text style="font-size: 9.4px; font-family: 'Source Han Sans CN', 'Noto Sans CJK SC', 'Microsoft YaHei UI', 'Microsoft YaHei', 'PingFang SC', 'Heiti SC', 'SimHei', 'DejaVu Sans', sans-serif; text-anchor: end; fill: #667085" x="630.207" y="478.7172" transform="rotate(-0 630.207 478.7172)">下一规划周期返回起始步骤</text>
   </g>
   <g id="text_19">
    <text style="font-size: 9.4px; font-family: 'Source Han Sans CN', 'Noto Sans CJK SC', 'Microsoft YaHei UI', 'Microsoft YaHei', 'PingFang SC', 'Heiti SC', 'SimHei', 'DejaVu Sans', sans-serif; text-anchor: start; fill: #667085" x="47.655" y="466.2432" transform="rotate(-0 47.655 466.2432)">核心逻辑：先诊断环境变化，再融合绕行初值与多源候选，最后以约束优先完成筛选并执行局部前段。</text>
   </g>
  </g>
 </g>
 <defs>
  <clipPath id="p134dda4739">
   <rect x="7.2" y="7.2" width="809.1" height="498.96"/>
  </clipPath>
 </defs>
</svg>
